<?xml version="1.0" encoding="UTF-8"?>
<svg version="1.1" xmlns="http://www.w3.org/2000/svg" width="512" height="512">
<path d="M0 0 C0.90054108 -0.00701431 1.80108215 -0.01402863 2.72891235 -0.02125549 C5.61750351 -0.03865402 8.50588962 -0.0451074 11.39453125 -0.046875 C12.38190277 -0.04754974 13.36927429 -0.04822449 14.38656616 -0.04891968 C28.87791389 -0.03317157 42.94723376 0.41971425 57.20703125 3.203125 C58.5525708 3.44458252 58.5525708 3.44458252 59.92529297 3.69091797 C108.61296249 12.50090649 153.63709033 35.94419047 189.20703125 70.203125 C190.19606445 71.15131104 190.19606445 71.15131104 191.20507812 72.11865234 C200.6933343 81.26309979 209.43323565 90.56046509 217.20703125 101.203125 C218.06509277 102.35417517 218.92316576 103.50521677 219.78125 104.65625 C225.81880521 112.84588481 231.20160427 121.34850776 236.20703125 130.203125 C236.60921875 130.91033691 237.01140625 131.61754883 237.42578125 132.34619141 C250.12358722 154.89967725 258.5848494 179.18271683 263.95703125 204.453125 C264.25528809 205.85292603 264.25528809 205.85292603 264.55957031 207.28100586 C267.82402476 223.40869868 268.61224646 239.10461064 268.58203125 255.515625 C268.58181976 256.57560699 268.58160828 257.63558899 268.58139038 258.72769165 C268.54855404 275.2316098 267.6698878 291.01828386 264.20703125 307.203125 C264.03042969 308.09741211 263.85382813 308.99169922 263.671875 309.91308594 C256.11574837 347.98756843 238.96120347 385.24584652 214.20703125 415.203125 C213.77712891 415.72777344 213.34722656 416.25242187 212.90429688 416.79296875 C195.54070978 437.93345289 195.54070978 437.93345289 185.421875 446.35546875 C183.67557848 447.8122558 181.96705148 449.31431859 180.2734375 450.83203125 C144.88668513 482.40426511 99.01920374 503.19688941 52.20703125 510.203125 C51.06580811 510.38496338 49.92458496 510.56680176 48.7487793 510.75415039 C37.89213857 512.32078025 27.14176973 512.54260912 16.18286133 512.51879883 C13.17296522 512.5156547 10.16407134 512.53913612 7.15429688 512.56445312 C-11.0698489 512.62476105 -29.04787486 510.7825067 -46.79296875 506.515625 C-47.86562988 506.26143799 -48.93829102 506.00725098 -50.04345703 505.74536133 C-93.19804161 495.14237066 -132.83125469 472.9868216 -164.79296875 442.203125 C-165.45232422 441.57100098 -166.11167969 440.93887695 -166.79101562 440.28759766 C-176.2792718 431.14315021 -185.01917315 421.84578491 -192.79296875 411.203125 C-193.65103027 410.05207483 -194.50910326 408.90103323 -195.3671875 407.75 C-201.40533704 399.55881886 -206.76392396 391.04508395 -211.79296875 382.203125 C-212.15745117 381.57132324 -212.52193359 380.93952148 -212.89746094 380.28857422 C-227.79582544 354.25917216 -237.43944417 324.84202011 -241.79296875 295.203125 C-241.97029541 293.99849609 -242.14762207 292.79386719 -242.33032227 291.55273438 C-243.92929369 279.8954519 -244.15137847 268.33126434 -244.10546875 256.578125 C-244.10273453 255.12379059 -244.10273453 255.12379059 -244.09994507 253.64007568 C-244.05459612 239.30833241 -243.63592297 225.29416988 -240.79296875 211.203125 C-240.61604492 210.30126465 -240.43912109 209.3994043 -240.25683594 208.47021484 C-238.95795588 201.99712605 -237.44639749 195.59424012 -235.79296875 189.203125 C-235.58333496 188.38312012 -235.37370117 187.56311523 -235.15771484 186.71826172 C-227.781093 158.51219499 -214.6683913 131.91042253 -197.79296875 108.203125 C-197.33841309 107.55923828 -196.88385742 106.91535156 -196.41552734 106.25195312 C-189.48257265 96.50062748 -181.92282615 87.59869207 -173.57519531 79.03222656 C-171.80098042 77.21134738 -170.04315361 75.37558571 -168.28515625 73.5390625 C-161.18089865 66.19644032 -153.764328 59.6270617 -145.56835938 53.52978516 C-143.7795399 52.1930903 -142.01232443 50.83120058 -140.24609375 49.46484375 C-125.9318549 38.52412281 -110.10647707 29.79324859 -93.79296875 22.203125 C-93.09864746 21.87747559 -92.40432617 21.55182617 -91.68896484 21.21630859 C-63.38521729 8.12702196 -31.25429321 0.16397826 0 0 Z " fill="#4CAF50" transform="translate(243.79296875,-0.203125)"/>
<path d="M0 0 C6.11510692 1.39344491 10.41603788 5.86961957 14.71069336 10.21264648 C15.25455688 10.75461166 15.79842041 11.29657684 16.35876465 11.85496521 C18.13951386 13.63203584 19.91300421 15.41615725 21.6862793 17.20068359 C22.92808112 18.44367869 24.17025412 19.68630306 25.41278076 20.92857361 C28.00803643 23.52538895 30.59991102 26.12551591 33.18920898 28.72827148 C36.50856942 32.06466526 39.83451888 35.39439413 43.16278458 38.72190189 C45.72467061 41.2840597 48.28394342 43.84881414 50.84233856 46.41445732 C52.06815471 47.64345481 53.29457672 48.87184831 54.52161407 50.09962654 C56.23300631 51.81318548 57.94106641 53.52999584 59.64819336 55.24780273 C60.1552179 55.75437408 60.66224243 56.26094543 61.18463135 56.78286743 C64.29404031 59.92077931 66.61953086 62.3241593 67.6081543 66.72802734 C65.82131298 76.9617549 51.71587797 86.95494439 44.4206543 94.16552734 C42.07403238 96.4855694 39.73075647 98.80891872 37.3894043 101.13427734 C36.85408081 101.66130249 36.31875732 102.18832764 35.76721191 102.73132324 C31.68328647 106.7877971 30.82081186 108.60152533 30.5925293 114.39990234 C31.43856817 120.24159936 35.31929516 124.759498 38.9206543 129.22802734 C39.4041333 129.83445068 39.8876123 130.44087402 40.38574219 131.06567383 C51.76066021 145.25899259 63.83894319 158.65009627 76.6706543 171.54052734 C77.71600342 172.59288574 77.71600342 172.59288574 78.7824707 173.66650391 C99.89430856 196.38549357 99.89430856 196.38549357 126.1706543 208.97802734 C126.91831055 209.01541016 127.6659668 209.05279297 128.4362793 209.09130859 C134.99402523 207.96741818 139.65644448 202.11855456 144.04174805 197.52880859 C145.40248874 196.13305336 146.76383526 194.73788856 148.12573242 193.34326172 C150.24981696 191.15717449 152.36887348 188.96683895 154.47753906 186.76586914 C156.52708041 184.63155531 158.59515257 182.51669301 160.66674805 180.40380859 C161.6014518 179.41324211 161.6014518 179.41324211 162.55503845 178.40266418 C165.51122252 175.41248419 167.43876561 173.82324175 171.49902344 172.49438477 C178.02802117 172.82095112 182.30898023 177.76135611 186.71069336 182.21264648 C187.25455688 182.75461166 187.79842041 183.29657684 188.35876465 183.85496521 C190.13951386 185.63203584 191.91300421 187.41615725 193.6862793 189.20068359 C194.92808112 190.44367869 196.17025412 191.68630306 197.41278076 192.92857361 C200.00803643 195.52538895 202.59991102 198.12551591 205.18920898 200.72827148 C208.50856942 204.06466526 211.83451888 207.39439413 215.16278458 210.72190189 C217.72467061 213.2840597 220.28394342 215.84881414 222.84233856 218.41445732 C224.06815471 219.64345481 225.29457672 220.87184831 226.52161407 222.09962654 C228.23300631 223.81318548 229.94106641 225.52999584 231.64819336 227.24780273 C232.40873016 228.00765976 232.40873016 228.00765976 233.18463135 228.78286743 C238.68575215 234.33441517 238.68575215 234.33441517 239.4831543 238.85302734 C238.0969944 248.24811111 226.09925612 256.74157791 219.55175781 263.32958984 C218.25688586 264.63601008 216.96649998 265.94689217 215.68066406 267.26220703 C195.72102437 287.67749976 195.72102437 287.67749976 180.6081543 288.22802734 C131.66350695 287.50612989 82.78077056 248.26993511 48.42456055 216.94677734 C46.6946496 215.37069623 44.95153392 213.80903071 43.19799805 212.25927734 C30.70494619 201.09455805 19.30465219 188.80864855 8.9206543 175.66552734 C8.04155093 174.61013229 7.15988507 173.55686819 6.27612305 172.50537109 C-6.94959366 156.61693983 -18.62549334 139.05789906 -28.0793457 120.66552734 C-28.44044434 119.97313965 -28.80154297 119.28075195 -29.17358398 118.56738281 C-34.25736122 108.71440218 -38.35427211 98.6285369 -42.0168457 88.16552734 C-42.39454102 87.09189941 -42.77223633 86.01827148 -43.16137695 84.91210938 C-47.37793019 72.49135925 -51.47984222 57.71280724 -45.53515625 45.21362305 C-39.74170175 35.07337742 -29.22454116 26.49757635 -21.05810547 18.23925781 C-19.60232294 16.76165414 -18.15285237 15.27780752 -16.70947266 13.78808594 C-14.60354048 11.61549082 -12.47878738 9.46302588 -10.34887695 7.31396484 C-9.38773735 6.31107925 -9.38773735 6.31107925 -8.40718079 5.28793335 C-5.60426441 2.49774144 -3.92396539 0.8480718 0 0 Z " fill="#FDFEFD" transform="translate(144.079345703125,128.33447265625)"/>
<path d="M0 0 C0.73774658 0.01804687 1.47549316 0.03609375 2.2355957 0.0546875 C40.21112627 1.63519028 73.55790233 20.26158352 99.1875 47.375 C119.39586825 70.57583229 132.52393719 101.60035018 133 132.5 C133.01853027 133.23927734 133.03706055 133.97855469 133.05615234 134.74023438 C133.01355506 138.33177028 132.57123248 140.4458261 130.6875 143.53125 C128.5 145.5625 128.5 145.5625 125 146.125 C121.03454327 145.48769445 119.89936603 144.7001325 117.5 141.5625 C116.32519263 139.21288527 116.27013288 137.55397732 116.10546875 134.93359375 C114.80055474 116.26169225 111.77584253 100.40309397 103.5 83.5625 C103.0153125 82.56476563 102.530625 81.56703125 102.03125 80.5390625 C87.22932224 51.83976923 61.20273399 32.05333936 30.88037109 22.28955078 C20.14025203 19.00913288 9.68838462 17.01434532 -1.57641602 17.15283203 C-5.55916062 17.10810773 -7.30315102 16.71796154 -10.47265625 14.21484375 C-12.5 11.5625 -12.5 11.5625 -13.125 8.5625 C-11.64850251 1.47531205 -6.5897397 -0.25923809 0 0 Z " fill="#FBFDFB" transform="translate(283.5,95.4375)"/>
<path d="M0 0 C18.65381418 2.67364481 33.62956583 10.90571938 47 24 C47.92232422 24.86818359 47.92232422 24.86818359 48.86328125 25.75390625 C60.52643998 37.73880729 67.18979945 55.6650927 67.5 72.125 C67.52815796 73.20974609 67.52815796 73.20974609 67.55688477 74.31640625 C67.51445609 77.73656124 67.2362392 79.67924419 65.1875 82.4609375 C61.98261921 84.71580006 59.82094829 84.54584976 56 84 C52.71951083 81.66865779 52.06326211 80.35419207 51.34765625 76.34765625 C51.24127722 74.92006972 51.14681403 73.49155946 51.0625 72.0625 C49.59201364 55.59692244 42.01718962 41.31141817 30 30 C18.51071643 20.79033619 4.80990898 16.56917728 -9.671875 15.6171875 C-13.47810547 14.91133725 -14.74089981 14.09787502 -17 11 C-17.5 7.5 -17.5 7.5 -17 4 C-12.51982568 -1.89994787 -6.77967352 -0.59713558 0 0 Z " fill="#FCFDFC" transform="translate(288,157)"/>
<path d="M0 0 C11.9867131 1.56287761 20.67980276 7.46316467 28.19921875 16.703125 C33.70492571 24.42191024 36.80442281 32.87773412 35.35546875 42.4375 C33.85546875 45.5625 33.85546875 45.5625 31.35546875 47.4375 C28.52099201 48.13450248 26.19123526 48.12601944 23.35546875 47.4375 C20.34876733 45.22203579 19.51550249 43.3670293 18.88671875 39.71484375 C18.75265625 38.69519531 18.61859375 37.67554688 18.48046875 36.625 C17.4257779 29.10338897 14.30868111 25.16922143 8.85546875 20.125 C4.24443975 17.9018253 -0.3611762 17.21655352 -5.40234375 16.44140625 C-9.31516134 15.22984707 -10.51752483 13.88221284 -12.64453125 10.4375 C-13.14453125 7.375 -13.14453125 7.375 -12.64453125 4.4375 C-8.87855206 -0.34607633 -5.78416546 -0.22544859 0 0 Z " fill="#FBFDFB" transform="translate(271.64453125,206.5625)"/>
</svg>
