<?xml version="1.0" encoding="UTF-8"?>
<svg version="1.1" xmlns="http://www.w3.org/2000/svg" width="1024" height="1536">
<path d="M0 0 C337.92 0 675.84 0 1024 0 C1024 506.88 1024 1013.76 1024 1536 C686.08 1536 348.16 1536 0 1536 C0 1029.12 0 522.24 0 0 Z " fill="#FBFBFB" transform="translate(0,0)"/>
<path d="M0 0 C1.37433706 -0.0034338 2.74867136 -0.00818079 4.12299988 -0.01412097 C7.91103721 -0.02666071 11.69885009 -0.0204672 15.48688858 -0.01128729 C19.60365449 -0.0045928 23.72038108 -0.01523589 27.83713871 -0.02368313 C35.05611129 -0.03607494 42.2750189 -0.03725166 49.49399853 -0.0311327 C60.22875718 -0.02205792 70.96345554 -0.03006053 81.69820955 -0.04142394 C100.86857621 -0.06111514 120.03891586 -0.06343358 139.20929022 -0.05822874 C155.9859848 -0.0536759 172.76266867 -0.05426532 189.53936291 -0.06006908 C191.78762662 -0.06082594 194.03589033 -0.06158192 196.28415405 -0.06233703 C199.67186099 -0.06348219 203.05956794 -0.06463207 206.44727488 -0.06579627 C237.95325661 -0.07650518 269.45923477 -0.08122249 300.96521759 -0.07332611 C302.15348175 -0.07302894 303.34174592 -0.07273176 304.56601809 -0.07242559 C314.21627196 -0.06997652 323.86652579 -0.067365 333.51677962 -0.06474145 C371.16567602 -0.05463756 408.81452783 -0.06299555 446.46341801 -0.086236 C488.73977057 -0.11229058 531.01609627 -0.1251614 573.29245716 -0.11804825 C577.79759029 -0.11733216 582.30272342 -0.11665778 586.80785656 -0.1160078 C587.91717543 -0.115838 589.02649431 -0.11566819 590.1694289 -0.11549323 C606.936787 -0.11318737 623.70412022 -0.12118089 640.47147274 -0.13429928 C659.53347823 -0.14918614 678.5954253 -0.15008644 697.65742951 -0.13222837 C708.33171349 -0.12264072 719.00586134 -0.12415034 729.68013633 -0.14146306 C736.80404204 -0.15191393 743.92784353 -0.14790686 751.0517389 -0.13198302 C755.11481413 -0.12331009 759.17762165 -0.12102621 763.24068361 -0.13625234 C766.93564766 -0.14996885 770.63011331 -0.14534152 774.32504788 -0.12596715 C776.2827664 -0.12045832 778.24050998 -0.13460121 780.19817957 -0.14949849 C787.76163633 -0.0861606 792.48118717 0.52703945 798.22289917 5.72137896 C801.74784862 9.44583327 802.33818277 12.39297031 802.74051762 17.38031673 C802.63190452 20.82417825 802.30163175 24.2343413 801.95536137 27.66156673 C801.85959812 28.67572659 801.76383488 29.68988644 801.66516972 30.7347784 C801.34386677 34.11741531 801.0108825 37.49879952 800.67801762 40.88031673 C800.44377173 43.32246343 800.21031038 45.76468548 799.97757816 48.20697689 C799.485229 53.36056041 798.98823211 58.51366533 798.48758793 63.66644955 C797.78740028 70.87993725 797.10127784 78.09468975 796.42020512 85.31000423 C792.88057456 122.7607376 789.26238382 160.20406548 785.65705395 197.64851761 C785.24249332 201.95416359 784.82804713 206.25982058 784.41362858 210.56548023 C784.21012227 212.67962675 784.00657022 214.79376887 783.80297184 216.90790653 C782.73860745 227.96125299 781.67814448 239.01493861 780.63187504 250.070014 C779.02311515 267.06425928 777.40858215 284.05529557 775.58817387 301.02847958 C773.55171926 320.05594848 771.70330036 339.09790289 769.93030643 358.15152645 C768.22874984 376.42128509 766.42014386 394.67795109 764.52762699 412.92890072 C762.94200373 428.23702393 761.45190495 443.55375591 759.98127079 458.87329006 C759.62847212 462.54707626 759.27512673 466.22080985 758.92182255 469.89454746 C757.98651229 479.62022207 757.05181232 489.34595527 756.11747074 499.07172298 C755.95546429 500.75807071 755.95546429 500.75807071 755.79018497 502.47848606 C755.24331676 508.17117458 754.69655407 513.8638732 754.14994144 519.55658627 C752.03255303 541.6069827 749.91513255 563.6573856 747.77031612 585.70513439 C747.60279731 587.42770394 747.43550665 589.15029569 747.26847363 590.87291241 C746.33789356 600.4655223 745.36579922 610.05124618 744.30301762 619.63031673 C742.88042697 632.63896381 741.65011246 645.66404687 740.42801762 658.69281673 C740.32205265 659.82235775 740.21608768 660.95189877 740.10691166 662.1156683 C739.66260575 666.85448748 739.21876118 671.59334967 738.77533817 676.33225155 C735.27417482 713.74488725 731.6917604 751.14968301 728.02509403 788.54645443 C727.67098762 792.15885422 727.31848738 795.77140495 726.96741581 799.38410091 C726.5520051 803.657482 726.13296509 807.93049272 725.71126461 812.20325756 C725.55658323 813.77618295 725.40308974 815.34922572 725.25092602 816.92239666 C722.49761678 845.35507728 722.49761678 845.35507728 717.80619144 849.97870541 C709.52587217 855.59710902 698.3749226 857.80856167 688.86551762 860.56781673 C686.1844323 861.35740382 683.50516677 862.15302971 680.82645512 862.95062923 C679.80811588 863.2536974 679.80811588 863.2536974 678.76920414 863.56288815 C671.97829511 865.59281468 665.23137042 867.75268734 658.49051762 869.94281673 C657.2590601 870.34258724 656.02760258 870.74235775 654.75882816 871.15424252 C652.74425867 871.80845018 650.72974395 872.46282483 648.71535587 873.1175909 C638.04430283 876.58433274 627.3620908 880.01644508 616.67801762 883.44281673 C615.5923148 883.79110531 614.50661198 884.13939388 613.38800907 884.49823666 C599.41657122 888.97593901 585.42250703 893.3411949 571.3528223 897.49945736 C562.79789831 900.03516145 554.33559409 902.78818794 545.88504887 905.64984798 C521.90457147 913.76028086 497.65664387 921.1758263 473.46317387 928.62641048 C456.83099181 933.74868284 440.27088429 939.07015719 423.73113346 944.48248959 C421.33701982 945.26358867 418.94068144 946.0375815 416.54422855 946.81146908 C413.25838068 947.8752491 409.98977356 948.98010441 406.72586918 950.10932064 C405.07716177 950.66466154 403.42840051 951.21984262 401.77958012 951.77484798 C401.04871189 952.03666363 400.31784367 952.29847927 399.56482792 952.56822872 C389.36191749 955.94920213 379.95746442 954.72203277 369.96708012 951.30219173 C368.48369648 950.81870266 368.48369648 950.81870266 366.9703455 950.32544613 C363.76322096 949.27639693 360.56467962 948.20337495 357.36551762 947.13031673 C355.1109336 946.38883239 352.85571615 945.6492715 350.59989262 944.91156673 C346.07578404 943.4308081 341.55423123 941.94262734 337.03446293 940.44867611 C329.36625297 937.92042821 321.6695069 935.48748157 313.96381474 933.07639217 C310.19110239 931.89522193 306.42073221 930.70664558 302.65067387 929.51703548 C301.49359173 929.15194126 301.49359173 929.15194126 300.31313419 928.7794714 C288.16280747 924.93985575 276.03351502 921.03389709 263.90012455 917.14118099 C251.74059011 913.24111258 239.57439535 909.3731716 227.36551762 905.63031673 C216.88566884 902.41105107 206.48814512 898.97263974 196.10013676 895.47141171 C181.00778907 890.39427689 165.84081683 885.55543713 150.66629696 880.73113251 C145.38295516 879.0513719 140.10116848 877.36679353 134.82010746 875.67987728 C131.83533087 874.72688742 128.85045773 873.77420051 125.86551762 872.82172298 C125.13219841 872.58769709 124.3988792 872.35367119 123.6433382 872.1125536 C115.00641433 869.35765457 106.36169378 866.63217991 97.69928837 863.95833492 C93.39918408 862.62804945 89.10518151 861.27881434 84.81223392 859.92563534 C82.8720457 859.31967564 80.92891578 858.72304325 78.98276615 858.1365118 C60.27262805 852.49369667 60.27262805 852.49369667 55.74051762 844.38031673 C54.49575458 841.89079065 54.39053219 839.85725965 54.11568546 837.08057308 C54.00229328 835.95475826 53.8889011 834.82894344 53.77207279 833.66901302 C53.59052647 831.80569332 53.59052647 831.80569332 53.40531254 829.9047308 C53.27504169 828.59997799 53.14477085 827.29522518 53.01055241 825.95093441 C52.651478 822.35391598 52.29728034 818.75643148 51.94384265 815.15885544 C51.5696561 811.35931318 51.19078727 807.56023801 50.81237125 803.76111507 C50.09160499 796.51814848 49.37469464 789.27480592 48.65930969 782.03130603 C47.31755037 768.4470478 45.96812508 754.86354871 44.61870861 741.28004932 C44.31208183 738.19321052 44.00575593 735.10634207 43.69968319 732.01944828 C41.82144625 713.07877503 39.92429513 694.14071047 37.8791132 675.21716976 C37.08088615 667.79840426 36.36946791 660.38289479 35.80301762 652.94281673 C34.70532941 638.86676384 33.12225103 624.83876809 31.59232426 610.804389 C30.46652452 600.4419621 29.4197044 590.07903011 28.49906254 579.69632626 C27.53501514 568.91170673 26.38324589 558.14720281 25.24051762 547.38031673 C24.0339945 536.01235006 22.83181907 524.64664402 21.82254887 513.25922298 C20.94383416 503.36379376 19.96559747 493.47946672 18.97098637 483.59516048 C18.89025883 482.79255543 18.80953129 481.98995037 18.72635746 481.16302395 C18.30372337 476.96287604 17.88040265 472.76279763 17.45676517 468.56275082 C14.93440538 443.5504412 12.43578423 418.53731086 10.11551762 393.50531673 C8.30744589 374.00301929 6.32841952 354.52173464 4.28934574 335.04230404 C2.45939536 317.54688691 0.73619485 300.04610188 -0.86128902 282.52802181 C-1.92955788 270.82599701 -3.0726291 259.13337896 -4.25948238 247.44281673 C-5.63629527 233.8665034 -6.91912698 220.28449753 -8.13448238 206.69281673 C-10.21277974 183.48477185 -12.50996849 160.29939079 -14.80539608 137.11198139 C-16.48340643 120.1581544 -18.13240255 103.20151166 -19.77974224 86.24468136 C-20.00632538 83.91280697 -20.23305189 81.58094656 -20.45983028 79.24909115 C-21.15379763 72.11281462 -21.84677982 64.97644621 -22.53682613 57.83978939 C-22.98309114 53.22445047 -23.43319988 48.60952966 -23.88838863 43.99506283 C-24.06941797 42.14171385 -24.25041083 40.2883613 -24.43135738 38.43500423 C-24.51013119 37.64847469 -24.58890499 36.86194515 -24.67006588 36.05158138 C-25.22025637 30.37601339 -25.53206571 24.702504 -25.75948238 19.00531673 C-25.79269588 18.20096188 -25.82590939 17.39660702 -25.86012936 16.56787777 C-25.99726824 11.42298693 -24.54897854 8.69336436 -21.14034176 4.90131283 C-14.52519332 -0.44816469 -8.15589441 -0.04325103 0 0 Z " fill="#0F6DCD" transform="translate(125.25948238372803,290.61968326568604)"/>
<path d="M0 0 C0.00996656 2.23054098 0.01705972 4.46109492 0.02294922 6.69165039 C0.02933914 8.5548568 0.02933914 8.5548568 0.03585815 10.45570374 C-0.00838739 14.82902721 -0.3665755 19.09816682 -0.875 23.4375 C-1.06388259 25.18474692 -1.25133012 26.93214945 -1.4375 28.6796875 C-1.53289063 29.56495117 -1.62828125 30.45021484 -1.7265625 31.36230469 C-2.16493693 35.59105229 -2.51887734 39.82616493 -2.875 44.0625 C-3.76590245 54.49628513 -4.71571029 64.92440644 -5.68096924 75.35153198 C-5.8473556 77.15040882 -6.01320069 78.94933583 -6.17840576 80.74832153 C-7.31155018 93.07772032 -8.54752962 105.39437405 -9.83166504 117.7089386 C-11.257012 131.40457881 -12.59847198 145.10819661 -13.9375 158.8125 C-14.46552601 164.21360242 -14.994149 169.61464615 -15.5234375 175.015625 C-15.71629082 176.98384972 -15.71629082 176.98384972 -15.91304016 178.99183655 C-16.6251517 186.24120942 -17.35075542 193.48891044 -18.1015625 200.734375 C-19.62001648 215.43431171 -21.0327044 230.13476305 -22.25 244.86328125 C-22.30426085 245.51968409 -22.35852169 246.17608692 -22.4144268 246.85238075 C-23.00787453 254.04014175 -23.59143905 261.22862111 -24.16235352 268.41821289 C-25.18512984 281.15959064 -26.37523022 293.85544151 -27.88945007 306.548172 C-29.09614855 316.66916989 -30.10516009 326.80438087 -31.0769043 336.95028687 C-31.60609092 342.47516204 -32.14277316 347.99930872 -32.6796875 353.5234375 C-32.78919739 354.65120102 -32.89870728 355.77896454 -33.01153564 356.94090271 C-33.73593395 364.37205869 -34.48611899 371.80017584 -35.2578125 379.2265625 C-35.36044403 380.21485046 -35.46307556 381.20313843 -35.56881714 382.22137451 C-35.7757061 384.21285098 -35.98260509 386.2043264 -36.18951416 388.19580078 C-38.24352171 407.98727595 -40.07738029 427.7915842 -41.81048584 447.61361694 C-43.44270563 466.24247777 -45.27668006 484.84212245 -47.25683594 503.43701172 C-47.46039806 505.34992302 -47.66385062 507.26284599 -47.8671875 509.17578125 C-47.96499512 510.09591003 -48.06280273 511.01603882 -48.16357422 511.96405029 C-49.2416041 522.17637689 -50.19153006 532.40023447 -51.10009766 542.62890625 C-51.20628418 543.80710937 -51.3124707 544.9853125 -51.421875 546.19921875 C-51.51049805 547.20815186 -51.59912109 548.21708496 -51.69042969 549.2565918 C-52 552 -52 552 -52.49139404 554.370224 C-52.97489337 556.87018475 -53.25179013 559.28275971 -53.44726562 561.81982422 C-53.55838684 563.21758591 -53.55838684 563.21758591 -53.67175293 564.64358521 C-53.74913696 565.64549896 -53.826521 566.64741272 -53.90625 567.6796875 C-54.60976856 576.44200279 -55.37292064 585.19556409 -56.21875 593.9453125 C-56.3233252 595.02713806 -56.42790039 596.10896362 -56.53564453 597.22357178 C-56.85591826 600.52416369 -57.17780715 603.82459492 -57.5 607.125 C-57.92798608 611.52335018 -58.35491192 615.92180229 -58.78125 620.3203125 C-58.88589569 621.39770691 -58.99054138 622.47510132 -59.09835815 623.58514404 C-59.75305004 630.35386618 -60.37396613 637.12490698 -60.9765625 643.8984375 C-62.01917417 655.55152285 -63.25614698 667.18300212 -64.48638916 678.81750488 C-66.54041404 698.28154398 -68.48527065 717.74651653 -70.125 737.25 C-71.3430196 751.72397787 -72.66903498 766.17919436 -74.1875 780.625 C-74.27235657 781.44053345 -74.35721313 782.25606689 -74.44464111 783.09631348 C-74.68213026 785.36929929 -74.92402406 787.64176143 -75.16796875 789.9140625 C-75.30485107 791.1923291 -75.4417334 792.4705957 -75.58276367 793.78759766 C-76.28147092 799.16711197 -76.28147092 799.16711197 -77 801 C-79.53451617 802.14178699 -81.85055027 802.97046672 -84.5 803.75 C-85.28810059 803.9967749 -86.07620117 804.2435498 -86.88818359 804.49780273 C-88.6353898 805.04445505 -90.38471354 805.5843706 -92.13574219 806.11865234 C-96.23410708 807.37974144 -100.31181628 808.70302565 -104.39233398 810.02050781 C-116.79781122 814.01919196 -129.22630688 817.94714813 -141.69921875 821.73046875 C-153.62238097 825.35624191 -165.49488804 829.10707014 -177.3125 833.0625 C-178.26662277 833.38176956 -178.26662277 833.38176956 -179.24002075 833.70748901 C-185.44087889 835.78431586 -191.6368362 837.87530094 -197.828125 839.98046875 C-206.2115397 842.82047038 -214.59640545 845.50289375 -223.125 847.875 C-232.26239595 850.41716265 -241.23267043 853.36109737 -250.21508789 856.40185547 C-259.12420063 859.40627243 -268.07929078 862.22819115 -277.0625 865 C-288.28864074 868.46630353 -299.42622164 872.12438783 -310.50415039 876.04492188 C-315.72948387 877.89154291 -320.9577824 879.62229698 -326.27490234 881.18432617 C-331.42024737 882.72442631 -336.52523492 884.39302379 -341.63562012 886.04476929 C-343.66314279 886.69982321 -345.69141338 887.35252539 -347.71972656 888.00512695 C-354.24986201 890.11050981 -360.76616817 892.24674158 -367.2578125 894.46875 C-368.90982666 895.03203003 -368.90982666 895.03203003 -370.59521484 895.60668945 C-372.65816843 896.31344503 -374.71853073 897.02782204 -376.77587891 897.75073242 C-377.69030762 898.06373291 -378.60473633 898.3767334 -379.546875 898.69921875 C-380.33932617 898.97596436 -381.13177734 899.25270996 -381.94824219 899.5378418 C-384 900 -384 900 -387 899 C-386.505 824.75 -386.505 824.75 -386 749 C-393.59 748.34 -401.18 747.68 -409 747 C-413.50890152 746.12313075 -417.73466348 745.22417405 -422.125 744 C-423.26710938 743.69658691 -424.40921875 743.39317383 -425.5859375 743.08056641 C-428.06881598 742.41857553 -430.54957566 741.74859432 -433.02832031 741.07128906 C-436.50639237 740.12513354 -439.99584573 739.22961654 -443.48991394 738.34460449 C-464.02723246 733.13642789 -483.87618337 726.78731856 -503.69821167 719.31253052 C-509.86537515 717.00550231 -516.10254157 714.92726054 -522.36772156 712.90313721 C-527.89816716 711.10183284 -527.89816716 711.10183284 -529 710 C-529.30508103 707.23830335 -529.54929924 704.49305096 -529.75610352 701.72338867 C-529.82452454 700.85494324 -529.89294556 699.9864978 -529.96343994 699.09173584 C-530.18990224 696.20082018 -530.40959446 693.30943504 -530.62890625 690.41796875 C-530.78415001 688.40788226 -530.93966622 686.3978168 -531.09544373 684.38777161 C-531.42200719 680.16018639 -531.74523268 675.93236224 -532.06616211 671.7043457 C-532.47574203 666.31191389 -532.89345916 660.92015054 -533.31375217 655.52854443 C-533.63709885 651.3686698 -533.9560221 647.20846476 -534.27366447 643.04815102 C-534.42580744 641.06233695 -534.57929279 639.07662523 -534.7341938 637.0910244 C-535.51501044 627.05121035 -536.28123237 617.08006322 -536 607 C-529.16693724 608.40969132 -522.6057762 610.28030095 -515.96875 612.421875 C-514.91574707 612.75859726 -513.86274414 613.09531952 -512.77783203 613.44224548 C-509.35040721 614.54027679 -505.92512749 615.64482529 -502.5 616.75 C-500.74006714 617.31541 -500.74006714 617.31541 -498.94458008 617.89224243 C-482.21414848 623.26815471 -465.5575607 628.83082991 -448.94833374 634.56906128 C-408.23129758 648.99723421 -408.23129758 648.99723421 -366.94140625 641.5625 C-353.43534336 634.40514693 -343.30102343 623.02861135 -338.61083984 608.43994141 C-337.59298193 604.37420521 -337.51088704 600.42414739 -337.5625 596.25 C-337.57494751 594.94011108 -337.57494751 594.94011108 -337.58764648 593.60375977 C-337.92589783 580.55399894 -342.2078083 569.38556161 -351.1015625 559.71484375 C-362.83524179 548.62382181 -376.79206341 545.81954553 -392.4453125 545.88647461 C-393.35356277 545.88632858 -394.26181305 545.88618256 -395.19758606 545.8860321 C-398.17341575 545.88672388 -401.14918136 545.89448162 -404.125 545.90234375 C-406.19864874 545.90421054 -408.27229792 545.90563321 -410.34594727 545.90663147 C-415.78417189 545.91043607 -421.22236949 545.92024867 -426.6605835 545.93133545 C-432.21772903 545.94159392 -437.77487896 545.94613857 -443.33203125 545.95117188 C-454.22136599 545.96187289 -465.11068074 545.97892445 -476 546 C-476.7242149 542.63619476 -477.20679003 539.35426775 -477.48071289 535.92529297 C-477.56072037 534.94011688 -477.64072784 533.9549408 -477.72315979 532.93991089 C-477.80549362 531.88466217 -477.88782745 530.82941345 -477.97265625 529.7421875 C-478.06002548 528.64335236 -478.14739471 527.54451721 -478.2374115 526.41238403 C-478.4212812 524.08754337 -478.60358085 521.76257807 -478.78442383 519.4375 C-479.05989247 515.90840571 -479.34311036 512.37999189 -479.62695312 508.8515625 C-479.8051613 506.58597472 -479.9829102 504.32035076 -480.16015625 502.0546875 C-480.24451431 501.01158417 -480.32887238 499.96848083 -480.41578674 498.89376831 C-481.8611001 480.01123178 -481.8611001 480.01123178 -479.05078125 476.7109375 C-478.14714844 476.27007813 -477.24351562 475.82921875 -476.3125 475.375 C-475.30703125 474.83488281 -474.3015625 474.29476563 -473.265625 473.73828125 C-472.18796875 473.16464844 -471.1103125 472.59101562 -470 472 C-467.83431805 470.55004952 -465.68865736 469.06981204 -463.5625 467.5625 C-459.6923637 464.84670528 -455.7929082 462.18776367 -451.85546875 459.5703125 C-446.40174362 455.94362955 -440.97125955 452.28368551 -435.546875 448.61328125 C-418.23505358 436.9038724 -400.91627471 425.20933792 -383.4375 413.75 C-382.75578735 413.3026651 -382.07407471 412.8553302 -381.3717041 412.3944397 C-370.3990983 405.19954915 -370.3990983 405.19954915 -368 404 C-429.71 404 -491.42 404 -555 404 C-556.21768723 395.47618937 -557.37839095 387.05156594 -558.18359375 378.49609375 C-558.28376801 377.46124847 -558.38394226 376.4264032 -558.4871521 375.36019897 C-558.80682315 372.05290342 -559.12224322 368.74521895 -559.4375 365.4375 C-559.87615518 360.87746387 -560.31683505 356.31762457 -560.7578125 351.7578125 C-560.86489029 350.64777359 -560.97196808 349.53773468 -561.08229065 348.39405823 C-561.6925076 342.09049923 -562.3225232 335.78970964 -562.9921875 329.4921875 C-563.06440018 328.81118484 -563.13661285 328.13018219 -563.21101379 327.42854309 C-563.53044367 324.42685307 -563.8552796 321.42586719 -564.18725586 318.42553711 C-564.29690674 317.40468018 -564.40655762 316.38382324 -564.51953125 315.33203125 C-564.61339111 314.48358643 -564.70725098 313.6351416 -564.80395508 312.76098633 C-565.05805362 309.18240551 -565 305.58759065 -565 302 C-500.65 301.67 -436.3 301.34 -370 301 C-375.28 300.67 -380.56 300.34 -386 300 C-386 279.21 -386 258.42 -386 237 C-381.71 236.67 -377.42 236.34 -373 236 C-374.35351562 235.96261719 -375.70703125 235.92523437 -377.1015625 235.88671875 C-399.62620933 235.1325823 -421.92965787 230.93231932 -439 215 C-434.41966566 206.15521644 -428.70461759 198.14231758 -423 190 C-419.14004715 190.8666049 -416.06497603 192.45590942 -412.5625 194.3125 C-402.56309721 199.37784157 -393.47396435 202.3250611 -382.1875 202.4375 C-381.39899658 202.44773193 -380.61049316 202.45796387 -379.7980957 202.46850586 C-372.13008412 202.35299699 -365.71846571 200.37189203 -360 195 C-358.1249119 191.24982379 -358.48944362 187.08445102 -359 183 C-364.00738657 173.35614439 -378.51107604 170.34585418 -388.171875 167.25976562 C-390.08524314 166.65902862 -391.99980633 166.0625598 -393.91601562 165.47094727 C-408.30103875 161.00225967 -422.84485819 155.44942679 -430.84765625 141.86328125 C-436.47308066 130.83851333 -438.07592274 119.59227216 -435.12890625 107.39453125 C-432.52265068 100.78916878 -428.78355571 95.22318227 -424 90 C-423.52433594 89.47019531 -423.04867187 88.94039063 -422.55859375 88.39453125 C-409.82651499 75.99488274 -391.43335865 72.71573921 -374.375 72.8125 C-372.27125 72.874375 -370.1675 72.93625 -368 73 C-373.94 72.67 -379.88 72.34 -386 72 C-386 48.57 -386 25.14 -386 1 C-345.77966799 0.87161617 -305.55933395 0.74395724 -265.33899485 0.61781773 C-260.55200566 0.60280384 -255.76501649 0.58778149 -250.97802734 0.57275391 C-250.0253314 0.56976329 -249.07263546 0.56677268 -248.09106995 0.56369144 C-232.82021861 0.5157346 -217.5493695 0.46709822 -202.27852117 0.41819459 C-186.5190711 0.367742 -170.75961873 0.31805693 -155.00016415 0.26903296 C-146.18635524 0.2415946 -137.37254761 0.2138385 -128.55874252 0.18519592 C-85.70565697 0.04613222 -42.8533304 -0.03435558 0 0 Z " fill="#1776D7" transform="translate(898,318)"/>
<path d="M0 0 C0.90293777 0.00042423 1.80587554 0.00084846 2.73617506 0.00128555 C25.26162822 0.01205437 47.78706525 0.03153775 70.3125 0.0625 C70.32248264 1.6472852 70.32956692 3.23208881 70.33544922 4.81689453 C70.34183914 6.14069626 70.34183914 6.14069626 70.34835815 7.49124146 C70.29922758 11.01421734 69.8870988 14.44446314 69.4375 17.9375 C68.45340405 26.00532948 67.85389427 34.07896378 67.3125 42.1875 C66.7314043 50.80443278 66.05849236 59.32112192 64.765625 67.86328125 C64.30855365 71.32882417 64.25753961 74.73629855 64.234375 78.23046875 C63.92952088 96.00841474 63.92952088 96.00841474 59.9140625 100.32421875 C56.89761896 102.47516941 53.95933102 104.17312685 50.65478516 105.81835938 C45.99673629 108.29255335 41.72905072 111.4089517 37.375 114.375 C35.29451284 115.75883465 33.21241747 117.14025384 31.12890625 118.51953125 C23.65763818 123.48610801 16.23457866 128.52283246 8.8125 133.5625 C-3.62738404 142.00686147 -16.11017609 150.38310772 -28.63574219 158.69995117 C-30.32085054 159.8190123 -32.00439409 160.94042939 -33.6875 162.0625 C-33.13513672 162.12719482 -32.58277344 162.19188965 -32.01367188 162.25854492 C-10.10656024 164.90164611 12.3381481 170.00227714 29.3125 185.0625 C29.89773438 185.50722656 30.48296875 185.95195313 31.0859375 186.41015625 C45.66165903 197.72117997 54.94557533 217.48832212 57.84538269 235.34368896 C59.43881996 248.02935057 57.87476495 260.88953834 56.66796875 273.546875 C56.49516253 275.41451284 56.32300234 277.28221055 56.15144348 279.14996338 C55.69987322 284.04915227 55.24037288 288.94756327 54.77886963 293.8458252 C54.051415 301.58464328 53.33751126 309.32473307 52.62049294 317.0645237 C52.35598902 319.91626573 52.09048989 322.76791387 51.82487488 325.61955261 C50.58552158 338.95129517 49.41790848 352.28808323 48.28842163 365.62953186 C47.46547721 375.34335404 46.59032666 385.04925828 45.625 394.75 C45.49394322 396.083965 45.36308589 397.4179496 45.23242188 398.75195312 C44.92769399 401.85566302 44.6211451 404.95917771 44.3125 408.0625 C43.77399414 408.2169458 43.23548828 408.3713916 42.68066406 408.53051758 C32.2545891 411.52871742 21.84592205 414.57676536 11.4765625 417.765625 C10.71114136 418.00081345 9.94572021 418.23600189 9.15710449 418.47831726 C5.38078374 419.63964107 1.60594837 420.8055262 -2.16699219 421.9777832 C-13.93386103 425.61710058 -25.78757477 428.88802267 -37.6875 432.0625 C-38.7034021 432.33377716 -39.7193042 432.60505432 -40.76599121 432.884552 C-47.17167313 434.59200871 -53.58172728 436.28214257 -59.99536133 437.95947266 C-62.18195605 438.5325701 -64.36782078 439.10845935 -66.55297852 439.68701172 C-82.0335327 443.7847042 -96.6317279 447.46609487 -112.75 447.3125 C-113.80364746 447.30500732 -114.85729492 447.29751465 -115.94287109 447.28979492 C-123.06557539 447.19088382 -129.7407285 446.69703447 -136.6875 445.0625 C-138.24961466 444.72736547 -139.81215986 444.39423493 -141.375 444.0625 C-151.675616 441.83613388 -161.88319908 439.28795456 -172.0625 436.5625 C-173.08230957 436.29026611 -174.10211914 436.01803223 -175.15283203 435.73754883 C-190.65826351 431.52263631 -205.79595275 426.35331526 -220.9375 421 C-224.40055309 419.77855793 -227.8642391 418.55892174 -231.328125 417.33984375 C-232.14696167 417.0510434 -232.96579834 416.76224304 -233.80944824 416.46469116 C-239.40256146 414.4971997 -245.01443197 412.60606486 -250.65917969 410.79125977 C-252.6875 410.0625 -252.6875 410.0625 -253.6875 409.0625 C-253.99258103 406.30080335 -254.23679924 403.55555096 -254.44360352 400.78588867 C-254.51202454 399.91744324 -254.58044556 399.0489978 -254.65093994 398.15423584 C-254.87740224 395.26332018 -255.09709446 392.37193504 -255.31640625 389.48046875 C-255.47165001 387.47038226 -255.62716622 385.4603168 -255.78294373 383.45027161 C-256.10950719 379.22268639 -256.43273268 374.99486224 -256.75366211 370.7668457 C-257.16324203 365.37441389 -257.58095916 359.98265054 -258.00125217 354.59104443 C-258.32459885 350.4311698 -258.6435221 346.27096476 -258.96116447 342.11065102 C-259.11330744 340.12483695 -259.26679279 338.13912523 -259.4216938 336.1535244 C-260.20251044 326.11371035 -260.96873237 316.14256322 -260.6875 306.0625 C-253.85443724 307.47219132 -247.2932762 309.34280095 -240.65625 311.484375 C-239.60324707 311.82109726 -238.55024414 312.15781952 -237.46533203 312.50474548 C-234.03790721 313.60277679 -230.61262749 314.70732529 -227.1875 315.8125 C-225.42756714 316.37791 -225.42756714 316.37791 -223.63208008 316.95474243 C-206.90164848 322.33065471 -190.2450607 327.89332991 -173.63583374 333.63156128 C-132.91879758 348.05973421 -132.91879758 348.05973421 -91.62890625 340.625 C-78.12284336 333.46764693 -67.98852343 322.09111135 -63.29833984 307.50244141 C-62.28048193 303.43670521 -62.19838704 299.48664739 -62.25 295.3125 C-62.25829834 294.43924072 -62.26659668 293.56598145 -62.27514648 292.66625977 C-62.61339783 279.61649894 -66.8953083 268.44806161 -75.7890625 258.77734375 C-87.52274179 247.68632181 -101.47956341 244.88204553 -117.1328125 244.94897461 C-118.04106277 244.94882858 -118.94931305 244.94868256 -119.88508606 244.9485321 C-122.86091575 244.94922388 -125.83668136 244.95698162 -128.8125 244.96484375 C-130.88614874 244.96671054 -132.95979792 244.96813321 -135.03344727 244.96913147 C-140.47167189 244.97293607 -145.90986949 244.98274867 -151.3480835 244.99383545 C-156.90522903 245.00409392 -162.46237896 245.00863857 -168.01953125 245.01367188 C-178.90886599 245.02437289 -189.79818074 245.04142445 -200.6875 245.0625 C-201.4117149 241.69869476 -201.89429003 238.41676775 -202.16821289 234.98779297 C-202.24822037 234.00261688 -202.32822784 233.0174408 -202.41065979 232.00241089 C-202.49299362 230.94716217 -202.57532745 229.89191345 -202.66015625 228.8046875 C-202.74752548 227.70585236 -202.83489471 226.60701721 -202.9249115 225.47488403 C-203.1087812 223.15004337 -203.29108085 220.82507807 -203.47192383 218.5 C-203.74739247 214.97090571 -204.03061036 211.44249189 -204.31445312 207.9140625 C-204.4926613 205.64847472 -204.6704102 203.38285076 -204.84765625 201.1171875 C-204.93201431 200.07408417 -205.01637238 199.03098083 -205.10328674 197.95626831 C-206.5486001 179.07373178 -206.5486001 179.07373178 -203.73828125 175.7734375 C-202.83464844 175.33257813 -201.93101562 174.89171875 -201 174.4375 C-199.99453125 173.89738281 -198.9890625 173.35726562 -197.953125 172.80078125 C-196.87546875 172.22714844 -195.7978125 171.65351562 -194.6875 171.0625 C-192.52181805 169.61254952 -190.37615736 168.13231204 -188.25 166.625 C-184.3798637 163.90920528 -180.4804082 161.25026367 -176.54296875 158.6328125 C-171.08924362 155.00612955 -165.65875955 151.34618551 -160.234375 147.67578125 C-142.92255358 135.9663724 -125.60377471 124.27183792 -108.125 112.8125 C-107.44328735 112.3651651 -106.76157471 111.9178302 -106.0592041 111.4569397 C-95.0865983 104.26204915 -95.0865983 104.26204915 -92.6875 103.0625 C-154.3975 103.0625 -216.1075 103.0625 -279.6875 103.0625 C-280.90518723 94.53868937 -282.06589095 86.11406594 -282.87109375 77.55859375 C-282.97126801 76.52374847 -283.07144226 75.4889032 -283.1746521 74.42269897 C-283.49432315 71.11540342 -283.80974322 67.80771895 -284.125 64.5 C-284.56365518 59.93996387 -285.00433505 55.38012457 -285.4453125 50.8203125 C-285.55239029 49.71027359 -285.65946808 48.60023468 -285.76979065 47.45655823 C-286.3800076 41.15299923 -287.0100232 34.85220964 -287.6796875 28.5546875 C-287.75190018 27.87368484 -287.82411285 27.19268219 -287.89851379 26.49104309 C-288.21794367 23.48935307 -288.5427796 20.48836719 -288.87475586 17.48803711 C-288.98440674 16.46718018 -289.09405762 15.44632324 -289.20703125 14.39453125 C-289.30089111 13.54608643 -289.39475098 12.6976416 -289.49145508 11.82348633 C-289.74671005 8.22861899 -289.69903809 4.6666816 -289.6875 1.0625 C-260.62504993 0.88688357 -231.56254804 0.72106715 -202.5 0.5625 C-201.41169498 0.55655146 -200.32338996 0.55060292 -199.202106 0.54447412 C-132.80113853 0.18214881 -66.40198274 -0.03215652 0 0 Z " fill="#FEFEFE" transform="translate(622.6875,618.9375)"/>
<path d="M0 0 C1.37433706 -0.0034338 2.74867136 -0.00818079 4.12299988 -0.01412097 C7.91103721 -0.02666071 11.69885009 -0.0204672 15.48688858 -0.01128729 C19.60365449 -0.0045928 23.72038108 -0.01523589 27.83713871 -0.02368313 C35.05611129 -0.03607494 42.2750189 -0.03725166 49.49399853 -0.0311327 C60.22875718 -0.02205792 70.96345554 -0.03006053 81.69820955 -0.04142394 C100.86857621 -0.06111514 120.03891586 -0.06343358 139.20929022 -0.05822874 C155.9859848 -0.0536759 172.76266867 -0.05426532 189.53936291 -0.06006908 C191.78762662 -0.06082594 194.03589033 -0.06158192 196.28415405 -0.06233703 C199.67186099 -0.06348219 203.05956794 -0.06463207 206.44727488 -0.06579627 C237.95325661 -0.07650518 269.45923477 -0.08122249 300.96521759 -0.07332611 C302.15348175 -0.07302894 303.34174592 -0.07273176 304.56601809 -0.07242559 C314.21627196 -0.06997652 323.86652579 -0.067365 333.51677962 -0.06474145 C371.16567602 -0.05463756 408.81452783 -0.06299555 446.46341801 -0.086236 C488.73977057 -0.11229058 531.01609627 -0.1251614 573.29245716 -0.11804825 C577.79759029 -0.11733216 582.30272342 -0.11665778 586.80785656 -0.1160078 C587.91717543 -0.115838 589.02649431 -0.11566819 590.1694289 -0.11549323 C606.936787 -0.11318737 623.70412022 -0.12118089 640.47147274 -0.13429928 C659.53347823 -0.14918614 678.5954253 -0.15008644 697.65742951 -0.13222837 C708.33171349 -0.12264072 719.00586134 -0.12415034 729.68013633 -0.14146306 C736.80404204 -0.15191393 743.92784353 -0.14790686 751.0517389 -0.13198302 C755.11481413 -0.12331009 759.17762165 -0.12102621 763.24068361 -0.13625234 C766.93564766 -0.14996885 770.63011331 -0.14534152 774.32504788 -0.12596715 C776.2827664 -0.12045832 778.24050998 -0.13460121 780.19817957 -0.14949849 C787.76163633 -0.0861606 792.48118717 0.52703945 798.22289917 5.72137896 C801.74784862 9.44583327 802.33818277 12.39297031 802.74051762 17.38031673 C802.63190452 20.82417825 802.30163175 24.2343413 801.95536137 27.66156673 C801.85959812 28.67572659 801.76383488 29.68988644 801.66516972 30.7347784 C801.34386677 34.11741531 801.0108825 37.49879952 800.67801762 40.88031673 C800.44377173 43.32246343 800.21031038 45.76468548 799.97757816 48.20697689 C799.485229 53.36056041 798.98823211 58.51366533 798.48758793 63.66644955 C797.78740028 70.87993725 797.10127784 78.09468975 796.42020512 85.31000423 C792.88057456 122.7607376 789.26238382 160.20406548 785.65705395 197.64851761 C785.24249332 201.95416359 784.82804713 206.25982058 784.41362858 210.56548023 C784.21012227 212.67962675 784.00657022 214.79376887 783.80297184 216.90790653 C782.73860745 227.96125299 781.67814448 239.01493861 780.63187504 250.070014 C779.02311515 267.06425928 777.40858215 284.05529557 775.58817387 301.02847958 C773.55171926 320.05594848 771.70330036 339.09790289 769.93030643 358.15152645 C768.22874984 376.42128509 766.42014386 394.67795109 764.52762699 412.92890072 C762.94200373 428.23702393 761.45190495 443.55375591 759.98127079 458.87329006 C759.62847212 462.54707626 759.27512673 466.22080985 758.92182255 469.89454746 C757.98651229 479.62022207 757.05181232 489.34595527 756.11747074 499.07172298 C755.95546429 500.75807071 755.95546429 500.75807071 755.79018497 502.47848606 C755.24331676 508.17117458 754.69655407 513.8638732 754.14994144 519.55658627 C752.03255303 541.6069827 749.91513255 563.6573856 747.77031612 585.70513439 C747.60279731 587.42770394 747.43550665 589.15029569 747.26847363 590.87291241 C746.33789356 600.4655223 745.36579922 610.05124618 744.30301762 619.63031673 C742.88042697 632.63896381 741.65011246 645.66404687 740.42801762 658.69281673 C740.32205265 659.82235775 740.21608768 660.95189877 740.10691166 662.1156683 C739.66260575 666.85448748 739.21876118 671.59334967 738.77533817 676.33225155 C735.27417482 713.74488725 731.6917604 751.14968301 728.02509403 788.54645443 C727.67098762 792.15885422 727.31848738 795.77140495 726.96741581 799.38410091 C726.5520051 803.657482 726.13296509 807.93049272 725.71126461 812.20325756 C725.55658323 813.77618295 725.40308974 815.34922572 725.25092602 816.92239666 C722.49761678 845.35507728 722.49761678 845.35507728 717.80619144 849.97870541 C709.52587217 855.59710902 698.3749226 857.80856167 688.86551762 860.56781673 C686.1844323 861.35740382 683.50516677 862.15302971 680.82645512 862.95062923 C679.80811588 863.2536974 679.80811588 863.2536974 678.76920414 863.56288815 C671.97829511 865.59281468 665.23137042 867.75268734 658.49051762 869.94281673 C657.2590601 870.34258724 656.02760258 870.74235775 654.75882816 871.15424252 C652.74425867 871.80845018 650.72974395 872.46282483 648.71535587 873.1175909 C638.04430283 876.58433274 627.3620908 880.01644508 616.67801762 883.44281673 C615.5923148 883.79110531 614.50661198 884.13939388 613.38800907 884.49823666 C599.41657122 888.97593901 585.42250703 893.3411949 571.3528223 897.49945736 C562.79789831 900.03516145 554.33559409 902.78818794 545.88504887 905.64984798 C521.90457147 913.76028086 497.65664387 921.1758263 473.46317387 928.62641048 C456.83099181 933.74868284 440.27088429 939.07015719 423.73113346 944.48248959 C421.33701982 945.26358867 418.94068144 946.0375815 416.54422855 946.81146908 C413.25838068 947.8752491 409.98977356 948.98010441 406.72586918 950.10932064 C405.07716177 950.66466154 403.42840051 951.21984262 401.77958012 951.77484798 C401.04871189 952.03666363 400.31784367 952.29847927 399.56482792 952.56822872 C389.36191749 955.94920213 379.95746442 954.72203277 369.96708012 951.30219173 C368.48369648 950.81870266 368.48369648 950.81870266 366.9703455 950.32544613 C363.76322096 949.27639693 360.56467962 948.20337495 357.36551762 947.13031673 C355.1109336 946.38883239 352.85571615 945.6492715 350.59989262 944.91156673 C346.07578404 943.4308081 341.55423123 941.94262734 337.03446293 940.44867611 C329.36625297 937.92042821 321.6695069 935.48748157 313.96381474 933.07639217 C310.19110239 931.89522193 306.42073221 930.70664558 302.65067387 929.51703548 C301.49359173 929.15194126 301.49359173 929.15194126 300.31313419 928.7794714 C288.16280747 924.93985575 276.03351502 921.03389709 263.90012455 917.14118099 C251.74059011 913.24111258 239.57439535 909.3731716 227.36551762 905.63031673 C216.88566884 902.41105107 206.48814512 898.97263974 196.10013676 895.47141171 C181.00778907 890.39427689 165.84081683 885.55543713 150.66629696 880.73113251 C145.38295516 879.0513719 140.10116848 877.36679353 134.82010746 875.67987728 C131.83533087 874.72688742 128.85045773 873.77420051 125.86551762 872.82172298 C125.13219841 872.58769709 124.3988792 872.35367119 123.6433382 872.1125536 C115.00641433 869.35765457 106.36169378 866.63217991 97.69928837 863.95833492 C93.39918408 862.62804945 89.10518151 861.27881434 84.81223392 859.92563534 C82.8720457 859.31967564 80.92891578 858.72304325 78.98276615 858.1365118 C60.27262805 852.49369667 60.27262805 852.49369667 55.74051762 844.38031673 C54.49575458 841.89079065 54.39053219 839.85725965 54.11568546 837.08057308 C54.00229328 835.95475826 53.8889011 834.82894344 53.77207279 833.66901302 C53.59052647 831.80569332 53.59052647 831.80569332 53.40531254 829.9047308 C53.27504169 828.59997799 53.14477085 827.29522518 53.01055241 825.95093441 C52.651478 822.35391598 52.29728034 818.75643148 51.94384265 815.15885544 C51.5696561 811.35931318 51.19078727 807.56023801 50.81237125 803.76111507 C50.09160499 796.51814848 49.37469464 789.27480592 48.65930969 782.03130603 C47.31755037 768.4470478 45.96812508 754.86354871 44.61870861 741.28004932 C44.31208183 738.19321052 44.00575593 735.10634207 43.69968319 732.01944828 C41.82144625 713.07877503 39.92429513 694.14071047 37.8791132 675.21716976 C37.08088615 667.79840426 36.36946791 660.38289479 35.80301762 652.94281673 C34.70532941 638.86676384 33.12225103 624.83876809 31.59232426 610.804389 C30.46652452 600.4419621 29.4197044 590.07903011 28.49906254 579.69632626 C27.53501514 568.91170673 26.38324589 558.14720281 25.24051762 547.38031673 C24.0339945 536.01235006 22.83181907 524.64664402 21.82254887 513.25922298 C20.94383416 503.36379376 19.96559747 493.47946672 18.97098637 483.59516048 C18.89025883 482.79255543 18.80953129 481.98995037 18.72635746 481.16302395 C18.30372337 476.96287604 17.88040265 472.76279763 17.45676517 468.56275082 C14.93440538 443.5504412 12.43578423 418.53731086 10.11551762 393.50531673 C8.30744589 374.00301929 6.32841952 354.52173464 4.28934574 335.04230404 C2.45939536 317.54688691 0.73619485 300.04610188 -0.86128902 282.52802181 C-1.92955788 270.82599701 -3.0726291 259.13337896 -4.25948238 247.44281673 C-5.63629527 233.8665034 -6.91912698 220.28449753 -8.13448238 206.69281673 C-10.21277974 183.48477185 -12.50996849 160.29939079 -14.80539608 137.11198139 C-16.48340643 120.1581544 -18.13240255 103.20151166 -19.77974224 86.24468136 C-20.00632538 83.91280697 -20.23305189 81.58094656 -20.45983028 79.24909115 C-21.15379763 72.11281462 -21.84677982 64.97644621 -22.53682613 57.83978939 C-22.98309114 53.22445047 -23.43319988 48.60952966 -23.88838863 43.99506283 C-24.06941797 42.14171385 -24.25041083 40.2883613 -24.43135738 38.43500423 C-24.51013119 37.64847469 -24.58890499 36.86194515 -24.67006588 36.05158138 C-25.22025637 30.37601339 -25.53206571 24.702504 -25.75948238 19.00531673 C-25.79269588 18.20096188 -25.82590939 17.39660702 -25.86012936 16.56787777 C-25.99726824 11.42298693 -24.54897854 8.69336436 -21.14034176 4.90131283 C-14.52519332 -0.44816469 -8.15589441 -0.04325103 0 0 Z M646.0582108 27.46126237 C637.48032049 27.47383303 628.90242945 27.48586639 620.32453837 27.49789591 C604.51014001 27.52008778 588.69574224 27.54267762 572.8813448 27.56551266 C557.27459205 27.5880465 541.66783906 27.61039216 526.0610857 27.63249874 C524.59309869 27.63457826 524.59309869 27.63457826 523.09545537 27.63669979 C518.12321897 27.64374241 513.15098256 27.65078179 508.17874615 27.65781993 C473.16776061 27.70738329 438.15677566 27.75735012 403.14579105 27.80756283 C369.18127312 27.85627375 335.21675492 27.90479656 301.25223637 27.95307064 C300.20110535 27.9545647 299.14997433 27.95605875 298.06699085 27.95759808 C287.50891674 27.97260491 276.95084262 27.98760797 266.39276849 28.00260828 C244.89413202 28.03315241 223.39549558 28.0637216 201.89685917 28.09430599 C200.9088795 28.09571148 199.92089983 28.09711697 198.90298138 28.09856505 C133.18215953 28.19206163 67.4613385 28.28614196 1.74051762 28.38031673 C2.05011474 32.4617947 2.36148323 36.54313579 2.6731348 40.62445736 C2.75949192 41.76320309 2.84584904 42.90194881 2.93482304 44.07520199 C3.66188395 53.57889669 4.48560355 63.07195454 5.38895512 72.56049252 C5.4866016 73.5875732 5.58424809 74.61465389 5.68485355 75.67285824 C5.78572269 76.73131954 5.88659184 77.78978085 5.99051762 78.88031673 C6.09589848 79.99372433 6.20127934 81.10713192 6.30985355 82.25427914 C8.25603856 102.79353317 10.36078485 123.31521884 12.50687504 143.8344183 C14.28161451 160.82024711 15.96932402 177.81299131 17.61014652 194.81223202 C18.94386444 208.6044866 20.38403519 222.37982834 21.92755985 236.15009212 C22.03083591 237.07169125 22.13411198 237.99329037 22.24051762 238.94281673 C22.34306858 239.85780941 22.44561954 240.77280209 22.55127811 241.71552181 C24.70491501 261.05056487 26.36954147 280.42301016 27.95340824 299.8122015 C28.92939983 311.66411952 30.05033833 323.47461532 31.46105289 335.28266048 C32.7638487 346.30831922 33.89153055 357.35028551 35.01004887 368.39594173 C35.11119558 369.39477823 35.2123423 370.39361473 35.31655407 371.422719 C35.95477954 377.73301874 36.58974515 384.04364356 37.22370625 390.35437298 C37.55637045 393.66367029 37.88982111 396.97288746 38.22351933 400.28208065 C41.01209439 427.93846203 43.75645621 455.59842067 46.40757084 483.26831722 C48.957057 509.86740635 51.65253391 536.45237336 54.57645512 563.01312923 C56.43722961 579.93336527 57.99289503 596.87439455 59.51726627 613.82758236 C61.45654787 635.39257046 63.5735213 656.93550118 65.86399174 678.46597958 C67.43366561 693.2431634 68.91316243 708.02867279 70.36551762 722.81781673 C70.4697504 723.87488827 70.57398319 724.9319598 70.68137455 726.0210638 C71.77395915 737.11370343 72.82282484 748.20733628 73.76395512 759.31391048 C74.51942178 768.18911936 75.43246087 777.03379222 76.48694706 785.87811947 C76.92928829 789.58890933 77.36116017 793.30090744 77.79129887 797.01312923 C77.87503254 797.73546749 77.95876621 798.45780575 78.04503727 799.20203304 C78.85615042 806.26750958 79.54218583 813.34331727 80.14481449 820.42963314 C80.42161132 823.58659503 80.73400227 826.3607707 81.74051762 829.38031673 C83.97706985 830.36917525 86.09006666 831.14667282 88.41239262 831.87641048 C89.10905033 832.10579815 89.80570805 832.33518581 90.5234766 832.57152462 C92.8422305 833.33183674 95.16616629 834.07480959 97.49051762 834.81781673 C99.12138851 835.34852038 100.7519177 835.88027518 102.38211918 836.41303158 C105.78978307 837.52434005 109.19969257 838.62833362 112.61161137 839.72650814 C117.49280577 841.2981118 122.36729454 842.88966702 127.24051762 844.48578548 C142.38174524 849.43726891 157.55289401 854.27917117 172.77082157 858.98938656 C183.20735059 862.22395949 193.57423002 865.64082909 203.92801762 869.13031673 C217.74371794 873.78549985 231.62476244 878.19902864 245.55301762 882.50531673 C247.00369633 882.95388027 247.00369633 882.95388027 248.48368168 883.4115057 C249.4462891 883.70913815 250.40889652 884.00677059 251.40067387 884.3134222 C263.12606653 887.93949299 274.82806681 891.6226805 286.50052738 895.41644955 C294.50022322 898.01557963 302.50913423 900.58355743 310.52567387 903.13031673 C313.75355686 904.15697081 316.98132948 905.18397071 320.20902348 906.21121883 C322.38788899 906.90448501 324.56692419 907.59721809 326.74613285 908.28940487 C337.70381403 911.77320816 348.64056763 915.29155336 359.48661137 919.11078548 C360.30443089 919.3977026 361.1222504 919.68461971 361.96485233 919.98023129 C365.72570401 921.30286418 369.47866465 922.64307751 373.22196293 924.01459408 C374.53399004 924.48196761 375.8461557 924.94895248 377.15848637 925.41547298 C378.26989994 925.82160824 379.38131351 926.22774349 380.52640629 926.64618587 C386.74791079 928.06723138 392.41509448 926.02926496 398.34208012 924.12250423 C399.05157307 923.89894756 399.76106602 923.67539089 400.49205875 923.44505978 C402.78503483 922.72075887 405.07532058 921.98835278 407.36551762 921.25531673 C408.96577218 920.74714806 410.56611464 920.23925611 412.16654301 919.73163509 C422.70128593 916.38304653 433.20683729 912.95410861 443.67899418 909.41449642 C463.39333469 902.75501106 483.1261019 896.18570311 503.00467777 890.03168392 C512.16807273 887.19389669 521.30385945 884.27922022 530.42801762 881.31781673 C540.34400123 878.10088771 550.27842678 874.95224359 560.24051762 871.88031673 C570.36541532 868.75560435 580.46908456 865.57187499 590.55301762 862.31781673 C591.20455814 862.10756863 591.85609867 861.89732052 592.52738285 861.68070126 C601.11680809 858.90555131 609.68484197 856.07026404 618.24051762 853.19281673 C626.64535845 850.36772462 635.08929646 847.72028655 643.58158207 845.17133236 C652.06387638 842.61401624 660.49837251 839.91754288 668.92801762 837.19281673 C669.57964878 836.98239742 670.23127995 836.77197811 670.90265751 836.55518246 C679.19706239 833.87506624 687.47636371 831.15229364 695.74051762 828.38031673 C699.19501671 806.75921653 700.93887911 784.86391722 702.76029301 763.05734921 C704.56665554 741.52393347 706.69463426 720.04818689 709.12091923 698.57639217 C711.4775016 677.64564391 713.36782477 656.69034202 715.09208012 635.69892025 C715.99543518 624.7413971 716.94032074 613.81504018 718.33329105 602.90766048 C718.76239047 599.19085689 719.01976157 595.4900121 719.24051762 591.75531673 C719.52450299 587.02828466 719.96727513 582.39181078 720.63895512 577.70453548 C721.96456565 568.10130597 722.91134241 558.46383132 723.86551762 548.81781673 C723.96734348 547.79707058 724.06916935 546.77632442 724.17408085 545.72464657 C725.7472073 529.93599044 727.23833328 514.14005737 728.70536137 498.34125423 C728.79126026 497.41638021 728.87715916 496.4915062 728.96566105 495.53860569 C729.8321979 486.20419895 730.6956653 476.86951762 731.55193806 467.53416348 C733.59252629 445.29751447 735.76531036 423.07908816 738.07151604 400.86844921 C738.76609562 394.16506472 739.43252866 387.45909788 740.08426762 380.75141048 C740.18139042 379.75187344 740.27851322 378.75233639 740.37857914 377.72251034 C740.56939079 375.75459834 740.75995579 373.7866624 740.95026493 371.81870174 C743.52495608 345.1993027 743.52495608 345.1993027 744.80692387 333.37250423 C744.89057697 332.60071835 744.97423008 331.82893246 745.06041813 331.03375912 C745.22609327 329.50738534 745.39182833 327.98101806 745.55762577 326.45465755 C747.16110553 311.67496526 748.4820342 296.88595645 749.67801762 282.06781673 C750.96012944 266.19278368 752.39626063 250.34567524 754.05301762 234.50531673 C756.27200662 213.28830349 758.30990839 192.05698632 760.30301762 170.81781673 C760.90142353 164.44146264 761.5000361 158.0651283 762.09989262 151.68891048 C762.2076527 150.54322975 762.2076527 150.54322975 762.31758976 149.37440395 C763.58460522 135.91628225 764.91769393 122.46558456 766.29493046 109.01828671 C767.39826849 98.22062798 768.31888628 87.41939566 769.09110355 76.59247494 C769.56382256 70.13002115 770.29883156 63.79540149 771.29911137 57.39203548 C772.44006663 49.60728762 772.79189753 41.83519811 772.76395512 33.97406673 C772.76057133 32.73334408 772.75718754 31.49262142 772.75370121 30.21430111 C772.74935062 29.27908627 772.74500004 28.34387142 772.74051762 27.38031673 C730.51299621 27.36635615 688.28568252 27.39928185 646.0582108 27.46126237 Z " fill="#0053AF" transform="translate(125.25948238372803,290.61968326568604)"/>
<path d="M0 0 C0.65935547 0.16628906 1.31871094 0.33257812 1.99804688 0.50390625 C11.99572427 3.11704555 21.6827076 6.70887507 30 13 C30.82958984 14.78613281 30.82958984 14.78613281 31 17 C29.9519043 19.54956055 29.9519043 19.54956055 28.32421875 22.38671875 C27.74349609 23.40701172 27.16277344 24.42730469 26.56445312 25.47851562 C25.94505859 26.53748047 25.32566406 27.59644531 24.6875 28.6875 C24.07970703 29.75806641 23.47191406 30.82863281 22.84570312 31.93164062 C18.28809246 39.85595377 18.28809246 39.85595377 16 41 C13.51075288 39.81092659 11.10933771 38.5640712 8.6875 37.25 C-3.87396179 30.75579167 -17.52492744 27.79062036 -31.6171875 30.50390625 C-36.07744271 31.97663203 -39.32954393 34.1612194 -42 38 C-42.9134283 42.44588996 -42.84602673 45.66761007 -40.3828125 49.546875 C-37.64078251 52.36981735 -34.81364218 54.06363732 -31.3125 55.75 C-30.63477539 56.08435059 -29.95705078 56.41870117 -29.25878906 56.76318359 C-22.7598881 59.85280164 -16.03279151 62.24087992 -9.25 64.625 C7.88014036 70.65330614 23.36243386 77.44088954 32.25 94.3828125 C36.9983351 105.42928651 36.26659493 117.92502835 32.3203125 129.1015625 C27.10131016 140.55866231 16.61327542 149.48372623 5 154 C-19.99570552 162.25750986 -45.25719226 160.95439541 -69.01171875 149.5546875 C-74.66457682 146.60872327 -79.34185293 143.34760393 -84 139 C-79.41966566 130.15521644 -73.70461759 122.14231758 -68 114 C-64.14004715 114.8666049 -61.06497603 116.45590942 -57.5625 118.3125 C-47.56309721 123.37784157 -38.47396435 126.3250611 -27.1875 126.4375 C-26.39899658 126.44773193 -25.61049316 126.45796387 -24.7980957 126.46850586 C-17.13008412 126.35299699 -10.71846571 124.37189203 -5 119 C-3.1249119 115.24982379 -3.48944362 111.08445102 -4 107 C-9.00738657 97.35614439 -23.51107604 94.34585418 -33.171875 91.25976562 C-35.08524314 90.65902862 -36.99980633 90.0625598 -38.91601562 89.47094727 C-53.30103875 85.00225967 -67.84485819 79.44942679 -75.84765625 65.86328125 C-81.47308066 54.83851333 -83.07592274 43.59227216 -80.12890625 31.39453125 C-77.52265068 24.78916878 -73.78355571 19.22318227 -69 14 C-68.52433594 13.47019531 -68.04867188 12.94039063 -67.55859375 12.39453125 C-50.03599991 -4.67055362 -22.22961471 -5.62943383 0 0 Z " fill="#FDFDFE" transform="translate(543,394)"/>
<path d="M0 0 C0.99 1.485 0.99 1.485 2 3 C0.04396027 6.605416 -1.91522421 10.20911362 -3.875 13.8125 C-4.43058594 14.83666016 -4.98617187 15.86082031 -5.55859375 16.91601562 C-6.36103516 18.39038086 -6.36103516 18.39038086 -7.1796875 19.89453125 C-7.67194824 20.80050049 -8.16420898 21.70646973 -8.67138672 22.63989258 C-9.70311696 24.47262618 -10.83336384 26.25004576 -12 28 C-15.91369012 26.83647051 -19.51033187 25.31152553 -23.1875 23.5625 C-35.44361097 18.00200938 -49.80169134 14.9073249 -62.875 19.75 C-66.25234114 21.23273513 -68.10625483 22.8126812 -70 26 C-70.50611495 28.18101429 -70.50611495 28.18101429 -70.4375 30.4375 C-70.45683594 31.17871094 -70.47617187 31.91992188 -70.49609375 32.68359375 C-69.78464154 36.00557141 -68.36605155 37.57595699 -66 40 C-63.76357287 41.42713638 -61.6842597 42.60745996 -59.3125 43.75 C-58.29482544 44.25261353 -58.29482544 44.25261353 -57.2565918 44.76538086 C-50.78134995 47.84635989 -44.07606337 50.20078025 -37.3125 52.5625 C-20.93299909 58.30140983 -4.03917317 65.39101517 4 82 C8.40107299 94.34977895 8.18463643 106.44359624 2.8984375 118.515625 C-1.72396396 127.2832768 -7.50074987 132.97371932 -16 138 C-16.90492188 138.55494141 -16.90492188 138.55494141 -17.828125 139.12109375 C-35.14735699 148.79727336 -60.11667281 149.97251099 -79 145 C-91.4959239 141.42032177 -103.24672291 135.66957963 -113 127 C-111.66235755 123.3114366 -110.01032497 120.33273064 -107.7421875 117.13671875 C-107.11699219 116.25048828 -106.49179687 115.36425781 -105.84765625 114.45117188 C-105.19667969 113.53916016 -104.54570313 112.62714844 -103.875 111.6875 C-102.88693359 110.29047852 -102.88693359 110.29047852 -101.87890625 108.86523438 C-100.25711178 106.57356827 -98.63070139 104.2853324 -97 102 C-93.14004715 102.8666049 -90.06497603 104.45590942 -86.5625 106.3125 C-72.59152364 113.38142948 -58.22329825 116.65476977 -42.63671875 113.26953125 C-37.96004512 111.57207193 -34.21090611 109.62280368 -32 105 C-31.13418965 99.98166232 -31.31897364 96.26476324 -33.75 91.75 C-41.52307632 84.01067271 -53.9333117 81.13371748 -64.125 77.9375 C-81.16141237 72.57732497 -96.95407759 66.50820854 -106 50 C-110.31351913 40.9209009 -110.98833791 29.61059507 -108.44482422 19.875 C-103.98668162 7.51307839 -94.73828482 -2.37435563 -83 -8 C-56.30904644 -19.93281734 -24.38599528 -16.25733019 0 0 Z " fill="#FDFDFE" transform="translate(702,406)"/>
<path d="M0 0 C1.33566307 1.10938603 2.63023647 2.26814645 3.91015625 3.44140625 C-1.21269503 11.90598502 -6.96680855 19.69213233 -13.08984375 27.44140625 C-16.11892229 25.99602402 -18.88989055 24.31206033 -21.71484375 22.50390625 C-33.20774619 15.66169796 -45.26075704 14.76918812 -58.33984375 17.50390625 C-69.14277879 20.61538418 -77.80356963 27.27475591 -83.5546875 36.890625 C-91.09968187 51.17144044 -91.10004271 67.80819701 -86.4140625 83.06640625 C-82.07926746 94.11437946 -75.31422045 102.14353338 -64.58984375 107.25390625 C-51.50799755 112.67939226 -38.39589827 113.30859999 -24.94140625 108.66796875 C-21.56813668 107.21700074 -18.61801 105.48748636 -15.67578125 103.296875 C-15.15242188 103.01457031 -14.6290625 102.73226562 -14.08984375 102.44140625 C-10.17605965 103.74600095 -9.55115807 105.37560116 -7.33984375 108.81640625 C-6.29570312 110.42902344 -6.29570312 110.42902344 -5.23046875 112.07421875 C-4.5240625 113.18539062 -3.81765625 114.2965625 -3.08984375 115.44140625 C-2.4040625 116.51132812 -1.71828125 117.58125 -1.01171875 118.68359375 C0.63728853 121.26435717 2.27782226 123.85007604 3.91015625 126.44140625 C-10.75220876 140.10406455 -28.19708314 145.81108925 -47.90234375 145.75390625 C-49.55073242 145.77807617 -49.55073242 145.77807617 -51.23242188 145.80273438 C-61.95737314 145.80905432 -71.64049408 143.75232881 -81.15234375 138.75390625 C-81.82716797 138.40650391 -82.50199219 138.05910156 -83.19726562 137.70117188 C-101.54205344 128.01386718 -117.31025931 111.61165637 -123.7109375 91.48876953 C-130.50778319 67.89416387 -130.00362787 44.19649713 -118.08984375 22.44140625 C-115.66237799 18.54775118 -113.00356531 14.98191675 -110.08984375 11.44140625 C-109.4865625 10.66410156 -108.88328125 9.88679688 -108.26171875 9.0859375 C-81.56016655 -23.50566297 -32.12077426 -23.95549333 0 0 Z " fill="#FDFDFE" transform="translate(444.08984375,407.55859375)"/>
<path d="M0 0 C11.60205236 13.35404013 13.8280041 26.56405854 13.17919922 43.68798828 C12.8165504 48.36684969 11.33079086 51.98870163 9 56 C8.59910156 56.80050781 8.19820312 57.60101562 7.78515625 58.42578125 C0.69002452 71.64946154 -11.20962661 81.09541501 -25.1953125 86.15625 C-29.31405198 87.34244697 -32.69217376 88 -37 88 C-36.67 55 -36.34 22 -36 -12 C-47.88 -12 -59.76 -12 -72 -12 C-72 -12.33 -72 -12.66 -72 -13 C-66.00449268 -13.1682695 -60.00884516 -13.32875719 -54.01293945 -13.48217773 C-51.97512267 -13.53540007 -49.93735932 -13.5907126 -47.8996582 -13.64819336 C-44.96317056 -13.73065882 -42.02657002 -13.80549475 -39.08984375 -13.87890625 C-38.18540024 -13.90594131 -37.28095673 -13.93297638 -36.34910583 -13.96083069 C-21.65648599 -14.30401936 -10.53662836 -10.44084082 0 0 Z " fill="#1775D7" transform="translate(548,878)"/>
<path d="M0 0 C6.45708615 1.38366132 12.43221525 3.4326565 18.375 6.3125 C19.51710938 6.86550781 20.65921875 7.41851562 21.8359375 7.98828125 C26.08740195 10.69137284 29.3499595 13.49160844 30.6640625 18.5625 C30.59671657 22.76488592 30.50134127 26.01814011 27.875 29.4375 C23.32528951 33.49267674 19.08631467 35.5406555 13 36 C9.37 35.67 5.74 35.34 2 35 C2 24.44 2 13.88 2 3 C1.34 3 0.68 3 0 3 C0 2.01 0 1.02 0 0 Z " fill="#1572D5" transform="translate(510,485)"/>
<path d="M0 0 C-0.02618408 0.64549805 -0.05236816 1.29099609 -0.0793457 1.95605469 C-0.18342439 4.88712117 -0.2483581 7.81779909 -0.3125 10.75 C-0.35439453 11.76578125 -0.39628906 12.7815625 -0.43945312 13.828125 C-0.69702708 19.85938228 -0.69702708 19.85938228 2.51953125 24.703125 C3.33808594 25.13109375 4.15664063 25.5590625 5 26 C1.15259032 25.43580388 -1.41398441 24.36679752 -4.625 22.1875 C-5.38039063 21.68605469 -6.13578125 21.18460937 -6.9140625 20.66796875 C-9.73735033 18.4103959 -11.61443011 16.4190021 -12.57421875 12.88671875 C-12.76739297 9.13647436 -12.67210762 6.88502115 -10.34765625 3.82421875 C-4.69084966 -1.4322924 -4.69084966 -1.4322924 0 0 Z " fill="#0F68CC" transform="translate(512,426)"/>
<path d="M0 0 C-1.76629026 2.27663458 -2.61754746 2.95110098 -5.52470398 3.32279968 C-6.53064102 3.29837296 -7.53657806 3.27394623 -8.57299805 3.2487793 C-9.71395432 3.22853195 -10.85491058 3.20828461 -12.03044128 3.18742371 C-13.26176285 3.15006607 -14.49308441 3.11270844 -15.76171875 3.07421875 C-17.02264847 3.04777786 -18.28357819 3.02133698 -19.5827179 2.99409485 C-22.93195014 2.92113132 -26.28031622 2.83496945 -29.62902832 2.74243164 C-33.04735762 2.65121132 -36.46605633 2.57730939 -39.88476562 2.50195312 C-46.59029978 2.35061768 -53.29522841 2.18187301 -60 2 C-60 1.67 -60 1.34 -60 1 C-39.98501825 0.19339409 -20.03074318 -0.13954966 0 0 Z " fill="#2667CF" transform="translate(531,721)"/>
<path d="M0 0 C4.62 0 9.24 0 14 0 C12.7803332 3.6590004 11.21791267 4.30462251 7.921875 6.08203125 C5.35196996 7.30952655 2.73040836 8.20085609 0 9 C0 6.03 0 3.06 0 0 Z " fill="#1874D5" transform="translate(512,723)"/>
<path d="M0 0 C0.6875 1.8125 0.6875 1.8125 1 4 C0.0625 5.75 0.0625 5.75 -2 7 C-4.71896511 7.2515578 -7.25811768 7.13484667 -10 7 C-6.80331012 4.3513141 -3.60513403 2.06007659 0 0 Z " fill="#0D65D1" transform="translate(597,775)"/>
<path d="M0 0 C0.66 0.33 1.32 0.66 2 1 C1.54109375 1.51949219 1.0821875 2.03898437 0.609375 2.57421875 C-2.68382608 6.31712166 -5.92952189 10.06978801 -9 14 C-8.48304276 11.6736924 -7.83449181 9.59109741 -6.9375 7.375 C-5.87761116 5.11550447 -5.87761116 5.11550447 -6 3 C-5.195625 2.690625 -4.39125 2.38125 -3.5625 2.0625 C-1.10919595 1.23664655 -1.10919595 1.23664655 0 0 Z " fill="#0D64D2" transform="translate(606,405)"/>
<path d="M0 0 C0.33 1.32 0.66 2.64 1 4 C-0.86908256 6.80362384 -2.87961365 9.38485683 -5 12 C-5.66 11.67 -6.32 11.34 -7 11 C-4.69 7.37 -2.38 3.74 0 0 Z " fill="#0B61D2" transform="translate(566,424)"/>
<path d="M0 0 C-0.33 0.99 -0.66 1.98 -1 3 C-3.5625 4.1875 -3.5625 4.1875 -6 5 C-6 4.34 -6 3.68 -6 3 C-6.66 3 -7.32 3 -8 3 C-8 2.34 -8 1.68 -8 1 C-2.25 -1.125 -2.25 -1.125 0 0 Z " fill="#EBF3F9" transform="translate(680,1194)"/>
<path d="M0 0 C0 0.99 0 1.98 0 3 C-2.375 4.75 -2.375 4.75 -5 6 C-5.66 5.67 -6.32 5.34 -7 5 C-4.69 3.35 -2.38 1.7 0 0 Z " fill="#1266D3" transform="translate(628,754)"/>
</svg>
