<?xml version="1.0" encoding="UTF-8"?>
<svg version="1.1" xmlns="http://www.w3.org/2000/svg" width="512" height="512">
<path d="M0 0 C1.07229343 0.79771344 2.14521003 1.5945899 3.21875 2.390625 C22.97593617 17.17179402 40.69489467 34.47397844 58 52 C64.26587448 46.70302967 70.29789599 41.31007741 75.5 34.9375 C78.01612578 31.98105221 80.64757211 29.59884938 83.59765625 27.09375 C85.90397964 25.08368604 88.12176518 22.99735023 90.33764648 20.88867188 C97.78567532 13.84185686 105.72516295 7.5992224 113.96582031 1.5078125 C115.8192526 0.13397695 117.65690073 -1.25833971 119.4921875 -2.65625 C145.6805036 -22.32052665 175.93132862 -34.4632991 208.96972656 -30.2265625 C230.98946958 -27.00808605 250.84142374 -18.15900293 268 -4 C268.79792969 -3.35417969 269.59585937 -2.70835937 270.41796875 -2.04296875 C276.40256983 3.01458569 281.24533612 8.79179247 286 15 C286.60714844 15.77988281 287.21429688 16.55976563 287.83984375 17.36328125 C306.86677317 43.03453524 312.80996698 75.32441067 308.30859375 106.6328125 C303.00107595 136.49091181 285.17361093 164.35757251 260.375 181.75 C235.42166189 198.50839727 204.52127054 206.66236043 174.56640625 201.1640625 C143.47273036 194.08770141 116.2750441 173.91633212 93 153 C92.02160156 152.12085938 91.04320312 151.24171875 90.03515625 150.3359375 C87.5710565 148.09344135 85.12136143 145.8369808 82.68359375 143.56591797 C80.76280785 141.77938654 78.83423779 140.00141208 76.90625 138.22265625 C75.47879887 136.89883398 74.05171275 135.57461801 72.625 134.25 C71.95871582 133.63600342 71.29243164 133.02200684 70.60595703 132.3894043 C66.41757911 128.48274403 62.65398579 124.4119333 59 120 C55.05566533 121.80879406 52.92940123 124.08991919 50.0625 127.375 C44.59346712 133.51173661 38.70989128 139.04753849 32.60546875 144.54296875 C31.05468593 145.95037019 29.52438697 147.37659987 28 148.8125 C7.01473309 168.52191846 -17.81075871 186.99774025 -45 197 C-45.6919043 197.2568457 -46.38380859 197.51369141 -47.09667969 197.77832031 C-73.62973614 207.1862634 -102.9234029 202.87641166 -127.88964844 191.109375 C-155.51532942 177.81073 -176.15543127 154.66306406 -187 126 C-197.21706007 94.86898078 -195.65657178 61.00610063 -180.859375 31.625 C-176.45524545 23.30522538 -171.25356273 16.05501211 -165 9 C-164.38898438 8.24589844 -163.77796875 7.49179687 -163.1484375 6.71484375 C-145.08929025 -15.0714041 -116.30474103 -27.50329911 -88.7421875 -30.68359375 C-55.30937994 -33.51037602 -26.13543648 -19.9203022 0 0 Z M125 50 C124.2884375 50.61230469 123.576875 51.22460938 122.84375 51.85546875 C120.87805143 53.55128657 118.93587988 55.2702214 117 57 C116.15695312 57.75023437 115.31390625 58.50046875 114.4453125 59.2734375 C105.30534303 67.52170263 96.65346086 76.24631196 88 85 C91.90444023 90.4756525 96.06930857 95.36313209 100.875 100.0625 C101.49286377 100.67319336 102.11072754 101.28388672 102.74731445 101.91308594 C106.40554595 105.50642961 110.11844827 109.00027338 114.03515625 112.3125 C116.4595773 114.39470655 118.78350032 116.57502207 121.125 118.75 C137.20673981 133.35371982 155.08378913 146.1900575 175 155 C175.85335937 155.38027344 176.70671875 155.76054687 177.5859375 156.15234375 C190.61197534 160.97597892 207.67598056 158.74095325 220.0390625 153.265625 C227.68939299 149.69227314 234.72040758 145.70538845 241 140 C241.74507812 139.34644531 242.49015625 138.69289063 243.2578125 138.01953125 C256.29990918 125.88374976 264.33593722 108.47895409 265.25390625 90.71875 C265.95845069 69.9910952 260.12294523 52.25242437 246.390625 36.48828125 C233.49170579 23.0624454 216.64217256 14.50340101 198 13 C197.35160156 12.93554688 196.70320313 12.87109375 196.03515625 12.8046875 C169.40544273 11.31699401 143.69596301 33.53599887 125 50 Z M-83.88671875 13.28125 C-103.13979601 15.69659383 -121.33167781 24.68642485 -133.44140625 40.109375 C-146.1944017 57.62040844 -151.6245106 76.48475885 -148.71875 98.09130859 C-145.85668282 114.34085761 -137.69415739 127.73831885 -126 139 C-125.03320312 139.99580078 -125.03320312 139.99580078 -124.046875 141.01171875 C-111.41404575 153.23260791 -93.41178037 158.71791723 -76.1472168 158.46875 C-52.46680723 157.42342556 -31.1325551 140.53390734 -13.9921875 125.58984375 C-11.12988683 123.11242163 -8.20690266 120.73806486 -5.25 118.375 C-0.92320913 114.85830495 3.00597225 111.10423067 6.890625 107.109375 C8.83406149 105.16593851 10.83429501 103.39169219 12.9375 101.625 C16.32862425 98.69380555 19.48602102 95.56944133 22.5625 92.3125 C23.43003906 91.40113281 24.29757813 90.48976563 25.19140625 89.55078125 C27.19589041 87.27282442 27.19589041 87.27282442 26.9296875 85.17773438 C25.58926996 82.03789076 23.33910678 79.95094617 20.93359375 77.60546875 C20.42127701 77.09502518 19.90896027 76.5845816 19.38111877 76.05867004 C18.2942728 74.97854159 17.20383738 73.90201465 16.11010742 72.82885742 C14.46093428 71.21049645 12.82234467 69.58203835 11.18554688 67.95117188 C5.62555851 62.43247409 -0.02516428 57.07097874 -6 52 C-7.01031059 51.11203604 -8.01949356 50.22278682 -9.02734375 49.33203125 C-26.95591262 33.80998169 -53.70092377 11.53764881 -78.83203125 12.78125 C-80.51659663 12.95122416 -82.20157893 13.11706858 -83.88671875 13.28125 Z " fill="#0DCCFE" transform="translate(198,308)"/>
<path d="M0 0 C13.2 0 26.4 0 40 0 C43 19 43 19 43 25 C43.556875 25.09796875 44.11375 25.1959375 44.6875 25.296875 C49.71497638 26.28198861 53.76317691 27.67500853 58.17578125 30.29296875 C60.57957639 31.22463239 61.56977587 30.82043794 64 30 C66.16427694 28.69560351 66.16427694 28.69560351 68.328125 27.05859375 C69.12734375 26.47529297 69.9265625 25.89199219 70.75 25.29101562 C71.575 24.67935547 72.4 24.06769531 73.25 23.4375 C74.09046875 22.82197266 74.9309375 22.20644531 75.796875 21.57226562 C77.86873236 20.05368836 79.93617964 18.52947228 82 17 C88.36590304 22.24458586 94.13570612 28.02097322 99.9375 33.875 C100.91708237 34.85960919 101.89689837 35.843986 102.87695312 36.828125 C105.25360252 39.21648203 107.62787356 41.60715212 110 44 C108.77544094 47.46952237 107.54830145 49.77607903 104.93359375 52.35546875 C98.46348626 58.94819713 98.46348626 58.94819713 95.98242188 67.47021484 C96.4746937 70.09549435 97.20085381 72.39399647 98.1875 74.875 C98.49163818 75.65383545 98.79577637 76.4326709 99.10913086 77.23510742 C100.61789469 80.36221788 101.8102335 82.47336813 105.0534668 83.90893555 C107.37635251 84.45083455 109.62725716 84.76657422 112 85 C113.27746094 85.19722656 114.55492187 85.39445312 115.87109375 85.59765625 C117.63646484 85.82775391 117.63646484 85.82775391 119.4375 86.0625 C125.7810219 86.89051095 125.7810219 86.89051095 128 88 C128 100.87 128 113.74 128 127 C119.13020682 129.2174483 119.13020682 129.2174483 115.7109375 129.32421875 C109.1351441 129.77528792 109.1351441 129.77528792 103 132 C99.38322805 136.19414027 98.23466114 141.72894666 97 147 C96.67 147.99 96.34 148.98 96 150 C97.17311012 152.19831516 97.17311012 152.19831516 98.96484375 154.44921875 C99.59970703 155.29677734 100.23457031 156.14433594 100.88867188 157.01757812 C101.9028418 158.33918945 101.9028418 158.33918945 102.9375 159.6875 C103.60974609 160.58017578 104.28199219 161.47285156 104.97460938 162.39257812 C106.6406691 164.60217507 108.31599742 166.80406569 110 169 C108.37843976 173.10108886 105.4232297 175.83148167 102.3359375 178.859375 C101.78386627 179.40861633 101.23179504 179.95785767 100.66299438 180.52374268 C98.90498185 182.27059293 97.1401311 184.01034601 95.375 185.75 C94.1792292 186.93573591 92.98391135 188.1219288 91.7890625 189.30859375 C88.86459747 192.21105085 85.93398126 195.1071641 83 198 C75.51804001 193.82101232 75.51804001 193.82101232 72.61328125 191.38671875 C72.06736328 190.94392578 71.52144531 190.50113281 70.95898438 190.04492188 C69.8447495 189.12630593 68.73548761 188.2016301 67.63085938 187.27148438 C64.680985 184.7491056 64.680985 184.7491056 61.015625 184.046875 C60.35046875 184.36140625 59.6853125 184.6759375 59 185 C57.96746094 185.39316406 56.93492187 185.78632813 55.87109375 186.19140625 C53.57888795 187.10672393 51.28722197 188.0233946 48.99609375 188.94140625 C46 190 46 190 43 190 C42.95101562 190.78761719 42.90203125 191.57523438 42.8515625 192.38671875 C42.77679688 193.47597656 42.70203125 194.56523437 42.625 195.6875 C42.52058594 197.27111328 42.52058594 197.27111328 42.4140625 198.88671875 C41.83705861 204.61865357 40.87598678 210.30608593 40 216 C26.8 216 13.6 216 0 216 C-0.495 212.82375 -0.99 209.6475 -1.5 206.375 C-1.65662109 205.3854834 -1.81324219 204.3959668 -1.97460938 203.37646484 C-2.66263769 198.87424782 -3.18223358 194.57102558 -3 190 C-3.8353125 189.85304687 -3.8353125 189.85304687 -4.6875 189.703125 C-9.71497638 188.71801139 -13.76317691 187.32499147 -18.17578125 184.70703125 C-20.57957639 183.77536761 -21.56977587 184.17956206 -24 185 C-26.16427694 186.30439649 -26.16427694 186.30439649 -28.328125 187.94140625 C-29.12734375 188.52470703 -29.9265625 189.10800781 -30.75 189.70898438 C-31.575 190.32064453 -32.4 190.93230469 -33.25 191.5625 C-34.09046875 192.17802734 -34.9309375 192.79355469 -35.796875 193.42773438 C-37.86873236 194.94631164 -39.93617964 196.47052772 -42 198 C-48.36590304 192.75541414 -54.13570612 186.97902678 -59.9375 181.125 C-60.91708237 180.14039081 -61.89689837 179.156014 -62.87695312 178.171875 C-65.25360252 175.78351797 -67.62787356 173.39284788 -70 171 C-68.77544094 167.53047763 -67.54830145 165.22392097 -64.93359375 162.64453125 C-58.5357248 156.03742187 -58.5357248 156.03742187 -55.86962891 147.54589844 C-56.66181193 141.69681337 -58.84916789 136.2636678 -63 132 C-67.92606761 129.15681095 -73.46525213 129.29295452 -79 129 C-81.97 128.34 -84.94 127.68 -88 127 C-88 114.13 -88 101.26 -88 88 C-72 85 -72 85 -66.80859375 84.30859375 C-63.46758015 83.52373842 -62.05332287 82.35145867 -60.09765625 79.53515625 C-58.97031823 77.38525435 -58.97031823 77.38525435 -58.0625 75.0625 C-57.73822021 74.27504395 -57.41394043 73.48758789 -57.07983398 72.67626953 C-55.86493062 68.75440841 -55.53754386 66.15760118 -57.08203125 62.29150391 C-60.64640517 56.27608089 -65.17636994 51.03870711 -70 46 C-68.37843976 41.89891114 -65.4232297 39.16851833 -62.3359375 36.140625 C-61.78386627 35.59138367 -61.23179504 35.04214233 -60.66299438 34.47625732 C-58.90498185 32.72940707 -57.1401311 30.98965399 -55.375 29.25 C-54.1792292 28.06426409 -52.98391135 26.8780712 -51.7890625 25.69140625 C-48.86459747 22.78894915 -45.93398126 19.8928359 -43 17 C-35.51840747 21.17599203 -35.51840747 21.17599203 -32.6484375 23.61328125 C-32.10703125 24.05607422 -31.565625 24.49886719 -31.0078125 24.95507812 C-29.90502283 25.87187097 -28.80878159 26.79659003 -27.71875 27.72851562 C-24.4898184 30.36691532 -24.4898184 30.36691532 -20.484375 30.953125 C-16.51614992 29.43072418 -12.63191113 27.77065415 -8.7421875 26.05859375 C-6 25 -6 25 -3 25 C-2.92652344 23.80117188 -2.92652344 23.80117188 -2.8515625 22.578125 C-2.77679688 21.47984375 -2.70203125 20.3815625 -2.625 19.25 C-2.55539063 18.18265625 -2.48578125 17.1153125 -2.4140625 16.015625 C-1.8603081 10.64525209 -0.88756498 5.32538989 0 0 Z " fill="#7676FE" transform="translate(236,2)"/>
<path d="M0 0 C1.07229343 0.79771344 2.14521003 1.5945899 3.21875 2.390625 C11.84060791 8.84231094 19.94192675 15.86398386 28 23 C28.57186035 23.50192871 29.1437207 24.00385742 29.73291016 24.52099609 C31.30688107 25.90348186 32.87357584 27.29366875 34.4375 28.6875 C35.76587891 29.86892578 35.76587891 29.86892578 37.12109375 31.07421875 C39 33 39 33 39 35 C26.79 35 14.58 35 2 35 C4.16682023 41.46128416 4.16682023 41.46128416 6.3371582 47.92138672 C7.2362653 50.61059381 8.120519 53.30431268 9 56 C9.30856934 56.93102539 9.61713867 57.86205078 9.93505859 58.82128906 C10.35972412 60.15111816 10.35972412 60.15111816 10.79296875 61.5078125 C11.04973389 62.30074707 11.30649902 63.09368164 11.57104492 63.91064453 C12 66 12 66 11 69 C10.443125 68.43152344 9.88625 67.86304688 9.3125 67.27734375 C4.3793021 62.28581412 -0.6587586 57.54789639 -6 53 C-6.92167969 52.18917969 -7.84335938 51.37835938 -8.79296875 50.54296875 C-28.11829984 33.6690149 -54.33652024 12.78121904 -81.25 14 C-99.63016329 15.30097768 -117.52757143 23.26347394 -130 37 C-143.93182513 54.77200769 -150.10546175 73.42738218 -148 96 C-145.72780126 112.89553336 -137.21878687 127.48680504 -125 139 C-124.20851563 139.74894531 -123.41703125 140.49789062 -122.6015625 141.26953125 C-108.59182844 153.44077861 -90.30498837 158.38454131 -72.00439453 157.20263672 C-50.1786959 154.996141 -29.9001609 138.45942763 -13.9921875 124.58984375 C-11.12988683 122.11242163 -8.20690266 119.73806486 -5.25 117.375 C-0.92320913 113.85830495 3.00597225 110.10423067 6.890625 106.109375 C8.83406149 104.16593851 10.83429501 102.39169219 12.9375 100.625 C18.10244466 96.21132002 22.51329686 91.08431729 27 86 C30.91209308 87.59415503 33.37218086 90.13893332 36.3125 93.125 C36.79960449 93.6192749 37.28670898 94.1135498 37.78857422 94.62280273 C41.05649972 97.96384224 44.19521939 101.38920444 47.23046875 104.94140625 C50.74355948 109.02837935 54.38674332 113.00165701 58 117 C56.35845001 120.99347833 53.59638939 123.89168102 50.6875 127 C50.15769531 127.56960449 49.62789062 128.13920898 49.08203125 128.72607422 C43.84002304 134.28955535 38.27080534 139.45106778 32.58935547 144.55908203 C31.04480887 145.95937604 29.52144064 147.37911939 28.00390625 148.80859375 C7.01818369 168.51992201 -17.80923362 186.99717921 -45 197 C-45.6919043 197.2568457 -46.38380859 197.51369141 -47.09667969 197.77832031 C-73.62973614 207.1862634 -102.9234029 202.87641166 -127.88964844 191.109375 C-155.51532942 177.81073 -176.15543127 154.66306406 -187 126 C-197.21706007 94.86898078 -195.65657178 61.00610063 -180.859375 31.625 C-176.45524545 23.30522538 -171.25356273 16.05501211 -165 9 C-164.38898438 8.24589844 -163.77796875 7.49179687 -163.1484375 6.71484375 C-145.08929025 -15.0714041 -116.30474103 -27.50329911 -88.7421875 -30.68359375 C-55.30937994 -33.51037602 -26.13543648 -19.9203022 0 0 Z " fill="#FCC827" transform="translate(198,308)"/>
<path d="M0 0 C9.97539248 4.67981376 17.33006497 12.25619721 25 20 C25.69480469 20.69738281 26.38960937 21.39476562 27.10546875 22.11328125 C50.51059721 46.83577154 56.99196518 78.27396412 56.17919922 111.31835938 C54.73948117 140.89730794 38.33383456 168.85171959 16.7890625 188.45214844 C-8.63283092 210.44652675 -40.01337868 218.06891198 -73 216 C-85.97237296 214.34732806 -98.4754057 208.99972113 -110 203 C-111.61442993 202.26317993 -111.61442993 202.26317993 -113.26147461 201.51147461 C-119.12235332 198.50263504 -123.23449107 196.02020511 -125.45568848 189.55921936 C-126.41443731 186.13082052 -127.13363862 182.68033191 -127.8125 179.1875 C-128.13389287 177.75477895 -128.46003757 176.32311526 -128.79101562 174.89257812 C-131 165.12194655 -131 165.12194655 -131 161 C-128.53672965 159.76836482 -126.5838986 159.69348875 -123.8359375 159.46484375 C-122.79566406 159.37783203 -121.75539063 159.29082031 -120.68359375 159.20117188 C-119.59175781 159.11416016 -118.49992187 159.02714844 -117.375 158.9375 C-116.30636719 158.84662109 -115.23773438 158.75574219 -114.13671875 158.66210938 C-111.09239432 158.41309637 -108.04799004 158.19853808 -105 158 C-104.23212158 157.93804443 -103.46424316 157.87608887 -102.6730957 157.81225586 C-97.54942954 157.55733181 -94.6810523 158.92485043 -90.4375 161.6875 C-75.39390626 170.84871501 -60.60254556 173.2408254 -43.375 170 C-31.91421497 166.92444756 -20.78753865 160.95652393 -12 153 C-10.99259766 152.12988281 -10.99259766 152.12988281 -9.96484375 151.2421875 C2.76862116 139.51464178 10.36649313 121.88778044 11.25390625 104.71875 C11.96177877 83.89318334 6.05216351 66.32829016 -7.6328125 50.44140625 C-12.82493061 45.08649896 -18.56348524 40.74322135 -25 37 C-21.22028571 34.57229839 -17.29255729 34.56015744 -12.9375 34.375 C-11.8865918 34.31699219 -11.8865918 34.31699219 -10.81445312 34.2578125 C-4.87653525 33.95743002 1.05581393 33.96254101 7 34 C6.85900879 33.39639648 6.71801758 32.79279297 6.57275391 32.17089844 C1.41504453 10.01091203 1.41504453 10.01091203 0 0 Z " fill="#FE5995" transform="translate(451,294)"/>
<path d="M0 0 C1.44632812 -0.01836914 1.44632812 -0.01836914 2.921875 -0.03710938 C19.51584595 -0.07092861 33.84471394 6.9759202 45.8125 18.1875 C57.27239868 29.71700931 63.5046773 44.73930952 63.8125 61 C63.66032057 77.41088951 57.48202726 93.25701984 46.25 105.31640625 C32.9424925 117.76620331 15.71875999 124.64137652 -2.48046875 124.39453125 C-18.99713286 123.34867319 -33.78062397 115.50690046 -45.15234375 103.69140625 C-50.87315873 97.1329345 -54.62993734 90.28766267 -57.75 82.1875 C-58.0903125 81.32898438 -58.430625 80.47046875 -58.78125 79.5859375 C-63.98894368 64.01107584 -61.01040133 47.52431791 -54.125 33.125 C-46.29054494 17.66905133 -33.77421844 7.84630706 -17.52734375 2.0625 C-11.54843649 0.17884989 -6.25433699 0.0041147 0 0 Z " fill="#F4F4F4" transform="translate(254.75,47.8125)"/>
<path d="M0 0 C3.91209308 1.59415503 6.37218086 4.13893332 9.3125 7.125 C9.79960449 7.6192749 10.28670898 8.1135498 10.78857422 8.62280273 C14.05649972 11.96384224 17.19521939 15.38920444 20.23046875 18.94140625 C23.74355948 23.02837935 27.38674332 27.00165701 31 31 C29.35845001 34.99347833 26.59638939 37.89168102 23.6875 41 C23.15769531 41.56960449 22.62789062 42.13920898 22.08203125 42.72607422 C16.84002304 48.28955535 11.27080534 53.45106778 5.58935547 58.55908203 C4.04480887 59.95937604 2.52144064 61.37911939 1.00390625 62.80859375 C-19.98181631 82.51992201 -44.80923362 100.99717921 -72 111 C-72.6919043 111.2568457 -73.38380859 111.51369141 -74.09667969 111.77832031 C-100.62973614 121.1862634 -129.9234029 116.87641166 -154.88964844 105.109375 C-183.34753156 91.41011867 -203.98248132 67.44713064 -214.78662109 37.84472656 C-218.3898302 27.16949059 -218.3898302 27.16949059 -217 23 C-216.13197754 23.57032959 -215.26395508 24.14065918 -214.36962891 24.72827148 C-211.15371487 26.84086036 -207.93686433 28.95201937 -204.71972656 31.06274414 C-203.32656614 31.97706656 -201.93366116 32.8917783 -200.54101562 33.80688477 C-198.54103296 35.12097594 -196.54014057 36.43367144 -194.5390625 37.74609375 C-193.91504547 38.15653427 -193.29102844 38.56697479 -192.64810181 38.98985291 C-189.4008418 41.12576706 -189.4008418 41.12576706 -186 43 C-185.91878906 42.12214844 -185.83757812 41.24429688 -185.75390625 40.33984375 C-184.88275795 34.24180566 -182.78724186 28.41841852 -180.9375 22.5625 C-180.56044922 21.35400391 -180.18339844 20.14550781 -179.79492188 18.90039062 C-178.8680528 15.93206307 -177.93628172 12.96536931 -177 10 C-176.34 10 -175.68 10 -175 10 C-174.70609375 11.34578125 -174.70609375 11.34578125 -174.40625 12.71875 C-170.55155581 28.80212919 -164.09127304 41.6069554 -152 53 C-151.20851563 53.74894531 -150.41703125 54.49789062 -149.6015625 55.26953125 C-135.59182844 67.44077861 -117.30498837 72.38454131 -99.00439453 71.20263672 C-77.1786959 68.996141 -56.9001609 52.45942763 -40.9921875 38.58984375 C-38.12988683 36.11242163 -35.20690266 33.73806486 -32.25 31.375 C-27.92320913 27.85830495 -23.99402775 24.10423067 -20.109375 20.109375 C-18.16593851 18.16593851 -16.16570499 16.39169219 -14.0625 14.625 C-8.89755534 10.21132002 -4.48670314 5.08431729 0 0 Z " fill="#FE5995" transform="translate(225,394)"/>
<path d="M0 0 C0.6403418 0.59240479 1.28068359 1.18480957 1.94042969 1.79516602 C3.54895476 3.37903835 5.15281136 4.96719041 6.75 6.5625 C7.31332031 7.11357422 7.87664062 7.66464844 8.45703125 8.23242188 C11.54125446 11.30570812 13.8026897 14.21713057 16 18 C17.37158922 19.48057209 18.79135878 20.91761058 20.25 22.3125 C24.4007516 26.36952495 28.2154709 30.60506298 32 35 C37.6853854 41.69312561 37.6853854 41.69312561 44.125 47.625 C47.18314548 50.15129409 49.58230266 52.88565388 52.15234375 55.890625 C56.97060524 61.39138865 62.2810943 66.34416249 67.82421875 71.1015625 C70.30652198 73.26745005 72.71055145 75.50876957 75.125 77.75 C84.68047351 86.4475926 94.92433288 94.12825188 105.6484375 101.3203125 C106.42445313 101.87460937 107.20046875 102.42890625 108 103 C108 103.33 108 103.66 108 104 C97.33561816 105.46067996 86.74975949 106.43144054 76 107 C76.24758057 107.8878418 76.49516113 108.77568359 76.75024414 109.69042969 C77.66559405 112.99078543 78.57215933 116.29329695 79.47290039 119.59765625 C79.8642681 121.02635098 80.25909686 122.45410235 80.6574707 123.88085938 C81.23003632 125.93380376 81.7900019 127.98983721 82.34765625 130.046875 C82.68804932 131.28276367 83.02844238 132.51865234 83.37915039 133.79199219 C83.95179622 136.75092504 84.06458736 138.23750135 83 141 C73.08594348 133.95222449 63.26833262 126.89078823 54 119 C52.85833764 118.04395462 51.71639322 117.08824601 50.57421875 116.1328125 C44.1735452 110.74622677 38.07098352 105.22328114 32.2265625 99.2265625 C30.22250592 97.22250592 28.16792527 95.38493917 26 93.5625 C18.10068184 86.77576187 11.60848511 78.57279351 5.08984375 70.49609375 C2.7614588 67.71508817 0.28545226 65.18946436 -2.32421875 62.67578125 C-4.1370738 60.8629262 -5.78068815 58.95601038 -7.4375 57 C-9.79980933 54.25189966 -12.23619241 51.84311241 -15 49.5 C-18.39962388 46.61685744 -21.27968699 43.54067238 -24.11523438 40.10595703 C-25.90810914 37.9936516 -25.90810914 37.9936516 -27.8984375 36.4465332 C-35.37215913 30.22366296 -37.03663984 22.13419046 -39.5 13.125 C-39.94297956 11.58786743 -40.38827532 10.05140037 -40.8359375 8.515625 C-44 -2.45928486 -44 -2.45928486 -44 -5 C-38.86002997 -5.29257762 -33.72028346 -5.5434493 -28.57641602 -5.75683594 C-26.82912968 -5.83507505 -25.08230311 -5.9244417 -23.33618164 -6.02539062 C-20.81697292 -6.16905807 -18.29878829 -6.27182488 -15.77734375 -6.3671875 C-15.00414291 -6.42002899 -14.23094208 -6.47287048 -13.43431091 -6.52731323 C-7.15261189 -6.7010559 -4.25570702 -4.43571676 0 0 Z " fill="#0DCBFE" transform="translate(244,348)"/>
<path d="M0 0 C9.97539248 4.67981376 17.33006497 12.25619721 25 20 C25.69480469 20.69738281 26.38960938 21.39476562 27.10546875 22.11328125 C50.50002643 46.82460577 56.99295435 78.26006778 56.18798828 111.29199219 C55.7931995 119.07907267 54.38609599 126.58477549 52 134 C51.82726562 134.7513623 51.65453125 135.50272461 51.4765625 136.27685547 C50.18724966 140.49988634 48.84544368 142.48300856 45.02441406 144.81958008 C41.22889075 146.54959087 37.40993102 148.05578276 33.5 149.5 C32.15381948 150.02576566 30.80875155 150.55438944 29.46484375 151.0859375 C19.36516794 155.03891136 19.36516794 155.03891136 15 156 C13.96842693 151.85955561 12.95386485 147.71540703 11.9543457 143.56713867 C11.61255289 142.15879728 11.26626951 140.75153737 10.9152832 139.34545898 C10.40930567 137.31507121 9.92002158 135.28124206 9.43359375 133.24609375 C9.13509521 132.02591553 8.83659668 130.8057373 8.52905273 129.54858398 C7.75189404 124.33584676 8.76592674 119.7826251 10.0625 114.75 C14.00333545 94.95557462 9.88782211 75.78238008 -1 59 C-7.47269991 49.73995724 -15.24413571 42.6736232 -25 37 C-21.22028571 34.57229839 -17.29255729 34.56015744 -12.9375 34.375 C-11.8865918 34.31699219 -11.8865918 34.31699219 -10.81445312 34.2578125 C-4.87653525 33.95743002 1.05581393 33.96254101 7 34 C6.85900879 33.39639648 6.71801758 32.79279297 6.57275391 32.17089844 C1.41504453 10.01091203 1.41504453 10.01091203 0 0 Z " fill="#FBC827" transform="translate(451,294)"/>
<path d="M0 0 C1.07229343 0.79771344 2.14521003 1.5945899 3.21875 2.390625 C11.84060791 8.84231094 19.94192675 15.86398386 28 23 C28.57186035 23.50192871 29.1437207 24.00385742 29.73291016 24.52099609 C31.30688107 25.90348186 32.87357584 27.29366875 34.4375 28.6875 C35.76587891 29.86892578 35.76587891 29.86892578 37.12109375 31.07421875 C39 33 39 33 39 35 C26.79 35 14.58 35 2 35 C4.16682023 41.46128416 4.16682023 41.46128416 6.3371582 47.92138672 C7.2362653 50.61059381 8.120519 53.30431268 9 56 C9.30856934 56.93102539 9.61713867 57.86205078 9.93505859 58.82128906 C10.35972412 60.15111816 10.35972412 60.15111816 10.79296875 61.5078125 C11.04973389 62.30074707 11.30649902 63.09368164 11.57104492 63.91064453 C12 66 12 66 11 69 C10.443125 68.43152344 9.88625 67.86304688 9.3125 67.27734375 C4.3793021 62.28581412 -0.6587586 57.54789639 -6 53 C-6.92167969 52.18917969 -7.84335938 51.37835938 -8.79296875 50.54296875 C-28.42925317 33.39750534 -50.76974579 17.84365366 -76.86328125 13.33203125 C-84.24416113 11.69243697 -91.14197445 8.35143423 -98.0625 5.375 C-99.51467463 4.75710853 -100.96714645 4.13991505 -102.41992188 3.5234375 C-105.95009395 2.02365372 -109.47610478 0.51446965 -113 -1 C-111.2358377 -4.05431209 -109.45248599 -6.81693027 -107.109375 -9.453125 C-106.56796875 -10.06849121 -106.0265625 -10.68385742 -105.46875 -11.31787109 C-104.61796875 -12.2742749 -104.61796875 -12.2742749 -103.75 -13.25 C-99.41797454 -18.15347904 -95.28122829 -23.06473939 -91.5625 -28.4609375 C-71.49588561 -48.22655267 -15.54251696 -11.84643061 0 0 Z " fill="#FE5996" transform="translate(198,308)"/>
<path d="M0 0 C3.91209308 1.59415503 6.37218086 4.13893332 9.3125 7.125 C10.04315674 7.86641235 10.04315674 7.86641235 10.78857422 8.62280273 C14.05649972 11.96384224 17.19521939 15.38920444 20.23046875 18.94140625 C23.74355948 23.02837935 27.38674332 27.00165701 31 31 C29.35845001 34.99347833 26.59638939 37.89168102 23.6875 41 C23.15769531 41.56960449 22.62789063 42.13920898 22.08203125 42.72607422 C16.84002304 48.28955535 11.27080534 53.45106778 5.58935547 58.55908203 C4.04480887 59.95937604 2.52144064 61.37911939 1.00390625 62.80859375 C-10.84178761 73.93321121 -23.85360763 83.48083354 -37 93 C-38.33026868 89.00919397 -37.30441533 87.30507545 -35.91015625 83.36328125 C-35.68678085 82.72384079 -35.46340546 82.08440033 -35.23326111 81.42558289 C-34.51815452 79.38478818 -33.79052623 77.34871711 -33.0625 75.3125 C-32.57534036 73.92932904 -32.08900206 72.54586851 -31.60351562 71.16210938 C-30.41185446 67.77132824 -29.20892375 64.38467044 -28 61 C-28.97404785 60.87302734 -29.9480957 60.74605469 -30.95166016 60.61523438 C-38.10922825 59.6732402 -45.25956214 58.72633493 -52.375 57.5 C-53.10976562 57.38269531 -53.84453125 57.26539063 -54.6015625 57.14453125 C-56.41435179 56.83232865 -58.21031758 56.42510271 -60 56 C-60.33 55.34 -60.66 54.68 -61 54 C-60.33355469 53.52691406 -59.66710937 53.05382812 -58.98046875 52.56640625 C-52.09597587 47.62690297 -45.48522796 42.45135104 -39 37 C-38.14172607 36.27925293 -38.14172607 36.27925293 -37.26611328 35.54394531 C-28.12862492 27.86028933 -28.12862492 27.86028933 -19.55859375 19.55859375 C-17.84697309 17.84697309 -16.03930915 16.30845324 -14.1875 14.75 C-8.9857239 10.28403506 -4.52789285 5.13099334 0 0 Z " fill="#FBC827" transform="translate(225,394)"/>
<path d="M0 0 C3.04509075 1.59303359 6.0302292 3.270708 9 5 C9.72703125 5.41121094 10.4540625 5.82242187 11.203125 6.24609375 C16.73333535 9.80273666 18.48161343 13.71989289 20.73828125 19.78515625 C24.63784078 29.72118564 30.95041791 38.08815498 38 46 C39.12341797 47.26650391 39.12341797 47.26650391 40.26953125 48.55859375 C58.05095025 67.46056651 83.92335957 78.43553707 109.69946289 79.58935547 C138.43846559 80.00108095 163.69098332 64.6168587 186 48 C187.85330952 51.70661904 185.4912994 55.93030514 184.25 59.6875 C180.42175156 70.8167651 180.42175156 70.8167651 175 74.25 C173.01891153 75.20685226 171.01693087 76.12121239 169 77 C167.26085363 77.99806682 165.52194517 78.99660653 163.78955078 80.00634766 C155.02756756 85.00296503 145.6916031 88.29078158 136 91 C135.31695801 91.19577637 134.63391602 91.39155273 133.93017578 91.59326172 C106.04525411 98.74798756 75.91708683 90.28019476 51.7890625 76.10498047 C26.19497721 60.29727986 8.23149141 34.60579875 0.55859375 5.6875 C0 3 0 3 0 0 Z " fill="#FE2588" transform="translate(7,417)"/>
<path d="M0 0 C1.74099067 0.23327687 3.48253181 0.46248369 5.22460938 0.6875 C9.4700524 1.2448274 13.70420913 1.85708106 17.9375 2.5 C17.29082189 6.4499553 16.08143914 9.82664709 14.50390625 13.5 C14.01986328 14.634375 13.53582031 15.76875 13.03710938 16.9375 C12.52986328 18.113125 12.02261719 19.28875 11.5 20.5 C10.5009739 22.83319284 9.50226399 25.16652109 8.50390625 27.5 C7.83790405 29.046875 7.83790405 29.046875 7.15844727 30.625 C6.37399739 32.47216691 5.62743879 34.33614374 4.9296875 36.21777344 C3.500901 39.50426364 1.03072187 41.45440981 -1.625 43.75 C-7.40087216 48.89931142 -12.92054229 54.26171353 -18.375 59.75 C-19.13433838 60.51344727 -19.89367676 61.27689453 -20.67602539 62.06347656 C-22.47357766 63.87362802 -24.2691756 65.68566134 -26.0625 67.5 C-26.76632812 66.79488281 -27.47015625 66.08976562 -28.1953125 65.36328125 C-30.10001542 63.45790813 -32.01203503 61.56030353 -33.9296875 59.66796875 C-39.00157884 54.64947452 -43.99332609 49.63800411 -48.58984375 44.171875 C-49.99316547 42.578714 -51.47317744 41.21560766 -53.0625 39.8125 C-55.0625 37.5 -55.0625 37.5 -55.078125 35.2578125 C-53.59759168 31.23759509 -50.90019605 28.95088088 -47.8125 26.0625 C-42.88754986 21.37639738 -42.88754986 21.37639738 -38.375 16.30078125 C-35.89768679 13.30038671 -33.30350771 10.93057633 -30.29663086 8.48632812 C-28.02934293 6.58504736 -28.02934293 6.58504736 -26.34887695 4.34326172 C-18.95943011 -4.24947912 -10.06969246 -1.54257494 0 0 Z " fill="#FBC927" transform="translate(312.0625,326.5)"/>
<path d="M0 0 C-0.85566566 1.35480395 -1.72559883 2.70138181 -2.63671875 4.01953125 C-3.63563089 5.47067295 -4.59076568 6.952211 -5.51953125 8.44921875 C-9.82023605 14.71756627 -13.57486023 17.05476693 -20.86523438 19.10449219 C-33.24242302 22.63996249 -44.43361445 29.47993787 -54 38 C-55.2065625 38.97646484 -55.2065625 38.97646484 -56.4375 39.97265625 C-73.77160032 54.46288074 -83.56202603 75.20637783 -88 97 C-88.1743457 97.60368408 -88.34869141 98.20736816 -88.52832031 98.8293457 C-91.65347792 113.21121747 -89.6735931 130.83858413 -86 145 C-85.80277344 145.7940625 -85.60554688 146.588125 -85.40234375 147.40625 C-85.20318359 148.19515625 -85.20318359 148.19515625 -85 149 C-88.03082355 147.3849353 -91.02230711 145.71099179 -94 144 C-94.68835938 143.61585938 -95.37671875 143.23171875 -96.0859375 142.8359375 C-99.42622308 140.7641148 -100.80677968 139.53779655 -102.171875 135.73828125 C-103.55016727 129.41566175 -103.34080888 122.93887359 -103.3125 116.5 C-103.31001251 115.82915375 -103.30752502 115.1583075 -103.30496216 114.46713257 C-103.14199655 86.10900114 -93.89153498 60.31265228 -75 39 C-74.38898438 38.24589844 -73.77796875 37.49179687 -73.1484375 36.71484375 C-56.81677377 17.01260261 -26.02457784 -0.74355937 0 0 Z " fill="#FCAB1A" transform="translate(108,278)"/>
<path d="M0 0 C1.07229343 0.79771344 2.14521003 1.5945899 3.21875 2.390625 C11.84060791 8.84231094 19.94192675 15.86398386 28 23 C28.57186035 23.50192871 29.1437207 24.00385742 29.73291016 24.52099609 C31.30688107 25.90348186 32.87357584 27.29366875 34.4375 28.6875 C35.76587891 29.86892578 35.76587891 29.86892578 37.12109375 31.07421875 C39 33 39 33 39 35 C21.91406403 36.63201446 21.91406403 36.63201446 15.71484375 33.16015625 C12.9892256 30.55786924 10.51522564 27.80515435 8 25 C5.86702972 23.10817763 3.63539551 21.36144194 1.375 19.625 C0.78662354 19.17012207 0.19824707 18.71524414 -0.40795898 18.24658203 C-2.2647747 16.82132362 -4.13138388 15.40974198 -6 14 C-6.63115723 13.51772949 -7.26231445 13.03545898 -7.91259766 12.53857422 C-34.90460198 -7.94021555 -62.30127601 -19.67139764 -96.375 -15 C-98.25289006 -14.68335343 -100.12945915 -14.35750951 -102 -14 C-99.80735636 -17.82665195 -97.36272752 -21.29280143 -94.625 -24.75 C-93.49964844 -26.19632812 -93.49964844 -26.19632812 -92.3515625 -27.671875 C-71.61103404 -48.20568723 -16.46926064 -12.55279012 0 0 Z " fill="#FE2688" transform="translate(198,308)"/>
<path d="M0 0 C2 1 2 1 2.8515625 3.4765625 C3.10679687 4.51554687 3.36203125 5.55453125 3.625 6.625 C4.01558594 8.16027344 4.01558594 8.16027344 4.4140625 9.7265625 C5.30210791 14.68777619 5.87660991 18.38097724 3.41796875 22.921875 C-12.3721257 42.94294046 -30.40550713 56.29793329 -56 61 C-78.51201215 63.20960234 -99.24673463 55.48164651 -116.75 41.5625 C-118.17338436 40.38306045 -119.5927544 39.19864946 -121 38 C-120.67 36.68 -120.34 35.36 -120 34 C-109.20872258 32.20612531 -102.91095176 32.77183719 -93.48046875 38.8515625 C-80.43909859 47.20774051 -65.20907249 47.79056809 -50.375 45 C-38.91421497 41.92444756 -27.78753865 35.95652393 -19 28 C-17.99259766 27.12988281 -17.99259766 27.12988281 -16.96484375 26.2421875 C-9.13500258 19.0308887 -4.00263228 9.76642277 0 0 Z " fill="#FE2688" transform="translate(458,419)"/>
<path d="M0 0 C1.0516635 1.05131756 2.11546811 2.09055392 3.1875 3.12109375 C12.67577389 12.27704255 12.67577389 12.27704255 16 18 C17.37158922 19.48057209 18.79135878 20.91761058 20.25 22.3125 C24.4007516 26.36952495 28.2154709 30.60506298 32 35 C37.6853854 41.69312561 37.6853854 41.69312561 44.125 47.625 C47.18314548 50.15129409 49.58230266 52.88565388 52.15234375 55.890625 C56.97060524 61.39138865 62.2810943 66.34416249 67.82421875 71.1015625 C70.30652198 73.26745005 72.71055145 75.50876957 75.125 77.75 C84.68047351 86.4475926 94.92433288 94.12825188 105.6484375 101.3203125 C106.42445313 101.87460937 107.20046875 102.42890625 108 103 C108 103.33 108 103.66 108 104 C105.43795456 104.33719047 102.87545682 104.66987153 100.3125 105 C99.59126953 105.09539062 98.87003906 105.19078125 98.12695312 105.2890625 C94.39007129 105.76683735 90.77708469 106.11919794 87 106 C86.76023437 105.41347656 86.52046875 104.82695312 86.2734375 104.22265625 C84.74055032 101.54715684 83.08984021 100.28413595 80.625 98.4375 C75.50557651 94.4721662 70.78645682 90.21923191 66.0546875 85.80859375 C63.79208777 83.7046669 61.47601069 81.67445706 59.13671875 79.65625 C54.89544469 75.95998066 50.90288514 72.05096207 46.9375 68.0625 C46.26912109 67.39798828 45.60074219 66.73347656 44.91210938 66.04882812 C41.03201731 62.16119458 37.34580431 58.16452298 33.75756836 54.00708008 C30.70415834 50.52019527 27.50223814 47.17425491 24.3125 43.8125 C22.90319066 42.32074238 21.49434095 40.82855042 20.0859375 39.3359375 C19.3959668 38.6047168 18.70599609 37.87349609 17.99511719 37.12011719 C15.1276449 34.07298927 12.27726723 31.01044728 9.4375 27.9375 C8.94548096 27.40568115 8.45346191 26.8738623 7.9465332 26.32592773 C5.39890319 23.56004213 2.92246132 20.75058358 0.5 17.875 C-6.22327701 10.11863408 -14.22341562 3.34151112 -22.453125 -2.7578125 C-23.21882812 -3.37269531 -23.21882812 -3.37269531 -24 -4 C-24 -4.33 -24 -4.66 -24 -5 C-19.73453581 -5.52778522 -15.49532857 -5.96127903 -11.19921875 -6.125 C-10.48596436 -6.15335937 -9.77270996 -6.18171875 -9.0378418 -6.2109375 C-4.65898439 -5.7576809 -2.65223469 -3.24098506 0 0 Z " fill="#0DB9D7" transform="translate(244,348)"/>
<path d="M0 0 C1.44234009 0.0141394 1.44234009 0.0141394 2.91381836 0.02856445 C10.69818392 0.19246645 17.76939517 1.10393657 25.25 3.375 C26.85681641 3.83326172 26.85681641 3.83326172 28.49609375 4.30078125 C36.73532608 7.02081593 42.71170402 11.43878907 49.25390625 16.94921875 C51.63937041 18.88060499 53.52643768 20.10033615 56.25 21.375 C33.12041304 23.43573214 33.12041304 23.43573214 24.140625 18.72265625 C11.3713848 12.7694294 -3.50595918 13.16256473 -16.59765625 17.56152344 C-34.62787951 24.37603159 -50.57336728 36.36622255 -64.91796875 49 C-67.76394848 51.38669748 -70.62681541 53.37616186 -73.75 55.375 C-71.9972749 44.13024418 -67.36120684 32.15327632 -58.0625 25.25 C-56.2443092 23.97057728 -54.40810325 22.73885918 -52.53613281 21.53955078 C-50.82917406 20.42662114 -49.18917283 19.21296608 -47.5546875 17.99609375 C-41.66191838 13.63190008 -35.67193854 10.14168986 -29.0625 7 C-28.38598389 6.67813721 -27.70946777 6.35627441 -27.01245117 6.0246582 C-18.06116086 1.94254161 -9.86507288 -0.15099156 0 0 Z " fill="#0DB9D7" transform="translate(390.75,307.625)"/>
<path d="M0 0 C0.74507812 0.00451172 1.49015625 0.00902344 2.2578125 0.01367188 C4.0885764 0.02540754 5.91929873 0.0433415 7.75 0.0625 C7.75 0.3925 7.75 0.7225 7.75 1.0625 C6.69425781 1.26552734 6.69425781 1.26552734 5.6171875 1.47265625 C-11.73286707 5.25523995 -25.37544346 14.22534582 -35.25 29.0625 C-43.79016963 42.65997678 -46.03375521 58.63321917 -43 74.1875 C-39.1456148 90.42588209 -30.73291876 104.41579909 -16.25 113.375 C-8.1689212 117.88247385 -0.2358127 120.84543967 8.75 123.0625 C8.75 123.3925 8.75 123.7225 8.75 124.0625 C-8.78064875 124.91534237 -24.49429966 119.78135448 -37.94140625 108.27734375 C-45.96362335 100.58090197 -51.25873981 92.42442548 -55.25 82.0625 C-55.5903125 81.20398438 -55.930625 80.34546875 -56.28125 79.4609375 C-61.48894368 63.88607584 -58.51040133 47.39931791 -51.625 33 C-43.79054494 17.54405133 -31.27421844 7.72130706 -15.02734375 1.9375 C-9.89379046 0.32017801 -5.38525622 -0.06184482 0 0 Z " fill="#E3E3E5" transform="translate(252.25,47.9375)"/>
<path d="M0 0 C4.75993044 3.03262708 8.31198518 6.76725956 12 11 C12.73992187 11.80179687 13.47984375 12.60359375 14.2421875 13.4296875 C25.38132279 26.30254035 32.33945009 42.93579388 33 60 C33.0515625 61.12921875 33.103125 62.2584375 33.15625 63.421875 C33.5512999 79.55307941 29.35971955 95.27696943 19 108 C18.29649447 105.31580938 17.61204007 102.62898167 16.9375 99.9375 C16.73833984 99.18533203 16.53917969 98.43316406 16.33398438 97.65820312 C14.74952014 91.23695334 15.42084046 86.12207111 17.0625 79.75 C21.00333545 59.95557462 16.88782211 40.78238008 6 24 C-0.47269991 14.73995724 -8.24413571 7.6736232 -18 2 C-12.41001265 -1.3293307 -6.23511623 -1.26915205 0 0 Z " fill="#FBAB1A" transform="translate(444,329)"/>
<path d="M0 0 C5.70912984 0.96215554 10.53604483 3.31541365 15.75 5.75 C16.72066406 6.18054688 17.69132812 6.61109375 18.69140625 7.0546875 C19.61308594 7.48523438 20.53476563 7.91578125 21.484375 8.359375 C22.74846191 8.93896973 22.74846191 8.93896973 24.03808594 9.53027344 C26 11 26 11 26.93139648 13.45410156 C27.0123922 16.45987844 26.60664827 17.19158246 24.61328125 19.375 C23.8234082 20.26445313 23.8234082 20.26445313 23.01757812 21.171875 C22.45490234 21.77515625 21.89222656 22.3784375 21.3125 23 C20.22468884 24.20781879 19.13743857 25.41614301 18.05078125 26.625 C17.52436035 27.19605469 16.99793945 27.76710938 16.45556641 28.35546875 C14.81407002 30.15828264 14.81407002 30.15828264 12.85546875 32.9375 C11.93701172 33.9584375 11.93701172 33.9584375 11 35 C9.68 35 8.36 35 7 35 C6.35571289 33.20214844 6.35571289 33.20214844 6 31 C7.73852561 28.56429914 9.43872727 26.44937508 11.4375 24.25 C11.96666016 23.64800781 12.49582031 23.04601562 13.04101562 22.42578125 C14.34943866 20.94054429 15.67329421 19.46892866 17 18 C-1.89372589 20.99775192 -16.14202958 32.16235761 -27.83984375 46.99609375 C-44.14694293 69.6726928 -51.1885128 97.04293714 -46.9375 124.75 C-44.61978897 138.30656104 -39.83804189 151.26757058 -32.08984375 162.65234375 C-31 165 -31 165 -31.81640625 167.31640625 C-32.20699219 167.87199219 -32.59757812 168.42757812 -33 169 C-34.86352539 168.70556641 -34.86352539 168.70556641 -37 168 C-38.68202462 165.46643162 -40.07459491 163.07364555 -41.4375 160.375 C-41.83146973 159.60808838 -42.22543945 158.84117676 -42.63134766 158.05102539 C-55.80382484 131.73592212 -57.96187209 101.67228404 -49.10131836 73.65893555 C-43.96724632 58.39822998 -35.88754646 45.76243858 -25 34 C-24.29875 33.22914063 -23.5975 32.45828125 -22.875 31.6640625 C-15.12682764 23.50973595 -6.45245987 18.45027478 3.8984375 14.26171875 C7.19126821 12.96871185 7.19126821 12.96871185 11 11 C7.04 9.02 3.08 7.04 -1 5 C-0.67 3.35 -0.34 1.7 0 0 Z " fill="#5959FF" transform="translate(96,97)"/>
<path d="M0 0 C19.77453669 -1.02282086 37.33937093 7.41729401 51.96044922 20.18237305 C70.66319678 37.09384837 83.77501914 61.07411265 85.13720703 86.56787109 C85.90213975 105.45434799 83.47948678 121.59772743 76 139 C75.67515625 139.77601563 75.3503125 140.55203125 75.015625 141.3515625 C74.35858261 142.90738929 73.68258257 144.45520787 73 146 C73.96421875 145.62746094 74.9284375 145.25492188 75.921875 144.87109375 C77.19770275 144.39265834 78.47375647 143.91482521 79.75 143.4375 C80.70132813 143.0672168 80.70132813 143.0672168 81.671875 142.68945312 C85.11009179 141.41802921 87.52168882 140.53313645 91 142 C91 143.32 91 144.64 91 146 C88.12595407 147.12744793 85.25059574 148.25151143 82.375 149.375 C81.56675781 149.69210937 80.75851562 150.00921875 79.92578125 150.3359375 C67.19156849 155.30538638 67.19156849 155.30538638 62 155 C60.71153094 145.29046527 59.65942331 135.81996112 60 126 C61.65 126.33 63.3 126.66 65 127 C65.99 134.425 65.99 134.425 67 142 C71.00556853 134.82723775 73.75074775 128.17000444 75.8125 120.25 C76.0189917 119.45875732 76.2254834 118.66751465 76.43823242 117.85229492 C82.47582304 93.58275279 78.12957468 68.38941597 65.77734375 46.8203125 C63.12582793 42.61285222 60.22797485 38.77842951 57 35 C56.03513672 33.80117187 56.03513672 33.80117187 55.05078125 32.578125 C42.97141356 18.1989886 25.84702334 8.01387159 7 6.375 C6.113125 6.32085937 5.22625 6.26671875 4.3125 6.2109375 C2 6 2 6 -1 5 C-0.67 3.35 -0.34 1.7 0 0 Z " fill="#5959FF" transform="translate(385,111)"/>
<path d="M0 0 C21.11170109 -2.3700528 21.11170109 -2.3700528 27.15087891 1.31103516 C30.61345932 4.70252752 32.84047576 8.76279958 34.98730469 13.07177734 C36.44229368 15.84214935 38.33469659 18.22126955 40.25 20.6875 C41.953125 22.94921875 41.953125 22.94921875 43 25 C42.53552169 28.2040287 41.29644384 30.29954364 39.41796875 32.8984375 C38.89783203 33.62546875 38.37769531 34.3525 37.84179688 35.1015625 C37.29587891 35.85179687 36.74996094 36.60203125 36.1875 37.375 C35.11779991 38.86148311 34.0487766 40.3484535 32.98046875 41.8359375 C32.45469238 42.54250488 31.92891602 43.24907227 31.38720703 43.97705078 C29.80321284 46.15486084 29.80321284 46.15486084 28.44140625 49.515625 C25.38622388 52.62457858 24.19287621 52.42646678 19.921875 52.5859375 C17.53054832 52.54608206 15.13958539 52.47456606 12.75 52.375 C11.52796875 52.34792969 10.3059375 52.32085937 9.046875 52.29296875 C6.02947259 52.22224838 3.0156243 52.12359116 0 52 C5.33186444 43.40642845 11.06293707 35.18287346 17 27 C13.37803224 20.30294575 8.96004636 14.33474655 4.42578125 8.23242188 C3.85730469 7.45833984 3.28882813 6.68425781 2.703125 5.88671875 C2.18395508 5.18764404 1.66478516 4.48856934 1.12988281 3.76831055 C0 2 0 2 0 0 Z " fill="#FF5996" transform="translate(374,12)"/>
<path d="M0 0 C1.5631897 0.00785522 1.5631897 0.00785522 3.15795898 0.01586914 C4.28266602 0.0190918 5.40737305 0.02231445 6.56616211 0.02563477 C7.75016602 0.03401367 8.93416992 0.04239258 10.15405273 0.05102539 C11.34192383 0.05553711 12.52979492 0.06004883 13.75366211 0.06469727 C16.69967499 0.07652864 19.64558954 0.09301252 22.59155273 0.11352539 C21.41271262 3.28952337 20.18340018 5.94273131 18.13061523 8.63696289 C17.65881836 9.26602539 17.18702148 9.89508789 16.70092773 10.54321289 C16.21108398 11.18516602 15.72124023 11.82711914 15.21655273 12.48852539 C11.62714926 17.21041445 8.43349673 21.90104991 5.59155273 27.11352539 C5.92888428 27.58661133 6.26621582 28.05969727 6.61376953 28.54711914 C8.17124035 30.73423984 9.72515755 32.92386301 11.27905273 35.11352539 C11.80950195 35.85731445 12.33995117 36.60110352 12.88647461 37.36743164 C16.29834198 42.18172302 19.52549536 47.07183149 22.59155273 52.11352539 C0.73058019 55.13651286 0.73058019 55.13651286 -5.85131836 50.3293457 C-9.88196226 45.837974 -12.66953642 40.70675634 -15.2746582 35.29174805 C-16.43329915 32.87740333 -16.43329915 32.87740333 -18.79125977 30.25024414 C-20.40844727 28.11352539 -20.40844727 28.11352539 -20.23217773 26.31665039 C-19.15926564 23.44707162 -17.60909799 21.23287007 -15.84594727 18.72680664 C-14.77473633 17.19636719 -14.77473633 17.19636719 -13.68188477 15.63500977 C-12.93165039 14.57604492 -12.18141602 13.51708008 -11.40844727 12.42602539 C-10.65821289 11.35545898 -9.90797852 10.28489258 -9.13500977 9.18188477 C-2.77574581 0.1308385 -2.77574581 0.1308385 0 0 Z " fill="#FF5996" transform="translate(115.408447265625,11.886474609375)"/>
<path d="M0 0 C20.99780156 -2.69171354 20.99780156 -2.69171354 27.26513672 1.5234375 C31.01541149 5.45427009 33.54371348 10.06124573 35.94091797 14.90527344 C37.31619874 17.6254 38.99442482 20.07510191 40.75 22.5625 C41.50264077 23.70660048 42.25400265 24.85155671 43 26 C39.96290989 31.53865466 36.54011732 36.67152643 32.875 41.8125 C32.33746094 42.57498047 31.79992187 43.33746094 31.24609375 44.12304688 C27.27056421 49.72943579 27.27056421 49.72943579 25 52 C22.47802734 52.22705078 22.47802734 52.22705078 19.3359375 52.1953125 C18.21445312 52.18886719 17.09296875 52.18242188 15.9375 52.17578125 C14.761875 52.15902344 13.58625 52.14226562 12.375 52.125 C10.59996094 52.11146484 10.59996094 52.11146484 8.7890625 52.09765625 C5.85917477 52.07402812 2.9296866 52.04108514 0 52 C3.48550105 45.60427478 7.62057972 39.82723457 11.9296875 33.96484375 C12.45304687 33.23910156 12.97640625 32.51335938 13.515625 31.765625 C13.99290039 31.11368164 14.47017578 30.46173828 14.96191406 29.79003906 C16.25083432 27.91234775 16.25083432 27.91234775 16 25 C14.50465686 22.4665508 14.50465686 22.4665508 12.5 19.74609375 C11.778125 18.72708984 11.05625 17.70808594 10.3125 16.65820312 C9.549375 15.59537109 8.78625 14.53253906 8 13.4375 C6.49585046 11.33499368 4.9956319 9.22966765 3.5 7.12109375 C2.8296875 6.1870874 2.159375 5.25308105 1.46875 4.29077148 C0 2 0 2 0 0 Z " fill="#0CCCFF" transform="translate(422,12)"/>
<path d="M0 0 C2.52197266 -0.34057617 2.52197266 -0.34057617 5.6640625 -0.29296875 C6.78554687 -0.28330078 7.90703125 -0.27363281 9.0625 -0.26367188 C10.238125 -0.23853516 11.41375 -0.21339844 12.625 -0.1875 C14.40003906 -0.16719727 14.40003906 -0.16719727 16.2109375 -0.14648438 C19.14107539 -0.11103916 22.07031459 -0.06162769 25 0 C23.76159181 3.35291462 22.37822077 6.13738249 20.28515625 9.03125 C19.76373047 9.75957031 19.24230469 10.48789062 18.70507812 11.23828125 C18.16302734 11.98464844 17.62097656 12.73101562 17.0625 13.5 C12.28817018 20.08912042 12.28817018 20.08912042 8 27 C8.72445312 27.97839844 9.44890625 28.95679687 10.1953125 29.96484375 C25 50.01653558 25 50.01653558 25 52 C3.84380026 54.04308443 3.84380026 54.04308443 -2.03662109 50.91748047 C-5.21391355 48.10212049 -7.16400604 44.61014648 -9.04248047 40.84423828 C-10.6368212 37.77344535 -12.65155816 35.02749606 -14.625 32.1875 C-15.75483436 30.46148822 -16.88177748 28.73355726 -18 27 C-13.8758504 18.89391286 -8.61348642 11.81508669 -3.1574707 4.57470703 C-2.06010596 3.08177251 -1.02777771 1.54166657 0 0 Z " fill="#0CCCFF" transform="translate(65,12)"/>
<path d="M0 0 C2.29760553 0.03984287 4.59483332 0.11134253 6.890625 0.2109375 C8.65212891 0.25154297 8.65212891 0.25154297 10.44921875 0.29296875 C13.3482066 0.36367577 16.2434897 0.46231794 19.140625 0.5859375 C17.93254863 3.82017145 16.61797073 6.60265002 14.64453125 9.43359375 C14.16822266 10.12130859 13.69191406 10.80902344 13.20117188 11.51757812 C12.45963867 12.57235352 12.45963867 12.57235352 11.703125 13.6484375 C11.21263672 14.35548828 10.72214844 15.06253906 10.21679688 15.79101562 C6.3837358 21.30007102 6.3837358 21.30007102 4.23046875 23.83203125 C2.92608453 25.51155466 2.92608453 25.51155466 3.40893555 27.44750977 C4.22414471 29.83003132 5.28950789 31.51122686 6.7578125 33.5546875 C7.28246094 34.29074219 7.80710937 35.02679688 8.34765625 35.78515625 C8.89808594 36.54441406 9.44851562 37.30367187 10.015625 38.0859375 C10.55832031 38.84519531 11.10101563 39.60445312 11.66015625 40.38671875 C14.67423654 44.59747138 14.67423654 44.59747138 17.82080078 48.70898438 C19.140625 50.5859375 19.140625 50.5859375 19.140625 52.5859375 C-1.98665403 54.95773912 -1.98665403 54.95773912 -8.02636719 51.25878906 C-11.50167576 47.85404513 -13.75509017 43.79733286 -15.89404297 39.46240234 C-17.200682 36.92248641 -18.88594258 34.73185852 -20.609375 32.4609375 C-22.36977545 30.05247754 -22.93464765 29.20804193 -22.57250977 26.21508789 C-21.83352956 23.49065181 -20.92994579 21.85790536 -19.27734375 19.58984375 C-18.75720703 18.86603516 -18.23707031 18.14222656 -17.70117188 17.39648438 C-17.15525391 16.65462891 -16.60933594 15.91277344 -16.046875 15.1484375 C-14.97721538 13.67104273 -13.90819279 12.19318651 -12.83984375 10.71484375 C-12.31471191 10.01456055 -11.78958008 9.31427734 -11.24853516 8.59277344 C-9.66147733 6.4282581 -9.66147733 6.4282581 -8.26953125 3.07421875 C-5.28261999 -0.00951298 -4.19581446 0.16244539 0 0 Z " fill="#FF5996" transform="translate(22.859375,11.4140625)"/>
<path d="M0 0 C21.14950228 -2.53258289 21.14950228 -2.53258289 27.16699219 1.42529297 C30.67053021 5.10963964 32.9041973 9.44431069 35.03466797 14.02539062 C36.31475602 16.64384084 37.99000316 18.87233637 39.75 21.1875 C41.42862939 23.45180503 42.00760246 24.44597054 41.96875 27.27734375 C40.58051303 31.17896138 38.2596416 34.11181066 35.75 37.375 C34.78604999 38.65333802 33.82250636 39.93198258 32.859375 41.2109375 C32.37041748 41.83379639 31.88145996 42.45665527 31.37768555 43.09838867 C29.95540702 44.95667289 29.95540702 44.95667289 28.97583008 47.02075195 C27.820039 49.17548259 26.94432792 50.50146644 25 52 C20.70129119 52.86143084 16.54896277 52.65984908 12.1875 52.4375 C11.01767578 52.40591797 9.84785156 52.37433594 8.64257812 52.34179688 C5.75916163 52.25941355 2.88086513 52.14444007 0 52 C1.18991842 48.79510257 2.44944818 46.10823846 4.49609375 43.37109375 C4.97240234 42.72849609 5.44871094 42.08589844 5.93945312 41.42382812 C6.43380859 40.76833984 6.92816406 40.11285156 7.4375 39.4375 C7.92798828 38.77814453 8.41847656 38.11878906 8.92382812 37.43945312 C9.40142578 36.79814453 9.87902344 36.15683594 10.37109375 35.49609375 C10.82597168 34.88362793 11.28084961 34.27116211 11.74951172 33.64013672 C12.75699857 32.31871995 13.8249178 31.04350022 14.91015625 29.78515625 C16.20857537 28.08138205 16.20857537 28.08138205 15.74755859 26.16162109 C14.87450157 23.63711198 13.67329096 21.80833855 12.12890625 19.62890625 C11.55462891 18.80712891 10.98035156 17.98535156 10.38867188 17.13867188 C9.4847168 15.8634668 9.4847168 15.8634668 8.5625 14.5625 C7.37172988 12.8795278 6.18537562 11.19342069 5.00390625 9.50390625 C4.47611572 8.75955322 3.9483252 8.0152002 3.40454102 7.24829102 C1.94103315 4.90560999 0.9480298 2.5893438 0 0 Z " fill="#FF5996" transform="translate(470,12)"/>
<path d="M0 0 C3.45281166 1.15093722 4.38082163 2.3205993 6.6875 5.0625 C7.62142578 6.16271484 7.62142578 6.16271484 8.57421875 7.28515625 C9.04472656 7.85105469 9.51523438 8.41695313 10 9 C8.35845001 12.99347833 5.59638939 15.89168102 2.6875 19 C2.15769531 19.56960449 1.62789062 20.13920898 1.08203125 20.72607422 C-4.15997696 26.28955535 -9.72919466 31.45106778 -15.41064453 36.55908203 C-16.95519113 37.95937604 -18.47855936 39.37911939 -19.99609375 40.80859375 C-31.84178761 51.93321121 -44.85360763 61.48083354 -58 71 C-59.69435285 65.91694146 -57.02477354 61.28925474 -55.3125 56.375 C-54.95994141 55.29992187 -54.60738281 54.22484375 -54.24414062 53.1171875 C-53.89158203 52.09625 -53.53902344 51.0753125 -53.17578125 50.0234375 C-52.85520752 49.08419434 -52.53463379 48.14495117 -52.2043457 47.17724609 C-51 45 -51 45 -49.09228516 44.35717773 C-48.40183105 44.23930908 -47.71137695 44.12144043 -47 44 C-45.13855329 42.80134595 -45.13855329 42.80134595 -43.34765625 41.26171875 C-42.66050537 40.69533691 -41.97335449 40.12895508 -41.26538086 39.54541016 C-40.53843018 38.9322998 -39.81147949 38.31918945 -39.0625 37.6875 C-38.30396729 37.05376465 -37.54543457 36.4200293 -36.76391602 35.76708984 C-26.82111516 27.40202942 -17.46162928 18.5344822 -8.25 9.375 C-7.54544678 8.6752002 -6.84089355 7.97540039 -6.11499023 7.25439453 C-5.46344971 6.60067871 -4.81190918 5.94696289 -4.140625 5.2734375 C-3.55829102 4.68997559 -2.97595703 4.10651367 -2.37597656 3.50537109 C-0.90057788 2.02894671 -0.90057788 2.02894671 0 0 Z " fill="#FBAB1A" transform="translate(246,416)"/>
<path d="M0 0 C-0.66501225 4.33489466 -2.17295788 7.99634454 -3.9375 12 C-6.05409054 16.74222372 -6.05409054 16.74222372 -7.84375 21.609375 C-9.42821659 24.88536674 -11.85742232 26.91174694 -14.5625 29.25 C-20.33837216 34.39931142 -25.85804229 39.76171353 -31.3125 45.25 C-32.07183838 46.01344727 -32.83117676 46.77689453 -33.61352539 47.56347656 C-35.41107766 49.37362802 -37.2066756 51.18566134 -39 53 C-42 50 -45 47 -48 44 C-43.43099995 33.17734066 -12.04941431 0 0 0 Z " fill="#FAAB1B" transform="translate(325,341)"/>
<path d="M0 0 C4.80436782 -0.38434943 8.09024857 -0.47968712 12.4375 1.8125 C15 4 15 4 17 7 C17.08847987 8.98359528 17.16871579 10.96854736 17.17602539 12.95410156 C17.05939438 20.07186478 17.05939438 20.07186478 19.6171875 26.5 C20.85986253 27.61790846 22.1355372 28.70083672 23.44921875 29.734375 C25 31 25 31 25.875 33.5 C24.8529759 36.42006887 23.9415602 36.87827562 21.5625 38.75 C18.66983159 41.35397895 17.77651173 43.22925717 17.48828125 47.01953125 C17.39367517 49.2831968 17.37368911 51.51752412 17.43969727 53.78222656 C17.47962343 57.84092795 17.217397 60.25206241 14.6015625 63.46484375 C10.94924503 67.02393389 9.35179889 67.12036975 4.375 67.0625 C3.37210938 67.05347656 2.36921875 67.04445313 1.3359375 67.03515625 C0.56507813 67.02355469 -0.20578125 67.01195312 -1 67 C-1 65.35 -1 63.7 -1 62 C-0.30132812 61.87882812 0.39734375 61.75765625 1.1171875 61.6328125 C2.48230469 61.38144531 2.48230469 61.38144531 3.875 61.125 C5.23238281 60.88136719 5.23238281 60.88136719 6.6171875 60.6328125 C9.16505988 60.16955297 9.16505988 60.16955297 11 58 C11.22663063 54.23644552 11.31777436 50.50925532 11.30273438 46.74023438 C11.416268 42.26847469 11.50884645 40.56973812 14.5390625 37.0546875 C15.35117188 36.37664062 16.16328125 35.69859375 17 35 C17.23901711 32.87092681 17.23901711 32.87092681 16 31 C14.99259766 30.21302734 14.99259766 30.21302734 13.96484375 29.41015625 C10.78968808 25.5153828 11.48725989 21.00130895 11.51171875 16.19921875 C11.44343982 12.65492153 11.31719642 10.44632062 9.234375 7.515625 C6.88545087 5.92229884 5.55208118 5.43680541 2.75 5.25 C1.5125 5.1675 0.275 5.085 -1 5 C-0.67 3.35 -0.34 1.7 0 0 Z " fill="#5A5AFF" transform="translate(144,361)"/>
<path d="M0 0 C0.89203125 0.01804687 1.7840625 0.03609375 2.703125 0.0546875 C3.71632813 0.08949219 3.71632813 0.08949219 4.75 0.125 C5.08 1.115 5.41 2.105 5.75 3.125 C5.42 3.785 5.09 4.445 4.75 5.125 C2.21188859 5.68902476 -0.32637845 6.01878356 -2.90234375 6.3671875 C-5.30601135 6.91327303 -5.30601135 6.91327303 -6.546875 8.671875 C-7.76480232 12.9210881 -7.57180459 17.35622251 -7.55273438 21.75 C-7.71104287 27.53081327 -9.16373228 30.03223583 -13.25 34.125 C-12.02990234 35.08212891 -12.02990234 35.08212891 -10.78515625 36.05859375 C-7.38929471 40.16606881 -7.60839601 43.02908711 -7.6875 48.1875 C-7.90688118 54.26901963 -7.90688118 54.26901963 -5.48828125 59.63671875 C-3.14100501 61.19747311 -1.78462831 61.68935811 1 61.875 C2.2375 61.9575 3.475 62.04 4.75 62.125 C5.08 63.115 5.41 64.105 5.75 65.125 C5.42 65.785 5.09 66.445 4.75 67.125 C-6.18390623 67.69823392 -6.18390623 67.69823392 -10.25 64.125 C-13.57377663 59.81938136 -13.53294064 55.97222692 -13.5 50.75 C-13.55965131 44.86039754 -13.55965131 44.86039754 -15.8984375 39.59765625 C-17.80657842 37.79630323 -17.80657842 37.79630323 -19.8515625 36.44921875 C-20.31304687 36.01222656 -20.77453125 35.57523437 -21.25 35.125 C-20.85951894 31.78502277 -19.79160427 30.4680871 -17.2265625 28.40625 C-14.69860608 26.00355948 -13.8227351 24.52361195 -13.5859375 21.03125 C-13.57017303 19.56252689 -13.58371417 18.09322736 -13.625 16.625 C-13.73141793 10.56981999 -13.39705133 6.95595102 -9.25 2.125 C-6.20334066 -0.04233896 -3.68189777 -0.09689205 0 0 Z " fill="#5959FF" transform="translate(106.25,360.875)"/>
<path d="M0 0 C2.44246439 2.29937052 3.88379473 3.68556221 5.0625 6.875 C8.09143895 11.7603854 12.92093744 13.56825867 18 16 C18 16.66 18 17.32 18 18 C17.27554688 18.31710937 16.55109375 18.63421875 15.8046875 18.9609375 C8.21854695 22.62251467 4.56521658 26.38818739 1 34 C-1.29948249 31.88447611 -2.67830902 29.87907098 -4.125 27.125 C-7.02170538 22.29418672 -10.97700761 20.27621442 -16 18 C-15 15 -15 15 -13.14453125 13.96484375 C-11.99017578 13.45630859 -11.99017578 13.45630859 -10.8125 12.9375 C-5.1199406 9.9911913 -2.77634907 5.60713635 0 0 Z " fill="#FF5996" transform="translate(256,467)"/>
<path d="M0 0 C4.71421289 0.47926379 7.61671075 2.66547481 11.1875 5.5625 C11.74977295 6.00706543 12.3120459 6.45163086 12.89135742 6.90966797 C14.60118201 8.26465981 16.30096034 9.63152247 18 11 C19.01320313 11.80566406 20.02640625 12.61132812 21.0703125 13.44140625 C23.38693689 15.28612567 25.69672379 17.13866166 28 19 C27.96872125 21.79423502 27.46501974 23.50933465 25.53027344 25.55078125 C23.52210422 27.26402992 21.46824127 28.89182355 19.375 30.5 C18.67503906 31.05558594 17.97507812 31.61117188 17.25390625 32.18359375 C15.18685938 33.81345446 13.09774186 35.40992168 11 37 C10.35836914 37.50144531 9.71673828 38.00289063 9.05566406 38.51953125 C5.67625193 41.08160559 4.37095633 42 0 42 C-0.4140625 39.84375 -0.4140625 39.84375 0 37 C2.17779948 34.92363227 4.20336007 33.23948784 6.625 31.5 C7.86779994 30.57373783 9.10999253 29.64666019 10.3515625 28.71875 C10.9590332 28.27144531 11.56650391 27.82414062 12.19238281 27.36328125 C14.87865773 25.33732783 17.43572451 23.17766165 20 21 C18.16882478 19.4557089 16.33522011 17.9144728 14.5 16.375 C13.95698242 15.91714111 13.41396484 15.45928223 12.85449219 14.98754883 C9.16113694 11.89646603 5.38107049 9.06056778 1.328125 6.44921875 C0 5 0 5 -0.203125 2.33203125 C-0.13609375 1.56246094 -0.0690625 0.79289062 0 0 Z " fill="#5858FF" transform="translate(404,372)"/>
<path d="M0 0 C0.59151855 0.20608887 1.18303711 0.41217773 1.79248047 0.62451172 C1.79248047 1.94451172 1.79248047 3.26451172 1.79248047 4.62451172 C-0.19667092 6.46410285 -2.08227942 7.99691549 -4.27001953 9.56201172 C-4.86258545 10.00222656 -5.45515137 10.44244141 -6.06567383 10.89599609 C-9.1770538 13.1972496 -12.33800076 15.42208137 -15.52001953 17.62451172 C-16.40689453 18.28451172 -17.29376953 18.94451172 -18.20751953 19.62451172 C-18.20751953 20.28451172 -18.20751953 20.94451172 -18.20751953 21.62451172 C-16.21961801 23.28657675 -14.22775848 24.8397426 -12.14501953 26.37451172 C-10.95119364 27.2714637 -9.7584773 28.16989443 -8.56689453 29.06982422 C-7.98875 29.50584961 -7.41060547 29.941875 -6.81494141 30.39111328 C-3.83413874 32.67832699 -1.02179367 35.13747876 1.79248047 37.62451172 C1.46248047 38.94451172 1.13248047 40.26451172 0.79248047 41.62451172 C-4.77054609 41.33172085 -8.11051423 37.76213185 -12.14501953 34.31201172 C-13.52704773 33.14677225 -14.9111288 31.98396274 -16.29736328 30.82373047 C-17.28712158 29.99107666 -17.28712158 29.99107666 -18.296875 29.14160156 C-20.0265433 27.76821046 -21.76646894 26.60534161 -23.64892578 25.45654297 C-26.20751953 23.62451172 -26.20751953 23.62451172 -27.08251953 21.37451172 C-27.12376953 20.79701172 -27.16501953 20.21951172 -27.20751953 19.62451172 C-21.52322018 14.20770881 -15.59953049 9.22288627 -9.33251953 4.49951172 C-8.69048584 4.00217529 -8.04845215 3.50483887 -7.38696289 2.99243164 C-2.71824291 -0.46235983 -2.71824291 -0.46235983 0 0 Z " fill="#5959FF" transform="translate(364.20751953125,372.37548828125)"/>
<path d="M0 0 C1.32 0 2.64 0 4 0 C3.95697754 0.95664551 3.91395508 1.91329102 3.86962891 2.89892578 C2.25855492 21.82601875 2.25855492 21.82601875 7.9375 39.09375 C10.75111795 42.0836752 13.90555092 44.52337572 17.30615234 46.8125 C19.67684976 48.47451676 21.53442512 50.4544869 23.4375 52.625 C23.97246094 53.19476563 24.50742187 53.76453125 25.05859375 54.3515625 C26 56 26 56 25.66015625 58.2109375 C25.44230469 58.80132812 25.22445313 59.39171875 25 60 C17.85028792 56.86110201 12.78205282 49.90466145 7.8359375 44.0546875 C6.14207544 42.05534418 6.14207544 42.05534418 4.52880859 40.78430176 C2.18564866 38.76634337 0.3068824 37.11685797 -0.52914429 34.07424927 C-0.69159393 31.87265061 -0.67623008 29.744756 -0.5859375 27.5390625 C-0.57744781 26.74849457 -0.56895813 25.95792664 -0.56021118 25.1434021 C-0.52681175 22.63583959 -0.45156983 20.13157828 -0.375 17.625 C-0.34488246 15.91801544 -0.31750978 14.21098009 -0.29296875 12.50390625 C-0.22706621 8.33467928 -0.12364827 4.16789787 0 0 Z " fill="#071A4A" transform="translate(254,75)"/>
<path d="M0 0 C1.67542976 0.28604898 3.34385343 0.61781233 5 1 C3.63809909 9.78834355 1.88801728 18.44970659 -0.0625 27.125 C-0.33126953 28.341875 -0.60003906 29.55875 -0.87695312 30.8125 C-2.87041782 39.74083564 -2.87041782 39.74083564 -4 42 C-5.65 41.67 -7.3 41.34 -9 41 C-8.37438211 33.21453294 -6.73290086 25.72562281 -4.98876953 18.13134766 C-4.4950304 15.97832939 -4.01070448 13.82333816 -3.52734375 11.66796875 C-1.13702343 1.13702343 -1.13702343 1.13702343 0 0 Z " fill="#5959FF" transform="translate(387,372)"/>
<path d="M0 0 C2.56687367 3.8503105 1.83288724 5.58569763 1 10 C-4.24024641 12.14373717 -4.24024641 12.14373717 -7.3125 11.5625 C-9 10 -9 10 -9.9375 6.5625 C-10 3 -10 3 -9 1.0625 C-5.91060954 -0.57873868 -3.42353094 -0.3734761 0 0 Z " fill="#5757FF" transform="translate(131,389)"/>
<path d="M0 0 C3.125 0.375 3.125 0.375 6 1 C6.625 3.875 6.625 3.875 7 7 C5 9 5 9 2.5 9.25 C0 9 0 9 -2 7 C-2.25 4.5 -2.25 4.5 -2 2 C-1.34 1.34 -0.68 0.68 0 0 Z " fill="#5757FF" transform="translate(106,390)"/>
<path d="M0 0 C4.55555556 0.55555556 4.55555556 0.55555556 6 2 C6.1875 4.4375 6.1875 4.4375 6 7 C5.34 7.66 4.68 8.32 4 9 C0.875 8.625 0.875 8.625 -2 8 C-2.125 5.125 -2.125 5.125 -2 2 C-1.34 1.34 -0.68 0.68 0 0 Z " fill="#5959FF" transform="translate(144,390)"/>
<path d="M0 0 C0.33 1.32 0.66 2.64 1 4 C-1.31 5.98 -3.62 7.96 -6 10 C-6 6.41087588 -5.33563446 5.89142971 -3 3.3125 C-2.443125 2.68988281 -1.88625 2.06726563 -1.3125 1.42578125 C-0.879375 0.95527344 -0.44625 0.48476563 0 0 Z " fill="#FAC726" transform="translate(316,360)"/>
<path d="M0 0 C1.98 0 3.96 0 6 0 C3.42215154 2.64752004 1.08351902 4.94432065 -2 7 C-1.125 2.25 -1.125 2.25 0 0 Z " fill="#13CDF9" transform="translate(319,356)"/>
</svg>
