<?xml version="1.0" encoding="UTF-8"?>
<svg version="1.1" xmlns="http://www.w3.org/2000/svg" width="1024" height="1024">
<path d="M0 0 C337.92 0 675.84 0 1024 0 C1024 337.92 1024 675.84 1024 1024 C686.08 1024 348.16 1024 0 1024 C0 686.08 0 348.16 0 0 Z " fill="#FEFEFE" transform="translate(0,0)"/>
<path d="M0 0 C1.18625473 -0.00335861 2.37250946 -0.00671722 3.5947113 -0.01017761 C6.8324112 -0.0180237 10.0700725 -0.02135363 13.30778074 -0.0219934 C15.3349265 -0.02270661 17.36206564 -0.02484604 19.38920975 -0.02749062 C26.47350742 -0.03672731 33.55778635 -0.04082754 40.64208984 -0.04003906 C47.22621062 -0.0394385 53.81024941 -0.04999043 60.39434946 -0.06578273 C66.0642273 -0.07889341 71.73407845 -0.08422149 77.40397131 -0.08358365 C80.78281584 -0.08332973 84.16158741 -0.08612215 87.54041672 -0.0967617 C91.31216953 -0.10658469 95.08371239 -0.10367436 98.85546875 -0.09765625 C99.96225479 -0.10327576 101.06904083 -0.10889526 102.20936584 -0.11468506 C114.28568093 -0.06584769 126.08559692 2.42294091 135.05712891 11.14526367 C137.20613651 13.71730427 139.15884458 16.38412283 141.05712891 19.14526367 C141.45287109 19.70213867 141.84861328 20.25901367 142.25634766 20.83276367 C148.52617672 30.52885619 147.35517465 43.18820167 147.32275391 54.27416992 C147.32410462 55.91601112 147.32604852 57.55785193 147.32855225 59.19969177 C147.33148357 62.62291309 147.32726995 66.04602929 147.31787109 69.46923828 C147.30646868 73.83208602 147.31305372 78.19468781 147.32501602 82.55752659 C147.33228099 85.94209103 147.32992567 89.32659821 147.32476044 92.71116447 C147.3234372 94.31893888 147.32502452 95.92671868 147.32971954 97.53448677 C147.36217439 111.76538778 146.82777232 124.64693459 136.72119141 135.69995117 C125.74532608 146.00037863 115.34089766 148.45171143 100.57348633 148.41992188 C99.3415303 148.42503281 98.10957428 148.43014374 96.84028625 148.43540955 C93.48054258 148.44688321 90.1210466 148.4493862 86.7613008 148.44684625 C83.94605026 148.44577133 81.13082209 148.45067329 78.31557637 148.45545167 C71.6671541 148.46652254 65.01878834 148.46699833 58.37036133 148.4609375 C51.53684493 148.45490318 44.70353471 148.4672004 37.87005347 148.48850757 C31.98100838 148.50618729 26.09202854 148.51211482 20.20295793 148.50886983 C16.6954867 148.50706649 13.18816249 148.50959704 9.68071556 148.52358437 C5.76338147 148.53862341 1.84630497 148.52913712 -2.07104492 148.51757812 C-3.78821213 148.52904373 -3.78821213 148.52904373 -5.54006958 148.54074097 C-16.16012397 148.47180303 -25.33003274 146.55946607 -33.94287109 140.14526367 C-35.18037109 139.23647461 -35.18037109 139.23647461 -36.44287109 138.30932617 C-39.06805294 136.03690313 -40.71715482 133.88595174 -42.56787109 130.95776367 C-43.13763672 130.07733398 -43.70740234 129.1969043 -44.29443359 128.28979492 C-49.5914591 118.18527944 -49.40092165 108.61079211 -49.37646484 97.49682617 C-49.38103345 95.67515876 -49.38634103 93.85349307 -49.39234924 92.03182983 C-49.40125437 88.22419204 -49.39888739 84.41676427 -49.38891602 80.60913086 C-49.37743653 75.75513512 -49.39763546 70.90186801 -49.42683315 66.04796791 C-49.44527399 62.28845698 -49.44488695 58.52911807 -49.43919563 54.76957321 C-49.43904334 52.9811946 -49.44501035 51.19280363 -49.45748711 49.40446854 C-49.53209304 36.95837979 -48.83806532 26.432941 -40.94287109 16.14526367 C-39.86005859 14.66026367 -39.86005859 14.66026367 -38.75537109 13.14526367 C-28.56978194 1.2412469 -14.59498254 -0.0059543 0 0 Z " fill="#1F2020" transform="translate(462.94287109375,542.854736328125)"/>
<path d="M0 0 C11.64748832 10.77100509 14.96464628 24.44590773 15.71484375 39.72265625 C16.02346086 53.87789453 13.74898349 68.6297158 4.2109375 79.59765625 C-4.78278051 88.73929726 -14.42607418 93.4822899 -27.4375 94.12109375 C-37.1753057 94.04441811 -44.10198185 91.66775818 -51.4140625 85.09765625 C-52.47831802 83.89905937 -53.52728188 82.68676685 -54.56323242 81.46362305 C-55.09857101 80.83328659 -55.63390961 80.20295013 -56.18547058 79.55351257 C-56.59090591 79.07307999 -56.99634125 78.5926474 -57.4140625 78.09765625 C-57.42436996 78.69456268 -57.43467743 79.29146912 -57.44529724 79.90646362 C-57.55323638 86.10295854 -57.66784438 92.29930432 -57.78637695 98.49560547 C-57.82976626 100.81002694 -57.87143834 103.12448125 -57.91137695 105.43896484 C-57.96898282 108.76019198 -58.03270501 112.08125317 -58.09765625 115.40234375 C-58.12272499 116.961772 -58.12272499 116.961772 -58.14830017 118.55270386 C-58.16824539 119.51354889 -58.18819061 120.47439392 -58.20874023 121.46435547 C-58.22428452 122.31262909 -58.2398288 123.16090271 -58.25584412 124.03488159 C-58.4140625 126.09765625 -58.4140625 126.09765625 -59.4140625 128.09765625 C-67.3340625 128.09765625 -75.2540625 128.09765625 -83.4140625 128.09765625 C-83.4140625 83.54765625 -83.4140625 38.99765625 -83.4140625 -6.90234375 C-75.4940625 -6.90234375 -67.5740625 -6.90234375 -59.4140625 -6.90234375 C-57.53581359 -5.02409484 -58.02303853 -1.86299099 -57.8515625 0.66015625 C-57.72587891 2.45646484 -57.72587891 2.45646484 -57.59765625 4.2890625 C-57.53707031 5.21589844 -57.47648437 6.14273437 -57.4140625 7.09765625 C-57.10855469 6.60136719 -56.80304688 6.10507812 -56.48828125 5.59375 C-51.50399876 -1.80545246 -44.48469494 -7.17303936 -35.7265625 -9.33984375 C-23.00682857 -11.36599606 -10.16732959 -8.01211895 0 0 Z " fill="#202020" transform="translate(458.4140625,413.90234375)"/>
<path d="M0 0 C7.91808326 7.22840097 11.24959734 16.06910452 14.58203125 26.06640625 C14.58203125 32.99640625 14.58203125 39.92640625 14.58203125 47.06640625 C-8.84796875 47.06640625 -32.27796875 47.06640625 -56.41796875 47.06640625 C-54.02581949 59.65652388 -54.02581949 59.65652388 -45.91796875 68.44140625 C-37.79987939 72.21051917 -30.19883965 71.79580407 -21.765625 69.05859375 C-18.88796182 67.84240998 -16.63641082 66.2877537 -14.28125 64.25 C-9.15647999 60.99464295 -3.5095416 60.8141557 2.39453125 60.87890625 C3.70035156 60.88535156 5.00617188 60.89179688 6.3515625 60.8984375 C9.58203125 61.06640625 9.58203125 61.06640625 11.58203125 62.06640625 C10.43734348 70.18194906 4.93406781 77.7982242 -1.4609375 82.79296875 C-5.25876909 85.26421246 -9.28147451 87.23092006 -13.41796875 89.06640625 C-14.17078125 89.42734375 -14.92359375 89.78828125 -15.69921875 90.16015625 C-27.14672906 93.97599302 -44.02033657 93.13864693 -54.9921875 88.58203125 C-67.79439447 81.98385844 -76.82448339 73.08862472 -81.41796875 59.06640625 C-85.16146189 42.3628451 -85.19987302 25.21702274 -76.16796875 10.19140625 C-68.07955117 -1.45386303 -58.59976792 -8.05400195 -44.54296875 -10.87109375 C-28.11509552 -13.75272999 -13.0352331 -10.42397478 0 0 Z " fill="#202121" transform="translate(246.41796875,415.93359375)"/>
<path d="M0 0 C11.61044821 12.11106455 13.72985682 25.52868353 13.6484375 41.71484375 C13.48046875 44.70703125 13.48046875 44.70703125 12.48046875 45.70703125 C10.30241156 45.80132467 8.12125595 45.82445663 5.94116211 45.82055664 C5.25826614 45.82070267 4.57537018 45.82084869 3.8717804 45.82099915 C1.60459261 45.82030001 -0.66251399 45.81250765 -2.9296875 45.8046875 C-4.49767512 45.80282332 -6.06566332 45.80139942 -7.63365173 45.80039978 C-11.76829628 45.79657459 -15.90290591 45.78674431 -20.03753662 45.7756958 C-24.25353523 45.76548169 -28.46953947 45.76090216 -32.68554688 45.75585938 C-40.96355772 45.74512204 -49.24154015 45.72804561 -57.51953125 45.70703125 C-57.06812138 47.61462024 -56.60972497 49.52055672 -56.1484375 51.42578125 C-55.89392822 52.48732422 -55.63941895 53.54886719 -55.37719727 54.64257812 C-53.88959098 59.95781699 -52.09913738 64.1168012 -47.2890625 67.08203125 C-38.93843579 70.81068318 -31.58243778 70.53115731 -22.9921875 67.76953125 C-20.36238738 66.63950655 -18.27283957 65.25746823 -15.95703125 63.58203125 C-11.44901808 60.39247377 -7.96813302 59.74235444 -2.51953125 59.70703125 C-1.54886719 59.68125 -0.57820312 59.65546875 0.421875 59.62890625 C8.08445105 59.5090224 8.08445105 59.5090224 10.48046875 60.70703125 C7.80608989 70.43204527 1.92750686 78.33603408 -6.625 83.62890625 C-20.75837556 91.2210858 -36.35897827 92.61681995 -51.89453125 88.51953125 C-65.45650961 83.80133038 -73.37291553 75.35523442 -79.51953125 62.70703125 C-80.01646484 61.69189453 -80.01646484 61.69189453 -80.5234375 60.65625 C-85.8766087 48.99306058 -85.19450833 31.2699751 -81.484375 19.19921875 C-76.56048364 6.4808273 -67.32053922 -3.87541299 -54.82421875 -9.5078125 C-36.02539498 -16.86501233 -15.01962962 -13.66902727 0 0 Z " fill="#202020" transform="translate(646.51953125,417.29296875)"/>
<path d="M0 0 C0.64066406 0.33644531 1.28132812 0.67289062 1.94140625 1.01953125 C8.66423031 5.1287304 12.51190365 12.71092901 15 20 C15 21.32 15 22.64 15 24 C11.43834893 24.20391987 7.87819947 24.32782061 4.3125 24.4375 C3.30509766 24.49615234 2.29769531 24.55480469 1.25976562 24.61523438 C-6.14588709 24.78632206 -6.14588709 24.78632206 -8.61181641 22.51611328 C-9.42165083 21.28434832 -10.19068819 20.02472642 -10.9152832 18.7409668 C-12.70054488 15.87562784 -14.8805757 15.07326727 -18 14 C-21.68014533 13.52842275 -21.68014533 13.52842275 -25.5 13.625 C-26.7684375 13.61726563 -28.036875 13.60953125 -29.34375 13.6015625 C-34.02037694 14.11119492 -37.37596555 15.53836899 -40.875 18.6875 C-42.57458046 22.18108205 -42.19294508 25.14109842 -42 29 C-34.60123632 32.10270735 -27.09031136 34.28401006 -19.28295898 36.09130859 C7.4965295 42.3304922 7.4965295 42.3304922 15 54 C18.35033221 60.97985878 17.39954689 70.08159237 15.31640625 77.40234375 C11.5086666 85.94860386 4.33446987 91.56805357 -4.15234375 95.03515625 C-18.72824982 99.97376914 -36.56908288 99.87731723 -50.5 93.125 C-59.51680029 88.39365699 -65.08462155 82.09978296 -68.9375 72.6875 C-69.96197531 69.13196805 -70.05272761 68.28886626 -69 65 C-65.60533263 64.76684361 -62.21272038 64.62535375 -58.8125 64.5 C-57.85279297 64.43296875 -56.89308594 64.3659375 -55.90429688 64.296875 C-53.06563903 64.21829624 -50.74186717 64.24653784 -48 65 C-46.17228699 66.89591126 -45.15142503 68.64271556 -44.05541992 71.02954102 C-42.19947752 74.49456788 -39.52577423 75.42599365 -36 77 C-28.00321325 78.9627271 -19.89116046 79.18264227 -12.5234375 75.265625 C-10.62820973 73.69112808 -9.87887311 72.29119158 -9 70 C-9.07744374 66.28270052 -9.38943957 64.60591739 -12.0546875 61.9609375 C-15.56772302 59.62201995 -19.02015592 58.62059478 -23.0625 57.625 C-24.6683313 57.19928189 -26.27378658 56.77214343 -27.87890625 56.34375 C-29.1321167 56.01503906 -29.1321167 56.01503906 -30.41064453 55.6796875 C-58.75144266 48.2404284 -58.75144266 48.2404284 -64.44140625 39.8828125 C-68.15861956 32.81104084 -69.22476343 25.92567901 -67.28125 18.109375 C-63.85677924 8.00166292 -58.47586611 2.68251863 -49 -2 C-34.22146314 -7.99506684 -14.15402123 -7.74260278 0 0 Z " fill="#1E1F1F" transform="translate(843,410)"/>
<path d="M0 0 C4.86419253 5.73725273 7.20575322 11.48451934 8.4375 18.875 C0.8475 18.875 -6.7425 18.875 -14.5625 18.875 C-15.5525 16.895 -16.5425 14.915 -17.5625 12.875 C-22.66353244 8.06949337 -29.60261671 8.43406472 -36.1953125 8.44140625 C-40.67148317 9.0178041 -43.83412723 10.58143799 -47.42578125 13.26953125 C-48.97060113 15.45139025 -48.86492516 16.91922131 -48.75 19.5625 C-48.72292969 20.37074219 -48.69585938 21.17898438 -48.66796875 22.01171875 C-48.61576172 22.93404297 -48.61576172 22.93404297 -48.5625 23.875 C-42.31050483 26.58419791 -35.73635532 28.33401462 -29.14453125 30.00390625 C0.7301565 37.58215599 0.7301565 37.58215599 6.75 47.375 C10.24236664 54.61842711 10.58800866 62.76327055 8.3125 70.5 C5.46233458 78.03828799 0.52350249 84.0335275 -6.5625 87.875 C-15.42143793 91.70504744 -23.55118727 92.49511056 -33.125 92.375 C-34.9802832 92.39820313 -34.9802832 92.39820313 -36.87304688 92.421875 C-48.25834197 92.37370876 -58.15814667 89.87068499 -66.5625 81.875 C-72.60606582 75.43015114 -76.5625 68.8612659 -76.5625 59.875 C-69.3025 59.875 -62.0425 59.875 -54.5625 59.875 C-50.5625 66.875 -50.5625 66.875 -50.5625 68.875 C-41.61052125 72.5611089 -32.52433087 75.0486497 -22.91015625 72.046875 C-19.05575055 70.20289529 -19.05575055 70.20289529 -16.5625 66.875 C-16.05603454 62.80463569 -16.05603454 62.80463569 -16.5625 58.875 C-20.66318287 54.41224452 -25.84081251 53.35797226 -31.5 51.875 C-32.90028442 51.49045654 -32.90028442 51.49045654 -34.32885742 51.09814453 C-37.0705386 50.34597057 -39.81570088 49.60823391 -42.5625 48.875 C-66.86394852 42.35823111 -66.86394852 42.35823111 -73.5625 30.875 C-76.16602652 22.77513973 -75.14869627 13.15590427 -71.4453125 5.59375 C-66.89427891 -2.11986625 -59.91366601 -6.2512164 -51.5625 -9.125 C-33.51549258 -12.57308745 -14.67640197 -12.17067481 0 0 Z " fill="#1E1F1F" transform="translate(750.5625,415.125)"/>
<path d="M0 0 C4.41632177 -0.14509751 8.83203193 -0.23400818 13.25 -0.3125 C14.50425781 -0.35439453 15.75851562 -0.39628906 17.05078125 -0.43945312 C18.85869141 -0.46362305 18.85869141 -0.46362305 20.703125 -0.48828125 C22.36843262 -0.52755737 22.36843262 -0.52755737 24.06738281 -0.56762695 C27 0 27 0 29.18432617 2.19213867 C30.94465015 4.91440384 32.68969122 7.62805551 34.34765625 10.4140625 C34.95287109 11.42210937 35.55808594 12.43015625 36.18164062 13.46875 C37.44000614 15.58039971 38.69781482 17.69238135 39.95507812 19.8046875 C40.8609668 21.31289063 40.8609668 21.31289063 41.78515625 22.8515625 C42.33051025 23.76760254 42.87586426 24.68364258 43.43774414 25.62744141 C44.81306093 27.71610034 46.15597575 29.32752095 48 31 C52.44966092 24.43940779 56.66851801 17.75700598 60.8125 11 C61.96359606 9.12423376 63.11587383 7.24919201 64.26953125 5.375 C64.77073486 4.55773437 65.27193848 3.74046875 65.78833008 2.8984375 C67 1 67 1 68 0 C69.92667507 -0.08748207 71.85651861 -0.10697334 73.78515625 -0.09765625 C74.95498047 -0.09443359 76.12480469 -0.09121094 77.33007812 -0.08789062 C78.56177734 -0.07951172 79.79347656 -0.07113281 81.0625 -0.0625 C82.91584961 -0.05573242 82.91584961 -0.05573242 84.80664062 -0.04882812 C87.87114117 -0.03699608 90.93554721 -0.02051173 94 0 C89.88089877 7.40442668 85.6124801 14.69253324 81.13867188 21.88842773 C80.0039599 23.71377022 78.87504844 25.54273128 77.75195312 27.37524414 C75.39918298 31.20615257 73.05365396 34.99529605 70.3984375 38.625 C68.44719576 41.43128025 66.95028322 43.71855325 66 47 C66.87597363 51.37302459 69.4130143 54.43801968 72 58 C73.39767831 60.16296102 74.7600818 62.34611422 76.12280273 64.53125 C77.64858786 66.9752835 79.19402917 69.40602599 80.7421875 71.8359375 C84.14454406 77.20492638 87.46435828 82.62142606 90.75 88.0625 C91.2754541 88.92544678 91.8009082 89.78839355 92.34228516 90.67749023 C92.8222998 91.47614502 93.30231445 92.2747998 93.796875 93.09765625 C94.22323242 93.80414307 94.64958984 94.51062988 95.08886719 95.23852539 C96 97 96 97 96 99 C91.60451509 99.14536813 87.20964913 99.23409948 82.8125 99.3125 C81.56662109 99.35439453 80.32074219 99.39628906 79.03710938 99.43945312 C77.83505859 99.45556641 76.63300781 99.47167969 75.39453125 99.48828125 C73.73707886 99.52755737 73.73707886 99.52755737 72.04614258 99.56762695 C66.91382273 98.61125574 64.83493573 95.20771093 61.97949219 91.07739258 C61.34172852 90.02704834 60.70396484 88.9767041 60.046875 87.89453125 C59.70118469 87.32925217 59.35549438 86.76397308 58.99932861 86.18156433 C57.90955711 84.39583115 56.82976316 82.6042984 55.75 80.8125 C55.0110478 79.59922475 54.27146981 78.38633041 53.53125 77.17382812 C48.25613629 68.51227258 48.25613629 68.51227258 47 66 C46.34 66 45.68 66 45 66 C44.45472656 66.99257813 43.90945313 67.98515625 43.34765625 69.0078125 C39.45518178 76.04283517 35.48783626 83.01733297 31.1875 89.8125 C30.8272876 90.39209473 30.4670752 90.97168945 30.09594727 91.56884766 C28.05380931 94.74592757 26.23043963 97.03684005 23 99 C20.43457031 99.34057617 20.43457031 99.34057617 17.578125 99.29296875 C16.55332031 99.28330078 15.52851563 99.27363281 14.47265625 99.26367188 C12.87744141 99.2259668 12.87744141 99.2259668 11.25 99.1875 C9.63158203 99.16719727 9.63158203 99.16719727 7.98046875 99.14648438 C5.3198058 99.11116584 2.66015704 99.06184199 0 99 C1.46576131 94.99604792 3.38095942 91.51723763 5.59765625 87.87890625 C6.12365417 87.01313965 6.12365417 87.01313965 6.66027832 86.12988281 C7.4065687 84.90328696 8.15471217 83.67781693 8.90457153 82.45339966 C10.06854181 80.55263372 11.22689611 78.64853197 12.38452148 76.74389648 C16.96025159 69.23316158 21.63468708 61.80755201 26.62890625 54.56640625 C28.1914717 51.64160425 28.29391684 50.26760981 28 47 C27.04743301 44.77831218 27.04743301 44.77831218 25.61328125 42.65625 C25.09290283 41.83189453 24.57252441 41.00753906 24.03637695 40.15820312 C23.18305786 38.84239258 23.18305786 38.84239258 22.3125 37.5 C21.12481901 35.62511464 19.93732466 33.75011103 18.75 31.875 C17.82574219 30.42867188 17.82574219 30.42867188 16.8828125 28.953125 C13.82486381 24.15684033 10.81677346 19.33001617 7.8125 14.5 C7.26053955 13.62279297 6.7085791 12.74558594 6.13989258 11.84179688 C5.62579834 11.01744141 5.1117041 10.19308594 4.58203125 9.34375 C4.13061768 8.62380859 3.6792041 7.90386719 3.21411133 7.16210938 C1.91019226 4.84006889 0.93707777 2.49014435 0 0 Z " fill="#1F1F20" transform="translate(266,407)"/>
<path d="M0 0 C2.371875 0.020625 4.74375 0.04125 7.1875 0.0625 C7.1875 7.6525 7.1875 15.2425 7.1875 23.0625 C-3.8125 22.6875 -3.8125 22.6875 -7.23046875 22.52197266 C-13.55549427 22.41826543 -17.44740094 23.19503984 -22.26611328 27.4140625 C-24.26017393 29.5397173 -25.58588583 31.57792298 -26.75 34.25 C-27.13027344 35.08917969 -27.51054688 35.92835938 -27.90234375 36.79296875 C-29.45629079 40.66783239 -29.95574192 43.65970856 -30.01782227 47.8190918 C-30.03776749 49.00008957 -30.05771271 50.18108734 -30.07826233 51.39787292 C-30.10333107 53.31047661 -30.10333107 53.31047661 -30.12890625 55.26171875 C-30.14968735 56.56704056 -30.17046844 57.87236237 -30.19187927 59.21723938 C-30.24702273 62.68432353 -30.29646595 66.15146646 -30.34472656 69.61865234 C-30.3949981 73.1579306 -30.45060262 76.69712477 -30.50585938 80.23632812 C-30.61385046 87.17832089 -30.71293316 94.12036079 -30.8125 101.0625 C-39.3925 101.0625 -47.9725 101.0625 -56.8125 101.0625 C-56.88023637 88.87551175 -56.93529341 76.68864822 -56.96793652 64.50151443 C-56.98360236 58.84273544 -57.00485759 53.18409175 -57.03881836 47.52539062 C-57.07137876 42.06595273 -57.08934609 36.6066451 -57.09713173 31.14711761 C-57.10268119 29.06266987 -57.11351773 26.97822937 -57.12969017 24.89383698 C-57.15142014 21.97756967 -57.15446876 19.06184286 -57.15307617 16.14550781 C-57.16925491 14.84862534 -57.16925491 14.84862534 -57.1857605 13.52554321 C-57.16757553 10.0136462 -57.14836657 7.69334249 -55.47871399 4.55731201 C-52.59299421 1.96844371 -49.84195861 1.94129326 -46.14453125 1.96484375 C-45.25185547 1.96806641 -44.35917969 1.97128906 -43.43945312 1.97460938 C-42.04629883 1.98717773 -42.04629883 1.98717773 -40.625 2 C-39.68462891 2.00451172 -38.74425781 2.00902344 -37.77539062 2.01367188 C-35.45439992 2.02545355 -33.13344193 2.04338886 -30.8125 2.0625 C-30.3175 8.9925 -30.3175 8.9925 -29.8125 16.0625 C-28.925625 14.825 -28.03875 13.5875 -27.125 12.3125 C-19.91757387 2.74198334 -11.66077553 -0.14392874 0 0 Z " fill="#202121" transform="translate(547.8125,404.9375)"/>
<path d="M0 0 C5.5044237 3.07985612 8.52844892 8.20696509 10.4453125 14.0703125 C13.16085132 24.60822433 13.34840032 38.0624784 8.28125 47.9140625 C4.82947674 52.67191213 0.99905055 57.12718719 -5.03125 58.1015625 C-12.21916431 58.59015275 -18.81441705 59.0346609 -25.03125 55.1015625 C-31.89697533 48.7903138 -34.69584883 41.24798403 -35.19921875 32.0234375 C-35.26340105 21.60023151 -34.82873118 12.45912133 -28.03125 4.1015625 C-20.48755655 -3.51794696 -9.76808404 -3.78690215 0 0 Z " fill="#FDFDFD" transform="translate(435.03125,427.8984375)"/>
<path d="M0 0 C3.83982823 4.77069568 4.0625 6.04195873 4.0625 12.5625 C-0.8875 12.5625 -5.8375 12.5625 -10.9375 12.5625 C-11.5975 10.9125 -12.2575 9.2625 -12.9375 7.5625 C-15.88576763 6.57974412 -17.86402504 6.42835275 -20.9375 6.4375 C-21.80375 6.43492187 -22.67 6.43234375 -23.5625 6.4296875 C-26.08761695 6.46655795 -26.08761695 6.46655795 -28.9375 7.5625 C-29.79400653 10.36295046 -29.79400653 10.36295046 -29.9375 13.5625 C-27.15730805 17.14365202 -24.8150615 18.14684621 -20.4375 19 C-11.41029502 21.06367644 -2.75982494 23.30743327 3.07421875 30.9140625 C5.94093121 35.69569356 5.59628963 41.18701287 5.0625 46.5625 C3.34802168 51.92146936 -0.03446804 54.97221896 -4.9375 57.5625 C-11.11131091 60.11890365 -16.71498009 61.08547184 -23.375 61 C-24.61950928 60.98864014 -24.61950928 60.98864014 -25.88916016 60.97705078 C-33.89195248 60.76203165 -39.80946163 59.35776833 -45.875 53.9375 C-48.6629282 49.37543568 -50.9375 44.00655051 -50.9375 38.5625 C-45.6575 38.5625 -40.3775 38.5625 -34.9375 38.5625 C-34.2775 40.8725 -33.6175 43.1825 -32.9375 45.5625 C-28.4546783 48.07725364 -22.99008046 48.18718268 -17.9375 47.5625 C-15.71344194 46.8234273 -15.71344194 46.8234273 -13.9375 45.5625 C-12.94565769 41.97660857 -12.75320868 40.11537397 -13.9375 36.5625 C-16.5617207 35.82264491 -19.07970171 35.25379761 -21.75 34.75 C-31.19004518 32.75614171 -40.29169095 29.93357552 -46.9375 22.5625 C-49.65456142 17.94349559 -49.47160002 12.76162992 -48.9375 7.5625 C-46.7901523 1.45951179 -43.31328878 -1.20391736 -37.6875 -4.125 C-26.16541225 -8.15773071 -9.72928413 -8.07323577 0 0 Z " fill="#FBFBFB" transform="translate(563.9375,592.4375)"/>
<path d="M0 0 C5.61 0 11.22 0 17 0 C17.09073888 9.06725698 17.16396679 18.13420735 17.20724869 27.20181751 C17.22803258 31.41328248 17.25617946 35.62441796 17.30175781 39.83569336 C17.34554724 43.90763732 17.36920609 47.97926641 17.37950897 52.05142784 C17.3868415 53.59702186 17.40115859 55.14260065 17.42292023 56.68805885 C17.69107706 76.53996189 17.69107706 76.53996189 11.29083252 83.98933411 C6.67175912 88.35145854 1.95178877 90.08052345 -4.375 90.125 C-5.57125 90.08375 -6.7675 90.0425 -8 90 C-8.67408308 88.73308493 -9.33900497 87.46129251 -10 86.1875 C-10.37125 85.47980469 -10.7425 84.77210938 -11.125 84.04296875 C-12 82 -12 82 -12 79 C-11.45730469 78.81566406 -10.91460937 78.63132812 -10.35546875 78.44140625 C-9.64003906 78.15136719 -8.92460937 77.86132812 -8.1875 77.5625 C-7.47980469 77.29566406 -6.77210938 77.02882813 -6.04296875 76.75390625 C-1.94892917 73.23913804 -1.15994076 67.79715624 -0.70100403 62.6403656 C-0.55804906 58.65249268 -0.50566603 54.67351288 -0.48828125 50.68359375 C-0.47140684 49.21670557 -0.45325295 47.7498316 -0.43388367 46.28297424 C-0.38667665 42.45100347 -0.356679 38.61909034 -0.33044434 34.78692627 C-0.30048961 30.86499652 -0.25401113 26.94326491 -0.20898438 23.02148438 C-0.12328517 15.34773835 -0.05732317 7.67402008 0 0 Z " fill="#FDFDFD" transform="translate(485,588)"/>
<path d="M0 0 C5.42086883 5.53354277 6.20257268 8.91157706 8 17 C-6.85 17 -21.7 17 -37 17 C-35.75445557 8.28118902 -33.86117186 3.99499031 -27.16796875 -1.515625 C-19.19585664 -6.97400807 -7.37104383 -6.23565077 0 0 Z " fill="#FCFDFC" transform="translate(227,428)"/>
<path d="M0 0 C5.01476383 4.52312032 7.48130892 9.45897086 9 16 C9 16.66 9 17.32 9 18 C-5.85 18 -20.7 18 -36 18 C-34.09606924 9.43231157 -32.6787445 4.42973817 -25.7578125 -0.9609375 C-17.96845321 -5.56531433 -7.41006244 -4.94004163 0 0 Z " fill="#FCFCFC" transform="translate(625,427)"/>
<path d="M0 0 C3.2073975 1.90068 5.34000179 3.36843082 6.76953125 6.90234375 C7.60433386 10.96713028 7.15493496 12.71595257 5.125 16.4375 C2.2238939 19.37901148 -0.71317398 20.11265446 -4.77734375 20.2890625 C-8.9350995 19.74833504 -10.33927897 18.25938326 -13 15 C-14.10695606 12.22977149 -14.46179575 9.95549281 -14 7 C-10.63599341 0.90273806 -6.76707239 -0.67670724 0 0 Z " fill="#F9F9F9" transform="translate(468,633)"/>
<path d="M0 0 C2.71385055 0.83325049 4.04769837 1.27855391 5.83203125 3.5625 C6.79047549 6.62715502 7.15768444 9.36211523 6.83203125 12.5625 C4.47854607 15.98575118 2.80880206 17.22998228 -1.10546875 18.5625 C-4.89031476 18.5625 -6.96645033 17.52706812 -10.16796875 15.5625 C-12.52655503 13.20391372 -12.53743374 12.48618052 -12.66796875 9.25 C-12.5784007 5.7848361 -12.19265412 3.87299812 -9.66796875 1.4375 C-5.82599645 -0.62069945 -4.14163488 -0.88692755 0 0 Z " fill="#F9F9F9" transform="translate(496.16796875,562.4375)"/>
<path d="M0 0 C0.33 0 0.66 0 1 0 C1 29.37 1 58.74 1 89 C8.59 89 16.18 89 24 89 C23.97679687 85.266875 23.95359375 81.53375 23.9296875 77.6875 C23.91407312 74.05680684 23.90193852 70.42611748 23.89013672 66.79541016 C23.88010263 64.2794425 23.86647232 61.76348643 23.84912109 59.24755859 C23.82475903 55.62334322 23.81349069 51.99928256 23.8046875 48.375 C23.79436493 47.25697998 23.78404236 46.13895996 23.77340698 44.98706055 C23.77254823 38.9584153 24.23272953 33.77267586 26 28 C27.02668449 31.36252603 27.08914278 34.3645753 27.02172852 37.87011719 C26.99158409 39.64150055 26.99158409 39.64150055 26.96083069 41.44866943 C26.92027809 43.35353119 26.92027809 43.35353119 26.87890625 45.296875 C26.85529526 46.60078186 26.83168427 47.90468872 26.80735779 49.24810791 C26.74466232 52.70711335 26.67555497 56.16596191 26.60510254 59.62481689 C26.53428737 63.1573575 26.46949086 66.69000817 26.40429688 70.22265625 C26.27603884 77.1485903 26.13775262 84.0742222 26 91 C17.42 91 8.84 91 0 91 C0 60.97 0 30.94 0 0 Z " fill="#101010" transform="translate(491,415)"/>
<path d="M0 0 C7.92 0 15.84 0 24 0 C25.87824891 1.87824891 25.39102397 5.03935276 25.5625 7.5625 C25.68818359 9.35880859 25.68818359 9.35880859 25.81640625 11.19140625 C25.87699219 12.11824219 25.93757813 13.04507812 26 14 C27.32 12.68 28.64 11.36 30 10 C29.25 12.4375 29.25 12.4375 28 15 C26.68 15.33 25.36 15.66 24 16 C23.505 9.565 23.505 9.565 23 3 C16.07 2.67 9.14 2.34 2 2 C1.67 45.56 1.34 89.12 1 134 C8.26 134 15.52 134 23 134 C23 134.33 23 134.66 23 135 C15.41 135 7.82 135 0 135 C0 90.45 0 45.9 0 0 Z " fill="#010101" transform="translate(375,407)"/>
<path d="M0 0 C0.33 0 0.66 0 1 0 C1 1.65 1 3.3 1 5 C2.88489136 4.98428955 2.88489136 4.98428955 4.80786133 4.96826172 C9.46505897 4.93209183 14.12224416 4.90911047 18.77954102 4.89013672 C20.79616381 4.88007227 22.81277199 4.86641953 24.8293457 4.84912109 C27.72611089 4.82489231 30.62268331 4.81352141 33.51953125 4.8046875 C34.42274612 4.79436493 35.325961 4.78404236 36.25654602 4.77340698 C37.09719101 4.77325592 37.937836 4.77310486 38.80395508 4.77294922 C39.54341873 4.768508 40.28288239 4.76406677 41.04475403 4.75949097 C43 5 43 5 46 7 C30.82 7 15.64 7 0 7 C-1 3 -1 3 0 0 Z " fill="#080808" transform="translate(189,440)"/>
<path d="M0 0 C0.95519531 -0.06251953 1.91039062 -0.12503906 2.89453125 -0.18945312 C5.7199595 -0.25429258 8.02555332 -0.20099966 10.75 0.5625 C13.16419322 2.92519593 14.42774615 5.48468135 15.75 8.5625 C16.41211041 9.89810175 17.07742964 11.23213489 17.75 12.5625 C12 7.9375 12 7.9375 9.75 4.5625 C7.85460365 4.11598528 7.85460365 4.11598528 5.6875 4.19921875 C4.89085937 4.19986328 4.09421875 4.20050781 3.2734375 4.20117188 C2.44070313 4.21728516 1.60796875 4.23339844 0.75 4.25 C-0.08273437 4.24677734 -0.91546875 4.24355469 -1.7734375 4.24023438 C-6.51771673 4.03282862 -6.51771673 4.03282862 -10.25 6.5625 C-10.63218767 4.90635343 -10.96395102 3.23792976 -11.25 1.5625 C-8.85279406 -0.83470594 -3.21098656 0.09168156 0 0 Z " fill="#242525" transform="translate(784.25,474.4375)"/>
<path d="M0 0 C7.26 0 14.52 0 22 0 C23.32 2.31 24.64 4.62 26 7 C25.67 7.66 25.34 8.32 25 9 C24.53078125 8.19175781 24.0615625 7.38351562 23.578125 6.55078125 C19.88342235 2.89526484 16.76503364 3.22276196 11.75 3.1875 C10.90953125 3.16236328 10.0690625 3.13722656 9.203125 3.11132812 C7.13591772 3.05260065 5.06790889 3.02340226 3 3 C3 3.66 3 4.32 3 5 C2.01 4.67 1.02 4.34 0 4 C0 2.68 0 1.36 0 0 Z " fill="#2A2A2A" transform="translate(674,475)"/>
<path d="M0 0 C3.6196875 0.061875 3.6196875 0.061875 7.3125 0.125 C7.3125 7.715 7.3125 15.305 7.3125 23.125 C5.3325 22.795 3.3525 22.465 1.3125 22.125 C2.6325 21.795 3.9525 21.465 5.3125 21.125 C5.3125 14.525 5.3125 7.925 5.3125 1.125 C-2.6075 1.62 -2.6075 1.62 -10.6875 2.125 C-7.00352884 -0.33098077 -4.24026192 -0.1021532 0 0 Z " fill="#080808" transform="translate(547.6875,404.875)"/>
<path d="M0 0 C5.75 -0.125 5.75 -0.125 8 1 C11.5431147 1.03107995 15.07528351 0.93227339 18.6171875 0.83984375 C21.77812365 0.98949546 23.38093352 1.3219549 26 3 C17.84142723 5.4890561 8.32345871 4.12860457 0 3 C0 2.01 0 1.02 0 0 Z " fill="#303030" transform="translate(803,504)"/>
<path d="M0 0 C1.5 1.375 1.5 1.375 3 3 C3 3.66 3 4.32 3 5 C-5.91 5 -14.82 5 -24 5 C-24.33 4.34 -24.66 3.68 -25 3 C-12.625 2.505 -12.625 2.505 0 2 C0 1.34 0 0.68 0 0 Z " fill="#313131" transform="translate(359,501)"/>
<path d="M0 0 C4.95 0 9.9 0 15 0 C15 0.99 15 1.98 15 3 C5.595 3.495 5.595 3.495 -4 4 C-3.67 3.34 -3.34 2.68 -3 2 C-2.01 2 -1.02 2 0 2 C0 1.34 0 0.68 0 0 Z " fill="#2E2E2E" transform="translate(534,424)"/>
<path d="M0 0 C0.4140625 2.94140625 0.4140625 2.94140625 0.625 6.5625 C0.69976562 7.76003906 0.77453125 8.95757812 0.8515625 10.19140625 C0.90054687 11.11824219 0.94953125 12.04507812 1 13 C2.32 11.68 3.64 10.36 5 9 C4.25 11.4375 4.25 11.4375 3 14 C1.68 14.33 0.36 14.66 -1 15 C-1.495 8.565 -1.495 8.565 -2 2 C-8.93 1.67 -15.86 1.34 -23 1 C-23 0.67 -23 0.34 -23 0 C-19.54210946 -0.19635974 -16.08367803 -0.38058252 -12.625 -0.5625 C-11.64015625 -0.61857422 -10.6553125 -0.67464844 -9.640625 -0.73242188 C-8.69960938 -0.78076172 -7.75859375 -0.82910156 -6.7890625 -0.87890625 C-5.48509521 -0.94960327 -5.48509521 -0.94960327 -4.15478516 -1.02172852 C-2 -1 -2 -1 0 0 Z " fill="#0E0F0F" transform="translate(400,408)"/>
<path d="M0 0 C0.33 0.66 0.66 1.32 1 2 C0.29875 2.680625 -0.4025 3.36125 -1.125 4.0625 C-4.27934337 7.20780513 -7.13934304 10.5888386 -10 14 C-10.99 13.67 -11.98 13.34 -13 13 C-11.58791833 11.39179588 -10.17013964 9.78859292 -8.75 8.1875 C-7.96109375 7.29417969 -7.1721875 6.40085937 -6.359375 5.48046875 C-4.34120555 3.35871775 -2.40083295 1.65745577 0 0 Z " fill="#131313" transform="translate(584,412)"/>
<path d="M0 0 C1.32 0 2.64 0 4 0 C4 0.66 4 1.32 4 2 C5.65 2 7.3 2 9 2 C9 2.33 9 2.66 9 3 C4.05 3 -0.9 3 -6 3 C-6 2.67 -6 2.34 -6 2 C-4.02 2 -2.04 2 0 2 C0 1.34 0 0.68 0 0 Z " fill="#262626" transform="translate(815,404)"/>
<path d="M0 0 C-2.75924185 1.80411967 -3.88972103 2.0127245 -7.25 1.625 C-8.1575 1.41875 -9.065 1.2125 -10 1 C-6.1496895 -1.56687367 -4.41430237 -0.83288724 0 0 Z " fill="#2A2A2B" transform="translate(706,407)"/>
</svg>
