<?xml version="1.0" encoding="UTF-8"?>
<svg version="1.1" xmlns="http://www.w3.org/2000/svg" width="512" height="512">
<path d="M0 0 C1.88428711 0.01353516 1.88428711 0.01353516 3.80664062 0.02734375 C6.89212522 0.05080751 9.97721205 0.08363799 13.0625 0.125 C13.0625 2.765 13.0625 5.405 13.0625 8.125 C18.3425 8.125 23.6225 8.125 29.0625 8.125 C29.0625 5.485 29.0625 2.845 29.0625 0.125 C34.3425 0.125 39.6225 0.125 45.0625 0.125 C45.0625 2.765 45.0625 5.405 45.0625 8.125 C50.3425 8.125 55.6225 8.125 61.0625 8.125 C61.0625 5.485 61.0625 2.845 61.0625 0.125 C104.93657164 0.03340797 148.81063314 -0.03705727 192.68478157 -0.07926132 C197.86667745 -0.08426403 203.04857315 -0.08944133 208.23046875 -0.09472656 C209.26207374 -0.0957758 210.29367872 -0.09682505 211.35654446 -0.09790608 C228.05150482 -0.11530262 244.74640998 -0.14683619 261.44133762 -0.18361118 C278.57690016 -0.22104148 295.71243383 -0.24324027 312.84803557 -0.25135398 C323.41826672 -0.25683741 333.98834183 -0.27414499 344.55852494 -0.30666587 C351.81077764 -0.32783952 359.06294988 -0.33419359 366.31523123 -0.32900551 C370.49697506 -0.32644817 374.67844657 -0.33031776 378.86014175 -0.3518219 C382.69498993 -0.37139758 386.52938466 -0.37219938 390.36425444 -0.35859558 C392.39540629 -0.35612573 394.42655341 -0.37327862 396.45762658 -0.39132524 C409.93995962 -0.30396719 420.73636175 3.48036298 430.75 12.5625 C431.513125 13.408125 432.27625 14.25375 433.0625 15.125 C433.52011719 15.57875 433.97773438 16.0325 434.44921875 16.5 C454.9558178 38.02923785 453.51439548 71.84847243 453.41069686 99.39602852 C453.39761237 103.76385023 453.40213463 108.13166063 453.40440369 112.49949646 C453.40596866 120.04739219 453.39664121 127.59520948 453.37969017 135.14308548 C453.35519862 146.05572695 453.34748457 156.9683309 453.3437262 167.88099687 C453.33717755 185.59060789 453.31725969 203.30017721 453.28881836 221.00976562 C453.26123655 238.20214633 453.24002319 255.39451567 453.22729492 272.58691406 C453.22650675 273.64854246 453.22571858 274.71017086 453.22490653 275.80396982 C453.22099111 281.13041176 453.21720006 286.45685379 453.21347082 291.78329587 C453.18242439 335.89722611 453.1296321 380.01111089 453.0625 424.125 C450.4225 424.125 447.7825 424.125 445.0625 424.125 C445.0625 429.405 445.0625 434.685 445.0625 440.125 C447.7025 440.125 450.3425 440.125 453.0625 440.125 C453.18039773 444.37475959 453.25031321 448.62408905 453.3125 452.875 C453.34601562 454.06222656 453.37953125 455.24945313 453.4140625 456.47265625 C453.56964907 470.708827 448.65447103 484.82151193 438.875 495.44140625 C428.33996566 505.22718169 415.23788622 512.3661149 400.64415455 512.38226891 C399.9271791 512.38577498 399.21020365 512.38928105 398.47150168 512.39289337 C396.07449494 512.40218034 393.67773261 512.3972911 391.28071594 512.39242554 C389.54255911 512.39616317 387.80440395 512.40076514 386.06625146 512.40615618 C381.29375082 512.41838777 376.52132028 512.41812552 371.74880755 512.41576743 C366.60003938 512.4153593 361.4512937 512.42639808 356.30253601 512.43588257 C346.21620353 512.45249473 336.12989442 512.45799223 326.0435494 512.45910732 C317.84396777 512.46005775 309.64439386 512.4641678 301.44481468 512.47050858 C278.19451878 512.48812205 254.94424133 512.49734735 231.69393871 512.49584763 C229.81383627 512.49572776 229.81383627 512.49572776 227.89575195 512.49560547 C226.64081876 512.49552371 225.38588556 512.49544195 224.09292408 512.49535771 C203.75775182 512.49454491 183.42265365 512.51368065 163.08750281 512.5418822 C142.20458881 512.57061472 121.32171094 512.58442227 100.43877667 512.58269465 C88.71581372 512.58203085 76.99292843 512.58751886 65.26998329 512.60905075 C55.28804514 512.62726741 45.30621984 512.63160589 35.32427225 512.6180319 C30.23316306 512.61150459 25.14227035 512.61137663 20.05118179 512.6287384 C15.38578459 512.64448455 10.72077524 512.64158966 6.0553874 512.62417014 C4.37235081 512.62110364 2.68928516 512.62471938 1.00628284 512.63589029 C-14.94651625 512.73471954 -30.15592764 509.07808462 -42.25390625 497.9375 C-52.03968169 487.40246566 -59.1786149 474.30038622 -59.19476891 459.70665455 C-59.19827498 458.9896791 -59.20178105 458.27270365 -59.20539337 457.53400168 C-59.21468034 455.13699494 -59.2097911 452.74023261 -59.20492554 450.34321594 C-59.20866317 448.60505911 -59.21326514 446.86690395 -59.21865618 445.12875146 C-59.23088777 440.35625082 -59.23062552 435.58382028 -59.22826743 430.81130755 C-59.2278593 425.66253938 -59.23889808 420.5137937 -59.24838257 415.36503601 C-59.26499473 405.27870353 -59.27049223 395.19239442 -59.27160732 385.1060494 C-59.27255775 376.90646777 -59.2766678 368.70689386 -59.28300858 360.50731468 C-59.30062205 337.25701878 -59.30984735 314.00674133 -59.30834763 290.75643871 C-59.30826772 289.50303708 -59.3081878 288.24963545 -59.30810547 286.95825195 C-59.30802371 285.70331876 -59.30794195 284.44838556 -59.30785771 283.15542408 C-59.30704491 262.82025182 -59.32618065 242.48515365 -59.3543822 222.15000281 C-59.38311472 201.26708881 -59.39692227 180.38421094 -59.39519465 159.50127667 C-59.39453085 147.77831372 -59.40001886 136.05542843 -59.42155075 124.33248329 C-59.43976741 114.35054514 -59.44410589 104.36871984 -59.4305319 94.38677225 C-59.42400459 89.29566306 -59.42387663 84.20477035 -59.4412384 79.11368179 C-59.45698455 74.44828459 -59.45408966 69.78327524 -59.43667014 65.1178874 C-59.43360364 63.43485081 -59.43721938 61.75178516 -59.44839029 60.06878284 C-59.54721954 44.11598375 -55.89058462 28.90657236 -44.75 16.80859375 C-37.74637481 10.30307121 -29.88397372 5.460535 -20.9375 2.125 C-19.96167969 1.75375 -18.98585937 1.3825 -17.98046875 1 C-12.16299284 -0.60673144 -5.97712184 -0.08149196 0 0 Z " fill="#010000" transform="translate(58.9375,-0.125)"/>
<path d="M0 0 C0 7.59 0 15.18 0 23 C-2.64 23 -5.28 23 -8 23 C-8 28.28 -8 33.56 -8 39 C-5.36 39 -2.72 39 0 39 C0 44.28 0 49.56 0 55 C-2.64 55 -5.28 55 -8 55 C-8 142.12 -8 229.24 -8 319 C-134.72 319 -261.44 319 -392 319 C-392 215.38 -392 111.76 -392 5 C-379.63457984 11.74477463 -379.63457984 11.74477463 -375.1171875 14.7421875 C-373.60342529 15.74040527 -373.60342529 15.74040527 -372.05908203 16.75878906 C-370.48296143 17.80631348 -370.48296143 17.80631348 -368.875 18.875 C-366.57964853 20.39033719 -364.2820503 21.90225191 -361.984375 23.4140625 C-361.4041861 23.79630981 -360.82399719 24.17855713 -360.22622681 24.5723877 C-354.22745615 28.51963614 -348.17973424 32.38924861 -342.125 36.25 C-332.13441755 42.62555881 -322.18505928 49.06137629 -312.25537109 55.53125 C-301.76487332 62.36290562 -291.23593386 69.13317835 -280.6875 75.875 C-270.51182708 82.3790858 -260.37371852 88.93845184 -250.25537109 95.53125 C-238.30539596 103.31335115 -226.30504734 111.01608503 -214.28833008 118.69458008 C-213.25732178 119.35353271 -212.22631348 120.01248535 -211.1640625 120.69140625 C-210.24061035 121.28123291 -209.3171582 121.87105957 -208.36572266 122.47875977 C-206.56631968 123.63583716 -204.78001971 124.81332019 -203 126 C-197.49139513 127.10340556 -194.1154278 124.56949157 -189.66870117 121.68408203 C-188.74677979 121.06645996 -187.8248584 120.44883789 -186.875 119.8125 C-185.90216064 119.17683105 -184.92932129 118.54116211 -183.92700195 117.88623047 C-181.91424017 116.56964747 -179.905216 115.24733341 -177.89990234 113.91943359 C-174.47397326 111.65182503 -171.02973282 109.41352319 -167.58251953 107.1784668 C-165.13980561 105.59406428 -162.70080926 104.00403596 -160.26171875 102.4140625 C-154.36186089 98.57695807 -148.43116294 94.78846557 -142.5 91 C-132.38608941 84.53865598 -122.31083064 78.02057238 -112.25537109 71.46875 C-101.76487332 64.63709438 -91.23593386 57.86682165 -80.6875 51.125 C-70.51182708 44.6209142 -60.37371852 38.06154816 -50.25537109 31.46875 C-46.77735605 29.20378589 -43.29609707 26.94386826 -39.8125 24.6875 C-39.1522583 24.25977295 -38.4920166 23.8320459 -37.81176758 23.39135742 C-33.39204103 20.53336073 -28.96012986 17.69487062 -24.5234375 14.86328125 C-23.95987045 14.5034465 -23.39630341 14.14361176 -22.81565857 13.77287292 C-20.00381691 11.97761844 -17.19092824 10.18407302 -14.3762207 8.39331055 C-13.34843506 7.73758057 -12.32064941 7.08185059 -11.26171875 6.40625 C-9.88439575 5.52936523 -9.88439575 5.52936523 -8.47924805 4.63476562 C-6.00241938 3.04764824 -6.00241938 3.04764824 -3.79614258 1.28710938 C-2 0 -2 0 0 0 Z " fill="#EBEBEB" transform="translate(456,177)"/>
<path d="M0 0 C5.28 0 10.56 0 16 0 C16 2.64 16 5.28 16 8 C21.28 8 26.56 8 32 8 C32 10.64 32 13.28 32 16 C33.07922705 15.99772168 33.07922705 15.99772168 34.18025666 15.99539733 C76.83502207 15.90585984 119.48977724 15.83724103 162.14461781 15.79573868 C167.26771737 15.79073593 172.39081674 15.78555864 177.51391602 15.78027344 C178.53382085 15.7792242 179.55372569 15.77817495 180.60453673 15.77709392 C197.11264371 15.75969484 213.62069489 15.72815987 230.12876878 15.69138882 C247.07109434 15.65396559 264.0133907 15.63176122 280.95575589 15.62364602 C291.40775923 15.61816113 301.85960485 15.60084558 312.31155964 15.56833413 C319.48157505 15.5471692 326.65150908 15.54080444 333.82155345 15.54599449 C337.95659341 15.54855319 342.09135803 15.5446667 346.22634888 15.5231781 C350.01735314 15.50362163 353.80789855 15.50278834 357.59892454 15.51640442 C359.60894456 15.51887781 361.6189597 15.50170758 363.62890035 15.48367476 C374.69515329 15.55631911 383.86729334 17.77486584 391.9375 25.62890625 C402.24249893 37.47575162 406.67184029 53.51682815 407 69 C406.29375488 69.44315552 406.29375488 69.44315552 405.57324219 69.89526367 C395.63267678 76.13865734 385.73835293 82.44575459 375.90722656 88.86010742 C369.12888633 93.27801641 362.31885044 97.6449251 355.5 102 C345.38606042 108.46129824 335.31083023 114.97942788 325.25537109 121.53125 C314.76487332 128.36290562 304.23593386 135.13317835 293.6875 141.875 C283.51182708 148.3790858 273.37371852 154.93845184 263.25537109 161.53125 C252.76487332 168.36290562 242.23593386 175.13317835 231.6875 181.875 C222.31641965 187.86480639 212.97401505 193.89640265 203.65625 199.96875 C200.57711874 201.9753172 197.49399481 203.97546268 194.40625 205.96875 C193.66987305 206.4443335 192.93349609 206.91991699 192.17480469 207.40991211 C190.74949303 208.32913253 189.32309779 209.24667544 187.89550781 210.16235352 C184.7038431 212.21627013 181.54732239 214.29753918 178.453125 216.49609375 C177.39609375 217.23988281 176.3390625 217.98367187 175.25 218.75 C173.89648438 219.73226562 173.89648438 219.73226562 172.515625 220.734375 C169.36245002 222.32075496 168.34434105 221.97080954 165 221 C162.45483398 219.62402344 162.45483398 219.62402344 159.74609375 217.859375 C158.73740234 217.20775391 157.72871094 216.55613281 156.68945312 215.88476562 C155.07973633 214.82805664 155.07973633 214.82805664 153.4375 213.75 C152.3084048 213.01686596 151.17884149 212.28445241 150.04882812 211.55273438 C147.76640691 210.07285175 145.48698686 208.588527 143.21044922 207.09960938 C140.40500702 205.26487151 137.59629057 203.43537331 134.78515625 201.609375 C132.38739058 200.05174841 129.99004771 198.49351263 127.59472656 196.93212891 C120.9831769 192.62500339 114.33820803 188.37134667 107.6875 184.125 C98.64733323 178.35209741 89.647217 172.52174218 80.67138672 166.64941406 C72.52930979 161.32934665 64.33988611 156.08526327 56.14257812 150.85083008 C47.14881127 145.104578 38.19738283 139.29508468 29.25537109 133.46875 C18.76487332 126.63709438 8.23593386 119.86682165 -2.3125 113.125 C-12.48099407 106.62550277 -22.61169815 100.07045933 -32.72265625 93.48193359 C-35.61776112 91.59800493 -38.51651972 89.71985904 -41.42016602 87.84912109 C-42.79648635 86.95634657 -44.16692001 86.05442464 -45.53100586 85.14306641 C-49.42427826 82.56047827 -53.34824334 80.26817799 -57.50390625 78.12890625 C-70.77749213 70.9973989 -70.77749213 70.9973989 -72.953125 65.66308594 C-75.11731684 54.42761417 -71.46889527 43.1944303 -65.578125 33.7109375 C-60.52287394 26.45420614 -54.16602541 21.35799176 -46 18 C-45.18402344 17.63648437 -44.36804688 17.27296875 -43.52734375 16.8984375 C-38.23774816 15.55114294 -33.05803793 15.79180861 -27.625 15.875 C-25.94857422 15.88853516 -25.94857422 15.88853516 -24.23828125 15.90234375 C-21.49196538 15.92581654 -18.74609528 15.95865272 -16 16 C-16 13.36 -16 10.72 -16 8 C-10.72 8 -5.44 8 0 8 C0 5.36 0 2.72 0 0 Z " fill="#EDEDED" transform="translate(88,0)"/>
<path d="M0 0 C0 7.59 0 15.18 0 23 C-2.64 23 -5.28 23 -8 23 C-8 28.28 -8 33.56 -8 39 C-5.36 39 -2.72 39 0 39 C0 44.28 0 49.56 0 55 C-2.64 55 -5.28 55 -8 55 C-8 117.04 -8 179.08 -8 243 C-13.445 239.535 -13.445 239.535 -19 236 C-21.81664403 234.24328692 -21.81664403 234.24328692 -24.63647461 232.49169922 C-32.13792764 227.84053396 -39.5517923 223.06358717 -46.94311523 218.23974609 C-53.77083006 213.78770191 -60.63040068 209.38709138 -67.5 205 C-77.61396859 198.53874756 -87.68917018 192.02057185 -97.74462891 185.46875 C-108.23512668 178.63709438 -118.76406614 171.86682165 -129.3125 165.125 C-138.68358035 159.13519361 -148.02598495 153.10359735 -157.34375 147.03125 C-161.16487097 144.54115283 -164.99374344 142.06333734 -168.82641602 139.59106445 C-170.92688732 138.23471159 -173.02433033 136.87379445 -175.12109375 135.51171875 C-177.64471206 133.87259008 -180.1787158 132.25191013 -182.72265625 130.64453125 C-183.82480469 129.93683594 -184.92695313 129.22914063 -186.0625 128.5 C-187.02285156 127.8915625 -187.98320312 127.283125 -188.97265625 126.65625 C-189.64167969 126.1096875 -190.31070312 125.563125 -191 125 C-191 124.01 -191 123.02 -191 122 C-188.77959399 120.39361688 -186.60727039 119.00544587 -184.25 117.625 C-182.76316986 116.72586229 -181.27754525 115.82472887 -179.79296875 114.921875 C-179.00583496 114.44556641 -178.21870117 113.96925781 -177.40771484 113.47851562 C-173.40814834 111.02248493 -169.48806297 108.44705664 -165.5625 105.875 C-157.90236346 100.87334627 -150.21028587 95.92397403 -142.5 91 C-132.38603141 84.53874756 -122.31082982 78.02057185 -112.25537109 71.46875 C-101.76487332 64.63709438 -91.23593386 57.86682165 -80.6875 51.125 C-70.51182708 44.6209142 -60.37371852 38.06154816 -50.25537109 31.46875 C-46.77735605 29.20378589 -43.29609707 26.94386826 -39.8125 24.6875 C-39.1522583 24.25977295 -38.4920166 23.8320459 -37.81176758 23.39135742 C-33.39204103 20.53336073 -28.96012986 17.69487062 -24.5234375 14.86328125 C-23.95987045 14.5034465 -23.39630341 14.14361176 -22.81565857 13.77287292 C-20.00381691 11.97761844 -17.19092824 10.18407302 -14.3762207 8.39331055 C-13.34843506 7.73758057 -12.32064941 7.08185059 -11.26171875 6.40625 C-9.88439575 5.52936523 -9.88439575 5.52936523 -8.47924805 4.63476562 C-6.00241938 3.04764824 -6.00241938 3.04764824 -3.79614258 1.28710938 C-2 0 -2 0 0 0 Z " fill="#CACBCD" transform="translate(456,177)"/>
<path d="M0 0 C6.12641152 3.26373788 12.08969223 6.56946214 17.8125 10.5 C23.96963001 14.67978126 30.2114774 18.70839076 36.5 22.6875 C44.14122807 27.52791191 51.74427642 32.42121818 59.3125 37.375 C67.40758003 42.67253084 75.53359773 47.9184567 83.6875 53.125 C93.73956692 59.54373374 103.75205365 66.02040105 113.74462891 72.53125 C125.31473951 80.06597455 136.93495827 87.52088476 148.5690918 94.95629883 C155.86897669 99.62564426 163.1428413 104.33299625 170.40161133 109.06591797 C177.07797911 113.41359964 183.7857941 117.71103308 190.5 122 C198.24853358 126.94981128 205.98138384 131.92190054 213.6875 136.9375 C214.49848145 137.46303467 215.30946289 137.98856934 216.14501953 138.5300293 C219.8324211 140.92194956 223.50297877 143.33188401 227.13671875 145.8046875 C227.77327393 146.23144775 228.4098291 146.65820801 229.06567383 147.09790039 C230.73506962 148.21856482 232.39532162 149.35281836 234.0546875 150.48828125 C237.62445627 152.32051005 239.03902569 152.75220426 243 152 C246.55462958 150.20384858 249.81929827 148.02708617 253.125 145.8125 C254.09783936 145.17683105 255.07067871 144.54116211 256.07299805 143.88623047 C258.08575983 142.56964747 260.094784 141.24733341 262.10009766 139.91943359 C265.52602674 137.65182503 268.97026718 135.41352319 272.41748047 133.1784668 C274.86019439 131.59406428 277.29919074 130.00403596 279.73828125 128.4140625 C285.63813876 124.5769583 291.56881486 120.78843026 297.5 117 C305.01975133 112.19652165 312.52550415 107.37361437 320 102.5 C327.47449662 97.62638513 334.98029838 92.80355712 342.5 88 C352.6138816 81.53861022 362.68916895 75.02057265 372.74462891 68.46875 C383.23512668 61.63709438 393.76406614 54.86682165 404.3125 48.125 C414.48817292 41.6209142 424.62628148 35.06154816 434.74462891 28.46875 C441.15236679 24.29588237 447.57257893 20.14247474 454 16 C455.0410791 15.3287207 456.0821582 14.65744141 457.15478516 13.96582031 C460.02712734 12.11458291 462.90139416 10.26636135 465.77676392 8.41983032 C466.9227456 7.68343658 468.06823604 6.9462778 469.21322632 6.20834351 C470.81784012 5.17448915 472.42449989 4.14381236 474.03125 3.11328125 C474.96517578 2.51298096 475.89910156 1.91268066 476.86132812 1.29418945 C479 0 479 0 480 0 C483.63107445 38.72741275 483.63107445 38.72741275 478.01660156 48.42626953 C472.87369962 53.51875087 466.64085297 56.23535095 459.95263672 58.80224609 C455.77965189 60.49504116 452.29977824 62.87095897 448.625 65.4375 C447.27332646 66.31964484 445.91771245 67.19577589 444.55859375 68.06640625 C443.48714111 68.75694092 443.48714111 68.75694092 442.39404297 69.46142578 C436.41938437 73.30114621 430.43186629 77.12083912 424.44775391 80.94580078 C415.35429427 86.76290996 406.29973964 92.63822283 397.25537109 98.53125 C386.76487332 105.36290562 376.23593386 112.13317835 365.6875 118.875 C355.51182708 125.3790858 345.37371852 131.93845184 335.25537109 138.53125 C324.76487332 145.36290562 314.23593386 152.13317835 303.6875 158.875 C294.31641965 164.86480639 284.97401505 170.89640265 275.65625 176.96875 C272.57711874 178.9753172 269.49399481 180.97546268 266.40625 182.96875 C265.66987305 183.4443335 264.93349609 183.91991699 264.17480469 184.40991211 C262.74949303 185.32913253 261.32309779 186.24667544 259.89550781 187.16235352 C256.7038431 189.21627013 253.54732239 191.29753918 250.453125 193.49609375 C249.39609375 194.23988281 248.3390625 194.98367188 247.25 195.75 C245.89648438 196.73226562 245.89648438 196.73226562 244.515625 197.734375 C241.36245002 199.32075496 240.34434105 198.97080954 237 198 C234.45483398 196.62402344 234.45483398 196.62402344 231.74609375 194.859375 C230.73675781 194.20735107 229.72742188 193.55532715 228.6875 192.88354492 C227.615 192.1794751 226.5425 191.47540527 225.4375 190.75 C224.31425916 190.02053594 223.19055565 189.29178384 222.06640625 188.5637207 C219.78989214 187.08742802 217.51638006 185.60668769 215.24560547 184.12158203 C212.33565198 182.21940843 209.42122728 180.32444 206.50390625 178.43359375 C203.20211003 176.29260014 199.90251697 174.1482984 196.60546875 172 C185.33318183 164.65533102 174.0238512 157.37040335 162.6875 150.125 C152.51182708 143.6209142 142.37371852 137.06154816 132.25537109 130.46875 C121.76487332 123.63709438 111.23593386 116.86682165 100.6875 110.125 C90.5234589 103.62834902 80.39710159 97.07629685 70.29052734 90.49072266 C64.54938174 86.75426613 58.79404158 83.03968149 53.04150391 79.32080078 C51.04102883 78.0265446 49.04180003 76.73038684 47.04296875 75.43359375 C37.32723667 69.13331791 27.58004227 62.88328616 17.81640625 56.6574707 C16.80449219 56.01124756 15.79257812 55.36502441 14.75 54.69921875 C13.41195313 53.84589966 13.41195313 53.84589966 12.046875 52.9753418 C11.04140625 52.323479 10.0359375 51.67161621 9 51 C8.2309584 50.60421753 7.46191681 50.20843506 6.66957092 49.80065918 C0.46104921 46.33754648 0.46104921 46.33754648 -0.78201294 42.73130798 C-1.04247713 39.9678509 -1.01398822 37.34267775 -0.87890625 34.5703125 C-0.86617172 33.57998016 -0.85343719 32.58964783 -0.84031677 31.56930542 C-0.79009275 28.41866921 -0.67722782 25.2738818 -0.5625 22.125 C-0.51733885 19.98445845 -0.47627711 17.84382621 -0.43945312 15.703125 C-0.34044148 10.46676816 -0.19003018 5.23380177 0 0 Z " fill="#D53C3E" transform="translate(16,87)"/>
<path d="M0 0 C0 90.09 0 180.18 0 273 C2.64 273 5.28 273 8 273 C8 278.28 8 283.56 8 289 C5.36 289 2.72 289 0 289 C0.01571045 289.61407715 0.0314209 290.2281543 0.04760742 290.86083984 C0.11076194 293.69879589 0.14924177 296.53660333 0.1875 299.375 C0.21263672 300.34050781 0.23777344 301.30601562 0.26367188 302.30078125 C0.38305867 314.15986926 -3.05977053 324.27009717 -10.96875 333.23046875 C-16.3044239 338.38248721 -24.2686802 344 -32 344 C-32 257.21 -32 170.42 -32 81 C-34.64 81 -37.28 81 -40 81 C-40 75.72 -40 70.44 -40 65 C-42.64 65 -45.28 65 -48 65 C-48 59.72 -48 54.44 -48 49 C-45.36 49 -42.72 49 -40 49 C-40.33 41.08 -40.66 33.16 -41 25 C-38.03 23.35 -35.06 21.7 -32 20 C-30.10844181 18.8263214 -28.22984161 17.63122765 -26.37109375 16.40625 C-25.39849609 15.76816406 -24.42589844 15.13007813 -23.42382812 14.47265625 C-22.43833984 13.82167969 -21.45285156 13.17070312 -20.4375 12.5 C-1.43997525 0 -1.43997525 0 0 0 Z " fill="#A73129" transform="translate(496,151)"/>
<path d="M0 0 C1.74797541 0.94332409 3.4947266 1.88891685 5.2409668 2.83544922 C6.70024849 3.62494461 6.70024849 3.62494461 8.18901062 4.4303894 C11.86267352 6.48170282 15.34421558 8.74781911 18.8125 11.125 C19.42802734 11.54136719 20.04355469 11.95773438 20.67773438 12.38671875 C21.82551008 13.16326265 22.97198619 13.94173526 24.11645508 14.72314453 C26.10919269 16.16538688 26.10919269 16.16538688 29.07262611 17.28097153 C32.47238175 20.43876166 32.46919561 21.10747491 32.73828697 25.55221939 C32.76361323 27.96178999 32.75524195 30.37184321 32.7215271 32.78131104 C32.72414313 34.12120603 32.72939584 35.46109804 32.7370621 36.80097365 C32.75049898 40.48643822 32.72645275 44.17085957 32.69639373 47.85619116 C32.67051898 51.82889138 32.67924861 55.80153123 32.68380737 59.77429199 C32.68695581 66.65846991 32.66810711 73.54230704 32.63438034 80.42639923 C32.5856489 90.37961991 32.56999486 100.33267555 32.56245239 110.28600261 C32.54931573 126.43392593 32.50937289 142.58166755 32.45263672 158.72949219 C32.39757522 174.41698293 32.35509849 190.10442434 32.32958984 205.79199219 C32.3280135 206.75872786 32.32643716 207.72546353 32.32481305 208.72149423 C32.31698291 213.57125047 32.30940064 218.42100705 32.30194163 223.27076387 C32.23972607 263.51396899 32.13403386 303.75697411 32 344 C20.01070768 341.10426815 11.40876422 335.54777917 4.6875 324.92578125 C0.06925254 316.28354612 -0.28769674 307.84407059 -0.24050903 298.23120117 C-0.24221788 296.95438099 -0.24392673 295.67756081 -0.24568737 294.3620491 C-0.25014227 290.83418852 -0.2421829 287.30645024 -0.23213124 283.77860522 C-0.22347216 279.96821277 -0.22641864 276.15782689 -0.22793579 272.34742737 C-0.22898309 265.75101088 -0.22272271 259.15463405 -0.21146011 252.55822754 C-0.19518704 243.02100632 -0.18999526 233.48380423 -0.18748413 223.94657063 C-0.18310987 208.4720193 -0.16980804 192.99748909 -0.15087891 177.52294922 C-0.13251316 162.4933279 -0.11836005 147.46371231 -0.10986328 132.43408203 C-0.10933783 131.50722819 -0.10881239 130.58037436 -0.10827102 129.62543404 C-0.10566089 124.97555299 -0.10313349 120.3256719 -0.10064721 115.67579079 C-0.07992307 77.11717907 -0.04470485 38.55859093 0 0 Z " fill="#A73128" transform="translate(16,151)"/>
<path d="M0 0 C126.72 0 253.44 0 384 0 C384 7.92 384 15.84 384 24 C257.28 24 130.56 24 0 24 C0 16.08 0 8.16 0 0 Z " fill="#CFCFCF" transform="translate(64,472)"/>
<path d="M0 0 C0.33 0 0.66 0 1 0 C1.65910657 12.84037247 -1.33360715 23.44740016 -9.96875 33.23046875 C-15.3044239 38.38248721 -23.2686802 44 -31 44 C-31 36.08 -31 28.16 -31 20 C-28.339375 19.195625 -28.339375 19.195625 -25.625 18.375 C-15.05828226 14.8278686 -6.25492002 9.38238002 0 0 Z " fill="#90313B" transform="translate(495,451)"/>
<path d="M0 0 C0.639375 0.66 1.27875 1.32 1.9375 2 C2.95366301 3.00474545 3.97526633 4.00399718 5 5 C5.65484375 5.639375 6.3096875 6.27875 6.984375 6.9375 C14.7290319 14.1878171 21.69056289 17.42264072 32 20 C32 27.92 32 35.84 32 44 C19.82739086 40.95684772 11.47543787 35.65314735 4.6875 24.92578125 C0.33245968 16.77609183 -0.30235264 9.13776875 0 0 Z " fill="#8F313B" transform="translate(16,451)"/>
<path d="M0 0 C5.28 0 10.56 0 16 0 C16 5.28 16 10.56 16 16 C10.72 16 5.44 16 0 16 C0 10.72 0 5.44 0 0 Z " fill="#000000" transform="translate(448,200)"/>
<path d="M0 0 C5.28 0 10.56 0 16 0 C16 5.28 16 10.56 16 16 C10.72 16 5.44 16 0 16 C0 10.72 0 5.44 0 0 Z " fill="#000000" transform="translate(88,0)"/>
</svg>
