<?xml version="1.0" encoding="UTF-8"?>
<svg version="1.1" xmlns="http://www.w3.org/2000/svg" width="1024" height="1536">
<path d="M0 0 C337.92 0 675.84 0 1024 0 C1024 506.88 1024 1013.76 1024 1536 C686.08 1536 348.16 1536 0 1536 C0 1029.12 0 522.24 0 0 Z " fill="#FEFEFE" transform="translate(0,0)"/>
<path d="M0 0 C1.00921611 -0.00327219 2.01843222 -0.00654439 3.05823064 -0.00991574 C4.17751203 -0.00843212 5.29679341 -0.00694849 6.44999242 -0.00541991 C7.63574085 -0.00777214 8.82148929 -0.01012437 10.0431695 -0.01254788 C13.3594336 -0.0180903 16.67564499 -0.01910748 19.9919101 -0.01827047 C23.59034809 -0.01843947 27.18877729 -0.02433995 30.78721094 -0.02951133 C37.93548153 -0.03885602 45.08374593 -0.04276251 52.23202187 -0.0450303 C60.78954952 -0.0479875 69.34706891 -0.05668202 77.90459224 -0.06544458 C98.59071948 -0.08630919 119.27684817 -0.0967617 139.96298348 -0.10557419 C149.74395223 -0.10977758 159.52492036 -0.11499996 169.30588859 -0.12025872 C202.77024259 -0.13815011 236.23459676 -0.15314755 269.69895482 -0.16057891 C271.80065531 -0.16105367 273.9023558 -0.16152956 276.00405629 -0.16200657 C277.56747765 -0.16236113 277.56747765 -0.16236113 279.16248328 -0.16272286 C284.44342531 -0.16392409 289.72436733 -0.16513953 295.00530934 -0.16636485 C296.05333859 -0.166605 297.10136783 -0.16684515 298.18115554 -0.16709258 C332.17413768 -0.17498858 366.16708496 -0.198426 400.16005188 -0.23092079 C436.07768173 -0.2651929 471.99529117 -0.28492759 507.91293764 -0.28822315 C511.85332752 -0.28864071 515.79371739 -0.28912027 519.73410726 -0.28964633 C520.70438135 -0.28976952 521.67465545 -0.28989271 522.6743318 -0.29001964 C538.31098878 -0.29235488 553.94760538 -0.30803284 569.58424795 -0.32848817 C585.29166933 -0.34871064 600.99904205 -0.35424047 616.70647404 -0.34471754 C626.04566827 -0.33948867 635.38470085 -0.34544517 644.72387192 -0.36725221 C650.95669968 -0.38070979 657.18941556 -0.3797282 663.42224431 -0.36685025 C666.97728656 -0.35991981 670.53201865 -0.35939829 674.08703384 -0.37641034 C677.91189243 -0.39456518 681.73629047 -0.38196037 685.56116796 -0.36618346 C687.22604304 -0.38151677 687.22604304 -0.38151677 688.92455196 -0.39715984 C695.01091645 -0.34195066 698.6349173 0.0347922 703.25726247 4.12880117 C705.67900103 7.40692511 705.38813716 10.09975335 705.05413747 14.07411367 C705.00287709 14.71092061 704.95161672 15.34772756 704.898803 16.00383168 C704.70054699 18.38043153 704.48005466 20.75437512 704.25726247 23.12880117 C704.16694753 24.11118764 704.07663259 25.09357412 703.98358083 26.10572988 C703.3118069 33.37961882 702.61115296 40.65057548 701.90399098 47.92109853 C701.21799546 54.97404641 700.54082381 62.02784055 699.86663747 69.08192617 C699.79796468 69.80027765 699.72929189 70.51862912 699.6585381 71.25874883 C698.27551841 85.75004649 697.00445316 100.25020919 695.75726247 114.75380117 C693.98792618 135.28194931 692.04835953 155.7885511 690.00476003 176.29112417 C687.87904935 197.62540249 685.8575576 218.96763766 683.88226247 240.31630117 C681.4461821 266.64452867 678.91976079 292.96270049 676.3318398 319.27642995 C674.12696001 341.69622736 671.92661698 364.1121227 670.0484612 386.56215078 C667.99080502 411.08309759 665.54549135 435.56929382 663.16155934 460.06019765 C659.46912308 498.00901693 656.11227554 535.98440891 652.81219411 573.9691332 C650.93676067 595.54741249 648.99696276 617.11581157 646.86668324 638.67054731 C645.6530644 650.95359552 644.51216089 663.2377098 643.53189015 675.54194814 C643.1409454 680.42462373 642.73263075 685.30587335 642.32757497 690.18739492 C642.15464397 692.27576725 641.98179406 694.36414629 641.80902028 696.45253164 C641.71995412 697.52879812 641.63088796 698.60506459 641.53912282 699.71394521 C641.34401987 702.07769894 641.14965132 704.44151336 640.95587087 706.80537587 C640.32259371 714.52960284 639.67687672 722.25261831 639.01528859 729.97447377 C638.80289946 732.47875662 638.5949377 734.9834192 638.39157033 737.48845083 C638.10696643 740.9868354 637.80694976 744.48358296 637.50335622 747.98036367 C637.42217549 749.02189092 637.34099477 750.06341817 637.25735402 751.13650686 C636.70615358 757.25848896 636.08287325 762.37849367 631.47088552 766.8675707 C628.66974281 768.46354546 625.92544727 769.36620747 622.83929372 770.30848867 C622.18036122 770.51281514 621.52142873 770.71714162 620.84252858 770.92765981 C619.3761715 771.38180138 617.90873222 771.83245904 616.44039845 772.28016835 C612.17047421 773.58355585 607.90974043 774.91649378 603.64788747 776.24598867 C602.69169011 776.5436614 601.73549275 776.84133413 600.75031972 777.14802724 C588.6226135 780.93366644 576.54250987 784.86739665 564.45764089 788.78703481 C540.81067646 796.45615156 517.14247355 804.05545236 493.44476247 811.56630117 C492.78410535 811.77570836 492.12344823 811.98511556 491.4427712 812.20086843 C484.38132753 814.43899117 477.31938679 816.67554195 470.25726247 818.91151601 C460.31720438 822.05923498 450.38044185 825.21729197 440.44476247 828.37880117 C439.58701222 828.65166951 438.72926198 828.92453786 437.8455193 829.20567495 C419.70654696 834.97687373 401.57753106 840.7792582 383.4516747 846.59150869 C381.50584845 847.21422626 379.55939737 847.83499521 377.61228871 848.4536913 C373.00131184 849.91970503 368.40228478 851.41041498 363.82025075 852.96473867 C362.96012883 853.25103139 362.10000691 853.53732412 361.2138207 853.83229238 C359.6165951 854.36456681 358.02303246 854.90803296 356.43437123 855.46534902 C349.11427158 857.87783606 343.48773203 856.36859394 336.26116872 853.97645742 C335.60376698 853.76101278 334.94636525 853.54556813 334.26904225 853.32359487 C332.8552578 852.85974913 331.44230375 852.39336597 330.03012013 851.92466909 C326.21919313 850.66025308 322.401914 849.41525401 318.58538747 848.16786367 C317.8044019 847.91208043 317.02341634 847.6562972 316.21876454 847.39276296 C307.38645365 844.50558556 298.51472711 841.74784006 289.63641286 839.00599843 C280.61739689 836.20947652 271.62901442 833.32163277 262.64398122 830.41786367 C247.19504687 825.42527917 231.73141183 820.48027888 216.25726247 815.56630117 C215.59076428 815.35455503 214.9242661 815.14280889 214.237571 814.9246462 C193.53749409 808.34848483 172.8095626 801.8692285 152.0514214 795.47831899 C134.25567407 789.99842091 116.48086711 784.45521909 98.72304463 778.85384542 C96.83892597 778.25984281 94.9544983 777.66682058 93.07006764 777.07380849 C89.57051603 775.97210974 86.07193582 774.86738344 82.57366872 773.76161367 C81.54293736 773.43739431 80.51220601 773.11317495 79.45024037 772.77913076 C62.59350245 767.43605932 62.59350245 767.43605932 58.25726247 761.12880117 C57.05566015 757.5239942 56.79465528 754.01311205 56.47283864 750.25306875 C56.36521451 749.04668752 56.36521451 749.04668752 56.25541615 747.81593496 C56.0170485 745.13534907 55.78373945 742.45434561 55.55023122 739.77333242 C55.38226103 737.8780096 55.21390361 735.98272106 55.04518056 734.08746511 C54.59816414 729.05768593 54.15510517 724.02756692 53.71325612 718.99733144 C52.93425162 710.13059917 52.15072189 701.26427052 51.36273122 692.39833242 C51.27589385 691.42036262 51.18905648 690.44239282 51.09958768 689.43478757 C49.81424203 674.99122736 48.43008027 660.56017945 46.96668172 646.13364965 C45.17734513 628.49186071 43.54059404 610.83786408 41.93287206 593.17871267 C41.51712414 588.61734814 41.09920416 584.05618269 40.68133473 579.4950121 C40.59408352 578.54261081 40.5068323 577.59020952 40.41693711 576.60894758 C40.23677438 574.64245437 40.05660196 572.67596204 39.87642026 570.70947057 C39.59839305 567.67442537 39.32056536 564.63936195 39.04276967 561.60429555 C36.72766774 536.31704302 34.3900516 511.03186822 32.05233312 485.7466982 C31.69466212 481.87771571 31.33710705 478.00872253 30.97958302 474.13972646 C28.72143507 449.70416469 26.46234885 425.26870234 24.17523122 400.83583242 C24.09717433 400.00189962 24.01911744 399.16796682 23.93869519 398.30876333 C23.34899523 392.00943047 22.75898076 385.71012706 22.16849828 379.41086751 C20.20831946 358.4990764 18.30650847 337.58288938 16.46261525 316.66047841 C14.61737401 295.7604723 12.61545779 274.8768891 10.59501576 253.99328405 C8.05066551 227.68959453 5.62514512 201.37718776 3.29852223 175.05336171 C1.67949263 156.73923321 -0.00597226 138.432108 -1.74273753 120.12880117 C-1.81818545 119.33354654 -1.89363338 118.5382919 -1.9713676 117.71893865 C-3.15768691 105.21775997 -4.34865366 92.71702506 -5.54065013 80.21638662 C-5.89552366 76.49434855 -6.25021983 72.7722936 -6.60488391 69.05023557 C-6.78058887 67.20640473 -6.95632784 65.36257714 -7.13210177 63.51875287 C-7.55535354 59.07870177 -7.9781545 54.63860882 -8.39987254 50.19841176 C-9.06655872 43.18365469 -9.7346521 36.16923815 -10.4336555 29.15760976 C-10.57836535 27.69233091 -10.57836535 27.69233091 -10.72599864 26.19745046 C-10.89142092 24.52915836 -11.05975443 22.86114982 -11.23225474 21.19357473 C-12.47495549 8.60162126 -12.47495549 8.60162126 -10.71930003 5.07020742 C-6.94463198 1.21917325 -5.31963547 0.00449611 0 0 Z " fill="#FE7532" transform="translate(165.742737531662,383.87119883298874)"/>
<path d="M0 0 C1.00921611 -0.00327219 2.01843222 -0.00654439 3.05823064 -0.00991574 C4.17751203 -0.00843212 5.29679341 -0.00694849 6.44999242 -0.00541991 C7.63574085 -0.00777214 8.82148929 -0.01012437 10.0431695 -0.01254788 C13.3594336 -0.0180903 16.67564499 -0.01910748 19.9919101 -0.01827047 C23.59034809 -0.01843947 27.18877729 -0.02433995 30.78721094 -0.02951133 C37.93548153 -0.03885602 45.08374593 -0.04276251 52.23202187 -0.0450303 C60.78954952 -0.0479875 69.34706891 -0.05668202 77.90459224 -0.06544458 C98.59071948 -0.08630919 119.27684817 -0.0967617 139.96298348 -0.10557419 C149.74395223 -0.10977758 159.52492036 -0.11499996 169.30588859 -0.12025872 C202.77024259 -0.13815011 236.23459676 -0.15314755 269.69895482 -0.16057891 C271.80065531 -0.16105367 273.9023558 -0.16152956 276.00405629 -0.16200657 C277.56747765 -0.16236113 277.56747765 -0.16236113 279.16248328 -0.16272286 C284.44342531 -0.16392409 289.72436733 -0.16513953 295.00530934 -0.16636485 C296.05333859 -0.166605 297.10136783 -0.16684515 298.18115554 -0.16709258 C332.17413768 -0.17498858 366.16708496 -0.198426 400.16005188 -0.23092079 C436.07768173 -0.2651929 471.99529117 -0.28492759 507.91293764 -0.28822315 C511.85332752 -0.28864071 515.79371739 -0.28912027 519.73410726 -0.28964633 C520.70438135 -0.28976952 521.67465545 -0.28989271 522.6743318 -0.29001964 C538.31098878 -0.29235488 553.94760538 -0.30803284 569.58424795 -0.32848817 C585.29166933 -0.34871064 600.99904205 -0.35424047 616.70647404 -0.34471754 C626.04566827 -0.33948867 635.38470085 -0.34544517 644.72387192 -0.36725221 C650.95669968 -0.38070979 657.18941556 -0.3797282 663.42224431 -0.36685025 C666.97728656 -0.35991981 670.53201865 -0.35939829 674.08703384 -0.37641034 C677.91189243 -0.39456518 681.73629047 -0.38196037 685.56116796 -0.36618346 C687.22604304 -0.38151677 687.22604304 -0.38151677 688.92455196 -0.39715984 C695.01091645 -0.34195066 698.6349173 0.0347922 703.25726247 4.12880117 C705.67900103 7.40692511 705.38813716 10.09975335 705.05413747 14.07411367 C705.00287709 14.71092061 704.95161672 15.34772756 704.898803 16.00383168 C704.70054699 18.38043153 704.48005466 20.75437512 704.25726247 23.12880117 C704.16694753 24.11118764 704.07663259 25.09357412 703.98358083 26.10572988 C703.3118069 33.37961882 702.61115296 40.65057548 701.90399098 47.92109853 C701.21799546 54.97404641 700.54082381 62.02784055 699.86663747 69.08192617 C699.79796468 69.80027765 699.72929189 70.51862912 699.6585381 71.25874883 C698.27551841 85.75004649 697.00445316 100.25020919 695.75726247 114.75380117 C693.98792618 135.28194931 692.04835953 155.7885511 690.00476003 176.29112417 C687.87904935 197.62540249 685.8575576 218.96763766 683.88226247 240.31630117 C681.4461821 266.64452867 678.91976079 292.96270049 676.3318398 319.27642995 C674.12696001 341.69622736 671.92661698 364.1121227 670.0484612 386.56215078 C667.99080502 411.08309759 665.54549135 435.56929382 663.16155934 460.06019765 C659.46912308 498.00901693 656.11227554 535.98440891 652.81219411 573.9691332 C650.93676067 595.54741249 648.99696276 617.11581157 646.86668324 638.67054731 C645.6530644 650.95359552 644.51216089 663.2377098 643.53189015 675.54194814 C643.1409454 680.42462373 642.73263075 685.30587335 642.32757497 690.18739492 C642.15464397 692.27576725 641.98179406 694.36414629 641.80902028 696.45253164 C641.71995412 697.52879812 641.63088796 698.60506459 641.53912282 699.71394521 C641.34401987 702.07769894 641.14965132 704.44151336 640.95587087 706.80537587 C640.32259371 714.52960284 639.67687672 722.25261831 639.01528859 729.97447377 C638.80289946 732.47875662 638.5949377 734.9834192 638.39157033 737.48845083 C638.10696643 740.9868354 637.80694976 744.48358296 637.50335622 747.98036367 C637.42217549 749.02189092 637.34099477 750.06341817 637.25735402 751.13650686 C636.70615358 757.25848896 636.08287325 762.37849367 631.47088552 766.8675707 C628.66974281 768.46354546 625.92544727 769.36620747 622.83929372 770.30848867 C622.18036122 770.51281514 621.52142873 770.71714162 620.84252858 770.92765981 C619.3761715 771.38180138 617.90873222 771.83245904 616.44039845 772.28016835 C612.17047421 773.58355585 607.90974043 774.91649378 603.64788747 776.24598867 C602.69169011 776.5436614 601.73549275 776.84133413 600.75031972 777.14802724 C588.6226135 780.93366644 576.54250987 784.86739665 564.45764089 788.78703481 C540.81067646 796.45615156 517.14247355 804.05545236 493.44476247 811.56630117 C492.78410535 811.77570836 492.12344823 811.98511556 491.4427712 812.20086843 C484.38132753 814.43899117 477.31938679 816.67554195 470.25726247 818.91151601 C460.31720438 822.05923498 450.38044185 825.21729197 440.44476247 828.37880117 C439.58701222 828.65166951 438.72926198 828.92453786 437.8455193 829.20567495 C419.70654696 834.97687373 401.57753106 840.7792582 383.4516747 846.59150869 C381.50584845 847.21422626 379.55939737 847.83499521 377.61228871 848.4536913 C373.00131184 849.91970503 368.40228478 851.41041498 363.82025075 852.96473867 C362.96012883 853.25103139 362.10000691 853.53732412 361.2138207 853.83229238 C359.6165951 854.36456681 358.02303246 854.90803296 356.43437123 855.46534902 C349.11427158 857.87783606 343.48773203 856.36859394 336.26116872 853.97645742 C335.60376698 853.76101278 334.94636525 853.54556813 334.26904225 853.32359487 C332.8552578 852.85974913 331.44230375 852.39336597 330.03012013 851.92466909 C326.21919313 850.66025308 322.401914 849.41525401 318.58538747 848.16786367 C317.8044019 847.91208043 317.02341634 847.6562972 316.21876454 847.39276296 C307.38645365 844.50558556 298.51472711 841.74784006 289.63641286 839.00599843 C280.61739689 836.20947652 271.62901442 833.32163277 262.64398122 830.41786367 C247.19504687 825.42527917 231.73141183 820.48027888 216.25726247 815.56630117 C215.59076428 815.35455503 214.9242661 815.14280889 214.237571 814.9246462 C193.53749409 808.34848483 172.8095626 801.8692285 152.0514214 795.47831899 C134.25567407 789.99842091 116.48086711 784.45521909 98.72304463 778.85384542 C96.83892597 778.25984281 94.9544983 777.66682058 93.07006764 777.07380849 C89.57051603 775.97210974 86.07193582 774.86738344 82.57366872 773.76161367 C81.54293736 773.43739431 80.51220601 773.11317495 79.45024037 772.77913076 C62.59350245 767.43605932 62.59350245 767.43605932 58.25726247 761.12880117 C57.05566015 757.5239942 56.79465528 754.01311205 56.47283864 750.25306875 C56.36521451 749.04668752 56.36521451 749.04668752 56.25541615 747.81593496 C56.0170485 745.13534907 55.78373945 742.45434561 55.55023122 739.77333242 C55.38226103 737.8780096 55.21390361 735.98272106 55.04518056 734.08746511 C54.59816414 729.05768593 54.15510517 724.02756692 53.71325612 718.99733144 C52.93425162 710.13059917 52.15072189 701.26427052 51.36273122 692.39833242 C51.27589385 691.42036262 51.18905648 690.44239282 51.09958768 689.43478757 C49.81424203 674.99122736 48.43008027 660.56017945 46.96668172 646.13364965 C45.17734513 628.49186071 43.54059404 610.83786408 41.93287206 593.17871267 C41.51712414 588.61734814 41.09920416 584.05618269 40.68133473 579.4950121 C40.59408352 578.54261081 40.5068323 577.59020952 40.41693711 576.60894758 C40.23677438 574.64245437 40.05660196 572.67596204 39.87642026 570.70947057 C39.59839305 567.67442537 39.32056536 564.63936195 39.04276967 561.60429555 C36.72766774 536.31704302 34.3900516 511.03186822 32.05233312 485.7466982 C31.69466212 481.87771571 31.33710705 478.00872253 30.97958302 474.13972646 C28.72143507 449.70416469 26.46234885 425.26870234 24.17523122 400.83583242 C24.09717433 400.00189962 24.01911744 399.16796682 23.93869519 398.30876333 C23.34899523 392.00943047 22.75898076 385.71012706 22.16849828 379.41086751 C20.20831946 358.4990764 18.30650847 337.58288938 16.46261525 316.66047841 C14.61737401 295.7604723 12.61545779 274.8768891 10.59501576 253.99328405 C8.05066551 227.68959453 5.62514512 201.37718776 3.29852223 175.05336171 C1.67949263 156.73923321 -0.00597226 138.432108 -1.74273753 120.12880117 C-1.81818545 119.33354654 -1.89363338 118.5382919 -1.9713676 117.71893865 C-3.15768691 105.21775997 -4.34865366 92.71702506 -5.54065013 80.21638662 C-5.89552366 76.49434855 -6.25021983 72.7722936 -6.60488391 69.05023557 C-6.78058887 67.20640473 -6.95632784 65.36257714 -7.13210177 63.51875287 C-7.55535354 59.07870177 -7.9781545 54.63860882 -8.39987254 50.19841176 C-9.06655872 43.18365469 -9.7346521 36.16923815 -10.4336555 29.15760976 C-10.57836535 27.69233091 -10.57836535 27.69233091 -10.72599864 26.19745046 C-10.89142092 24.52915836 -11.05975443 22.86114982 -11.23225474 21.19357473 C-12.47495549 8.60162126 -12.47495549 8.60162126 -10.71930003 5.07020742 C-6.94463198 1.21917325 -5.31963547 0.00449611 0 0 Z M346.25726247 36.12880117 C346.25726247 55.92880117 346.25726247 75.72880117 346.25726247 96.12880117 C346.58726247 95.13880117 346.91726247 94.14880117 347.25726247 93.12880117 C348.24726247 93.45880117 349.23726247 93.78880117 350.25726247 94.12880117 C350.25726247 98.08880117 350.25726247 102.04880117 350.25726247 106.12880117 C349.92726247 106.12880117 349.59726247 106.12880117 349.25726247 106.12880117 C348.92726247 113.38880117 348.59726247 120.64880117 348.25726247 128.12880117 C347.59726247 128.12880117 346.93726247 128.12880117 346.25726247 128.12880117 C346.25726247 171.68880117 346.25726247 215.24880117 346.25726247 260.12880117 C272.66726247 260.45880117 199.07726247 260.78880117 123.25726247 261.12880117 C126.22726247 289.50880117 129.19726247 317.88880117 132.25726247 347.12880117 C135.13226247 375.81630117 135.13226247 375.81630117 136.18694997 386.57801992 C137.30561969 397.79864833 138.56129428 409.00287114 139.81872487 420.20866567 C141.0869487 431.545457 142.33323306 442.88470496 143.58072019 454.2237938 C144.02884334 458.29675386 144.47781814 462.36961644 144.92864919 466.44227773 C145.37489983 470.47379588 145.81903547 474.50554209 146.26174474 478.53745061 C146.42764189 480.0451389 146.5942534 481.55274879 146.76166081 483.06027013 C147.76188919 492.07261592 148.62985442 501.08189564 149.25726247 510.12880117 C166.21554707 510.28040619 183.17388587 510.42537693 200.13226247 510.56630117 C200.79504941 510.5718154 201.45783634 510.57732964 202.14070773 510.58301097 C259.78311313 511.06205201 317.42618958 511.38919295 375.06976247 511.69130117 C376.65688558 511.69962539 376.65688558 511.69962539 378.27607179 511.70811778 C405.60311994 511.85138353 432.93018282 511.99167685 460.25726247 512.12880117 C460.10692555 513.80343686 460.10692555 513.80343686 459.95355153 515.51190358 C459.00940644 526.0321858 458.06758896 536.55267414 457.12805104 547.07336885 C456.64494916 552.48217013 456.16102697 557.89089541 455.67523122 563.29945546 C455.20646025 568.51881021 454.7398426 573.73835338 454.27471852 578.95803434 C454.09686927 580.94959867 453.91824369 582.94109383 453.73882985 584.93251783 C453.48771134 587.72131801 453.23935181 590.51035114 452.99163747 593.29945546 C452.91683156 594.12304555 452.84202565 594.94663564 452.7649529 595.795183 C452.43092225 599.58713552 452.16746287 603.31724388 452.25726247 607.12880117 C450.99309499 607.388225 449.72892751 607.64764882 448.42645192 607.91493398 C443.01381563 609.12089195 437.80714041 610.79825254 432.55023122 612.55067617 C431.52726445 612.88780629 430.50429769 613.22493642 429.45033193 613.57228261 C427.25441789 614.29608341 425.05905414 615.02155551 422.86419606 615.74855214 C419.4064459 616.89146621 415.94568039 618.02475427 412.48382497 619.15516835 C402.15642666 622.52957544 391.83578026 625.91818253 381.5520165 629.42366201 C377.56660424 630.7774933 373.57341568 632.10726584 369.57845998 633.43263417 C367.71519734 634.05753109 365.85565673 634.6936511 364.00027394 635.34156972 C361.41761927 636.24238565 358.82458597 637.10331844 356.22601247 637.95692617 C355.49054692 638.22468862 354.75508138 638.49245107 353.997329 638.76832753 C347.21473055 640.91751586 341.88479706 639.24494695 335.25726247 637.12880117 C334.04238149 636.74592946 332.82750051 636.36305776 331.57580495 635.96858388 C327.40565944 634.63235089 323.25759698 633.23281467 319.10882497 631.83192617 C317.56457127 631.31445138 316.02016477 630.79743237 314.47561574 630.28083974 C310.42881669 628.92624239 306.3837615 627.56651667 302.33917165 626.20533925 C295.13939381 623.78323483 287.93678251 621.36955554 280.73382497 618.95692617 C279.96639218 618.69983373 279.1989594 618.44274129 278.40827107 618.17785817 C268.98590752 615.02305383 259.55726086 611.89122082 250.09319997 608.86317617 C249.20121907 608.57629934 248.30923818 608.2894225 247.39022756 607.99385244 C243.40274041 606.6293557 243.40274041 606.6293557 239.25726247 606.12880117 C239.18269826 604.69105336 239.18269826 604.69105336 239.1066277 603.22426015 C238.55062846 593.15739011 237.5501944 583.19584378 236.31976247 573.19130117 C236.14811537 571.77012825 235.97689107 570.34890421 235.80609059 568.92762929 C235.48520729 566.26005769 235.16153446 563.59288905 234.83563161 560.92592031 C233.95986973 553.66216125 233.11211534 546.39505061 232.25726247 539.12880117 C206.18726247 539.12880117 180.11726247 539.12880117 153.25726247 539.12880117 C153.25726247 543.97923913 153.27528179 548.28928859 153.80462575 553.02333242 C153.92561635 554.12526937 154.04660695 555.22720632 154.17126393 556.3625353 C154.30534657 557.54352803 154.43942922 558.72452077 154.57757497 559.94130117 C154.79115246 561.87207195 155.00472866 563.80284289 155.21825337 565.73361951 C155.44615289 567.78685884 155.67617736 569.83984977 155.90685964 571.89277822 C156.38665163 576.1628945 156.86095157 580.43360818 157.33392262 584.70448476 C157.41341083 585.42219989 157.49289903 586.13991502 157.57479596 586.87937909 C157.73650014 588.33955842 157.8981841 589.79973998 158.05984807 591.25992376 C158.3053285 593.47548825 158.55137813 595.69098898 158.79751515 597.90648061 C159.89603157 607.8036565 160.96953324 617.70328323 162.02288747 627.60536367 C162.16036397 628.89674245 162.29784047 630.18812124 162.43948293 631.51863271 C162.96668717 636.47674732 163.49299524 641.43495357 164.01660085 646.3934496 C164.37400512 649.77674453 164.73346176 653.15981625 165.09319997 656.54286367 C165.24900533 658.02914769 165.24900533 658.02914769 165.40795827 659.54545766 C165.50566518 660.46193074 165.60337209 661.37840383 165.70403981 662.32264882 C165.78729512 663.11112203 165.87055043 663.89959523 165.95632863 664.71196157 C166.30762718 667.53328686 166.77427428 670.32730499 167.25726247 673.12880117 C168.04444158 673.37253469 168.83162068 673.61626821 169.6426537 673.86738759 C179.86940459 677.03448186 190.09500478 680.20527791 200.31976247 683.37880117 C201.15093587 683.63677228 201.98210927 683.8947434 202.83846974 684.16053182 C226.18437781 691.4075478 249.51007231 698.7140099 272.80241704 706.13139516 C299.45575661 714.62463462 299.45575661 714.62463462 326.13983083 723.02058583 C327.94188834 723.58452091 329.74318481 724.1508948 331.54363942 724.71992666 C333.9591369 725.48281569 336.37723354 726.23677525 338.79632497 726.98817617 C339.83516332 727.3193192 339.83516332 727.3193192 340.8949883 727.657152 C344.44839225 728.7488163 347.5362054 729.3735958 351.25726247 729.12880117 C349.60726247 729.45880117 347.95726247 729.78880117 346.25726247 730.12880117 C346.25726247 756.85880117 346.25726247 783.58880117 346.25726247 811.12880117 C355.61091398 808.83411023 355.61091398 808.83411023 364.76898122 806.10536367 C365.91737477 805.73097158 367.06576833 805.35657949 368.24896169 804.97084218 C369.46857594 804.56921865 370.6881902 804.16759511 371.94476247 803.75380117 C374.6901069 802.85696479 377.43653276 801.96346413 380.18304372 801.07020742 C381.26640004 800.71734922 381.26640004 800.71734922 382.37164235 800.35736257 C387.98476021 798.53260976 393.60871098 796.74368128 399.23773122 794.96864492 C400.50952985 794.56756772 400.50952985 794.56756772 401.80702138 794.15838796 C403.53947265 793.61218833 405.27194041 793.06604102 407.00442433 792.51994497 C420.73105649 788.19148635 434.41800859 783.77207754 448.05429006 779.16725332 C463.85220539 773.84313092 479.77219038 768.9057651 495.69232106 763.96156484 C505.88126125 760.79198215 516.04178822 757.56217919 526.15569997 754.16005117 C540.11897704 749.4634977 554.18598256 745.10920141 568.25799489 740.7516039 C571.59338084 739.71774593 574.92733633 738.67937472 578.26116872 737.64051992 C579.26531316 737.33111974 580.2694576 737.02171956 581.30403066 736.70294362 C582.24709569 736.40865972 583.19016072 736.11437581 584.16180348 735.81117421 C584.97987981 735.55772741 585.79795613 735.3042806 586.64082265 735.04315358 C589.9249943 733.8954527 593.07110943 732.52567802 596.25726247 731.12880117 C596.36907338 729.96430849 596.36907338 729.96430849 596.48314309 728.77629071 C598.3111191 709.73864341 600.13975637 690.70105972 601.96909738 671.66354352 C602.8537976 662.45651771 603.73828762 653.24947181 604.6222527 644.04237539 C605.39422747 636.00174011 606.16662724 627.96114578 606.93950266 619.92059702 C607.34734304 615.67751539 607.75499428 611.43441581 608.16213346 607.19126683 C609.11806797 597.22983767 610.0785081 587.26885939 611.04583335 577.30852968 C611.26007901 575.099764 611.47349724 572.8909195 611.68679357 570.68206197 C612.0294539 567.13681258 612.37537714 563.59189558 612.72378886 560.04720694 C612.91273293 558.1181999 613.09877966 556.18890976 613.28474069 554.25961286 C613.39835033 553.11108398 613.51195998 551.9625551 613.62901235 550.77922231 C613.72671013 549.77917732 613.82440791 548.77913232 613.92506623 547.74878293 C614.21511815 545.46118706 614.68380177 543.35600348 615.25726247 541.12880117 C615.4473594 538.73321391 615.59706263 536.33431484 615.72235036 533.93446523 C616.20796055 525.34573873 616.9810219 516.79901621 617.81585622 508.23817617 C617.96669434 506.67554503 618.11741294 505.11290235 618.26801991 503.55024892 C618.58134401 500.30639305 618.89674169 497.06274711 619.2135613 493.81923085 C619.6160437 489.69603131 620.01223149 485.57225388 620.40675187 481.44828588 C620.71529004 478.2323753 621.02769799 475.01684903 621.34117246 471.80141622 C621.48875782 470.28194559 621.63507224 468.76235088 621.77999616 467.2426241 C622.53674037 459.32587934 623.41434367 451.48029849 624.84222341 443.64940053 C625.47932279 439.78019289 625.67227933 435.91749999 625.81976247 432.00380117 C626.13190668 424.37951274 626.13190668 424.37951274 627.25726247 422.12880117 C627.39621734 420.79941846 627.48247127 419.46425099 627.53851247 418.12880117 C627.59361989 416.92803945 627.59361989 416.92803945 627.64984059 415.70301992 C627.68528981 414.85352773 627.72073903 414.00403554 627.75726247 413.12880117 C628.6101009 395.07028588 628.6101009 395.07028588 630.25726247 390.12880117 C630.85747099 386.127411 631.25726247 382.427024 631.25726247 378.37880117 C631.25726247 375.12880117 631.25726247 375.12880117 631.72820973 373.25013906 C632.33981167 370.7978044 632.5388528 368.458307 632.72210622 365.93739492 C632.798886 364.91847158 632.87566579 363.89954824 632.95477223 362.84974843 C633.03396901 361.76621083 633.11316579 360.68267324 633.19476247 359.56630117 C633.81839303 351.43191234 634.48047356 343.30654875 635.31976247 335.19130117 C635.39895925 334.39973623 635.47815602 333.60817128 635.5597527 332.79261953 C636.13524645 327.37283321 636.13524645 327.37283321 637.25726247 325.12880117 C637.39570522 323.79022391 637.48229674 322.44600019 637.53851247 321.10145742 C637.59458669 319.91326406 637.59458669 319.91326406 637.65179372 318.70106679 C637.68659841 317.87284414 637.72140309 317.04462148 637.75726247 316.19130117 C637.82626276 314.55701653 637.89902805 312.92288542 637.97601247 311.28895742 C638.02145192 310.20046499 638.02145192 310.20046499 638.06780934 309.08998281 C638.25726247 307.12880117 638.25726247 307.12880117 639.25726247 304.12880117 C639.46125292 301.47975852 639.62902558 298.84390486 639.75726247 296.19130117 C639.95810831 292.05908392 640.23296719 288.14595923 641.25726247 284.12880117 C641.45651029 281.65204009 641.61956882 279.17224566 641.75726247 276.69130117 C641.99599609 272.39835916 642.32546365 268.32550746 643.25726247 264.12880117 C643.83203157 260.16928069 644.25726247 256.50470906 644.25726247 252.50380117 C644.25726247 249.12880117 644.25726247 249.12880117 644.72601247 246.36317617 C645.48886889 241.71872677 645.69334248 237.06532957 645.97601247 232.37098867 C646.20027424 229.78574885 646.57663807 227.6085955 647.25726247 225.12880117 C647.92255625 220.75921728 648.3174671 216.42454114 648.25726247 212.00380117 C648.25726247 203.12880117 648.25726247 203.12880117 650.25726247 199.12880117 C650.25726247 197.15212888 650.25486158 195.17487211 650.19476247 193.19911367 C650.25726247 191.12880117 650.25726247 191.12880117 650.73577809 189.41224843 C651.41448913 186.44034565 651.51476113 183.56967001 651.66351247 180.52333242 C652.25952021 169.75306305 653.35314692 159.02959763 654.41400075 148.29701406 C654.76099081 144.77849538 655.10114265 141.25935716 655.44085622 137.74012929 C655.66050122 135.49855291 655.88053857 133.25701493 656.10101247 131.01551992 C656.20208302 129.9656339 656.30315358 128.91574788 656.40728688 127.83404714 C656.55248769 126.3802641 656.55248769 126.3802641 656.70062184 124.89711171 C656.78420949 124.0460233 656.86779714 123.1949349 656.95391774 122.31805593 C657.25726247 120.12880117 657.25726247 120.12880117 658.25726247 117.12880117 C658.51624525 113.70087624 658.69967402 110.27885802 658.86273122 106.84559804 C659.15647078 101.33038454 659.15647078 101.33038454 660.25726247 99.12880117 C660.46746344 96.25021569 660.63274267 93.38620392 660.75726247 90.50380117 C661.45911599 74.72509411 661.45911599 74.72509411 663.25726247 71.12880117 C663.30314804 69.78844052 663.29538673 68.44596752 663.25726247 67.10536367 C663.202015 62.17452725 663.67351411 57.39466575 664.25726247 52.50380117 C664.44838151 50.88703737 664.63594315 49.26984867 664.81976247 47.65223867 C664.90355153 46.950183 664.98734059 46.24812734 665.07366872 45.52479726 C665.31300306 42.40135683 665.25726247 39.2613977 665.25726247 36.12880117 C559.98726247 36.12880117 454.71726247 36.12880117 346.25726247 36.12880117 Z " fill="#F75B1A" transform="translate(165.742737531662,383.87119883298874)"/>
<path d="M0 0 C146.85 0 293.7 0 445 0 C445 6.10819956 444.97156527 11.49580517 444.28149414 17.44995117 C444.16686073 18.45940041 444.16686073 18.45940041 444.0499115 19.48924255 C443.80039053 21.67447824 443.54290528 23.85868969 443.28515625 26.04296875 C443.10772216 27.58127038 442.93076442 29.11962702 442.7542572 30.65803528 C442.29117538 34.68194642 441.82116507 38.70501917 441.34979248 42.72796631 C440.96691752 46.00578914 440.58900159 49.28417474 440.21134281 52.56260204 C439.75841189 56.49374671 439.30337873 60.42464681 438.84765625 64.35546875 C438.76173784 65.09676718 438.67581944 65.83806561 438.58729744 66.60182762 C438.3419354 68.71409309 438.09517576 70.82619017 437.84790039 72.93823242 C437.70800186 74.13606857 437.56810333 75.33390472 437.42396545 76.56803894 C436.99368388 80.05112839 436.4963276 83.5257068 436 87 C320.83 87 205.66 87 87 87 C88.32 98.55 89.64 110.1 91 122 C91.6169015 128.25188237 92.2212466 134.49204805 92.75 140.75 C92.87596377 142.1693009 93.00226927 143.58857151 93.12890625 145.0078125 C93.65392471 151.04051881 94 156.9294602 94 163 C204.22 163 314.44 163 428 163 C427.34213473 171.55224845 426.64796065 180.08787092 425.8359375 188.625 C425.72317978 189.81770004 425.61042206 191.01040009 425.49424744 192.23924255 C425.18689687 195.4828736 424.87827415 198.72637965 424.56869888 201.96979904 C424.37320396 204.01882471 424.1781898 206.06789572 423.98324585 208.11697388 C421.64444517 232.68078334 419.18450184 257.23175015 416.66132164 281.77726841 C416.31123664 285.18346799 415.9620023 288.58975428 415.61328125 291.99609375 C415.51112745 292.99345141 415.51112745 292.99345141 415.40690994 294.01095772 C414.37940086 304.06236121 413.41777314 314.11878648 412.48828125 324.1796875 C411.08501511 339.36380235 409.50246676 354.5259871 407.875 369.6875 C407.34935541 374.58700695 406.82630842 379.48678198 406.3046875 384.38671875 C406.18801727 385.46604172 406.07134705 386.54536469 405.95114136 387.65739441 C405.15940945 395.0959104 404.53738337 402.5389086 404 410 C399.56319151 411.43964082 395.12573792 412.87727208 390.6875 414.3125 C389.99995636 414.53486328 389.31241272 414.75722656 388.60403442 414.98632812 C376.82926716 418.79149222 365.02758015 422.50559452 353.21572876 426.19372559 C343.06096505 429.36812457 332.95535787 432.65799546 322.875 436.0625 C311.78364906 439.80661527 300.63473156 443.27261656 289.41928101 446.62124634 C279.92248379 449.46007449 270.48854057 452.44030696 261.09579468 455.60681152 C256.83992386 457.04124778 252.57951748 458.46221955 248.3203125 459.88671875 C246.18093503 460.60403943 244.04280832 461.32510677 241.90625 462.05078125 C239.1733548 462.97276605 236.43277538 463.86569324 233.6875 464.75 C232.92397217 465.01458008 232.16044434 465.27916016 231.3737793 465.55175781 C222.91292327 468.20770858 215.02547242 464.81733509 206.859375 462.234375 C205.99569305 461.96455811 205.13201111 461.69474121 204.24215698 461.41674805 C201.41035039 460.53126395 198.58018331 459.64065737 195.75 458.75 C193.75060469 458.12365173 191.75109081 457.49768181 189.75146484 456.87207031 C186.64201003 455.8990739 183.5326774 454.92569899 180.42379761 453.9508667 C173.32554745 451.72523199 166.22302283 449.51378981 159.1171875 447.3125 C141.86456796 441.96592245 124.62807051 436.58837747 107.45532227 430.98974609 C86.05647264 424.05686503 64.50919216 417.58037582 43 411 C39.1742351 380.76361913 35.83404704 350.48406566 32.65039062 320.17382812 C32.17015194 315.60508035 31.68361338 311.037069 31.19076538 306.46966553 C30.96440369 304.37023135 30.73982213 302.27061678 30.51611328 300.17089844 C30.26727005 297.83531364 30.01592168 295.49999338 29.76123047 293.16503906 C29.65697754 292.17213867 29.55272461 291.17923828 29.4453125 290.15625 C29.35781738 289.33962891 29.27032227 288.52300781 29.18017578 287.68164062 C28.94145169 284.128598 29 280.56105337 29 277 C55.07 277 81.14 277 108 277 C108.99 285.91 109.98 294.82 111 304 C111.79969429 310.40557801 112.60596479 316.80878855 113.45581055 323.20776367 C114.37737316 330.17598231 115.25922184 336.96525545 115 344 C116.03181396 344.23674438 116.03181396 344.23674438 117.08447266 344.47827148 C124.93910661 346.35333656 132.56788996 348.73522174 140.20941162 351.32797241 C142.44686094 352.08687391 144.68629348 352.83965543 146.92626953 353.59106445 C150.32786707 354.73273894 153.72868077 355.87670649 157.12890625 357.02246094 C167.48573353 360.511719 177.84595665 363.99076839 188.20977783 367.459198 C191.83949687 368.67560207 195.46736119 369.89743057 199.09521484 371.11938477 C201.35244606 371.87544049 203.60976625 372.63123062 205.8671875 373.38671875 C207.42125305 373.91249008 207.42125305 373.91249008 209.00671387 374.44888306 C217.06495241 377.13555081 222.4695781 378.62630654 230.73828125 375.859375 C231.48332916 375.62159332 232.22837708 375.38381165 232.9960022 375.13882446 C235.43916877 374.35533024 237.87566749 373.55295643 240.3125 372.75 C242.02449586 372.19642197 243.73682167 371.64386336 245.44946289 371.09228516 C250.63969466 369.41508917 255.82106293 367.71171496 261 366 C262.14208923 365.62276794 262.14208923 365.62276794 263.30725098 365.23791504 C270.19236792 362.9616764 277.07106624 360.66649639 283.94624329 358.36042786 C292.38376851 355.53114184 300.83223888 352.73694145 309.29641724 349.98834229 C310.67020926 349.54165969 312.04349098 349.09340422 313.41622925 348.64349365 C315.30472399 348.02494075 317.19528351 347.41270246 319.0859375 346.80078125 C320.6954126 346.27738159 320.6954126 346.27738159 322.33740234 345.7434082 C325 345 325 345 328 345 C328.04422089 344.36897873 328.08844177 343.73795746 328.13400269 343.08781433 C329.51294762 323.57927512 331.17790525 304.10276434 332.91870117 284.62384033 C333.26887662 280.70052853 333.6167446 276.77701209 333.96484375 272.85351562 C334.64105246 265.23548233 335.31968588 257.61766789 336 250 C335.15662992 249.99576806 334.31325983 249.99153612 333.44433308 249.98717594 C305.90037221 249.84879225 278.35642965 249.70696382 250.8125 249.5625 C249.7603597 249.55698576 248.70821939 249.55147153 247.62419605 249.5457902 C190.37388155 249.24553354 133.12414586 248.91379978 75.875 248.4375 C75.20719277 248.43195052 74.53938554 248.42640103 73.85134172 248.42068338 C57.56751872 248.28527399 41.28373532 248.14557463 25 248 C24.89453857 246.90592834 24.78907715 245.81185669 24.68041992 244.68463135 C22.55839153 222.69449843 20.38560519 200.7133403 18 178.75 C17.76283106 176.5521038 17.52585323 174.35418698 17.2890625 172.15625 C16.31398001 163.1140318 15.33487147 154.0722538 14.34996414 145.03110027 C11.49508432 118.81489106 8.73176034 92.58926205 5.99853516 66.36010742 C5.49460321 61.52620979 4.98826056 56.69257319 4.47998047 51.85913086 C3.85576039 45.92299209 3.23555393 39.98644697 2.61824799 34.04958534 C2.38521318 31.8148066 2.1507869 29.58017246 1.9148941 27.34569359 C1.58816447 24.24802195 1.26661177 21.14985347 0.94628906 18.05151367 C0.84971512 17.14722626 0.75314117 16.24293884 0.65364075 15.31124878 C0.56686569 14.46182205 0.48009064 13.61239532 0.39068604 12.73722839 C0.27680227 11.64785367 0.27680227 11.64785367 0.16061783 10.53647137 C-0.0613649 7.0309275 0 3.51256517 0 0 Z " fill="#FEFEFE" transform="translate(290,646)"/>
<path d="M0 0 C102.3 0 204.6 0 310 0 C310 26.48476356 310 26.48476356 308.72265625 39.7265625 C308.58970224 41.18379309 308.45759783 42.6411014 308.32627869 44.09848022 C308.05424596 47.09491594 307.77575463 50.09064114 307.49145508 53.0859375 C307.12811077 56.91443916 306.77654183 60.74390834 306.42903996 64.57387733 C306.09317728 68.27095429 305.75199912 71.96753443 305.41015625 75.6640625 C305.34638353 76.35777576 305.28261082 77.05148903 305.21690559 77.76622391 C305.03562835 79.7267459 304.85006039 81.68686973 304.66430664 83.64697266 C304.5599379 84.75674469 304.45556915 85.86651672 304.34803772 87.00991821 C304.03274911 89.71864396 303.58057777 92.33703639 303 95 C298.98572958 96.31786829 294.97138939 97.63552393 290.95703125 98.953125 C290.33527386 99.15721985 289.71351646 99.3613147 289.07291794 99.57159424 C281.51683688 102.0518308 273.96002344 104.52980525 266.40161133 107.00292969 C263.60366023 107.91856431 260.80573391 108.83427466 258.0078125 109.75 C257.31396391 109.97704872 256.62011532 110.20409744 255.90524101 110.43802643 C248.17084252 112.96948794 240.44023433 115.51148554 232.72108459 118.08917236 C229.31055685 119.22750877 225.89739509 120.35779393 222.48373413 121.48669434 C220.96670665 121.99097901 219.4510636 122.49944989 217.93692017 123.0123291 C215.87148939 123.71164018 213.80177622 124.3964559 211.73046875 125.078125 C210.61051514 125.45356445 209.49056152 125.82900391 208.33666992 126.21582031 C205 127 205 127 197 127 C197 85.42 197 43.84 197 1 C131.99 1 66.98 1 0 1 C0 0.67 0 0.34 0 0 Z " fill="#FD7431" transform="translate(315,896)"/>
<path d="M0 0 C114.84 0 229.68 0 348 0 C348 0.33 348 0.66 348 1 C277.71 1.33 207.42 1.66 135 2 C135 25.76 135 49.52 135 74 C202.98 74 270.96 74 341 74 C341 74.33 341 74.66 341 75 C309.33336571 75.17294154 277.66669818 75.33918178 246 75.5 C244.83019183 75.50594854 243.66038366 75.51189708 242.45512676 75.51802588 C181.01171424 75.83008732 119.56931165 76.10221368 58.125 76.0625 C57.44775627 76.06207577 56.77051254 76.06165154 56.07274628 76.06121445 C39.71514772 76.05078196 23.35757137 76.03169208 7 76 C5.30653803 61.09529855 3.66034249 46.19575799 2.375 31.25 C2.19284995 29.14943009 2.00972008 27.04895962 1.82437134 24.94866943 C1.66119293 23.0978045 1.50111903 21.24666659 1.34130859 19.39550781 C1.11378446 17.13198442 0.8195369 14.87418415 0.45947266 12.62792969 C-0.06975633 8.44921413 0 4.21209533 0 0 Z " fill="#F75D1A" transform="translate(377,733)"/>
<path d="M0 0 C11.22 0 22.44 0 34 0 C43.51348087 10.63271391 43.51348087 10.63271391 45.43359375 15.2890625 C47.72798235 20.49338616 50.45379672 25.12457028 53.5625 29.875 C54.31648804 31.09991323 55.06793625 32.32639476 55.81640625 33.5546875 C57.36625411 36.06274006 59.03190921 38.44446303 60.77734375 40.8203125 C63 44 63 44 63 46 C63.66 46 64.32 46 65 46 C65.05800781 45.34902344 65.11601563 44.69804688 65.17578125 44.02734375 C66.59932607 38.79868388 69.84099509 34.55637824 72.8515625 30.09838867 C76.51830171 24.60087817 79.35570706 19.25079925 81.70629883 13.06542969 C84.38351876 8.21021282 88.36980373 4.19074128 92 0 C103.88 0 115.76 0 128 0 C128 35.97 128 71.94 128 109 C117.11 109 106.22 109 95 109 C94.67 89.53 94.34 70.06 94 50 C84.08717897 65.48058823 84.08717897 65.48058823 74.875 81.375 C72.50777835 85.10986362 70.97110343 87.46006125 67.10546875 89.609375 C63.15604666 90.27859671 61.50822323 89.97280605 58 88 C53.88559884 83.49274535 51.21721076 77.91066285 48.39404297 72.54980469 C46.15247795 68.44982131 43.57980422 64.58020576 41 60.6875 C40.10274344 59.3173372 39.20682383 57.94629758 38.3125 56.57421875 C37.93738281 56.00276123 37.56226563 55.43130371 37.17578125 54.8425293 C35.73839991 52.59005485 34.37474443 50.29124071 33 48 C32.67 68.46 32.34 88.92 32 110 C21.44 110 10.88 110 0 110 C0 73.7 0 37.4 0 0 Z " fill="#FEFDFC" transform="translate(517,478)"/>
<path d="M0 0 C11.22 0 22.44 0 34 0 C34 13.2 34 26.4 34 40 C47.2 40 60.4 40 74 40 C74 26.8 74 13.6 74 0 C84.56 0 95.12 0 106 0 C106 36.3 106 72.6 106 110 C95.44 110 84.88 110 74 110 C74 97.13 74 84.26 74 71 C60.8 71 47.6 71 34 71 C34 83.87 34 96.74 34 110 C22.78 110 11.56 110 0 110 C0 73.7 0 37.4 0 0 Z " fill="#FEFDFC" transform="translate(280,478)"/>
<path d="M0 0 C32.67 0 65.34 0 99 0 C99 9.57 99 19.14 99 29 C88.11 29 77.22 29 66 29 C66 55.73 66 82.46 66 110 C55.11 110 44.22 110 33 110 C33 83.27 33 56.54 33 29 C22.11 29 11.22 29 0 29 C0 19.43 0 9.86 0 0 Z " fill="#FEFDFC" transform="translate(403,478)"/>
<path d="M0 0 C11.22 0 22.44 0 34 0 C34 27.06 34 54.12 34 82 C48.85 82 63.7 82 79 82 C79 91.24 79 100.48 79 110 C52.93 110 26.86 110 0 110 C0 73.7 0 37.4 0 0 Z " fill="#FEFDFC" transform="translate(665,477)"/>
<path d="M0 0 C1.32 0 2.64 0 4 0 C4 36.3 4 72.6 4 110 C3.67 110 3.34 110 3 110 C2.67 85.58 2.34 61.16 2 36 C1.01 35.67 0.02 35.34 -1 35 C-1.02472359 30.49764405 -1.04287119 25.99532764 -1.05493164 21.49291992 C-1.0599596 19.9613374 -1.06678284 18.42975967 -1.07543945 16.89819336 C-1.08757229 14.69643978 -1.09324367 12.49474967 -1.09765625 10.29296875 C-1.10281754 9.60849167 -1.10797882 8.92401459 -1.11329651 8.21879578 C-1.1136536 5.19093758 -0.96616619 2.89849858 0 0 Z " fill="#FC4F18" transform="translate(513,477)"/>
<path d="M0 0 C0.33 0 0.66 0 1 0 C1 20.13 1 40.26 1 61 C11.89 61 22.78 61 34 61 C34 61.33 34 61.66 34 62 C29.17619198 62.0246519 24.35242033 62.04283693 19.52856445 62.05493164 C17.88630536 62.05997174 16.24405077 62.06680378 14.60180664 62.07543945 C12.24624521 62.08751926 9.89074291 62.09323139 7.53515625 62.09765625 C6.79660904 62.10281754 6.05806183 62.10797882 5.2971344 62.11329651 C3.53101912 62.1134925 1.76502854 62.06194719 0 62 C-1.68565233 60.31434767 -1.16810655 58.19754677 -1.20532227 55.88525391 C-1.22526749 54.79387115 -1.24521271 53.7024884 -1.26576233 52.57803345 C-1.28247482 51.38954803 -1.29918732 50.20106262 -1.31640625 48.9765625 C-1.33718735 47.76431 -1.35796844 46.5520575 -1.37937927 45.30307007 C-1.44500087 41.41044017 -1.50378779 37.51773965 -1.5625 33.625 C-1.60567817 31.00520102 -1.64929222 28.38540918 -1.69335938 25.765625 C-2.06917807 3.1037671 -2.06917807 3.1037671 0 0 Z " fill="#F95710" transform="translate(611,527)"/>
<path d="M0 0 C43.89 0 87.78 0 133 0 C133 0.33 133 0.66 133 1 C116.36268568 1.13052619 99.72537032 1.26091869 83.0880537 1.39115143 C75.36330809 1.45162193 67.63856282 1.5121364 59.91381836 1.57275391 C53.18204084 1.6255793 46.45026268 1.6783227 39.71848375 1.73096704 C36.15307812 1.75885237 32.58767283 1.78677915 29.0222683 1.81480408 C25.04503858 1.84606452 21.06780745 1.8771419 17.09057617 1.90820312 C15.90446747 1.91755386 14.71835876 1.9269046 13.49630737 1.9365387 C12.41517166 1.94495285 11.33403595 1.953367 10.22013855 1.96203613 C8.80841259 1.97309765 8.80841259 1.97309765 7.36816692 1.98438263 C5.57880929 1.99618292 3.78939655 2 2 2 C1.67 3.65 1.34 5.3 1 7 C0.67 7 0.34 7 0 7 C0 4.69 0 2.38 0 0 Z " fill="#F56522" transform="translate(377,735)"/>
<path d="M0 0 C0.66 0.33 1.32 0.66 2 1 C3.45454991 7.14464063 2.76755668 13.02453252 2.25 19.25 C2.13785156 20.90128906 2.13785156 20.90128906 2.0234375 22.5859375 C1.93835938 23.63523437 1.85328125 24.68453125 1.765625 25.765625 C1.69118164 26.72243164 1.61673828 27.67923828 1.54003906 28.66503906 C1 31 1 31 -2 33 C-2.13444393 25.36937313 -1.75657818 17.90384185 -1 10.3125 C-0.90460937 9.31283203 -0.80921875 8.31316406 -0.7109375 7.28320312 C-0.47857196 4.85498326 -0.24154365 2.42732101 0 0 Z " fill="#F25D20" transform="translate(824,857)"/>
<path d="M0 0 C0.33 0 0.66 0 1 0 C1.02947599 4.24998498 1.04695643 8.49994303 1.0625 12.75 C1.07087891 13.93722656 1.07925781 15.12445312 1.08789062 16.34765625 C1.13565795 33.83049806 1.13565795 33.83049806 0 39 C-0.99 39.66 -1.98 40.32 -3 41 C-3.25517815 32.02505354 -2.4531786 23.22269412 -1.5 14.3125 C-1.35495461 12.91737106 -1.21042006 11.52218892 -1.06640625 10.12695312 C-0.715935 6.75074676 -0.36035814 3.37516292 0 0 Z " fill="#F36B2A" transform="translate(815,959)"/>
<path d="M0 0 C0.33 0 0.66 0 1 0 C1.09747209 7.41870891 1.02316795 14.68656939 0.2109375 22.0625 C-0.13952565 26.94302381 0.08601663 31.82876713 0.2578125 36.71484375 C-0.02500724 40.31865281 -0.76902677 41.30176305 -3 44 C-3.27727533 34.52514245 -2.40990508 25.22808375 -1.5 15.8125 C-1.35500214 14.27283033 -1.21046758 12.73311695 -1.06640625 11.19335938 C-0.71626952 7.46172129 -0.35989415 3.7307112 0 0 Z " fill="#F57029" transform="translate(804,1079)"/>
<path d="M0 0 C0.66 0 1.32 0 2 0 C2 3.96 2 7.92 2 12 C2.99 12.33 3.98 12.66 5 13 C5 13.66 5 14.32 5 15 C4.34 15 3.68 15 3 15 C3.2475 16.60875 3.2475 16.60875 3.5 18.25 C4.21160726 23.82258642 4.08411046 29.39263574 4 35 C3.67 35 3.34 35 3 35 C2.49262223 30.66749763 1.99542852 26.33388373 1.5 22 C1.35691406 20.77925781 1.21382812 19.55851562 1.06640625 18.30078125 C0.36926878 12.1593321 -0.18543635 6.18121183 0 0 Z " fill="#EC3111" transform="translate(154,391)"/>
<path d="M0 0 C2.47194502 3.70791753 2.68023949 7.05863566 3.125 11.375 C3.21136719 12.13039063 3.29773438 12.88578125 3.38671875 13.6640625 C3.80485707 17.46049298 4.10669127 21.17435579 4 25 C3.34 25 2.68 25 2 25 C1.80083984 23.53626953 1.80083984 23.53626953 1.59765625 22.04296875 C1.42105469 20.77066406 1.24445313 19.49835937 1.0625 18.1875 C0.88847656 16.92292969 0.71445312 15.65835938 0.53515625 14.35546875 C0.09607545 11.01678297 0.09607545 11.01678297 -1 8 C-0.83988879 5.29876894 -0.39559392 2.68124769 0 0 Z " fill="#E74017" transform="translate(311,861)"/>
<path d="M0 0 C2.12577907 0.0868276 4.25069581 0.1949951 6.375 0.3125 C7.55835938 0.37050781 8.74171875 0.42851563 9.9609375 0.48828125 C10.96382813 0.65714844 11.96671875 0.82601562 13 1 C13.66 1.99 14.32 2.98 15 4 C17.8666949 5.23852312 17.8666949 5.23852312 21.125 6.1875 C22.22070312 6.53167969 23.31640625 6.87585938 24.4453125 7.23046875 C25.28835938 7.48441406 26.13140625 7.73835937 27 8 C23.3417547 9.32856028 21.18126502 8.64879015 17.578125 7.34765625 C16.55332031 6.98349609 15.52851563 6.61933594 14.47265625 6.24414062 C13.40917969 5.85419922 12.34570312 5.46425781 11.25 5.0625 C10.17105469 4.67642578 9.09210938 4.29035156 7.98046875 3.89257812 C5.31672804 2.9378746 2.65695582 1.97339357 0 1 C0 0.67 0 0.34 0 0 Z " fill="#EA3A0F" transform="translate(436,999)"/>
<path d="M0 0 C0.66 0 1.32 0 2 0 C3.60670684 3.21341369 2.82510855 6.62958968 2.5625 10.125 C2.51029297 10.87910156 2.45808594 11.63320313 2.40429688 12.41015625 C2.27454996 14.2737937 2.13792512 16.13694996 2 18 C-1.20013428 12.00464638 -1.21563787 6.61847282 0 0 Z " fill="#F15C20" transform="translate(845,634)"/>
<path d="M0 0 C0.99 0.33 1.98 0.66 3 1 C3 3.31 3 5.62 3 8 C2.67 8 2.34 8 2 8 C1.34 11.96 0.68 15.92 0 20 C-0.33 20 -0.66 20 -1 20 C-1.12910853 13.25766581 -0.797837 6.69613196 0 0 Z " fill="#F2702F" transform="translate(832,773)"/>
<path d="M0 0 C7.59 0 15.18 0 23 0 C23 0.33 23 0.66 23 1 C20.06255476 1.16768291 17.12505096 1.33418858 14.1875 1.5 C13.35412109 1.54769531 12.52074219 1.59539063 11.66210938 1.64453125 C10.85966797 1.68964844 10.05722656 1.73476563 9.23046875 1.78125 C8.49207764 1.82314453 7.75368652 1.86503906 6.99291992 1.90820312 C5.33009506 1.98479533 3.6645879 2 2 2 C1.67 3.65 1.34 5.3 1 7 C0.67 7 0.34 7 0 7 C0 4.69 0 2.38 0 0 Z " fill="#EB692B" transform="translate(377,735)"/>
<path d="M0 0 C4.33311515 0.41664569 8.03536259 1.19789209 12 3 C11.34 3.66 10.68 4.32 10 5 C7.90625 4.828125 7.90625 4.828125 5.5 4.25 C4.30890625 3.97929688 4.30890625 3.97929688 3.09375 3.703125 C1 3 1 3 -1 1 C-0.67 0.67 -0.34 0.34 0 0 Z " fill="#ED4C17" transform="translate(473,1101)"/>
<path d="M0 0 C0.61875 0.928125 0.61875 0.928125 1.25 1.875 C3.05573879 4.06768281 4.4090534 4.92788417 7 6 C6.67 6.99 6.34 7.98 6 9 C6.66 9.33 7.32 9.66 8 10 C7.67 10.66 7.34 11.32 7 12 C1.21538462 7.93846154 1.21538462 7.93846154 0.125 3.1875 C0.08375 2.135625 0.0425 1.08375 0 0 Z " fill="#EE390C" transform="translate(224,1140)"/>
<path d="M0 0 C10.55808656 1.92710706 10.55808656 1.92710706 15 4 C11.30544877 5.23151708 7.83354962 5.72505768 4 5 C1.5 2.5 1.5 2.5 0 0 Z " fill="#EA3E10" transform="translate(336,1058)"/>
<path d="M0 0 C0.33 0 0.66 0 1 0 C1.24803781 2.79117245 1.47414334 5.58115074 1.6875 8.375 C1.79674805 9.56609375 1.79674805 9.56609375 1.90820312 10.78125 C2.07421875 13.0859375 2.07421875 13.0859375 2 17 C1.01 17.66 0.02 18.32 -1 19 C-1.09507063 12.56688704 -1.15316726 6.34241995 0 0 Z " fill="#F17436" transform="translate(859,489)"/>
<path d="M0 0 C0.33 0 0.66 0 1 0 C1.33 5.94 1.66 11.88 2 18 C1.01 18.33 0.02 18.66 -1 19 C-1.12086218 12.56744599 -0.82351864 6.38226945 0 0 Z " fill="#F37533" transform="translate(855,531)"/>
<path d="M0 0 C0.33 0 0.66 0 1 0 C1.33 5.28 1.66 10.56 2 16 C1.34 16 0.68 16 0 16 C0 17.98 0 19.96 0 22 C-0.33 22 -0.66 22 -1 22 C-1.12886183 14.59760355 -0.79725902 7.36040917 0 0 Z " fill="#F66D29" transform="translate(861,464)"/>
<path d="M0 0 C1.79206547 0.14084796 3.58364917 0.28783701 5.375 0.4375 C6.87160156 0.55931641 6.87160156 0.55931641 8.3984375 0.68359375 C11 1 11 1 13 2 C13 2.66 13 3.32 13 4 C13.66 4.33 14.32 4.66 15 5 C9.54520815 4.43179252 5.08940744 3.05362055 0 1 C0 0.67 0 0.34 0 0 Z " fill="#F23912" transform="translate(347,1187)"/>
<path d="M0 0 C0.33 0 0.66 0 1 0 C1.22786458 2.05078125 1.45572917 4.1015625 1.68359375 6.15234375 C1.81886614 8.01140229 1.81886614 8.01140229 3 9 C2.91062197 10.52519276 2.75462854 12.04681929 2.5625 13.5625 C2.46066406 14.38878906 2.35882813 15.21507812 2.25390625 16.06640625 C2.17011719 16.70449219 2.08632812 17.34257812 2 18 C1.67 18 1.34 18 1 18 C-0.32594359 12.03325384 -0.0884587 6.07416385 0 0 Z " fill="#EF2A0B" transform="translate(158,428)"/>
<path d="M0 0 C-3.00609722 2.00406482 -5.59242695 3.03076258 -9 4.1875 C-10.051875 4.55230469 -11.10375 4.91710938 -12.1875 5.29296875 C-15 6 -15 6 -18 5 C-11.75838097 1.41874318 -7.24579719 -0.67090715 0 0 Z " fill="#F56B23" transform="translate(583,1217)"/>
<path d="M0 0 C1.6266848 0.28211877 3.25132896 0.57602375 4.875 0.875 C5.77992188 1.03742188 6.68484375 1.19984375 7.6171875 1.3671875 C10 2 10 2 12 4 C10.02 4 8.04 4 6 4 C5.67 4.66 5.34 5.32 5 6 C3.5 4.625 3.5 4.625 2 3 C2 2.34 2 1.68 2 1 C1.34 0.67 0.68 0.34 0 0 Z " fill="#EB4413" transform="translate(413,1082)"/>
<path d="M0 0 C3.57315091 4.20481611 3.43435181 6.61403761 3 12 C2.34 12.66 1.68 13.32 1 14 C0.06380187 10.84493858 -0.1057123 8.03413498 -0.0625 4.75 C-0.05347656 3.85796875 -0.04445313 2.9659375 -0.03515625 2.046875 C-0.02355469 1.37140625 -0.01195312 0.6959375 0 0 Z " fill="#EA4111" transform="translate(403,964)"/>
<path d="M0 0 C0.33 0 0.66 0 1 0 C1 1.98 1 3.96 1 6 C1.66 6 2.32 6 3 6 C3.125 9.375 3.125 9.375 3 13 C2.34 13.66 1.68 14.32 1 15 C-0.32286246 10.03926578 -0.08893197 5.08888488 0 0 Z " fill="#ED3F0D" transform="translate(399,930)"/>
<path d="M0 0 C0.33 0 0.66 0 1 0 C1 3.96 1 7.92 1 12 C0.01 12.495 0.01 12.495 -1 13 C-1.22151549 11.20991533 -1.42682213 9.41781838 -1.625 7.625 C-1.74101563 6.62726563 -1.85703125 5.62953125 -1.9765625 4.6015625 C-1.98429688 3.74304687 -1.99203125 2.88453125 -2 2 C-1.34 1.34 -0.68 0.68 0 0 Z " fill="#F34D11" transform="translate(802,1118)"/>
<path d="M0 0 C0.66 0.66 1.32 1.32 2 2 C1.01 2.495 1.01 2.495 0 3 C-0.71706982 4.98248715 -1.38290413 6.98415349 -2 9 C-2.33 9.66 -2.66 10.32 -3 11 C-3.73080266 9.02253397 -4.39421747 7.01927511 -5 5 C-3.768606 2.53721199 -2.21935077 1.57502313 0 0 Z " fill="#F25614" transform="translate(160,386)"/>
<path d="M0 0 C0.99 0 1.98 0 3 0 C2.67 4.95 2.34 9.9 2 15 C1.67 15 1.34 15 1 15 C0.67 10.05 0.34 5.1 0 0 Z " fill="#EE6425" transform="translate(328,1033)"/>
<path d="M0 0 C0.66 0.33 1.32 0.66 2 1 C2.625 4.0625 2.625 4.0625 3 7 C2.67 7 2.34 7 2 7 C1.34 9.64 0.68 12.28 0 15 C-1.14229879 11.57310364 -0.90861076 9.38897782 -0.5625 5.8125 C-0.46066406 4.72582031 -0.35882812 3.63914062 -0.25390625 2.51953125 C-0.17011719 1.68808594 -0.08632813 0.85664062 0 0 Z " fill="#F46E29" transform="translate(824,857)"/>
<path d="M0 0 C3 1 3 1 5 4 C5.66 3.67 6.32 3.34 7 3 C7.33 5.64 7.66 8.28 8 11 C4.32966073 7.72291137 2.30718811 4.28477792 0 0 Z " fill="#F8571B" transform="translate(550,477)"/>
<path d="M0 0 C0.99 0 1.98 0 3 0 C3 0.66 3 1.32 3 2 C3.66 2 4.32 2 5 2 C4 5 4 5 2 8 C0 2.25 0 2.25 0 0 Z " fill="#F46F29" transform="translate(809,1001)"/>
<path d="M0 0 C0.66 0 1.32 0 2 0 C3.35439668 2.70879335 3.06501451 5.00933268 3 8 C2.01 8.33 1.02 8.66 0 9 C0 6.03 0 3.06 0 0 Z " fill="#F07032" transform="translate(845,634)"/>
<path d="M0 0 C0.29296875 6.0546875 0.29296875 6.0546875 0 8 C-0.99 8.66 -1.98 9.32 -3 10 C-3 7.03 -3 4.06 -3 1 C-1 0 -1 0 0 0 Z " fill="#EF7233" transform="translate(810,1046)"/>
<path d="M0 0 C0.042721 1.66611905 0.04063832 3.33382885 0 5 C-0.33 5.33 -0.66 5.66 -1 6 C-1.36760731 8.32817964 -1.70241581 10.6618385 -2 13 C-2.33 13 -2.66 13 -3 13 C-3 9.04 -3 5.08 -3 1 C-1 0 -1 0 0 0 Z " fill="#F56224" transform="translate(701,1003)"/>
<path d="M0 0 C0.33 0 0.66 0 1 0 C1 3.3 1 6.6 1 10 C0.01 9.67 -0.98 9.34 -2 9 C-2 6.69 -2 4.38 -2 2 C-1.34 2 -0.68 2 0 2 C0 1.34 0 0.68 0 0 Z " fill="#F06731" transform="translate(204,908)"/>
<path d="M0 0 C0.33 0.99 0.66 1.98 1 3 C1.66 3 2.32 3 3 3 C3 5.31 3 7.62 3 10 C2.01 10 1.02 10 0 10 C0 6.7 0 3.4 0 0 Z " fill="#EE7739" transform="translate(833,761)"/>
<path d="M0 0 C0.66 0 1.32 0 2 0 C2 0.99 2 1.98 2 3 C4.31 3.33 6.62 3.66 9 4 C9 4.33 9 4.66 9 5 C5.7 5 2.4 5 -1 5 C-0.67 3.35 -0.34 1.7 0 0 Z " fill="#EF4F0D" transform="translate(316,512)"/>
<path d="M0 0 C6.625 -0.25 6.625 -0.25 10 2 C7.25 2.6875 7.25 2.6875 4 3 C1.625 1.5625 1.625 1.5625 0 0 Z " fill="#F14819" transform="translate(486,1231)"/>
<path d="M0 0 C0.99 0 1.98 0 3 0 C3 2.31 3 4.62 3 7 C2.01 7.33 1.02 7.66 0 8 C0 5.36 0 2.72 0 0 Z " fill="#F26B30" transform="translate(806,1058)"/>
<path d="M0 0 C0.99 0 1.98 0 3 0 C2.25 1.9375 2.25 1.9375 1 4 C-1.125 4.75 -1.125 4.75 -3 5 C-1.125 1.125 -1.125 1.125 0 0 Z " fill="#F66E26" transform="translate(796,1145)"/>
<path d="M0 0 C0.99 0 1.98 0 3 0 C3.125 2.875 3.125 2.875 3 6 C2.34 6.66 1.68 7.32 1 8 C-0.35439668 5.29120665 -0.06501451 2.99066732 0 0 Z " fill="#EA6730" transform="translate(307,834)"/>
<path d="M0 0 C0.99 0 1.98 0 3 0 C3 2.31 3 4.62 3 7 C2.01 6.67 1.02 6.34 0 6 C0 4.02 0 2.04 0 0 Z " fill="#F77E41" transform="translate(716,822)"/>
</svg>
