<?xml version="1.0" encoding="UTF-8"?>
<svg version="1.1" xmlns="http://www.w3.org/2000/svg" width="1024" height="1024">
<path d="M0 0 C337.92 0 675.84 0 1024 0 C1024 337.92 1024 675.84 1024 1024 C686.08 1024 348.16 1024 0 1024 C0 686.08 0 348.16 0 0 Z " fill="#FEE744" transform="translate(0,0)"/>
<path d="M0 0 C30.66761786 -1.09974662 58.46693446 7.32798612 81.36230469 28.20800781 C89.93142509 36.29089563 96.58297429 45.17028772 102.89355469 55.08691406 C99.13665711 59.58460835 94.17397317 61.83987108 89.08105469 64.52441406 C87.10362456 65.58399436 85.12709171 66.64525058 83.15136719 67.70800781 C82.12688477 68.25827637 81.10240234 68.80854492 80.046875 69.37548828 C74.81393993 72.21559937 69.63434944 75.14867523 64.45605469 78.08691406 C63.50432373 78.62630615 62.55259277 79.16569824 61.57202148 79.72143555 C60.6687915 80.23391846 59.76556152 80.74640137 58.83496094 81.27441406 C57.55903076 81.99177734 57.55903076 81.99177734 56.25732422 82.72363281 C54.7588709 83.58785129 53.27757481 84.48313974 51.82275391 85.41894531 C47.43313771 88.20629916 47.43313771 88.20629916 44.65136719 87.59082031 C42.66061584 85.88762193 41.274721 84.17013341 39.76855469 82.02441406 C32.45987817 72.36763083 23.15495802 64.30230178 10.89355469 62.08691406 C-0.71655976 61.34376928 -11.41350153 61.41640369 -21.04394531 68.83691406 C-26.82804673 74.46807049 -28.3562176 79.45255247 -28.60644531 87.52441406 C-28.33199155 96.1697075 -26.51007208 101.72596199 -20.73144531 108.14941406 C-11.55517313 116.53354557 0.51581678 121.49964832 11.82373047 126.35754395 C14.02523852 127.30416216 16.2215823 128.26198584 18.41699219 129.22265625 C24.27147806 131.78264928 30.13286089 134.32659522 35.99853516 136.86083984 C55.35131248 145.23207865 74.15502482 153.71908042 89.89355469 168.08691406 C90.81523438 168.91578125 91.73691406 169.74464844 92.68652344 170.59863281 C99.84961878 177.3665229 104.95887447 184.61123946 109.89355469 193.08691406 C110.32410156 193.80492187 110.75464844 194.52292969 111.19824219 195.26269531 C122.22914103 215.22947733 121.71219818 244.49077095 115.578125 265.90820312 C108.57289426 288.20302451 94.58660964 305.18024304 73.921875 316.13183594 C51.91417647 327.04238573 28.84037061 330.33945018 4.51855469 330.39941406 C3.80506866 330.4030899 3.09158264 330.40676575 2.35647583 330.41055298 C-10.91341454 330.44625912 -23.88690729 329.33997843 -36.73144531 325.77441406 C-37.93462402 325.44630737 -37.93462402 325.44630737 -39.16210938 325.11157227 C-56.60441987 320.23716305 -72.1079375 312.61396119 -86.10644531 301.08691406 C-87.03070312 300.32765625 -87.95496094 299.56839844 -88.90722656 298.78613281 C-100.59472696 288.68561974 -108.91702642 276.64174968 -116.10644531 263.08691406 C-112.87377556 260.39609927 -109.67867334 258.14806598 -105.99316406 256.12597656 C-105.00324463 255.57828613 -104.0133252 255.0305957 -102.9934082 254.46630859 C-101.93758545 253.8873584 -100.8817627 253.3084082 -99.79394531 252.71191406 C-89.61372275 247.08254035 -79.54584005 241.3043686 -69.54858398 235.35498047 C-68.59959229 234.79472168 -67.65060059 234.23446289 -66.67285156 233.65722656 C-65.8369751 233.15980957 -65.00109863 232.66239258 -64.13989258 232.14990234 C-62.10644531 231.08691406 -62.10644531 231.08691406 -60.10644531 231.08691406 C-59.11183457 232.44264501 -58.18815964 233.85046263 -57.29394531 235.27441406 C-46.10066276 251.61243518 -29.81898297 263.64771565 -10.41894531 268.39941406 C5.72991877 271.09954568 22.09801788 269.2839386 35.89355469 260.08691406 C41.41339116 255.3891809 45.35196911 250.14763172 46.13183594 242.86035156 C46.4032862 234.08822216 44.00592885 227.3270195 38.51855469 220.46191406 C25.77315211 207.23075204 4.72648505 201.15652258 -11.83300781 194.29003906 C-44.6298248 180.67287165 -76.24807026 164.75531808 -91.61035156 130.75878906 C-101.75523905 105.68426119 -102.28375748 77.0317529 -91.90722656 51.95019531 C-82.6544426 31.20326978 -65.98440952 16.48720172 -45.10644531 8.08691406 C-30.34969025 2.7450279 -15.63765382 0.6452254 0 0 Z " fill="#201F1E" transform="translate(630.1064453125,375.9130859375)"/>
<path d="M0 0 C24.42 0 48.84 0 74 0 C74.04030303 41.00609826 74.04030303 41.00609826 74.04882812 58.61523438 C74.05468878 70.62199347 74.06149137 82.62874527 74.07543945 94.63549805 C74.16208137 171.0382529 74.16208137 171.0382529 73.62109375 207.01171875 C73.60583208 208.19368143 73.59057041 209.37564411 73.57484627 210.59342384 C73.10958602 244.98011541 73.10958602 244.98011541 68.375 260.6875 C68.11630127 261.56196777 67.85760254 262.43643555 67.59106445 263.33740234 C60.87228405 284.93955707 46.90822066 301.51786345 26.84375 312.1484375 C0.45557145 325.30155134 -34.74679373 327.3579376 -63 320 C-64.54494141 319.59974609 -64.54494141 319.59974609 -66.12109375 319.19140625 C-90.65252865 311.86129622 -111.1833896 295.23973675 -125.4375 274.25 C-126.09395508 273.29262939 -126.09395508 273.29262939 -126.76367188 272.31591797 C-129.0541813 268.85383656 -130.33219781 266.07033048 -131 262 C-117.67876715 254.43128314 -104.28686652 247.0014339 -90.77612305 239.77633667 C-89.34252588 239.0090384 -87.91006751 238.23960861 -86.47875977 237.4680481 C-84.46052174 236.38118507 -82.43802865 235.30271241 -80.4140625 234.2265625 C-79.50625534 233.73537682 -79.50625534 233.73537682 -78.58010864 233.23426819 C-75.82102404 231.77918749 -74.17304139 231 -71 231 C-69.4921875 233.2734375 -69.4921875 233.2734375 -67.875 236.375 C-61.85464472 247.10033881 -54.26062688 254.9614713 -43.1875 260.375 C-32.55419865 262.45996105 -22.06500621 260.89754715 -12.54296875 255.64453125 C-7.25199243 251.98305784 -3.9288123 247.85968498 -2.41501808 241.56910419 C-0.52203397 230.52478732 -0.69165308 219.4929063 -0.68115234 208.3190918 C-0.67184099 206.04133758 -0.66167054 203.76358673 -0.65071106 201.48583984 C-0.62353315 195.33598649 -0.608298 189.1861559 -0.59528303 183.03625846 C-0.57959883 176.59672181 -0.55282558 170.15723126 -0.5272522 163.71772766 C-0.48585514 152.92031082 -0.45123448 142.12289502 -0.421875 131.32543945 C-0.39163265 120.21018658 -0.35725653 109.094959 -0.31738281 97.97973633 C-0.31492126 97.29315576 -0.31245972 96.60657518 -0.30992357 95.89918914 C-0.29754787 92.45438668 -0.28509155 89.00958452 -0.27259517 85.5647825 C-0.16923425 57.04322045 -0.0815747 28.5216333 0 0 Z " fill="#21201F" transform="translate(406,383)"/>
<path d="M0 0 C24.42 0 48.84 0 74 0 C74.04030303 41.44943164 74.04030303 41.44943164 74.04882812 59.15234375 C74.05470485 71.25667764 74.06154769 83.36100434 74.07543945 95.46533203 C74.17333106 182.41710503 74.17333106 182.41710503 73 221 C72.67 221 72.34 221 72 221 C72 148.73 72 76.46 72 2 C48.9 2 25.8 2 2 2 C2.00523682 8.77402344 2.01047363 15.54804688 2.01586914 22.52734375 C2.03192594 44.21239035 2.04304539 65.89743716 2.05106533 87.58248818 C2.05231601 90.95196479 2.05361033 94.32144138 2.05493164 97.69091797 C2.05519395 98.36170781 2.05545626 99.03249765 2.05572652 99.72361445 C2.06007543 110.57874393 2.0679587 121.4338681 2.0771528 132.28899443 C2.08651098 143.43095461 2.09198537 154.57291298 2.09408849 165.71487713 C2.09539227 171.97161568 2.09845715 178.22834221 2.10573006 184.4850769 C2.11252106 190.37499367 2.11461067 196.26489346 2.11310768 202.15481377 C2.11338262 204.31550628 2.11536946 206.47619937 2.11920547 208.6368885 C2.1241908 211.5899777 2.12298042 214.54300304 2.12025452 217.49609375 C2.12316736 218.34825438 2.1260802 219.20041502 2.12908131 220.0783987 C2.11648073 225.13934526 1.72445051 229.98972107 1 235 C0.67 235 0.34 235 0 235 C0 157.45 0 79.9 0 0 Z " fill="#1B1812" transform="translate(406,383)"/>
<path d="M0 0 C0.66 0.33 1.32 0.66 2 1 C2.02364243 24.09254072 2.04112967 47.18507937 2.05181217 70.27762985 C2.05690999 81.00637983 2.06385718 91.73512209 2.07543945 102.46386719 C2.16225517 184.82489186 2.16225517 184.82489186 1.62109375 216.015625 C1.60583208 217.03453575 1.59057041 218.0534465 1.57484627 219.10323334 C1.08743014 249.91256986 1.08743014 249.91256986 -3 254 C-3.02752977 252.02091515 -3.04663002 250.04171269 -3.0625 248.0625 C-3.07410156 246.96035156 -3.08570313 245.85820313 -3.09765625 244.72265625 C-3.02723551 242.03821752 -2.85050675 239.57575282 -2.51243591 236.93074036 C-1.92144147 231.74737079 -1.784652 226.59864714 -1.70336914 221.38549805 C-1.68410055 220.33633776 -1.66483196 219.28717747 -1.64497948 218.20622444 C-1.58224082 214.66229047 -1.52693507 211.11829191 -1.47265625 207.57421875 C-1.45223833 206.31758612 -1.43182041 205.06095348 -1.41078377 203.76624107 C-0.8107602 166.41367647 -0.66992222 129.05571965 -0.48259032 91.69931495 C-0.43214478 81.66680767 -0.37764109 71.63432343 -0.32291877 61.60183871 C-0.21100095 41.06791403 -0.10379536 20.53396725 0 0 Z " fill="#FBF32B" transform="translate(480,383)"/>
<path d="M0 0 C24.09 0 48.18 0 73 0 C73 0.33 73 0.66 73 1 C49.32495675 1.82271869 25.68880957 2.13673498 2 2 C2.02320313 3.04800781 2.04640625 4.09601563 2.0703125 5.17578125 C2.08907303 6.55468037 2.10727293 7.9335872 2.125 9.3125 C2.14175781 10.00279297 2.15851563 10.69308594 2.17578125 11.40429688 C2.21217794 15.17135396 2.14378864 16.78431704 0 20 C0 13.4 0 6.8 0 0 Z " fill="#08040C" transform="translate(406,383)"/>
<path d="M0 0 C0.66 0.33 1.32 0.66 2 1 C-0.23808484 3.54360119 -2.09256802 4.61286249 -5.3125 5.625 C-6.42044922 5.98464844 -6.42044922 5.98464844 -7.55078125 6.3515625 C-18.776983 9.32373075 -30.78291417 8.94004156 -42 6.1875 C-43.03229736 5.93963745 -43.03229736 5.93963745 -44.08544922 5.68676758 C-46 5.16796875 -46 5.16796875 -49 4 C-49.33 3.01 -49.66 2.02 -50 1 C-46.33836656 1.45770418 -43.01132596 1.99675688 -39.453125 3.015625 C-34.24138367 4.33543461 -29.1032497 4.38158889 -23.75 4.375 C-22.73526611 4.37701416 -21.72053223 4.37902832 -20.67504883 4.38110352 C-13.82756239 4.28835484 -8.32984536 3.51673587 -2.01171875 0.77734375 C-1.34785156 0.52082031 -0.68398438 0.26429688 0 0 Z " fill="#F5EF36" transform="translate(658,638)"/>
<path d="M0 0 C1.29043213 -0.00918457 2.58086426 -0.01836914 3.91040039 -0.02783203 C12.13472856 -0.00144325 19.97598155 0.75195945 28.0625 2.25 C28.0625 2.91 28.0625 3.57 28.0625 4.25 C26.97195313 4.105625 25.88140625 3.96125 24.7578125 3.8125 C3.72599623 1.16349042 -19.33112551 0.44041725 -39.79296875 6.76171875 C-41.9375 7.25 -41.9375 7.25 -44.9375 6.25 C-44.6075 5.59 -44.2775 4.93 -43.9375 4.25 C-29.77642804 0.01579244 -14.65805781 0.05316542 0 0 Z " fill="#ECE959" transform="translate(635.9375,374.75)"/>
<path d="M0 0 C-1.95585325 1.00484204 -3.91476237 2.00373805 -5.875 3 C-6.96554687 3.556875 -8.05609375 4.11375 -9.1796875 4.6875 C-12 6 -12 6 -14 6 C-14.268125 6.5775 -14.53625 7.155 -14.8125 7.75 C-16 10 -16 10 -17.5625 11.9375 C-21.08895584 16.9971975 -20.36265298 24.08791298 -20 30 C-19.51286599 32.46108576 -18.84303683 34.62895891 -18 37 C-21 36 -21 36 -22.1640625 33.89453125 C-24.0985359 27.1961911 -24.38174134 17.99029356 -21.5 11.5 C-18.03234289 5.9077924 -13.10098054 1.27167971 -6.6875 -0.5 C-3 -1 -3 -1 0 0 Z " fill="#F3ED28" transform="translate(624,440)"/>
<path d="M0 0 C0 4.32879609 -2.60985145 6.26403369 -5.4375 9.25 C-6.25033447 10.11854614 -6.25033447 10.11854614 -7.07958984 11.00463867 C-11.32128754 15.45798423 -15.73843145 19.7557593 -21 23 C-21.66 23 -22.32 23 -23 23 C-23 23.99 -23 24.98 -23 26 C-24.32 26 -25.64 26 -27 26 C-27.33 26.66 -27.66 27.32 -28 28 C-29.65 28 -31.3 28 -33 28 C-33 27.34 -33 26.68 -33 26 C-30.77301716 24.61574154 -28.54206844 23.33040571 -26.25 22.0625 C-16.41133662 16.41164742 -8.98490642 9.01292363 -1 1 C-0.67 0.67 -0.34 0.34 0 0 Z " fill="#F8F124" transform="translate(735,666)"/>
<path d="M0 0 C-3.67006318 4.50416844 -8.74908096 6.76790201 -14 9 C-14.66 9 -15.32 9 -16 9 C-16 9.66 -16 10.32 -16 11 C-16.94875 11.391875 -17.8975 11.78375 -18.875 12.1875 C-23.6886961 14.24345234 -28.33706017 16.62631031 -33 19 C-33.33 18.01 -33.66 17.02 -34 16 C-33.29915283 15.62190186 -32.59830566 15.24380371 -31.8762207 14.85424805 C-28.68766688 13.13319413 -25.50007542 11.41036529 -22.3125 9.6875 C-21.20970703 9.09259766 -20.10691406 8.49769531 -18.97070312 7.88476562 C-17.90400391 7.30791016 -16.83730469 6.73105469 -15.73828125 6.13671875 C-14.75899658 5.60780029 -13.77971191 5.07888184 -12.77075195 4.53393555 C-10.9240673 3.51157942 -9.10482834 2.43800261 -7.31713867 1.31567383 C-4.65463865 -0.19609655 -3.01274301 -0.25823511 0 0 Z " fill="#F8F123" transform="translate(716,444)"/>
<path d="M0 0 C1.35232224 0.03541649 1.35232224 0.03541649 2.73196411 0.07154846 C5.59492413 0.14776349 8.45758439 0.2319678 11.3203125 0.31640625 C13.26821479 0.3696692 15.21613144 0.42240927 17.1640625 0.47460938 C21.92466688 0.60332119 26.68501872 0.73919578 31.4453125 0.87890625 C29.07793884 3.24627991 28.62132719 3.13072161 25.41040039 3.13769531 C24.57936295 3.14399963 23.7483255 3.15030396 22.8921051 3.15679932 C21.54365761 3.15072662 21.54365761 3.15072662 20.16796875 3.14453125 C18.78453529 3.14740143 18.78453529 3.14740143 17.37315369 3.15032959 C15.42039721 3.15169204 13.4676317 3.14799142 11.51489258 3.13964844 C8.52339322 3.12896191 5.53249607 3.13953544 2.54101562 3.15234375 C0.64583201 3.15102193 -1.24935124 3.14845906 -3.14453125 3.14453125 C-4.4899424 3.15060394 -4.4899424 3.15060394 -5.86253357 3.15679932 C-6.69672318 3.150495 -7.53091278 3.14419067 -8.39038086 3.13769531 C-9.49052773 3.13530853 -9.49052773 3.13530853 -10.61289978 3.13287354 C-12.5546875 2.87890625 -12.5546875 2.87890625 -15.5546875 0.87890625 C-10.29550523 -0.23203054 -5.33504126 -0.16657848 0 0 Z " fill="#FCF63B" transform="translate(368.5546875,705.12109375)"/>
<path d="M0 0 C0.99 0.33 1.98 0.66 3 1 C2.49339844 1.90492188 2.49339844 1.90492188 1.9765625 2.828125 C1.53054688 3.62734375 1.08453125 4.4265625 0.625 5.25 C0.18414062 6.03890625 -0.25671875 6.8278125 -0.7109375 7.640625 C-1.52425564 9.12924366 -2.29977125 10.63974171 -3.01953125 12.17578125 C-4.4491898 14.83574357 -6.61887827 16.17262751 -9 18 C-9.845625 18.86625 -10.69125 19.7325 -11.5625 20.625 C-13.70218264 22.70981899 -15.27083122 23.88811642 -18 25 C-17.2948631 20.83087806 -15.35430133 19.64987472 -12.1171875 17.05078125 C-7.27971828 12.36504077 -3.00586481 6.01172962 0 0 Z " fill="#F7EE2B" transform="translate(466,662)"/>
<path d="M0 0 C0.33 0 0.66 0 1 0 C1.82555811 30.12652044 1.82555811 30.12652044 -3 44 C-4.06285671 40.67455418 -3.93734075 38.11188381 -3.4765625 34.66796875 C-3.34290283 33.62825928 -3.20924316 32.5885498 -3.0715332 31.51733398 C-2.92417725 30.41848877 -2.77682129 29.31964355 -2.625 28.1875 C-1.42393723 18.79102978 -0.44622602 9.46306911 0 0 Z " fill="#F9F324" transform="translate(750,601)"/>
<path d="M0 0 C1.299375 -0.061875 2.59875 -0.12375 3.9375 -0.1875 C4.66839844 -0.22230469 5.39929688 -0.25710938 6.15234375 -0.29296875 C8.80574776 -0.0199848 10.62036475 0.54584506 13.09375 1.46875 C18.55115091 3.38300173 23.82126834 3.55451316 29.5625 3.6875 C30.57119141 3.72166016 31.57988281 3.75582031 32.61914062 3.79101562 C35.07931568 3.87263281 37.53917309 3.94205676 40 4 C40 4.33 40 4.66 40 5 C26.42675097 6.31763704 12.75224587 6.64848028 0 1 C0 0.67 0 0.34 0 0 Z " fill="#1A1914" transform="translate(338,700)"/>
<path d="M0 0 C0.33 0 0.66 0 1 0 C0.69761331 9.23791351 -0.93348885 17.28540319 -4 26 C-5.32 26 -6.64 26 -8 26 C-7.42733239 21.66316886 -6.34466724 18.11240089 -4.5625 14.125 C-2.53897587 9.43463482 -1.05581043 4.99110384 0 0 Z " fill="#F6EC31" transform="translate(746,636)"/>
<path d="M0 0 C0.99 0.99 1.98 1.98 3 3 C2.67 3.33 2.34 3.66 2 4 C4.91765 5.9451 6.62537285 6.45276317 10 7 C10 7.66 10 8.32 10 9 C10.75925781 8.96519531 11.51851563 8.93039062 12.30078125 8.89453125 C13.79158203 8.85392578 13.79158203 8.85392578 15.3125 8.8125 C16.29863281 8.77769531 17.28476562 8.74289062 18.30078125 8.70703125 C21 9 21 9 22.85546875 10.51171875 C23.23316406 11.00285156 23.61085938 11.49398437 24 12 C16.02105421 12.49354304 8.95647313 12.33138893 2 8 C0.16734068 6.05339295 -0.79004927 4.41990146 -2 2 C-1.34 2 -0.68 2 0 2 C0 1.34 0 0.68 0 0 Z " fill="#F2E841" transform="translate(354,633)"/>
<path d="M0 0 C0.93972656 0.00902344 1.87945313 0.01804687 2.84765625 0.02734375 C3.53730469 0.03894531 4.22695313 0.05054688 4.9375 0.0625 C-0.4374474 3.64579827 -6.67756414 3.20748041 -12.96484375 3.16015625 C-13.6874086 3.1587413 -14.40997345 3.15732635 -15.1544342 3.15586853 C-17.43633365 3.15032225 -19.71813079 3.1377802 -22 3.125 C-23.55794128 3.11997804 -25.11588412 3.11541636 -26.67382812 3.11132812 C-30.47009081 3.1003705 -34.26627813 3.08314372 -38.0625 3.0625 C-38.0625 2.7325 -38.0625 2.4025 -38.0625 2.0625 C-37.41289307 2.03744385 -36.76328613 2.0123877 -36.09399414 1.98657227 C-33.10418912 1.86936149 -30.11460465 1.74721081 -27.125 1.625 C-25.59262695 1.56602539 -25.59262695 1.56602539 -24.02929688 1.50585938 C-18.65825043 1.28278077 -13.36182648 0.9151804 -8.02563477 0.26977539 C-5.3441132 -0.01335007 -2.69444308 -0.03410687 0 0 Z " fill="#F2EB36" transform="translate(667.0625,703.9375)"/>
<path d="M0 0 C3.66721941 0.45840243 7.02321913 1.00646097 10.59375 2 C15.53259061 3.25876295 20.42422148 3.44793796 25.5 3.625 C26.87671875 3.68300781 26.87671875 3.68300781 28.28125 3.7421875 C30.52064528 3.83549564 32.76005254 3.92128185 35 4 C35 4.33 35 4.66 35 5 C31.20974831 5.25844683 27.41815304 5.47627518 23.625 5.6875 C22.56410156 5.76033203 21.50320313 5.83316406 20.41015625 5.90820312 C13.67695385 6.25932104 7.12003388 6.19147352 1 3 C0.67 2.01 0.34 1.02 0 0 Z " fill="#F3E32F" transform="translate(608,639)"/>
<path d="M0 0 C1 3 1 3 1 7 C0.34 7 -0.32 7 -1 7 C-2.62377041 15.43750032 -3.38181774 23.66769259 -3.625 32.25 C-3.66367187 33.38824219 -3.70234375 34.52648437 -3.7421875 35.69921875 C-3.83518848 38.46599779 -3.92102861 41.23279117 -4 44 C-4.33 44 -4.66 44 -5 44 C-5.10034954 39.94742247 -5.1721497 35.89534521 -5.21972656 31.84179688 C-5.23959978 30.46862156 -5.26670858 29.09552804 -5.30175781 27.72265625 C-5.55212252 17.64915863 -4.5451108 9.0902216 0 0 Z " fill="#F5E033" transform="translate(534,433)"/>
<path d="M0 0 C0.66 0.99 1.32 1.98 2 3 C1.23883449 4.15227823 0.46567307 5.2966386 -0.3125 6.4375 C-0.74175781 7.07558594 -1.17101562 7.71367187 -1.61328125 8.37109375 C-3 10 -3 10 -6 11 C-7.91289737 13.77518824 -7.91289737 13.77518824 -9.6875 17.0625 C-10.31011719 18.16722656 -10.93273437 19.27195312 -11.57421875 20.41015625 C-12.04472656 21.26480469 -12.51523437 22.11945313 -13 23 C-13.33 22.01 -13.66 21.02 -14 20 C-12.7095065 17.60634269 -11.38878172 15.43231605 -9.875 13.1875 C-9.483125 12.58357422 -9.09125 11.97964844 -8.6875 11.35742188 C-6.03732427 7.3345244 -3.14183836 3.65057019 0 0 Z " fill="#161513" transform="translate(554,404)"/>
<path d="M0 0 C0.66 0.33 1.32 0.66 2 1 C-5.23509692 8.43064008 -11.10422485 8.96644126 -21 10 C-18.17818994 8.11879329 -15.93234896 7.20059839 -12.75 6.125 C-9.25687402 4.89893592 -6.10063177 3.61201596 -2.9375 1.6875 C-1.968125 1.130625 -0.99875 0.57375 0 0 Z " fill="#151412" transform="translate(666,636)"/>
<path d="M0 0 C2.38870778 3.58306167 2.15723605 5.02428106 2 9.25 C1.90928804 14.32420017 2.23614625 18.25964304 4 23 C1 22 1 22 -0.17578125 19.91796875 C-1.20118945 16.28773215 -1.22810645 13.08151645 -1.1875 9.3125 C-1.18685547 8.63638672 -1.18621094 7.96027344 -1.18554688 7.26367188 C-1.1409337 2.2818674 -1.1409337 2.2818674 0 0 Z " fill="#F9F32F" transform="translate(602,454)"/>
<path d="M0 0 C-1.34043117 4.0212935 -3.82244356 4.88950169 -7.375 6.75 C-7.96539062 7.07871094 -8.55578125 7.40742187 -9.1640625 7.74609375 C-10.73300126 8.58356782 -12.36512138 9.29992603 -14 10 C-14.99 9.67 -15.98 9.34 -17 9 C-15.625 7.5 -15.625 7.5 -14 6 C-13.34 6 -12.68 6 -12 6 C-12 5.34 -12 4.68 -12 4 C-11.0925 3.71125 -10.185 3.4225 -9.25 3.125 C-6.11648882 2.11919787 -6.11648882 2.11919787 -3.75 0.875 C-2 0 -2 0 0 0 Z " fill="#F7EB33" transform="translate(301,629)"/>
<path d="M0 0 C-4.36867215 5.31838349 -11.25445147 8.12960664 -18 9 C-18 8.34 -18 7.68 -18 7 C-15.94414903 5.82006797 -13.88163459 4.65621545 -11.8125 3.5 C-10.66394531 2.8503125 -9.51539063 2.200625 -8.33203125 1.53125 C-5.14862918 0.06830321 -3.42692535 -0.36140832 0 0 Z " fill="#F1EA29" transform="translate(716,444)"/>
<path d="M0 0 C-1.30016761 3.90050282 -2.76003913 4.31143857 -6.3125 6.25 C-7.76076172 7.06210937 -7.76076172 7.06210937 -9.23828125 7.890625 C-12.13699811 9.05503177 -13.16529977 9.15811981 -16 8 C-14.68 7.34 -13.36 6.68 -12 6 C-12 5.01 -12 4.02 -12 3 C-10.906875 2.87625 -9.81375 2.7525 -8.6875 2.625 C-5.33817502 2.0573178 -3.19116366 0 0 0 Z " fill="#F7EE2B" transform="translate(538,623)"/>
<path d="M0 0 C1.49828872 3.88235819 0.43110582 6.43449288 -0.9375 10.25 C-1.31777344 11.32765625 -1.69804687 12.4053125 -2.08984375 13.515625 C-2.39019531 14.33546875 -2.69054687 15.1553125 -3 16 C-3.66 16 -4.32 16 -5 16 C-4.49228528 10.03435204 -2.61407872 5.36190101 0 0 Z " fill="#F9F126" transform="translate(475,642)"/>
<path d="M0 0 C-13.85728346 5.3484252 -13.85728346 5.3484252 -21 5 C-5.80392157 -2.90196078 -5.80392157 -2.90196078 0 0 Z " fill="#F5EB26" transform="translate(424,701)"/>
<path d="M0 0 C0.66 0.33 1.32 0.66 2 1 C1.34 2.65 0.68 4.3 0 6 C-1.32 6 -2.64 6 -4 6 C-4.33 6.66 -4.66 7.32 -5 8 C-6.65 8 -8.3 8 -10 8 C-10 7.34 -10 6.68 -10 6 C-7.8828125 4.45703125 -7.8828125 4.45703125 -5.125 2.8125 C-4.22007812 2.26207031 -3.31515625 1.71164062 -2.3828125 1.14453125 C-1.20332031 0.57798828 -1.20332031 0.57798828 0 0 Z " fill="#F3EB31" transform="translate(712,686)"/>
<path d="M0 0 C2.63520741 2.40502363 4.40302943 5.0185849 6.25 8.0625 C7.06210937 9.37927734 7.06210937 9.37927734 7.890625 10.72265625 C8.25671875 11.47417969 8.6228125 12.22570312 9 13 C8.67 13.66 8.34 14.32 8 15 C6.29115995 13.37660195 4.62553283 11.70680947 3 10 C3 9.34 3 8.68 3 8 C2.34 8 1.68 8 1 8 C0.67 5.36 0.34 2.72 0 0 Z " fill="#EEE758" transform="translate(539,509)"/>
<path d="M0 0 C0 0.66 0 1.32 0 2 C-2.12040742 3.03033882 -4.24647908 4.04902854 -6.375 5.0625 C-8.15003906 5.91521484 -8.15003906 5.91521484 -9.9609375 6.78515625 C-10.96382813 7.18605469 -11.96671875 7.58695313 -13 8 C-13.66 7.67 -14.32 7.34 -15 7 C-13.55037942 4.10075884 -11.54758474 3.68671126 -8.625 2.375 C-7.64789063 1.92898438 -6.67078125 1.48296875 -5.6640625 1.0234375 C-3 0 -3 0 0 0 Z " fill="#F8F128" transform="translate(440,692)"/>
<path d="M0 0 C0.99 0.495 0.99 0.495 2 1 C2.40729228 3.32156597 2.74438677 5.6568787 3 8 C3.66 8 4.32 8 5 8 C5.33 7.34 5.66 6.68 6 6 C6.33 9.96 6.66 13.92 7 18 C5.27647021 15.41470532 3.80552924 12.87730479 2.375 10.125 C1.92898438 9.28195312 1.48296875 8.43890625 1.0234375 7.5703125 C-0.06376499 4.83985738 -0.19811814 2.90920852 0 0 Z " fill="#EFE64E" transform="translate(738,562)"/>
<path d="M0 0 C0.66 0.33 1.32 0.66 2 1 C1.3125 3.375 1.3125 3.375 0 6 C-3.18919414 7.72388873 -6.44289519 8.3902106 -10 9 C-7.12505529 5.01930733 -4.17882671 2.56428003 0 0 Z " fill="#151415" transform="translate(568,393)"/>
<path d="M0 0 C0.66 0.33 1.32 0.66 2 1 C1.04737966 2.48285242 0.08771595 3.96118201 -0.875 5.4375 C-1.40867187 6.26121094 -1.94234375 7.08492187 -2.4921875 7.93359375 C-4 10 -4 10 -6 11 C-6.33 10.01 -6.66 9.02 -7 8 C-5.25 4.8125 -5.25 4.8125 -3 2 C-2.01 2 -1.02 2 0 2 C0 1.34 0 0.68 0 0 Z " fill="#E5DC40" transform="translate(402,626)"/>
<path d="M0 0 C0.33 0.66 0.66 1.32 1 2 C1.66 2 2.32 2 3 2 C3.268125 2.61875 3.53625 3.2375 3.8125 3.875 C4.95556848 6.2995233 4.95556848 6.2995233 8 8 C7.67 9.65 7.34 11.3 7 13 C5.66104368 11.33784732 4.32869858 9.67036393 3 8 C2.4225 7.319375 1.845 6.63875 1.25 5.9375 C0 4 0 4 0 0 Z " fill="#F0E640" transform="translate(337,616)"/>
<path d="M0 0 C-1.95330868 1.03041513 -3.91281528 2.0490893 -5.875 3.0625 C-6.96554687 3.63097656 -8.05609375 4.19945312 -9.1796875 4.78515625 C-10.11039063 5.18605469 -11.04109375 5.58695312 -12 6 C-12.66 5.67 -13.32 5.34 -14 5 C-12.73870314 2.63506838 -11.64509056 1.25669228 -9.125 0.25390625 C-3.63125638 -1.21041879 -3.63125638 -1.21041879 0 0 Z " fill="#F9EF19" transform="translate(624,440)"/>
<path d="M0 0 C-3.09423168 3.09423168 -6.5523812 3.93706005 -10.875 4.125 C-11.57625 4.08375 -12.2775 4.0425 -13 4 C-12.67 3.01 -12.34 2.02 -12 1 C-7.9472484 0.01751476 -4.16138263 -0.08159574 0 0 Z " fill="#EDE33A" transform="translate(391,640)"/>
<path d="M0 0 C2.61500768 2.36595933 4.38999603 4.86049226 6 8 C5.67 8.66 5.34 9.32 5 10 C4.34 9.01 3.68 8.02 3 7 C0.94996045 5.80767387 0.94996045 5.80767387 -1 5 C-0.67 3.35 -0.34 1.7 0 0 Z " fill="#F1E85D" transform="translate(514,640)"/>
<path d="M0 0 C-1 3 -1 3 -3.8125 4.75 C-7.13982105 6.05483179 -7.79584277 6.02866653 -11 5 C-9.54462432 4.16151196 -8.08559627 3.32936066 -6.625 2.5 C-5.81289063 2.0359375 -5.00078125 1.571875 -4.1640625 1.09375 C-2 0 -2 0 0 0 Z " fill="#FAF02A" transform="translate(331,613)"/>
<path d="M0 0 C2.31 0.66 4.62 1.32 7 2 C7 2.99 7 3.98 7 5 C7.66 5 8.32 5 9 5 C8.67 5.99 8.34 6.98 8 8 C6.85073734 7.04578192 5.70569459 6.08647955 4.5625 5.125 C3.92441406 4.59132813 3.28632812 4.05765625 2.62890625 3.5078125 C1 2 1 2 0 0 Z " fill="#F2E756" transform="translate(721,545)"/>
<path d="M0 0 C0.33 1.32 0.66 2.64 1 4 C-4.75 8 -4.75 8 -7 8 C-7 7.01 -7 6.02 -7 5 C-2.77777778 2 -2.77777778 2 0 2 C0 1.34 0 0.68 0 0 Z " fill="#F8ED25" transform="translate(734,430)"/>
<path d="M0 0 C-0.3125 1.9375 -0.3125 1.9375 -1 4 C-1.99 4.33 -2.98 4.66 -4 5 C-4 4.34 -4 3.68 -4 3 C-6.64 3.33 -9.28 3.66 -12 4 C-8.30376141 2.00971768 -4.25699221 0 0 0 Z " fill="#EFE63F" transform="translate(692,697)"/>
<path d="M0 0 C0.33 0 0.66 0 1 0 C0.67 4.29 0.34 8.58 0 13 C-1.32 13.33 -2.64 13.66 -4 14 C-2.68 9.38 -1.36 4.76 0 0 Z " fill="#E9E439" transform="translate(746,636)"/>
<path d="M0 0 C0.99 0.99 1.98 1.98 3 3 C2.67 3.33 2.34 3.66 2 4 C4.475 5.98 4.475 5.98 7 8 C4.75 8.375 4.75 8.375 2 8 C-0.3125 5 -0.3125 5 -2 2 C-1.34 2 -0.68 2 0 2 C0 1.34 0 0.68 0 0 Z " fill="#F8E631" transform="translate(354,633)"/>
<path d="M0 0 C0.99 0.33 1.98 0.66 3 1 C-0.75 7.875 -0.75 7.875 -3 9 C-2.44271087 5.65626525 -1.64826111 2.96687001 0 0 Z " fill="#F7EF26" transform="translate(466,662)"/>
<path d="M0 0 C-2.77280706 3.08089673 -5.06326356 4.68775452 -9 6 C-8.6875 4.125 -8.6875 4.125 -8 2 C-4.77208445 -0.1519437 -3.71599191 -0.20086443 0 0 Z " fill="#F5ED1F" transform="translate(726,438)"/>
<path d="M0 0 C0.33 0 0.66 0 1 0 C1.33 3.96 1.66 7.92 2 12 C1.01 12 0.02 12 -1 12 C-1.08159574 7.83861737 -0.98248524 4.0527516 0 0 Z " fill="#2A2621" transform="translate(475,621)"/>
<path d="M0 0 C0.66 0.33 1.32 0.66 2 1 C-2.95 3.475 -2.95 3.475 -8 6 C-8.66 5.34 -9.32 4.68 -10 4 C-8.33333333 3.33333333 -6.66666667 2.66666667 -5 2 C-3.6696875 1.4121875 -3.6696875 1.4121875 -2.3125 0.8125 C-1.549375 0.544375 -0.78625 0.27625 0 0 Z " fill="#ECE440" transform="translate(320,619)"/>
<path d="M0 0 C1.32 0.66 2.64 1.32 4 2 C3.01 2.33 2.02 2.66 1 3 C0.67 3.99 0.34 4.98 0 6 C-0.99 6.33 -1.98 6.66 -3 7 C-1.125 1.125 -1.125 1.125 0 0 Z " fill="#F0E236" transform="translate(567,603)"/>
<path d="M0 0 C2.08954032 4.17908064 2.16552619 4.80410573 1 9 C0.01 9.33 -0.98 9.66 -2 10 C-1.34 6.7 -0.68 3.4 0 0 Z " fill="#EEE73B" transform="translate(476,633)"/>
<path d="M0 0 C2 1.625 2 1.625 4 4 C4.25 7.25 4.25 7.25 4 10 C0.06153846 5.69230769 0.06153846 5.69230769 -0.25 2.1875 C-0.1675 1.465625 -0.085 0.74375 0 0 Z " fill="#F5E13F" transform="translate(536,505)"/>
<path d="M0 0 C0.99 0 1.98 0 3 0 C3.33 0.99 3.66 1.98 4 3 C5.99665314 4.68538601 5.99665314 4.68538601 8 6 C4.04179141 5.43454163 1.3340947 4.19097652 -2 2 C-1.34 1.34 -0.68 0.68 0 0 Z " fill="#EBE563" transform="translate(623,491)"/>
<path d="M0 0 C-2.93828597 2.50298434 -5.17902761 3.46930939 -9 4 C-8.67 3.01 -8.34 2.02 -8 1 C-5.29120665 -0.35439668 -2.99066732 -0.06501451 0 0 Z " fill="#FAF125" transform="translate(701,695)"/>
<path d="M0 0 C-0.5625 1.9375 -0.5625 1.9375 -2 4 C-5.625 4.75 -5.625 4.75 -9 5 C-2.40909091 0 -2.40909091 0 0 0 Z " fill="#FCF02A" transform="translate(396,635)"/>
<path d="M0 0 C2.97 0 5.94 0 9 0 C6.09907498 1.93395001 5.10325263 2.30131941 1.8125 2.625 C0.554375 2.74875 -0.70375 2.8725 -2 3 C-1.34 2.67 -0.68 2.34 0 2 C0 1.34 0 0.68 0 0 Z " fill="#F5F053" transform="translate(600,377)"/>
<path d="M0 0 C-4.77830905 2.91360308 -7.55106131 3.19876651 -13 2 C-13 1.67 -13 1.34 -13 1 C-11.58622218 0.63447197 -10.16879424 0.28304505 -8.75 -0.0625 C-7.96109375 -0.25972656 -7.1721875 -0.45695313 -6.359375 -0.66015625 C-3.89605178 -1.01497267 -2.34395868 -0.76877544 0 0 Z " fill="#EFEC43" transform="translate(680,702)"/>
<path d="M0 0 C1.98 0.495 1.98 0.495 4 1 C3.6875 2.9375 3.6875 2.9375 3 5 C2.01 5.33 1.02 5.66 0 6 C-1.125 2.25 -1.125 2.25 0 0 Z " fill="#EFDF44" transform="translate(515,632)"/>
<path d="M0 0 C0.66 0.33 1.32 0.66 2 1 C-0.82553984 5.23830976 -3.12180888 4.97715348 -8 6 C-5.63404067 3.38499232 -3.13950774 1.61000397 0 0 Z " fill="#FCEE1B" transform="translate(563,607)"/>
<path d="M0 0 C0.33 0.66 0.66 1.32 1 2 C1.66 2 2.32 2 3 2 C3 2.66 3 3.32 3 4 C3.99 4.33 4.98 4.66 6 5 C5.01 5.495 5.01 5.495 4 6 C3.67 6.66 3.34 7.32 3 8 C0.37613513 4.93882432 0 4.26826873 0 0 Z " fill="#EDE14F" transform="translate(725,417)"/>
<path d="M0 0 C1.2065625 0.0309375 1.2065625 0.0309375 2.4375 0.0625 C2.0625 2 2.0625 2 1.4375 4.0625 C0.4475 4.5575 0.4475 4.5575 -0.5625 5.0625 C-1.5525 3.7425 -2.5425 2.4225 -3.5625 1.0625 C-2.5625 0.0625 -2.5625 0.0625 0 0 Z " fill="#EDDC42" transform="translate(557.5625,396.9375)"/>
<path d="M0 0 C1.32 0.66 2.64 1.32 4 2 C2.68 3.32 1.36 4.64 0 6 C-0.38218767 4.34385343 -0.71395102 2.67542976 -1 1 C-0.67 0.67 -0.34 0.34 0 0 Z " fill="#F0E34B" transform="translate(544,411)"/>
</svg>
