<?xml version="1.0" encoding="UTF-8"?>
<svg version="1.1" xmlns="http://www.w3.org/2000/svg" width="1024" height="1024">
<path d="M0 0 C337.92 0 675.84 0 1024 0 C1024 337.92 1024 675.84 1024 1024 C686.08 1024 348.16 1024 0 1024 C0 686.08 0 348.16 0 0 Z " fill="#EBECF2" transform="translate(0,0)"/>
<path d="M0 0 C0.66 0 1.32 0 2 0 C2.515625 1.134375 3.03125 2.26875 3.5625 3.4375 C9.03393864 14.28538703 18.27227914 23.0421475 26.625 31.73046875 C57.56565684 64.37470342 77.98861459 105.38800114 88 149 C88.27118652 150.13381104 88.27118652 150.13381104 88.54785156 151.29052734 C94.26598557 176.05584532 92.83241502 204.69228768 86 229 C85.74299316 229.91765137 85.48598633 230.83530273 85.22119141 231.78076172 C78.06144468 256.50364405 66.02099264 279.62881309 49 299 C48.36868164 299.72292236 47.73736328 300.44584473 47.08691406 301.19067383 C40.49256621 308.63055364 33.48948162 315.6244219 26.4375 322.625 C25.22567574 323.8317946 24.01408566 325.03882439 22.80273438 326.24609375 C19.87117529 329.16677407 16.93648979 332.08427747 14 335 C8.42114976 329.54332259 8.42114976 329.54332259 6.8125 325.75 C6.50957031 325.06421875 6.20664062 324.3784375 5.89453125 323.671875 C3.0717392 315.24047867 2.44803226 306.77253015 1.875 297.9375 C1.78863281 296.69033203 1.70226562 295.44316406 1.61328125 294.15820312 C1.40277269 291.10582901 1.19850261 288.05317439 1 285 C0.83564453 286.65322266 0.83564453 286.65322266 0.66796875 288.33984375 C-3.12770292 325.22672209 -3.12770292 325.22672209 -11 335 C-11.44085938 334.48695313 -11.88171875 333.97390625 -12.3359375 333.4453125 C-18.41310968 326.52990968 -24.87855041 320.05334869 -31.43896484 313.59814453 C-50.94375349 294.3128428 -66.57648764 271.92402697 -78 247 C-78.54398437 245.8140625 -79.08796875 244.628125 -79.6484375 243.40625 C-84.13487987 232.93029321 -86.73345907 222.14024113 -89 211 C-89.24878906 209.7934375 -89.49757813 208.586875 -89.75390625 207.34375 C-93.37066012 185.69381076 -91.3474738 163.35308338 -87 142 C-86.77570313 140.84250244 -86.77570313 140.84250244 -86.546875 139.66162109 C-76.93422903 90.67495417 -49.9348414 47.01581679 -11.625 15.375 C-6.75378141 11.18637255 -2.87036227 5.74072455 0 0 Z " fill="#34AF3C" transform="translate(511,203)"/>
<path d="M0 0 C2.39948481 2.99020296 4.7557156 6.00055344 7.0625 9.0625 C9.96432817 12.7996092 13.04477342 16.33515806 16.25 19.8125 C16.72155518 20.32433838 17.19311035 20.83617676 17.67895508 21.36352539 C19.97253873 23.84143216 22.28480855 26.29625175 24.625 28.73046875 C55.56565684 61.37470342 75.98861459 102.38800114 86 146 C86.18079102 146.75587402 86.36158203 147.51174805 86.54785156 148.29052734 C92.26598557 173.05584532 90.83241502 201.69228768 84 226 C83.74299316 226.91765137 83.48598633 227.83530273 83.22119141 228.78076172 C76.06144468 253.50364405 64.02099264 276.62881309 47 296 C46.36868164 296.72292236 45.73736328 297.44584473 45.08691406 298.19067383 C38.49256621 305.63055364 31.48948162 312.6244219 24.4375 319.625 C23.22567574 320.8317946 22.01408566 322.03882439 20.80273438 323.24609375 C17.87117529 326.16677407 14.93648979 329.08427747 12 332 C1.77175241 321.9957437 0.33008697 308.84329218 -0.09024441 295.03548872 C-0.12500205 291.81121547 -0.12858501 288.58841782 -0.12025452 285.3639679 C-0.12110894 284.13767062 -0.12196337 282.91137334 -0.12284368 281.64791554 C-0.12419735 278.27507734 -0.12110521 274.90229823 -0.11606562 271.52946723 C-0.11172167 267.88068311 -0.11321033 264.2319006 -0.1139679 260.58311462 C-0.11449064 254.2716002 -0.11136995 247.96009617 -0.10573006 241.64858437 C-0.09758119 232.52335098 -0.09499637 223.39812258 -0.09374207 214.27288594 C-0.09155686 199.46553114 -0.0849112 184.65818188 -0.07543945 169.85083008 C-0.06625158 155.47224963 -0.05917748 141.09367069 -0.05493164 126.71508789 C-0.05453756 125.3842358 -0.05453756 125.3842358 -0.05413551 124.02649782 C-0.05283041 119.57522157 -0.05156672 115.12394532 -0.05032361 110.67266905 C-0.03996754 73.78177547 -0.0223637 36.89088816 0 0 Z " fill="#2E8C3E" transform="translate(513,206)"/>
<path d="M0 0 C1.20313339 -0.01283524 2.40626678 -0.02567047 3.64585876 -0.03889465 C4.96227859 -0.04628159 6.27869843 -0.05366852 7.63500977 -0.0612793 C8.64251124 -0.06739259 8.64251124 -0.06739259 9.67036629 -0.07362938 C13.24427103 -0.09455315 16.81813699 -0.10881194 20.39208984 -0.11816406 C23.31808919 -0.12692984 26.24359891 -0.14756542 29.16943359 -0.1796875 C53.91283523 -0.44544813 78.29681292 -0.48879941 97.27563477 17.9309082 C110.145688 31.60980027 113.03408723 46.55013582 112.70141602 64.77075195 C112.13603624 78.37755866 106.04285737 90.05513529 96.83422852 99.9465332 C71.16558113 123.35994799 35.34107795 119.90614218 3.18115234 118.62133789 C2.29580811 118.57912109 1.41046387 118.5369043 0.49829102 118.4934082 C-0.27546875 118.45675049 -1.04922852 118.42009277 -1.84643555 118.38232422 C-3.61108398 118.17700195 -3.61108398 118.17700195 -4.61108398 117.17700195 C-4.65189181 115.17741832 -4.65362755 113.17654941 -4.61108398 111.17700195 C-4.00780273 110.98364258 -3.40452148 110.7902832 -2.78295898 110.59106445 C-1.58413086 110.20047852 -1.58413086 110.20047852 -0.36108398 109.80200195 C0.42782227 109.54676758 1.21672852 109.2915332 2.02954102 109.02856445 C6.51960442 107.58709248 6.51960442 107.58709248 9.38891602 104.17700195 C9.54827579 101.0981939 9.64847631 98.03941911 9.70532227 94.95825195 C9.726194 94.0084697 9.74706573 93.05868744 9.76856995 92.0801239 C9.83520231 88.94583685 9.8938746 85.8114683 9.95141602 82.67700195 C9.97226257 81.61220612 9.99310913 80.54741028 10.0145874 79.4503479 C10.31963303 63.75550056 10.4929009 48.06227369 10.51391602 32.36450195 C10.51650421 31.45764648 10.51909241 30.55079102 10.52175903 29.61645508 C10.52754822 27.06758552 10.52608407 24.5188408 10.52172852 21.9699707 C10.52370743 21.21906662 10.52568634 20.46816254 10.52772522 19.69450378 C10.51365488 16.58117265 10.38132866 14.15423989 9.38891602 11.17700195 C8.31770508 10.97204102 7.24649414 10.76708008 6.14282227 10.5559082 C4.7456475 10.28397486 3.3485142 10.01182844 1.95141602 9.73950195 C1.24436523 9.60479492 0.53731445 9.47008789 -0.19116211 9.33129883 C-5.49780273 8.2902832 -5.49780273 8.2902832 -6.61108398 7.17700195 C-6.73608398 4.17700195 -6.73608398 4.17700195 -6.61108398 1.17700195 C-4.85599629 -0.57808574 -2.38406265 0.02208501 0 0 Z " fill="#191E1F" transform="translate(673.611083984375,622.822998046875)"/>
<path d="M0 0 C1.26576874 -0.00960754 2.53153748 -0.01921509 3.83566284 -0.02911377 C5.23174866 -0.03396552 6.62783657 -0.03824342 8.02392578 -0.04199219 C9.45346071 -0.04774594 10.88299562 -0.05350364 12.31253052 -0.05926514 C15.32049926 -0.0697937 18.32844119 -0.07562208 21.33642578 -0.07910156 C25.16369662 -0.08454619 28.9906044 -0.10847833 32.81776237 -0.13707352 C35.77775034 -0.1558522 38.73765423 -0.16091383 41.69769669 -0.16243744 C43.10649697 -0.16543769 44.51529673 -0.17337581 45.92403793 -0.18662262 C57.74956295 -0.28974892 70.18587418 0.40814715 79.09423828 9.16113281 C84.44968655 16.62999146 86.5556071 24.05667576 85.09423828 33.16113281 C83.22067957 40.2145303 77.92129384 45.04731366 72.09423828 49.16113281 C69.81298828 49.88378906 69.81298828 49.88378906 68.09423828 50.16113281 C68.09423828 50.82113281 68.09423828 51.48113281 68.09423828 52.16113281 C68.75423828 52.24363281 69.41423828 52.32613281 70.09423828 52.41113281 C78.4529826 54.50081889 84.81363994 58.83917057 89.34423828 66.16113281 C94.17939686 74.33604009 94.1264213 83.60819108 92.66845703 92.86425781 C90.29308807 101.1999084 84.66885764 106.44109173 77.46923828 110.91113281 C68.27413156 115.97711614 57.89571937 119.28195024 47.35205078 119.29394531 C46.21727295 119.29587891 45.08249512 119.2978125 43.91333008 119.29980469 C42.69427979 119.29529297 41.47522949 119.29078125 40.21923828 119.28613281 C38.95958252 119.28419922 37.69992676 119.28226563 36.40209961 119.28027344 C21.95732863 119.2162838 7.52740056 118.7165385 -6.90576172 118.16113281 C-6.90576172 115.85113281 -6.90576172 113.54113281 -6.90576172 111.16113281 C-5.38982422 110.75894531 -5.38982422 110.75894531 -3.84326172 110.34863281 C-0.02074875 109.25092542 3.50628992 107.88334803 7.09423828 106.16113281 C8.84364545 102.66231847 8.47909095 98.59783535 8.63330078 94.73925781 C8.67452057 93.73509827 8.71574036 92.73093872 8.75820923 91.6963501 C9.27033305 77.98146178 9.39026226 64.26120395 9.44433594 50.53808594 C9.4578964 47.41735969 9.48621877 44.29725354 9.52636719 41.17675781 C9.57550194 37.35059814 9.60042103 33.52501652 9.60756302 29.69855499 C9.61426464 28.25518606 9.62945865 26.81182974 9.65345383 25.36864471 C9.6848974 23.37229643 9.68215597 21.37549725 9.67773438 19.37890625 C9.68582123 18.2469281 9.69390808 17.11494995 9.70223999 15.94866943 C9.36146425 12.96382935 9.36146425 12.96382935 6.72280884 11.30230713 C3.96061943 10.10312318 1.83907002 9.70649749 -1.15576172 9.53613281 C-5.82058822 9.24630631 -5.82058822 9.24630631 -6.90576172 8.16113281 C-7.03076172 4.66113281 -7.03076172 4.66113281 -6.90576172 1.16113281 C-5.11198439 -0.63264451 -2.42184081 0.01477357 0 0 Z " fill="#191E20" transform="translate(801.90576171875,622.8388671875)"/>
<path d="M0 0 C1.43352212 0.00015908 2.86704998 0.00585132 4.30053711 0.01586914 C5.43041298 0.01799156 5.43041298 0.01799156 6.58311462 0.02015686 C8.99807646 0.02577163 11.41294687 0.03832656 13.82788086 0.05102539 C15.46134307 0.05603849 17.09480672 0.06060173 18.72827148 0.06469727 C22.74067671 0.07574585 26.75301326 0.09302033 30.76538086 0.11352539 C37.3944406 12.94453766 43.30413283 26.0712021 49.16349792 39.26577759 C51.20154947 43.8536596 53.25473935 48.43453849 55.31616211 53.01196289 C55.89991387 54.30923961 56.48365423 55.60652145 57.06738281 56.90380859 C58.1650209 59.342974 59.26401234 61.7815143 60.36376953 64.21972656 C62.83335621 69.71616631 65.27261129 75.224723 67.64038086 80.76586914 C68.05030273 81.72356201 68.46022461 82.68125488 68.88256836 83.66796875 C69.76538086 86.11352539 69.76538086 86.11352539 69.76538086 89.11352539 C72.85834085 86.49800218 74.15898835 83.48903531 75.81225586 79.83227539 C76.10025558 79.19902344 76.38825531 78.56577148 76.6849823 77.91333008 C77.63564853 75.81656609 78.57575597 73.715258 79.51538086 71.61352539 C80.17995337 70.14011776 80.84475209 68.66681214 81.50976562 67.19360352 C86.99844894 54.99292234 92.29079137 42.70809036 97.48901367 30.38110352 C100.57893253 23.0730548 103.77430635 15.82864457 107.14428711 8.64477539 C107.49015366 7.90602173 107.8360202 7.16726807 108.19236755 6.40612793 C110.63820016 1.24070609 110.63820016 1.24070609 111.76538086 0.11352539 C114.20198531 0.01269775 116.60962787 -0.02620064 119.04663086 -0.01928711 C119.77531372 -0.02024384 120.50399658 -0.02120056 121.25476074 -0.02218628 C122.79817796 -0.02286796 124.34159803 -0.02101449 125.88500977 -0.0168457 C128.25535486 -0.01149723 130.62551045 -0.01679103 132.99584961 -0.02319336 C134.49194378 -0.02253258 135.98803783 -0.02125141 137.48413086 -0.01928711 C138.55443542 -0.02232346 138.55443542 -0.02232346 139.6463623 -0.02542114 C144.65042895 -0.00142652 144.65042895 -0.00142652 145.76538086 1.11352539 C145.95288086 3.55102539 145.95288086 3.55102539 145.76538086 6.11352539 C143.46528156 8.41362469 142.45161417 8.5390457 139.32788086 9.11352539 C136.05132452 9.71809592 134.63492436 10.20049639 131.76538086 12.11352539 C131.33135063 14.20016605 131.33135063 14.20016605 131.43725586 16.66040039 C131.44168701 17.63146729 131.44611816 18.60253418 131.45068359 19.60302734 C131.47203369 20.6789917 131.49338379 21.75495605 131.51538086 22.86352539 C131.53290405 24.55771606 131.53290405 24.55771606 131.55078125 26.28613281 C131.60091888 30.22915532 131.67978157 34.17115924 131.76538086 38.11352539 C131.78082947 38.86241028 131.79627808 39.61129517 131.81219482 40.38287354 C132.05813012 52.29538361 132.38294715 64.20465229 132.76538086 76.11352539 C132.82145508 77.89629883 132.82145508 77.89629883 132.87866211 79.71508789 C132.97499506 82.61934796 133.08439006 85.52259592 133.20288086 88.42602539 C133.22987061 89.2056665 133.25686035 89.98530762 133.28466797 90.78857422 C133.55103958 100.1173136 133.55103958 100.1173136 137.56616211 108.13696289 C140.11720948 109.26975479 142.16939235 109.58228822 144.95288086 109.73852539 C149.68113749 110.02928202 149.68113749 110.02928202 150.76538086 111.11352539 C150.76538086 113.42352539 150.76538086 115.73352539 150.76538086 118.11352539 C133.60538086 118.11352539 116.44538086 118.11352539 98.76538086 118.11352539 C98.76538086 115.80352539 98.76538086 113.49352539 98.76538086 111.11352539 C99.52463867 110.94336914 100.28389648 110.77321289 101.06616211 110.59790039 C102.0600293 110.35555664 103.05389648 110.11321289 104.07788086 109.86352539 C105.06401367 109.63149414 106.05014648 109.39946289 107.06616211 109.16040039 C110.3685905 107.87957433 111.09709568 107.23466792 112.76538086 104.11352539 C113.19523604 100.94207557 113.13706731 97.79747725 113.09350586 94.60180664 C113.09199524 93.65235168 113.09048462 92.70289673 113.08892822 91.72467041 C113.07954834 88.62484023 113.0480086 85.52569096 113.01538086 82.42602539 C113.00346985 80.30029753 112.99240631 78.17456475 112.98217773 76.04882812 C112.87541278 58.72843919 112.46111761 41.4199771 111.76538086 24.11352539 C111.34409912 25.07669678 111.34409912 25.07669678 110.91430664 26.05932617 C105.92035063 37.4674261 100.90418454 48.8607443 95.70288086 60.17602539 C92.21395727 67.77487615 88.94017144 75.44103601 85.76538086 83.17602539 C82.46890679 91.15873999 79.07798376 99.08639965 75.45288086 106.92602539 C75.05649414 107.8097583 74.66010742 108.69349121 74.25170898 109.60400391 C72.13448436 114.0977687 70.64511023 117.22690898 65.76538086 119.11352539 C64.77538086 119.11352539 63.78538086 119.11352539 62.76538086 119.11352539 C62.50023682 118.4830127 62.23509277 117.8525 61.96191406 117.20288086 C52.14672689 93.88318408 42.20745798 70.61884549 31.77709961 47.56665039 C29.73341533 43.04892813 27.70747619 38.52373007 25.70288086 33.98852539 C25.40333496 33.31837402 25.10378906 32.64822266 24.79516602 31.95776367 C22.76538086 27.34483671 22.76538086 27.34483671 22.76538086 25.11352539 C22.10538086 25.11352539 21.44538086 25.11352539 20.76538086 25.11352539 C20.78109131 26.2847998 20.78109131 26.2847998 20.79711914 27.47973633 C21.01040401 46.1030154 20.52716198 64.57033513 19.3364563 83.15689087 C19.12861366 86.47491793 18.94512653 89.79384752 18.76538086 93.11352539 C18.69834961 94.21615723 18.63131836 95.31878906 18.56225586 96.45483398 C18.29973553 101.8481482 18.29973553 101.8481482 20.34350586 106.69165039 C23.36582756 108.46604571 26.08091801 109.17663282 29.51538086 109.86352539 C30.68584961 110.10586914 31.85631836 110.34821289 33.06225586 110.59790039 C33.95428711 110.76805664 34.84631836 110.93821289 35.76538086 111.11352539 C35.76538086 113.75352539 35.76538086 116.39352539 35.76538086 119.11352539 C24.94069844 119.18483815 14.1459121 118.97017694 3.32788086 118.61352539 C1.80640336 118.56513172 0.28491898 118.51695366 -1.23657227 118.46899414 C-4.90267007 118.35297661 -8.56866766 118.23408848 -12.23461914 118.11352539 C-12.23461914 115.80352539 -12.23461914 113.49352539 -12.23461914 111.11352539 C-11.26524414 110.86602539 -10.29586914 110.61852539 -9.29711914 110.36352539 C-6.26434668 109.48464031 -3.34297503 108.43900662 -0.42211914 107.23852539 C0.32682617 106.93172852 1.07577148 106.62493164 1.84741211 106.30883789 C4.28796752 104.78784002 4.70405261 103.78869932 5.76538086 101.11352539 C6.17521896 98.72173586 6.49677719 96.31432512 6.76538086 93.90258789 C6.84604797 93.19053696 6.92671509 92.47848602 7.00982666 91.74485779 C7.27078464 89.41031157 7.51904428 87.0746569 7.76538086 84.73852539 C7.8518689 83.93752411 7.93835693 83.13652283 8.02746582 82.31124878 C10.15106463 62.59390361 11.79879853 42.82644192 12.14038086 22.98852539 C12.16648437 22.13524658 12.19258789 21.28196777 12.21948242 20.40283203 C12.22959549 16.91201877 12.09590498 14.60852085 10.13256836 11.66821289 C7.2901088 9.80138302 4.83396706 9.08495717 1.51538086 8.36352539 C0.43772461 8.12118164 -0.63993164 7.87883789 -1.75024414 7.62915039 C-2.57008789 7.45899414 -3.38993164 7.28883789 -4.23461914 7.11352539 C-4.2771627 5.11397793 -4.27542697 3.11310903 -4.23461914 1.11352539 C-3.23461914 0.11352539 -3.23461914 0.11352539 0 0 Z " fill="#191D1F" transform="translate(109.234619140625,622.886474609375)"/>
<path d="M0 0 C8.99402296 3.81484332 19.7818137 1.04133865 28.65234375 -1.875 C28.65234375 1.755 28.65234375 5.385 28.65234375 9.125 C26.54982514 9.79684618 24.44526612 10.46230968 22.33984375 11.125 C21.16808594 11.49625 19.99632812 11.8675 18.7890625 12.25 C15.65234375 13.125 15.65234375 13.125 12.65234375 13.125 C13.14734375 14.115 13.14734375 14.115 13.65234375 15.125 C13.83112472 18.01480391 13.93014281 20.85825538 13.96484375 23.75 C14.00834961 24.92369141 14.00834961 24.92369141 14.05273438 26.12109375 C14.12829508 33.13080203 12.0729828 37.93800143 7.86328125 43.48046875 C-0.13142697 51.45816695 -7.72041927 54.53289451 -18.81445312 55.49365234 C-23.87715998 55.91406925 -23.87715998 55.91406925 -28.34765625 58.125 C-29.15936853 60.68019921 -29.15936853 60.68019921 -29.34765625 63.125 C-23.55221713 65.68181137 -17.97788511 66.2039123 -11.72387695 66.41479492 C13.14545728 67.28369047 13.14545728 67.28369047 21.65234375 76.125 C25.73829773 80.76971691 26.2297654 85.3574197 25.96484375 91.42578125 C24.91616124 100.4837764 19.96762928 107.45072931 13.1015625 113.296875 C-0.84245632 123.78940401 -14.07143627 127.67823109 -31.34765625 126.125 C-40.8580814 124.26305275 -47.72434661 119.08774657 -53.34765625 111.3125 C-55.99146021 106.69704563 -56.24870732 102.3126047 -55.34765625 97.125 C-52.06663126 89.51898751 -43.34496417 85.04396602 -36.34765625 81.125 C-35.68765625 81.125 -35.02765625 81.125 -34.34765625 81.125 C-34.34765625 80.465 -34.34765625 79.805 -34.34765625 79.125 C-35.39953125 78.898125 -36.45140625 78.67125 -37.53515625 78.4375 C-41.55211631 77.26996892 -43.80366032 75.51699457 -46.34765625 72.125 C-47.09765625 69.3125 -47.09765625 69.3125 -46.34765625 66.125 C-44.27494858 63.19203204 -41.87551032 60.66852259 -39.34765625 58.125 C-38.826875 57.59003906 -38.30609375 57.05507813 -37.76953125 56.50390625 C-36.64415849 55.36236434 -35.49844448 54.24091586 -34.34765625 53.125 C-35.33765625 52.8465625 -35.33765625 52.8465625 -36.34765625 52.5625 C-43.31927691 49.22193177 -48.08258341 44.04695442 -51.34765625 37.125 C-53.60125473 29.59283865 -52.65596035 22.1818768 -49.34765625 15.125 C-44.18027372 5.96696562 -35.28210021 0.00768004 -25.40234375 -3.2109375 C-15.96867767 -5.26173447 -8.28922919 -4.85492292 0 0 Z " fill="#191D1F" transform="translate(530.34765625,663.875)"/>
<path d="M0 0 C1.21612221 1.02961608 2.40566562 2.09169129 3.5625 3.1875 C4.10390625 3.68894531 4.6453125 4.19039062 5.203125 4.70703125 C13.16405384 12.96951043 15.88029489 24.31821734 15.77734375 35.4140625 C15.09173026 47.45592845 10.8554471 57.91473659 2.0703125 66.265625 C-9.70316493 75.28828995 -22.8531075 78.34155678 -37.4375 77.1875 C-41.12279967 76.33741777 -44.16346507 75.0642976 -47.4375 73.1875 C-48.11941406 72.80980469 -48.80132812 72.43210937 -49.50390625 72.04296875 C-57.70487363 66.73079614 -64.81955539 56.40259509 -67.0703125 46.90625 C-68.9598898 32.91533724 -67.01647474 20.86867322 -58.40625 9.50390625 C-44.20916917 -7.20019878 -18.88934085 -13.42042693 0 0 Z " fill="#191D1E" transform="translate(337.4375,666.8125)"/>
<path d="M0 0 C7.98864926 5.73832552 14.52013134 14.35229787 16.25 24.25 C17.0592158 38.06891604 16.00151641 50.89409359 7.25 62.25 C-0.61990009 70.9789925 -11.93628979 76.92555013 -23.80078125 77.5859375 C-35.98889679 77.84646413 -44.57224744 76.19779704 -53.7109375 67.52734375 C-57.05278582 63.79497292 -59.52333935 59.72356366 -61.75 55.25 C-62.29011719 54.21617187 -62.83023438 53.18234375 -63.38671875 52.1171875 C-65.38290821 47.34887041 -65.22572349 42.535124 -65.1875 37.4375 C-65.20748047 36.50357422 -65.22746094 35.56964844 -65.24804688 34.60742188 C-65.23960675 22.44520374 -60.09539308 13.93148382 -51.90625 5.30859375 C-38.06642008 -7.82222849 -16.17292324 -10.03096731 0 0 Z " fill="#181C1E" transform="translate(635.75,666.75)"/>
<path d="M0 0 C13.02605462 2.93286851 23.34933433 7.6605837 31.5625 18.69921875 C40.59222158 33.17869654 43.15642452 49.14927983 40.05078125 65.9375 C39.13510992 68.84789102 38.07130838 71.50147406 36.734375 74.2421875 C36.321875 75.1084375 35.909375 75.9746875 35.484375 76.8671875 C29.56296361 87.90254509 20.55498026 94.51557728 8.734375 98.2421875 C5.234375 99.0546875 5.234375 99.0546875 1.734375 99.2421875 C0.81914063 99.29246094 -0.09609375 99.34273437 -1.0390625 99.39453125 C-7.90482753 99.61070773 -15.30957474 99.52234606 -20.8568058 94.92286015 C-23.32195642 91.9820206 -22.68014465 88.15844413 -22.65380859 84.48803711 C-22.65906555 83.59348312 -22.66432251 82.69892914 -22.66973877 81.77726746 C-22.6829582 78.81617854 -22.67419453 75.85562577 -22.6640625 72.89453125 C-22.6660825 70.84094642 -22.66899331 68.78736228 -22.67276001 66.73377991 C-22.67718585 62.42881443 -22.67074321 58.1240356 -22.65673828 53.8190918 C-22.63963558 48.29155872 -22.64949292 42.76446225 -22.66745567 37.23694515 C-22.67827728 32.99655342 -22.67485482 28.75626585 -22.6670723 24.51587105 C-22.66506635 22.47723909 -22.66754332 20.43859777 -22.67451096 18.39997673 C-22.68209993 15.55537601 -22.67055774 12.71149057 -22.65380859 9.86694336 C-22.66291763 8.59439697 -22.66291763 8.59439697 -22.67221069 7.29614258 C-22.64657593 4.95518494 -22.64657593 4.95518494 -22.265625 1.2421875 C-16.22132343 -2.78734688 -6.95696739 -1.37670016 0 0 Z " fill="#E9EAF0" transform="translate(725.265625,632.7578125)"/>
<path d="M0 0 C0.33 2.97 0.66 5.94 1 9 C2.01320313 8.51789062 3.02640625 8.03578125 4.0703125 7.5390625 C5.42179122 6.90086422 6.77335844 6.26285332 8.125 5.625 C8.79015625 5.30789063 9.4553125 4.99078125 10.140625 4.6640625 C18.52913108 0.71653023 26.17433629 -1.70912023 35.46484375 0.6171875 C41.34337262 2.88820891 45.73081336 6.60499511 49 12 C51.94361202 18.7665173 52.42839146 25.00039987 52.40625 32.30859375 C52.41708618 33.35652603 52.42792236 34.40445831 52.43908691 35.48414612 C52.48475089 39.93461905 52.49652175 44.38502769 52.51123047 48.83569336 C52.52684839 52.09770842 52.5598036 55.35922653 52.59375 58.62109375 C52.59072876 59.6324791 52.58770752 60.64386444 52.58459473 61.68589783 C52.59470581 62.61769363 52.60481689 63.54948944 52.61523438 64.50952148 C52.61728882 65.33064926 52.61934326 66.15177704 52.62145996 66.99778748 C52.74637817 67.65851761 52.87129639 68.31924774 53 69 C56.45058686 71.30039124 58.94095502 71.4738275 63 72 C64 73 64 73 64.0625 76.5625 C64.041875 77.696875 64.02125 78.83125 64 80 C58.17944212 80.16721165 52.35875454 80.32781152 46.5378418 80.48217773 C44.55602051 80.53567894 42.57424788 80.5910143 40.5925293 80.64819336 C37.75059507 80.72987855 34.90855338 80.80505172 32.06640625 80.87890625 C31.17474258 80.90594131 30.28307892 80.93297638 29.36439514 80.96083069 C27.24352554 81.01275915 25.12147191 81.01188911 23 81 C22 80 22 80 21.9375 76.4375 C21.958125 75.303125 21.97875 74.16875 22 73 C22.62648438 72.87882813 23.25296875 72.75765625 23.8984375 72.6328125 C24.71570313 72.46523438 25.53296875 72.29765625 26.375 72.125 C27.18710937 71.96257812 27.99921875 71.80015625 28.8359375 71.6328125 C31.18673923 71.13341068 31.18673923 71.13341068 33 69 C33.89826387 66.27081582 34.13316045 63.75430985 34.16113281 60.89331055 C34.17074036 60.09535568 34.1803479 59.29740082 34.19024658 58.4752655 C34.19449646 57.62104507 34.19874634 56.76682465 34.203125 55.88671875 C34.20882507 54.99894241 34.21452515 54.11116608 34.22039795 53.19648743 C34.229833 51.31956163 34.23637599 49.44261938 34.24023438 47.56567383 C34.24992977 44.70819887 34.28096295 41.8514466 34.3125 38.99414062 C34.31903172 37.16667092 34.32428153 35.33919609 34.328125 33.51171875 C34.3466452 32.23949715 34.3466452 32.23949715 34.36553955 30.9415741 C34.34544997 25.53670243 33.5447233 21.79400778 31 17 C26.96005503 13.21255159 22.89535347 12.65361297 17.55078125 12.71484375 C12.37810482 13.2931062 7.15346569 15.03167389 3.2734375 18.578125 C0.16708971 24.485903 0.84959737 32.31972036 0.8671875 38.8671875 C0.86623077 39.66859161 0.86527405 40.46999573 0.86428833 41.29568481 C0.8636137 42.97121256 0.86541742 44.64674304 0.86962891 46.32226562 C0.87503026 48.88938178 0.86963791 51.45632638 0.86328125 54.0234375 C0.86394133 55.65885455 0.86522103 57.2942715 0.8671875 58.9296875 C0.86516327 59.69529999 0.86313904 60.46091248 0.86105347 61.24972534 C0.8751547 64.43259374 0.98599274 66.95797821 2 70 C4.56042066 71.03038956 4.56042066 71.03038956 7.5625 71.6875 C8.57441406 71.93886719 9.58632813 72.19023438 10.62890625 72.44921875 C11.41136719 72.63097656 12.19382812 72.81273437 13 73 C13 75.31 13 77.62 13 80 C6.89460368 80.16720361 0.78908383 80.32780433 -5.31665039 80.48217773 C-7.39547448 80.53568107 -9.47425222 80.59101658 -11.55297852 80.64819336 C-14.53391523 80.72987259 -17.51495431 80.80504838 -20.49609375 80.87890625 C-21.43150497 80.90594131 -22.3669162 80.93297638 -23.33067322 80.96083069 C-24.19149002 80.98092697 -25.05230682 81.00102325 -25.93920898 81.02172852 C-26.70087875 81.04171402 -27.46254852 81.06169952 -28.24729919 81.08229065 C-30 81 -30 81 -31 80 C-31.125 76.5 -31.125 76.5 -31 73 C-29.11692557 71.11692557 -25.78608313 71.63496931 -23.2265625 71.4765625 C-20.55185081 70.90408035 -19.65656519 70.14438806 -18 68 C-16.69221899 64.07665696 -16.8374864 60.32843234 -16.83203125 56.23828125 C-16.82870285 55.37365768 -16.82537445 54.50903412 -16.82194519 53.61820984 C-16.81688147 51.78657564 -16.81453669 49.95493221 -16.81469727 48.12329102 C-16.81252189 45.34049942 -16.7943912 42.5581115 -16.77539062 39.77539062 C-16.77245425 37.99218885 -16.77047109 36.2089852 -16.76953125 34.42578125 C-16.75875298 33.18940666 -16.75875298 33.18940666 -16.74775696 31.92805481 C-16.76837224 26.6309384 -17.52838884 22.09286091 -19 17 C-22.96 16.01 -26.92 15.02 -31 14 C-31 12.02 -31 10.04 -31 8 C-24.76897331 5.84137422 -18.50466276 3.97785361 -12.125 2.3125 C-11.28453125 2.08755859 -10.4440625 1.86261719 -9.578125 1.63085938 C-8.36769531 1.3127832 -8.36769531 1.3127832 -7.1328125 0.98828125 C-6.04830811 0.70271362 -6.04830811 0.70271362 -4.94189453 0.41137695 C-3 0 -3 0 0 0 Z " fill="#191D1F" transform="translate(400,661)"/>
<path d="M0 0 C8.99402296 3.81484332 19.7818137 1.04133865 28.65234375 -1.875 C28.65234375 1.755 28.65234375 5.385 28.65234375 9.125 C26.54982514 9.79684618 24.44526612 10.46230968 22.33984375 11.125 C21.16808594 11.49625 19.99632812 11.8675 18.7890625 12.25 C15.65234375 13.125 15.65234375 13.125 12.65234375 13.125 C13.14734375 14.115 13.14734375 14.115 13.65234375 15.125 C13.83112472 18.01480391 13.93014281 20.85825538 13.96484375 23.75 C14.00834961 24.92369141 14.00834961 24.92369141 14.05273438 26.12109375 C14.12829508 33.13080203 12.0729828 37.93800143 7.86328125 43.48046875 C-0.13142697 51.45816695 -7.72041927 54.53289451 -18.81445312 55.49365234 C-23.87715998 55.91406925 -23.87715998 55.91406925 -28.34765625 58.125 C-29.15936853 60.68019921 -29.15936853 60.68019921 -29.34765625 63.125 C-22.73772531 66.041146 -16.20387341 66.28670074 -9.09765625 66.5625 C5.54583954 67.23781366 5.54583954 67.23781366 10.65234375 69.125 C10.98234375 69.785 11.31234375 70.445 11.65234375 71.125 C10.55019531 70.99222656 9.44804688 70.85945312 8.3125 70.72265625 C6.78006926 70.54323145 5.24750635 70.36493337 3.71484375 70.1875 C2.90740723 70.0932373 2.0999707 69.99897461 1.26806641 69.90185547 C-3.58927283 69.35858177 -8.40729018 69.00434509 -13.29101562 68.83007812 C-21.17758364 68.54059801 -27.4804265 67.99222975 -33.34765625 62.125 C-32.97265625 60 -32.97265625 60 -32.34765625 58.125 C-37.79652201 59.39217808 -40.32662216 61.41574098 -43.34765625 66.125 C-43.76670328 69.87702267 -43.76670328 69.87702267 -43.34765625 73.125 C-44.33765625 73.62 -44.33765625 73.62 -45.34765625 74.125 C-46.85655094 71.10721063 -46.84791901 69.50177363 -46.34765625 66.125 C-44.29890591 63.17595374 -41.87455963 60.66756601 -39.34765625 58.125 C-38.826875 57.59003906 -38.30609375 57.05507813 -37.76953125 56.50390625 C-36.64415849 55.36236434 -35.49844448 54.24091586 -34.34765625 53.125 C-35.33765625 52.8465625 -35.33765625 52.8465625 -36.34765625 52.5625 C-43.31927691 49.22193177 -48.08258341 44.04695442 -51.34765625 37.125 C-53.60125473 29.59283865 -52.65596035 22.1818768 -49.34765625 15.125 C-44.18027372 5.96696562 -35.28210021 0.00768004 -25.40234375 -3.2109375 C-15.96867767 -5.26173447 -8.28922919 -4.85492292 0 0 Z " fill="#171B1D" transform="translate(530.34765625,663.875)"/>
<path d="M0 0 C8.40502254 4.43879704 12.11736506 11.24251411 14.91796875 20.10546875 C18.19229316 32.71542509 18.38602411 44.75843247 12.1328125 56.40234375 C8.62975588 60.60601169 4.50280193 63.59932234 -1.03515625 64.265625 C-7.96806145 64.49876694 -12.74627002 62.95765638 -17.96875 58.33203125 C-27.2704348 48.5553668 -29.62281795 34.88554367 -29.30078125 21.7578125 C-28.55381387 13.47003154 -26.501845 6.56023442 -20.0546875 1.02734375 C-13.61348277 -3.31346813 -6.90883231 -2.93964041 0 0 Z " fill="#E8E9EF" transform="translate(318.0546875,670.97265625)"/>
<path d="M0 0 C9.14759246 5.17788252 13.38001534 11.50119093 16.42578125 21.546875 C18.79885276 31.57854901 19.34671157 45.64476765 14.65625 54.9921875 C11.64074906 59.21739522 8.24720327 62.23009891 3.3125 63.875 C-3.47324805 64.6536924 -8.85919661 64.19365118 -14.68359375 60.484375 C-22.27025907 54.39138063 -25.02694681 46.16735451 -26.6875 36.875 C-26.94886726 33.10662491 -26.96416954 29.33903073 -27 25.5625 C-27.04350586 24.05139648 -27.04350586 24.05139648 -27.08789062 22.50976562 C-27.15186532 14.95583059 -25.95808633 9.5112848 -20.8359375 3.81640625 C-20.25070312 3.36136719 -19.66546875 2.90632812 -19.0625 2.4375 C-18.47210937 1.96441406 -17.88171875 1.49132812 -17.2734375 1.00390625 C-12.18780807 -2.61616002 -5.71096082 -1.74232703 0 0 Z " fill="#E9EAF0" transform="translate(616.6875,671.125)"/>
<path d="M0 0 C10.63288101 0.01318281 20.56658722 0.46651365 29.06640625 7.5703125 C34.64107287 13.3464731 36.01293909 19.75268597 35.8984375 27.52734375 C35.28266599 35.4753575 32.76164457 41.9572381 26.6875 47.25 C19.54604722 51.62231803 11.88240562 51.97688713 3.6875 51.25 C-0.87732256 50.14735826 -5.40635619 48.99258789 -8.93432617 45.76733398 C-11.07178908 41.86310368 -10.70103553 38.08568566 -10.640625 33.70703125 C-10.63875183 32.78282883 -10.63687866 31.8586264 -10.63494873 30.90641785 C-10.62823587 28.95718771 -10.6143366 27.00797087 -10.59375 25.05883789 C-10.56250717 22.06318761 -10.55276982 19.06806291 -10.546875 16.07226562 C-10.53770854 14.17968103 -10.5273339 12.28710182 -10.515625 10.39453125 C-10.51137512 9.49354202 -10.50712524 8.5925528 -10.50274658 7.66426086 C-10.39901516 -1.2743109 -8.01613462 0.0244482 0 0 Z " fill="#E9EAF0" transform="translate(840.3125,681.75)"/>
<path d="M0 0 C0.78246094 -0.020625 1.56492187 -0.04125 2.37109375 -0.0625 C8.69869834 -0.10447416 14.34380134 0.8332335 19.3984375 4.86328125 C24.98947939 11.89248132 26.35260033 18.31547545 25.375 27.25 C24.12218534 32.18623981 22.42652304 36.01164096 18 38.75 C11.42191494 41.47196623 5.07309427 41.40515309 -1.9375 41.375 C-2.85595703 41.37886719 -3.77441406 41.38273438 -4.72070312 41.38671875 C-5.59275391 41.38542969 -6.46480469 41.38414062 -7.36328125 41.3828125 C-8.15774658 41.38168457 -8.95221191 41.38055664 -9.77075195 41.37939453 C-11.625 41.25 -11.625 41.25 -12.625 40.25 C-12.73838371 37.70315422 -12.78917775 35.18446261 -12.79296875 32.63671875 C-12.79629715 31.87075882 -12.79962555 31.10479889 -12.80305481 30.31562805 C-12.80812831 28.69064943 -12.81046301 27.06566036 -12.81030273 25.44067383 C-12.81248172 22.95831982 -12.83061174 20.47641546 -12.84960938 17.99414062 C-12.85254474 16.41666819 -12.85452858 14.83919364 -12.85546875 13.26171875 C-12.86265427 12.51991867 -12.86983978 11.77811859 -12.87724304 11.01383972 C-12.86084559 7.29800599 -12.82338368 4.34146195 -10.625 1.25 C-7.30804452 -0.40847774 -3.64296629 0.02331498 0 0 Z " fill="#E9EBF0" transform="translate(842.625,631.75)"/>
<path d="M0 0 C3.75223864 1.27684525 6.68680585 2.81592624 9.4375 5.75 C11.01865989 10.49347966 11.40501995 15.14477556 9.63671875 19.90625 C6.0823101 26.25777061 0.29947774 30.46267409 -6.5625 32.75 C-15.7801576 33.67839717 -23.55516553 32.56878512 -31.5625 27.75 C-36.44960483 23.40383425 -38.7387132 19.61293785 -39.125 13.0625 C-39.1205582 9.36692433 -39.06771182 7.43128792 -36.84765625 4.4375 C-27.21121763 -3.92685902 -11.9899583 -3.03877731 0 0 Z " fill="#E9EAF0" transform="translate(531.5625,747.25)"/>
<path d="M0 0 C6.00379669 2.15230447 8.51893551 5.56682262 11.75 10.875 C14.28495524 17.23339601 14.32609509 25.96971101 12.203125 32.421875 C11.1875 34.25 11.1875 34.25 9 37 C8.54625 37.598125 8.0925 38.19625 7.625 38.8125 C3.24479648 42.01341796 -1.73443962 42.63549867 -7 42 C-13.14123252 39.41906926 -16.31557487 36.01311228 -19 30 C-20.92358154 22.16270494 -21.37976654 13.7503744 -17.21484375 6.62109375 C-12.47372056 0.29451457 -7.42192062 -0.68837375 0 0 Z " fill="#E8EAEF" transform="translate(515,669)"/>
<path d="M0 0 C0.33 0 0.66 0 1 0 C1.04487549 0.9065332 1.08975098 1.81306641 1.13598633 2.74707031 C1.31112437 6.16956867 1.49698224 9.59115829 1.68969727 13.01269531 C1.77037424 14.48252394 1.84699755 15.95258175 1.91918945 17.42285156 C2.63747667 31.94711449 4.84196108 43.76294162 13 56 C12.42578125 57.77734375 12.42578125 57.77734375 11.3125 59.9375 C6.04553797 72.09065901 5.62823677 86.91534445 5 100 C2.12369794 99.68904843 0.47441894 99.49121775 -1.57202148 97.37231445 C-3.37562708 94.37596711 -3.89202555 91.72989455 -4.53515625 88.29296875 C-4.65934433 87.64934891 -4.78353241 87.00572906 -4.91148376 86.34260559 C-5.30526298 84.29267337 -5.68453089 82.24040052 -6.0625 80.1875 C-6.44664408 78.14590356 -6.83387999 76.10494869 -7.22422791 74.06452942 C-7.57852856 72.20581544 -7.9243941 70.34549941 -8.26977539 68.48510742 C-8.96645232 64.93367922 -8.96645232 64.93367922 -10.09545898 61.2590332 C-11.62508203 55.74784884 -10.26267242 51.58031861 -8.1875 46.4375 C-2.68502769 31.87095513 -1.44581791 15.40937508 0 0 Z " fill="#BFC38C" transform="translate(512,483)"/>
<path d="M0 0 C2.38154369 2.96708853 4.73523759 5.94257075 7 9 C6.67 9.66 6.34 10.32 6 11 C4.68 9.35 3.36 7.7 2 6 C1.95423104 40.80384445 1.9189851 75.60768204 1.89786934 110.41155008 C1.8953679 114.51964672 1.89277926 118.6277433 1.89013672 122.73583984 C1.8896121 123.55369443 1.88908748 124.37154901 1.88854696 125.21418707 C1.87984227 138.4600556 1.86407194 151.70590678 1.84569441 164.95176502 C1.82699715 178.54132203 1.81588364 192.13086996 1.81182301 205.72043931 C1.80907759 214.10719825 1.80040361 222.49390815 1.78416707 230.880652 C1.77360234 236.6302783 1.77039822 242.37987922 1.77299725 248.12951453 C1.77427934 251.44768282 1.77121146 254.7657472 1.76158905 258.08390427 C1.75166613 261.68146279 1.75402158 265.27881007 1.75949097 268.87637329 C1.75366528 269.92501608 1.7478396 270.97365886 1.74183738 272.0540787 C1.7627917 277.139384 2.06324861 281.21878835 4 286 C4.23046875 288.59765625 4.23046875 288.59765625 4.1875 291.0625 C4.18105469 291.87847656 4.17460938 292.69445312 4.16796875 293.53515625 C4 296 4 296 3.4921875 298.4453125 C2.94375493 301.29193872 2.90260578 303.91627944 2.9375 306.8125 C2.94652344 307.78832031 2.95554687 308.76414062 2.96484375 309.76953125 C2.97644531 310.50558594 2.98804688 311.24164062 3 312 C-1.75384638 304.86923043 -0.14173276 293.67746065 -0.12025452 285.3639679 C-0.12110894 284.13767062 -0.12196337 282.91137334 -0.12284368 281.64791554 C-0.12419735 278.27507734 -0.12110521 274.90229823 -0.11606562 271.52946723 C-0.11172167 267.88068311 -0.11321033 264.2319006 -0.1139679 260.58311462 C-0.11449064 254.2716002 -0.11136995 247.96009617 -0.10573006 241.64858437 C-0.09758119 232.52335098 -0.09499637 223.39812258 -0.09374207 214.27288594 C-0.09155686 199.46553114 -0.0849112 184.65818188 -0.07543945 169.85083008 C-0.06625158 155.47224963 -0.05917748 141.09367069 -0.05493164 126.71508789 C-0.05453756 125.3842358 -0.05453756 125.3842358 -0.05413551 124.02649782 C-0.05283041 119.57522157 -0.05156672 115.12394532 -0.05032361 110.67266905 C-0.03996754 73.78177547 -0.0223637 36.89088816 0 0 Z " fill="#128029" transform="translate(513,206)"/>
<path d="M0 0 C0 0.99 0 1.98 0 3 C-0.33 3.33 -0.66 3.66 -1 4 C-1.10095949 5.48029469 -1.1308253 6.96548655 -1.1328125 8.44921875 C-1.13482666 9.4235083 -1.13684082 10.39779785 -1.13891602 11.40161133 C-1.13202759 13.02812622 -1.13202759 13.02812622 -1.125 14.6875 C-1.12234131 15.82147217 -1.11968262 16.95544434 -1.11694336 18.1237793 C-1.02980331 34.75429304 -0.53376353 51.37876077 0 68 C0.05607422 69.78277344 0.05607422 69.78277344 0.11328125 71.6015625 C0.2096142 74.50582257 0.3190092 77.40907052 0.4375 80.3125 C0.46448975 81.09214111 0.49147949 81.87178223 0.51928711 82.67504883 C0.78565872 92.00378821 0.78565872 92.00378821 4.80078125 100.0234375 C7.35182862 101.1562294 9.40401149 101.46876283 12.1875 101.625 C16.91575663 101.91575663 16.91575663 101.91575663 18 103 C18 105.31 18 107.62 18 110 C0.84 110 -16.32 110 -34 110 C-34 107.69 -34 105.38 -34 103 C-29.545 102.505 -29.545 102.505 -25 102 C-28.22791555 104.1519437 -29.28400809 104.20086443 -33 104 C-33 105.65 -33 107.3 -33 109 C-16.5 109 0 109 17 109 C17 107.35 17 105.7 17 104 C15.845 104.0825 14.69 104.165 13.5 104.25 C8.83208214 104.23338819 4.56159673 103.12684783 1 100 C-0.82780706 95.49679212 -1.34668751 91.41987939 -1.59765625 86.5859375 C-1.63657486 85.87060852 -1.67549347 85.15527954 -1.71559143 84.41827393 C-1.84025942 82.0708822 -1.95193507 79.72309521 -2.0625 77.375 C-2.14547114 75.72964488 -2.22864484 74.08429996 -2.31201172 72.43896484 C-2.88421507 60.83880411 -3.30123364 49.23457936 -3.625 37.625 C-3.6455545 36.89303406 -3.66610901 36.16106812 -3.68728638 35.40692139 C-3.78200226 31.93713846 -3.86523133 28.46760682 -3.92675781 24.99707031 C-3.97681296 22.26539392 -4.04390859 19.53806459 -4.12792969 16.80761719 C-4.15642834 15.46290795 -4.18412929 14.1181815 -4.2109375 12.7734375 C-4.25806885 10.99718994 -4.25806885 10.99718994 -4.30615234 9.18505859 C-3.93863094 5.3615464 -2.73242446 2.73242446 0 0 Z " fill="#040505" transform="translate(242,631)"/>
<path d="M0 0 C1.485 0.99 1.485 0.99 3 2 C3.36076355 4.822052 3.36076355 4.822052 3.34057617 8.46923828 C3.34123329 9.46454056 3.34123329 9.46454056 3.34190369 10.47994995 C3.33981068 12.677035 3.31645699 14.87336049 3.29296875 17.0703125 C3.28737458 18.5920266 3.28310364 20.1137461 3.28010559 21.63546753 C3.26864261 25.64364499 3.2391633 29.65149712 3.20599365 33.6595459 C3.17532384 37.74824624 3.16160689 41.83699907 3.14648438 45.92578125 C3.11429467 53.95067025 3.06308116 61.97529468 3 70 C2.67 70 2.34 70 2 70 C1.67 75.61 1.34 81.22 1 87 C0.67 87 0.34 87 0 87 C0 58.29 0 29.58 0 0 Z " fill="#E4E6EA" transform="translate(809,634)"/>
<path d="M0 0 C0.33 0 0.66 0 1 0 C1.72379218 18.72812255 2.14191187 37.45702096 2.23217773 56.19918823 C2.24405259 58.31521107 2.26113673 60.43121112 2.28344727 62.54714966 C2.31328538 65.5393894 2.32335027 68.53106604 2.328125 71.5234375 C2.34043152 72.42306717 2.35273804 73.32269684 2.36541748 74.24958801 C2.34348062 80.41440636 2.34348062 80.41440636 0.47949219 83.59228516 C-0.00874023 84.05683105 -0.49697266 84.52137695 -1 85 C-1.66 84.67 -2.32 84.34 -3 84 C-2.01 83.01 -2.01 83.01 -1 82 C-0.70129411 79.93395915 -0.70129411 79.93395915 -0.75708008 77.53222656 C-0.75400345 76.60234924 -0.75092682 75.67247192 -0.74775696 74.7144165 C-0.75494247 73.70006531 -0.76212799 72.68571411 -0.76953125 71.640625 C-0.76998947 70.58582947 -0.77044769 69.53103394 -0.7709198 68.4442749 C-0.77394994 66.19460944 -0.78185874 63.94494621 -0.79418945 61.6953125 C-0.81205754 58.33325313 -0.81470165 54.97147613 -0.81445312 51.609375 C-0.83171944 40.9342515 -0.98671102 30.27516287 -1.44921875 19.609375 C-1.48771439 18.69496643 -1.52621002 17.78055786 -1.56587219 16.83843994 C-1.6274073 15.57214752 -1.6274073 15.57214752 -1.69018555 14.28027344 C-1.72564987 13.5466156 -1.7611142 12.81295776 -1.7976532 12.05706787 C-1.93761242 9.97340142 -1.93761242 9.97340142 -2.60920715 7.93560791 C-3.24652454 4.77895705 -1.5302178 2.69318333 0 0 Z " fill="#F7F8F9" transform="translate(221,646)"/>
<path d="M0 0 C1.82890778 -0.01441132 1.82890778 -0.01441132 3.69476318 -0.02911377 C5.04032199 -0.0339668 6.38588297 -0.03824438 7.73144531 -0.04199219 C9.11134848 -0.0477474 10.49125164 -0.05350509 11.87115479 -0.05926514 C14.77657442 -0.06979616 17.68196629 -0.07562233 20.58740234 -0.07910156 C24.27547858 -0.08453423 27.96317577 -0.10843865 31.65113449 -0.13707352 C34.50997905 -0.15590323 37.36873697 -0.16091655 40.22763824 -0.16243744 C42.23747565 -0.16686771 44.24726632 -0.18543308 46.25701904 -0.20440674 C54.65812193 -0.18435059 62.21523286 0.90773992 70.30957031 3.16113281 C66.69263283 4.41314963 64.02629594 3.83665192 60.30957031 3.16113281 C58.09525391 3.05127833 55.87845525 2.9860009 53.66162109 2.95581055 C52.3607254 2.93586533 51.05982971 2.9159201 49.71951294 2.89537048 C48.31463741 2.87839123 46.90976067 2.86151224 45.50488281 2.84472656 C44.05613647 2.82413285 42.60739581 2.80313577 41.15866089 2.78175354 C37.36117173 2.72678234 33.56363061 2.67726395 29.76605225 2.62890625 C25.88467836 2.57850803 22.00337915 2.52291797 18.12207031 2.46777344 C10.51796704 2.36049746 2.91380131 2.25898577 -4.69042969 2.16113281 C-4.69042969 3.48113281 -4.69042969 4.80113281 -4.69042969 6.16113281 C-1.39042969 6.82113281 1.90957031 7.48113281 5.30957031 8.16113281 C5.30957031 8.49113281 5.30957031 8.82113281 5.30957031 9.16113281 C3.49663942 9.0207576 1.68422601 8.87368392 -0.12792969 8.72363281 C-1.64193359 8.60181641 -1.64193359 8.60181641 -3.18652344 8.47753906 C-5.69042969 8.16113281 -5.69042969 8.16113281 -6.69042969 7.16113281 C-6.81542969 4.16113281 -6.81542969 4.16113281 -6.69042969 1.16113281 C-4.92459286 -0.60470401 -2.39418558 0.01516808 0 0 Z " fill="#020405" transform="translate(673.6904296875,622.8388671875)"/>
<path d="M0 0 C1.2786795 -0.00637985 2.55735901 -0.0127597 3.87478638 -0.01933289 C5.28354861 -0.02086225 6.69231135 -0.02197584 8.10107422 -0.02270508 C9.54019199 -0.02591754 10.97930943 -0.0292816 12.41842651 -0.03279114 C15.44318396 -0.038792 18.4679128 -0.04063027 21.49267578 -0.04003906 C25.35613077 -0.03993787 29.21940019 -0.05354111 33.08281136 -0.07081127 C36.05979237 -0.08197384 39.0367293 -0.0839569 42.0137291 -0.08342934 C43.43698638 -0.08460493 44.86024497 -0.08900296 46.2834816 -0.0967617 C48.28401546 -0.1066385 50.28460363 -0.10239962 52.28515625 -0.09765625 C53.42131378 -0.09908127 54.55747131 -0.10050629 55.72805786 -0.10197449 C59.4483975 0.1765276 62.48620212 1.01131593 66.03076172 2.14526367 C66.03076172 2.47526367 66.03076172 2.80526367 66.03076172 3.14526367 C42.60076172 2.81526367 19.17076172 2.48526367 -4.96923828 2.14526367 C-4.96923828 3.79526367 -4.96923828 5.44526367 -4.96923828 7.14526367 C-3.64923828 7.47526367 -2.32923828 7.80526367 -0.96923828 8.14526367 C-2.94923828 8.14526367 -4.92923828 8.14526367 -6.96923828 8.14526367 C-7.01165551 5.81231592 -7.01016766 3.478238 -6.96923828 1.14526367 C-5.16720818 -0.65676643 -2.42911278 0.00818404 0 0 Z " fill="#030405" transform="translate(801.96923828125,622.854736328125)"/>
<path d="M0 0 C0.66 0 1.32 0 2 0 C1.49873865 30.33843288 0.99072508 60.67298144 0 91 C-0.33 91 -0.66 91 -1 91 C-1.02312215 79.28273212 -1.04091443 67.56546963 -1.05181217 55.84818363 C-1.05704128 50.40797688 -1.06413943 44.96778569 -1.07543945 39.52758789 C-1.08626735 34.28214298 -1.09227662 29.03671308 -1.09487724 23.79125786 C-1.09673167 21.78529054 -1.10035262 19.77932408 -1.10573006 17.77336311 C-1.11293919 14.97397176 -1.113991 12.17464321 -1.11352539 9.37524414 C-1.11712067 8.53727295 -1.12071594 7.69930176 -1.12442017 6.8359375 C-1.11405216 1.11405216 -1.11405216 1.11405216 0 0 Z " fill="#FCFCFD" transform="translate(704,633)"/>
<path d="M0 0 C1.23556641 0.01740234 1.23556641 0.01740234 2.49609375 0.03515625 C3.32238281 0.04417969 4.14867187 0.05320312 5 0.0625 C5.63808594 0.07410156 6.27617188 0.08570313 6.93359375 0.09765625 C3.8454968 1.86228308 2.70047239 2.09765625 -1.06640625 2.09765625 C-1.06640625 3.74765625 -1.06640625 5.39765625 -1.06640625 7.09765625 C6.67998836 7.03604513 14.42605793 6.9586585 22.17208481 6.86194134 C25.77013597 6.81749435 29.36808057 6.77818451 32.96630859 6.7512207 C36.44841949 6.72492788 39.93011443 6.68435013 43.41196442 6.63446999 C45.36575314 6.61002821 47.31970365 6.59982433 49.27362061 6.5900116 C57.21940815 6.46113139 64.32204121 5.39499535 71.93359375 3.09765625 C71.93359375 3.75765625 71.93359375 4.41765625 71.93359375 5.09765625 C57.69010113 10.60809208 42.9482033 9.51377885 27.93359375 9.09765625 C27.22297791 9.07878357 26.51236206 9.05991089 25.7802124 9.04046631 C16.16241456 8.78419479 6.5477199 8.46761955 -3.06640625 8.09765625 C-3.10882348 5.7647085 -3.10733562 3.43063058 -3.06640625 1.09765625 C-2.06640625 0.09765625 -2.06640625 0.09765625 0 0 Z " fill="#060708" transform="translate(798.06640625,732.90234375)"/>
<path d="M0 0 C0.33 0 0.66 0 1 0 C1.36979201 6.99851048 1.70154492 13.99808665 2 21 C2.05671875 22.29550781 2.1134375 23.59101563 2.171875 24.92578125 C2.21054687 26.47845703 2.21054687 26.47845703 2.25 28.0625 C2.28867187 29.37927734 2.28867187 29.37927734 2.328125 30.72265625 C1.9246414 33.52302455 0.84393952 34.89887945 -1 37 C-1 36.34 -1 35.68 -1 35 C-1.66 35 -2.32 35 -3 35 C-3.061875 35.9075 -3.12375 36.815 -3.1875 37.75 C-3.9864964 43.46047424 -6.41079414 48.88611678 -9 54 C-9.99 54.495 -9.99 54.495 -11 55 C-10.02268476 52.06371065 -9.04437399 49.12863067 -8.03515625 46.203125 C-3.1061903 31.23807176 -1.5683035 15.60923251 0 0 Z " fill="#D1CB9C" transform="translate(512,483)"/>
<path d="M0 0 C16.83 0 33.66 0 51 0 C51 0.99 51 1.98 51 3 C34.17 3 17.34 3 0 3 C0 2.01 0 1.02 0 0 Z " fill="#DBDCE1" transform="translate(209,741)"/>
<path d="M0 0 C1.51400391 0.01740234 1.51400391 0.01740234 3.05859375 0.03515625 C4.07050781 0.04417969 5.08242188 0.05320312 6.125 0.0625 C7.29869141 0.07990234 7.29869141 0.07990234 8.49609375 0.09765625 C8.16609375 0.75765625 7.83609375 1.41765625 7.49609375 2.09765625 C4.52609375 2.09765625 1.55609375 2.09765625 -1.50390625 2.09765625 C-1.48450419 8.00653371 -1.43284275 13.91391806 -1.35131836 19.82226562 C-1.32812722 21.83194848 -1.31374003 23.84175307 -1.30834961 25.8515625 C-1.29906818 28.74165808 -1.25809613 31.62983614 -1.2109375 34.51953125 C-1.21683647 35.86661163 -1.21683647 35.86661163 -1.22285461 37.24090576 C-1.14659529 42.54771487 -1.14659529 42.54771487 2.0402832 46.69628906 C2.85070068 47.15874023 3.66111816 47.62119141 4.49609375 48.09765625 C1.72044677 47.79758631 -0.02825747 47.51642172 -2.15136719 45.6472168 C-4.23778366 41.71428409 -3.8925124 37.93846126 -3.83203125 33.5546875 C-3.83015808 32.63048508 -3.82828491 31.70628265 -3.82635498 30.7540741 C-3.81964212 28.80484396 -3.80574285 26.85562712 -3.78515625 24.90649414 C-3.75391342 21.91084386 -3.74417607 18.91571916 -3.73828125 15.91992188 C-3.72911479 14.02733728 -3.71874015 12.13475807 -3.70703125 10.2421875 C-3.70278137 9.34119827 -3.69853149 8.44020905 -3.69415283 7.51191711 C-3.60861092 0.14074146 -3.60861092 0.14074146 0 0 Z " fill="#FBFCFD" transform="translate(833.50390625,681.90234375)"/>
<path d="M0 0 C1.48168945 1.05786133 1.48168945 1.05786133 3 3 C3.34057617 6.1862793 3.34057617 6.1862793 3.29296875 10.07421875 C3.28872391 10.7580513 3.28447906 11.44188385 3.28010559 12.1464386 C3.26333353 14.32719561 3.22568657 16.50702309 3.1875 18.6875 C3.17245114 20.16730435 3.15876308 21.6471232 3.14648438 23.12695312 C3.11598807 26.75194691 3.05727136 30.37493505 3 34 C9.6 34 16.2 34 23 34 C21 36 21 36 18.95288086 36.24291992 C17.72130249 36.23675659 17.72130249 36.23675659 16.46484375 36.23046875 C15.57345703 36.22853516 14.68207031 36.22660156 13.76367188 36.22460938 C12.83103516 36.21236328 11.89839844 36.20011719 10.9375 36.1875 C9.53274414 36.1865332 9.53274414 36.1865332 8.09960938 36.18554688 C1.14019224 36.14019224 1.14019224 36.14019224 0 35 C-0.08851529 32.40640678 -0.11525945 29.83960309 -0.09765625 27.24609375 C-0.09553383 26.08292381 -0.09553383 26.08292381 -0.09336853 24.89625549 C-0.08775345 22.40996506 -0.07519846 19.9237634 -0.0625 17.4375 C-0.05748694 15.75586067 -0.0529237 14.07421994 -0.04882812 12.39257812 C-0.03777913 8.26168434 -0.02050445 4.13085724 0 0 Z " fill="#DCDCE1" transform="translate(830,637)"/>
<path d="M0 0 C0.99 0 1.98 0 3 0 C3.14290689 5.49925496 3.2853105 10.99852262 3.42724609 16.49780273 C3.47560996 18.36890008 3.52411177 20.23999386 3.57275391 22.11108398 C3.64261492 24.79930717 3.71198114 27.48754274 3.78125 30.17578125 C3.80312378 31.01337479 3.82499756 31.85096832 3.84753418 32.71394348 C3.92694812 35.81018842 4 38.90259041 4 42 C1 40 1 40 0 37 C-0.08518867 34.19573548 -0.1158852 31.4170365 -0.09765625 28.61328125 C-0.0962413 27.79627243 -0.09482635 26.97926361 -0.09336853 26.13749695 C-0.08777294 23.52912732 -0.07522129 20.92084366 -0.0625 18.3125 C-0.05748443 16.54362103 -0.05292162 14.77474072 -0.04882812 13.00585938 C-0.03780496 8.67053981 -0.02054338 4.33528448 0 0 Z " fill="#E3E4E8" transform="translate(400,691)"/>
<path d="M0 0 C1.43880051 0.00503077 2.87760274 0.00959086 4.31640625 0.01367188 C7.79430751 0.02453936 11.27214217 0.04171472 14.75 0.0625 C14.42 1.0525 14.09 2.0425 13.75 3.0625 C9.69727542 3.0875883 5.64458214 3.10553967 1.59179688 3.11743164 C0.21874197 3.12239951 -1.15430782 3.1291761 -2.52734375 3.13793945 C-11.16018006 3.19157915 -19.66102941 2.96047465 -28.25 2.0625 C-28.25 1.7325 -28.25 1.4025 -28.25 1.0625 C-18.81973106 0.06812904 -9.46703743 -0.05832981 0 0 Z " fill="#DADCDF" transform="translate(450.25,740.9375)"/>
<path d="M0 0 C0.66 0 1.32 0 2 0 C3.71802382 3.43604765 3.1196618 7.38438896 3.09765625 11.1640625 C3.09553383 12.52487442 3.09553383 12.52487442 3.09336853 13.91317749 C3.08776096 16.81715155 3.07520718 19.72104915 3.0625 22.625 C3.05748598 24.59114472 3.0529229 26.55729065 3.04882812 28.5234375 C3.03778906 33.3489879 3.02051935 38.17448097 3 43 C2.67 43 2.34 43 2 43 C1.505 35.575 1.505 35.575 1 28 C0.67 28 0.34 28 0 28 C0 18.76 0 9.52 0 0 Z " fill="#E0E2E5" transform="translate(432,683)"/>
<path d="M0 0 C0.66 0.33 1.32 0.66 2 1 C2 2.32 2 3.64 2 5 C2.99 5.33 3.98 5.66 5 6 C3.71475739 6.86380259 2.42157581 7.71580369 1.125 8.5625 C0.40570312 9.03816406 -0.31359375 9.51382813 -1.0546875 10.00390625 C-2.01761719 10.49697266 -2.01761719 10.49697266 -3 11 C-3.66 10.67 -4.32 10.34 -5 10 C-4.34 9.01 -3.68 8.02 -3 7 C-4.59328125 7.14308594 -4.59328125 7.14308594 -6.21875 7.2890625 C-20.15671621 8.42366301 -20.15671621 8.42366301 -27 6 C-27 5.67 -27 5.34 -27 5 C-25.80503906 5.05800781 -24.61007812 5.11601563 -23.37890625 5.17578125 C-11.81874016 5.74271697 -11.81874016 5.74271697 -1.53125 0.99609375 C-1.0259375 0.66738281 -0.520625 0.33867188 0 0 Z " fill="#0B0E0F" transform="translate(534,774)"/>
<path d="M0 0 C21.45 0 42.9 0 65 0 C65 0.33 65 0.66 65 1 C43.88 1 22.76 1 1 1 C1 1.99 1 2.98 1 4 C3.31 4 5.62 4 8 4 C7.01 5.485 7.01 5.485 6 7 C2.375 7.1875 2.375 7.1875 -1 7 C-0.67 4.69 -0.34 2.38 0 0 Z " fill="#272C2E" transform="translate(797,625)"/>
<path d="M0 0 C2.31 0 4.62 0 7 0 C7 0.33 7 0.66 7 1 C5.35 1 3.7 1 2 1 C2 2.65 2 4.3 2 6 C15.53 6 29.06 6 43 6 C43 4.68 43 3.36 43 2 C41.68 1.34 40.36 0.68 39 0 C40.65 0 42.3 0 44 0 C44 2.31 44 4.62 44 7 C37.89460368 7.16720361 31.78908383 7.32780433 25.68334961 7.48217773 C23.60452552 7.53568107 21.52574778 7.59101658 19.44702148 7.64819336 C16.46608477 7.72987259 13.48504569 7.80504838 10.50390625 7.87890625 C9.56849503 7.90594131 8.6330838 7.93297638 7.66932678 7.96083069 C6.80850998 7.98092697 5.94769318 8.00102325 5.06079102 8.02172852 C4.29912125 8.04171402 3.53745148 8.06169952 2.75270081 8.08229065 C1 8 1 8 0 7 C-0.04092937 4.66702567 -0.04241723 2.33294775 0 0 Z " fill="#08090A" transform="translate(369,734)"/>
<path d="M0 0 C0.77943466 0.00222061 1.55886932 0.00444122 2.36192322 0.00672913 C3.68317955 0.00684242 3.68317955 0.00684242 5.03112793 0.00695801 C5.98841293 0.01211929 6.94569794 0.01728058 7.93199158 0.02259827 C9.39480812 0.02472069 9.39480812 0.02472069 10.88717651 0.02688599 C14.01542675 0.03250319 17.14360656 0.04505859 20.27183533 0.05775452 C22.38706867 0.0627673 24.50230313 0.06733059 26.61753845 0.07142639 C31.81482829 0.0824782 37.01207678 0.09923305 42.20933533 0.12025452 C42.20933533 0.45025452 42.20933533 0.78025452 42.20933533 1.12025452 C28.01933533 1.45025452 13.82933533 1.78025452 -0.79066467 2.12025452 C-0.79066467 3.44025452 -0.79066467 4.76025452 -0.79066467 6.12025452 C2.50933533 6.78025452 5.80933533 7.44025452 9.20933533 8.12025452 C9.20933533 8.45025452 9.20933533 8.78025452 9.20933533 9.12025452 C7.39640444 8.97987931 5.58399103 8.83280563 3.77183533 8.68275452 C2.25783142 8.56093811 2.25783142 8.56093811 0.71324158 8.43666077 C-1.79066467 8.12025452 -1.79066467 8.12025452 -2.79066467 7.12025452 C-2.91566467 4.12025452 -2.91566467 4.12025452 -2.79066467 1.12025452 C-1.79066467 0.12025452 -1.79066467 0.12025452 0 0 Z " fill="#080A0C" transform="translate(669.7906646728516,622.8797454833984)"/>
<path d="M0 0 C10.56 0 21.12 0 32 0 C31.67 0.99 31.34 1.98 31 3 C26.90658501 3.02469575 22.81319879 3.04285793 18.71972656 3.05493164 C17.32681523 3.0599643 15.9339092 3.06679098 14.54101562 3.07543945 C12.54038754 3.08755152 10.53972112 3.09270412 8.5390625 3.09765625 C7.33459473 3.10289307 6.13012695 3.10812988 4.88916016 3.11352539 C2 3 2 3 0 2 C0 1.34 0 0.68 0 0 Z " fill="#E5E6EA" transform="translate(222,620)"/>
<path d="M0 0 C0.33 0 0.66 0 1 0 C2.15433284 4.50995156 2.03464445 8.88612451 1.9375 13.5 C1.85506419 20.26179694 2.30741149 26.63312357 3.5625 33.30078125 C3.98716232 35.9207961 4.07718777 38.35149471 4 41 C1.36016127 37.04024191 1.05201558 33.46243692 0.375 28.8125 C0.24383789 27.92643066 0.11267578 27.04036133 -0.02246094 26.12744141 C-2.84278674 5.68557348 -2.84278674 5.68557348 0 0 Z " fill="#1A8C22" transform="translate(421,381)"/>
<path d="M0 0 C0 0.66 0 1.32 0 2 C-0.54527344 2.10957031 -1.09054687 2.21914063 -1.65234375 2.33203125 C-7.26173605 3.51144194 -12.59271193 5.11255039 -18 7 C-19.6396875 7.5259375 -19.6396875 7.5259375 -21.3125 8.0625 C-23.66951078 8.88471306 -25.80556311 9.81838013 -28 11 C-26.16169043 6.19996945 -22.97211916 5.17455533 -18.515625 3.10546875 C-12.05674209 0.26717082 -6.99483745 -0.24882821 0 0 Z " fill="#121416" transform="translate(518,660)"/>
<path d="M0 0 C0.33 0 0.66 0 1 0 C1 9.9 1 19.8 1 30 C0.34 30 -0.32 30 -1 30 C-1.33 34.29 -1.66 38.58 -2 43 C-2.33 43 -2.66 43 -3 43 C-2.67 30.79 -2.34 18.58 -2 6 C-1.67 6 -1.34 6 -1 6 C-0.67 4.02 -0.34 2.04 0 0 Z " fill="#D6E3DD" transform="translate(604,374)"/>
<path d="M0 0 C4.69471225 7.04206838 1.91316775 18.86302311 1 27 C-0.48046875 25.875 -0.48046875 25.875 -2 24 C-3.06172405 15.96286311 -1.76135943 7.84748532 0 0 Z " fill="#299734" transform="translate(422,359)"/>
<path d="M0 0 C0.66 0 1.32 0 2 0 C3.98 4.62 5.96 9.24 8 14 C6.35 14.33 4.7 14.66 3 15 C2.67 16.32 2.34 17.64 2 19 C1.67 16.69 1.34 14.38 1 12 C0.67 12 0.34 12 0 12 C0 8.04 0 4.08 0 0 Z " fill="#D9DBE0" transform="translate(130,648)"/>
<path d="M0 0 C3.01836798 3.31226171 3.36168242 5.50929221 3.25 9.9375 C3.23453125 10.95714844 3.2190625 11.97679687 3.203125 13.02734375 C3 16 3 16 2.48828125 18.515625 C1.93398872 21.33586541 1.90290443 23.94106749 1.9375 26.8125 C1.94652344 27.78832031 1.95554687 28.76414062 1.96484375 29.76953125 C1.97644531 30.50558594 1.98804688 31.24164062 2 32 C-3.52297113 23.7155433 -1.20635994 9.50008453 0 0 Z " fill="#237B36" transform="translate(514,486)"/>
<path d="M0 0 C-0.33 1.65 -0.66 3.3 -1 5 C-8.42857143 7.42857143 -8.42857143 7.42857143 -12 6 C-11.67 5.01 -11.34 4.02 -11 3 C-13.97 2.505 -13.97 2.505 -17 2 C-17 1.67 -17 1.34 -17 1 C-14.91835982 0.63601378 -12.83459438 0.28416713 -10.75 -0.0625 C-9.00976562 -0.35833984 -9.00976562 -0.35833984 -7.234375 -0.66015625 C-4.37477376 -0.9606216 -2.66674071 -0.9439206 0 0 Z " fill="#1E2224" transform="translate(531,781)"/>
<path d="M0 0 C3.46132304 3.46132304 3.3933211 4.09685146 3.51171875 8.76171875 C3.54716797 9.87998047 3.58261719 10.99824219 3.61914062 12.15039062 C3.64169922 13.31763672 3.66425781 14.48488281 3.6875 15.6875 C3.72166016 16.86634766 3.75582031 18.04519531 3.79101562 19.25976562 C3.87357925 22.17308225 3.94270322 25.08609466 4 28 C1.70986347 24.5647952 1.82157027 23.014669 2 19 C1.34 19 0.68 19 0 19 C0 12.73 0 6.46 0 0 Z " fill="#282B2C" transform="translate(587,687)"/>
<path d="M0 0 C0.99 0.33 1.98 0.66 3 1 C3.02703562 3.58340384 3.04685611 6.16652308 3.0625 8.75 C3.07087891 9.47960937 3.07925781 10.20921875 3.08789062 10.9609375 C3.10399076 14.50296791 2.87687764 17.58839792 2 21 C1.93256652 23.08234592 1.91485528 25.16668557 1.9375 27.25 C1.95103516 28.86648438 1.95103516 28.86648438 1.96484375 30.515625 C1.97644531 31.33546875 1.98804688 32.1553125 2 33 C1.67 33 1.34 33 1 33 C0.855625 32.0925 0.71125 31.185 0.5625 30.25 C0.09846745 27.2089406 0.09846745 27.2089406 -0.54272461 25.13574219 C-1.10020339 22.53199184 -1.01185521 20.23710428 -0.87890625 17.578125 C-0.83056641 16.55332031 -0.78222656 15.52851562 -0.73242188 14.47265625 C-0.67634766 13.40917969 -0.62027344 12.34570312 -0.5625 11.25 C-0.51029297 10.17105469 -0.45808594 9.09210937 -0.40429688 7.98046875 C-0.27480531 5.32000578 -0.13984639 2.65993548 0 0 Z " fill="#E0E1E5" transform="translate(128,693)"/>
<path d="M0 0 C0.33 0 0.66 0 1 0 C1.0580772 4.08327357 1.09362249 8.16644083 1.125 12.25 C1.14175781 13.40886719 1.15851562 14.56773437 1.17578125 15.76171875 C1.18222656 16.87675781 1.18867187 17.99179687 1.1953125 19.140625 C1.20578613 20.16704102 1.21625977 21.19345703 1.22705078 22.25097656 C0.88842965 26.35084101 -0.74187101 28.61280652 -3 32 C-3.17920191 24.83939034 -2.4925587 18.02401143 -1.5 10.9375 C-1.35691406 9.88111328 -1.21382813 8.82472656 -1.06640625 7.73632812 C-0.71624103 5.15677765 -0.36067163 2.57809875 0 0 Z " fill="#DDCDA1" transform="translate(512,483)"/>
<path d="M0 0 C0.125 2.375 0.125 2.375 0 5 C-0.66 5.66 -1.32 6.32 -2 7 C-4.93453261 6.63318342 -5.86437246 6.13562754 -8 4 C-6.35 4 -4.7 4 -3 4 C-3 3.01 -3 2.02 -3 1 C-3.92941406 1.16371094 -4.85882813 1.32742188 -5.81640625 1.49609375 C-10.84729229 2.21479176 -15.86616509 2.10756313 -20.9375 2.0625 C-21.90751953 2.05798828 -22.87753906 2.05347656 -23.87695312 2.04882812 C-26.2513676 2.0371315 -28.62565021 2.02074086 -31 2 C-31 1.67 -31 1.34 -31 1 C-20.66061606 0.39434571 -10.3625183 -0.18615302 0 0 Z " fill="#2C3133" transform="translate(255,624)"/>
<path d="M0 0 C0.33 0 0.66 0 1 0 C1.01981934 0.589021 1.03963867 1.17804199 1.06005859 1.78491211 C1.15643277 4.50282351 1.26564712 7.22008103 1.375 9.9375 C1.4059375 10.86369141 1.436875 11.78988281 1.46875 12.74414062 C1.69212353 18.04926203 2.26220168 22.97957386 3.58447266 28.12719727 C4 30 4 30 4 33 C0.80566308 30.22231572 0.19626836 27.94751936 -0.22119141 23.80517578 C-0.36260792 21.24537791 -0.49937037 18.68562739 -0.625 16.125 C-0.6765625 15.23941406 -0.728125 14.35382812 -0.78125 13.44140625 C-1.01671427 8.79444954 -1.01287297 4.58060463 0 0 Z " fill="#0A0A0C" transform="translate(241,699)"/>
<path d="M0 0 C1.16781006 0.00523682 2.33562012 0.01047363 3.53881836 0.01586914 C4.79887695 0.0190918 6.05893555 0.02231445 7.35717773 0.02563477 C8.6976732 0.03399136 10.03816799 0.04245632 11.37866211 0.05102539 C12.72306153 0.05603879 14.06746271 0.06060197 15.41186523 0.06469727 C18.71334151 0.07653051 22.01473014 0.09301568 25.31616211 0.11352539 C25.31616211 0.44352539 25.31616211 0.77352539 25.31616211 1.11352539 C11.95116211 1.60852539 11.95116211 1.60852539 -1.68383789 2.11352539 C-1.68383789 3.76352539 -1.68383789 5.41352539 -1.68383789 7.11352539 C-0.36383789 7.44352539 0.95616211 7.77352539 2.31616211 8.11352539 C0.33616211 8.11352539 -1.64383789 8.11352539 -3.68383789 8.11352539 C-3.72625512 5.78057764 -3.72476726 3.44649972 -3.68383789 1.11352539 C-2.68383789 0.11352539 -2.68383789 0.11352539 0 0 Z " fill="#090A0D" transform="translate(798.683837890625,622.886474609375)"/>
<path d="M0 0 C0.33 0 0.66 0 1 0 C1.02706445 2.89589652 1.04687029 5.79153795 1.0625 8.6875 C1.07087891 9.50412109 1.07925781 10.32074219 1.08789062 11.16210938 C1.10442051 15.24499084 1.03035098 19.01651707 0 23 C0.66 23 1.32 23 2 23 C2 26.3 2 29.6 2 33 C1.01 33 0.02 33 -1 33 C-1.1139891 21.94305724 -0.91050683 11.02363628 0 0 Z " fill="#282C2F" transform="translate(126,683)"/>
<path d="M0 0 C2 2 2 2 2.1953125 5.4765625 C2.18201493 6.85950968 2.15816232 8.24238654 2.125 9.625 C2.11597656 10.33140625 2.10695312 11.0378125 2.09765625 11.765625 C2.07407603 13.51056098 2.03820461 15.25532295 2 17 C1.01 17 0.02 17 -1 17 C-1.02691685 14.54159395 -1.04679802 12.08348118 -1.0625 9.625 C-1.07087891 8.92632813 -1.07925781 8.22765625 -1.08789062 7.5078125 C-1.11328125 2.2265625 -1.11328125 2.2265625 0 0 Z " fill="#E5E7EB" transform="translate(243,703)"/>
<path d="M0 0 C0.88935377 3.303314 1.46274105 6.62294375 2 10 C-0.31 10.33 -2.62 10.66 -5 11 C-4.46884894 6.48521602 -2.63379708 3.65333143 0 0 Z " fill="#23982E" transform="translate(454,270)"/>
<path d="M0 0 C1.485 0.99 1.485 0.99 3 2 C3.34057617 3.87939453 3.34057617 3.87939453 3.29296875 6.1328125 C3.28330078 6.93847656 3.27363281 7.74414062 3.26367188 8.57421875 C3.23853516 9.41597656 3.21339844 10.25773438 3.1875 11.125 C3.17396484 11.97449219 3.16042969 12.82398438 3.14648438 13.69921875 C3.11108219 15.79974837 3.05727401 17.89995293 3 20 C1.13437358 18.42702086 0.09761557 17.54489783 -0.34057617 15.09887695 C-0.32486572 14.40238037 -0.30915527 13.70588379 -0.29296875 12.98828125 C-0.28330078 12.23095703 -0.27363281 11.47363281 -0.26367188 10.69335938 C-0.23853516 9.90767578 -0.21339844 9.12199219 -0.1875 8.3125 C-0.17396484 7.51521484 -0.16042969 6.71792969 -0.14648438 5.89648438 C-0.11117089 3.93070033 -0.05736447 1.96526418 0 0 Z " fill="#242729" transform="translate(634,696)"/>
<path d="M0 0 C4.95 0 9.9 0 15 0 C14.67 0.99 14.34 1.98 14 3 C9.38 3 4.76 3 0 3 C0 2.01 0 1.02 0 0 Z " fill="#DCDDE1" transform="translate(706,632)"/>
<path d="M0 0 C-4.55877695 3.03918463 -9.5983209 4.29408315 -15.0625 3.625 C-15.701875 3.41875 -16.34125 3.2125 -17 3 C-17 2.67 -17 2.34 -17 2 C-5.47835991 -1.62870159 -5.47835991 -1.62870159 0 0 Z " fill="#E2E3E6" transform="translate(752,737)"/>
<path d="M0 0 C0.33 0 0.66 0 1 0 C1 5.28 1 10.56 1 16 C0.34 16.33 -0.32 16.66 -1 17 C-1.9702889 14.08913331 -2.16467847 12.09776315 -2.1875 9.0625 C-2.20167969 8.20785156 -2.21585938 7.35320313 -2.23046875 6.47265625 C-1.98703556 3.86090697 -1.3178268 2.24499348 0 0 Z " fill="#E4E6EA" transform="translate(131,676)"/>
<path d="M0 0 C1.99954746 -0.04254356 4.00041636 -0.04080783 6 0 C6.33 0.33 6.66 0.66 7 1 C8.99422795 1.36628677 10.99453311 1.70131344 13 2 C13 2.99 13 3.98 13 5 C8.71 4.34 4.42 3.68 0 3 C0 2.01 0 1.02 0 0 Z " fill="#E3E4E7" transform="translate(731,621)"/>
<path d="M0 0 C5.94 0.33 11.88 0.66 18 1 C18 1.33 18 1.66 18 2 C16.77023437 2.13277344 15.54046875 2.26554688 14.2734375 2.40234375 C12.64061531 2.58064043 11.00780334 2.7590308 9.375 2.9375 C8.16263672 3.06801758 8.16263672 3.06801758 6.92578125 3.20117188 C2.58958942 3.67709537 -1.70390836 4.22837189 -6 5 C-4.04783565 3.04783565 -2.46800047 2.15173355 0 1 C0 0.67 0 0.34 0 0 Z " fill="#24282B" transform="translate(302,661)"/>
<path d="M0 0 C0 5.28 0 10.56 0 16 C-2 15 -2 15 -2.62109375 13.265625 C-3.04706889 10.71855716 -3.09646629 8.33143831 -3.0625 5.75 C-3.05347656 4.85796875 -3.04445313 3.9659375 -3.03515625 3.046875 C-3.02355469 2.37140625 -3.01195313 1.6959375 -3 1 C-1 0 -1 0 0 0 Z " fill="#2C3033" transform="translate(124,657)"/>
<path d="M0 0 C0.66 0 1.32 0 2 0 C2.84069415 1.60032137 3.67231505 3.20541171 4.5 4.8125 C4.9640625 5.70582031 5.428125 6.59914063 5.90625 7.51953125 C7 10 7 10 7 13 C6.01 13 5.02 13 4 13 C0.71428571 4.57142857 0.71428571 4.57142857 0 0 Z " fill="#E5E7EB" transform="translate(778,647)"/>
<path d="M0 0 C2.34914492 2.34914492 2.73140357 3.95679446 3.625 7.125 C3.88539063 8.03507812 4.14578125 8.94515625 4.4140625 9.8828125 C4.70410156 10.93082031 4.70410156 10.93082031 5 12 C5.99 12 6.98 12 8 12 C7.67 13.98 7.34 15.96 7 18 C4.50752478 14.97903433 3.12043668 12.12076995 1.8125 8.4375 C1.46832031 7.48746094 1.12414062 6.53742188 0.76953125 5.55859375 C0 3 0 3 0 0 Z " fill="#16831B" transform="translate(428,434)"/>
<path d="M0 0 C2.31 0 4.62 0 7 0 C5.07423885 2.43929746 3.19909405 4.80090595 1 7 C-1.26274788 6.64644564 -2.95088852 6.02455574 -5 5 C-4.175 4.360625 -3.35 3.72125 -2.5 3.0625 C-1.675 2.381875 -0.85 1.70125 0 1 C0 0.67 0 0.34 0 0 Z " fill="#222528" transform="translate(494,745)"/>
<path d="M0 0 C0.99 0 1.98 0 3 0 C3.18451025 10.55808656 3.18451025 10.55808656 2 15 C-0.02558881 11.65060119 -0.21738987 9.13037449 -0.125 5.25 C-0.09792969 3.77273438 -0.09792969 3.77273438 -0.0703125 2.265625 C-0.04710937 1.51796875 -0.02390625 0.7703125 0 0 Z " fill="#D9DCE0" transform="translate(873,702)"/>
<path d="M0 0 C0 1.98 0 3.96 0 6 C-0.66 5.34 -1.32 4.68 -2 4 C-4.21072977 3.75746187 -4.21072977 3.75746187 -6.625 3.875 C-7.85089844 3.90207031 -7.85089844 3.90207031 -9.1015625 3.9296875 C-10.04128906 3.96449219 -10.04128906 3.96449219 -11 4 C-10.360625 3.71125 -9.72125 3.4225 -9.0625 3.125 C-6.84793921 2.17176549 -6.84793921 2.17176549 -6 0 C-3 -1 -3 -1 0 0 Z " fill="#232729" transform="translate(558,664)"/>
<path d="M0 0 C1.23556641 0.01740234 1.23556641 0.01740234 2.49609375 0.03515625 C3.32238281 0.04417969 4.14867187 0.05320312 5 0.0625 C5.63808594 0.07410156 6.27617188 0.08570313 6.93359375 0.09765625 C3.8454968 1.86228308 2.70047239 2.09765625 -1.06640625 2.09765625 C-0.73640625 4.07765625 -0.40640625 6.05765625 -0.06640625 8.09765625 C-1.05640625 8.09765625 -2.04640625 8.09765625 -3.06640625 8.09765625 C-3.10882348 5.7647085 -3.10733562 3.43063058 -3.06640625 1.09765625 C-2.06640625 0.09765625 -2.06640625 0.09765625 0 0 Z " fill="#090B0C" transform="translate(798.06640625,732.90234375)"/>
<path d="M0 0 C0.33 2.64 0.66 5.28 1 8 C0.34 8 -0.32 8 -1 8 C-1 10.64 -1 13.28 -1 16 C-1.33 16 -1.66 16 -2 16 C-2.33 11.05 -2.66 6.1 -3 1 C-1 0 -1 0 0 0 Z " fill="#E1E2E7" transform="translate(633,692)"/>
<path d="M0 0 C4.62 0 9.24 0 14 0 C14.33 0.99 14.66 1.98 15 3 C13.2507786 3.08142927 11.50045458 3.13938541 9.75 3.1875 C8.28820312 3.23970703 8.28820312 3.23970703 6.796875 3.29296875 C4 3 4 3 0 0 Z " fill="#E1E2E7" transform="translate(533,663)"/>
<path d="M0 0 C1.485 0.99 1.485 0.99 3 2 C3.1875 5.625 3.1875 5.625 3 9 C3.99 8.67 4.98 8.34 6 8 C5.67 8.99 5.34 9.98 5 11 C4.01 11.33 3.02 11.66 2 12 C0.26043342 10.26043342 0.62809614 7.8063378 0.4375 5.4375 C0.35371094 4.42558594 0.26992188 3.41367187 0.18359375 2.37109375 C0.12300781 1.58863281 0.06242187 0.80617188 0 0 Z " fill="#F5F6F7" transform="translate(399,659)"/>
<path d="M0 0 C-2 2 -2 2 -5.4765625 2.1953125 C-6.85950968 2.18201493 -8.24238654 2.15816232 -9.625 2.125 C-10.33140625 2.11597656 -11.0378125 2.10695313 -11.765625 2.09765625 C-13.51056098 2.07407603 -15.25532295 2.03820461 -17 2 C-13.00385989 -1.99614011 -5.19215863 -1.55764759 0 0 Z " fill="#E0E1E6" transform="translate(429,675)"/>
<path d="M0 0 C0.66 0.33 1.32 0.66 2 1 C1.1875 3.4375 1.1875 3.4375 0 6 C-0.99 6.33 -1.98 6.66 -3 7 C-3.33 7.99 -3.66 8.98 -4 10 C-4.66 9.67 -5.32 9.34 -6 9 C-4.02 6.03 -2.04 3.06 0 0 Z " fill="#F2F5F4" transform="translate(576,479)"/>
<path d="M0 0 C4 4.625 4 4.625 4 8 C3.01 8 2.02 8 1 8 C-0.42944945 5.64561267 -1.08661261 4.51967567 -0.625 1.75 C-0.41875 1.1725 -0.2125 0.595 0 0 Z " fill="#E4E5E9" transform="translate(648,677)"/>
<path d="M0 0 C0.99 0 1.98 0 3 0 C3.6875 1.8125 3.6875 1.8125 4 4 C2.5625 5.75 2.5625 5.75 1 7 C-1 4 -1 4 -0.625 1.8125 C-0.41875 1.214375 -0.2125 0.61625 0 0 Z " fill="#2E9D3A" transform="translate(426,338)"/>
<path d="M0 0 C2.97 0.495 2.97 0.495 6 1 C5.79375 1.5775 5.5875 2.155 5.375 2.75 C4.91338739 5.51967567 5.57055055 6.64561267 7 9 C4.03595495 6.19195732 1.55500981 3.81684226 0 0 Z " fill="#1B8723" transform="translate(458,490)"/>
<path d="M0 0 C0.33 0.66 0.66 1.32 1 2 C-1.64 2.33 -4.28 2.66 -7 3 C-6.67 2.01 -6.34 1.02 -6 0 C-3.42525708 -0.99667468 -2.51072708 -1.25536354 0 0 Z M1 0 C3 1 3 1 3 1 Z " fill="#E6E7EB" transform="translate(622,743)"/>
<path d="M0 0 C0 1.98 0 3.96 0 6 C-1.32 6 -2.64 6 -4 6 C-4 4.35 -4 2.7 -4 1 C-2 0 -2 0 0 0 Z " fill="#24272A" transform="translate(103,734)"/>
<path d="M0 0 C0.66 1.32 1.32 2.64 2 4 C0.35 5.65 -1.3 7.3 -3 9 C-3.66 8.67 -4.32 8.34 -5 8 C-4.360625 7.236875 -3.72125 6.47375 -3.0625 5.6875 C-0.85767219 3.11753287 -0.85767219 3.11753287 0 0 Z M-7 9 C-5 10 -5 10 -5 10 Z " fill="#E5E6EC" transform="translate(890,723)"/>
<path d="M0 0 C0.33 0.66 0.66 1.32 1 2 C-3.625 4.125 -3.625 4.125 -7 3 C-7.33 2.34 -7.66 1.68 -8 1 C-2.25 -1.125 -2.25 -1.125 0 0 Z " fill="#DFE1E5" transform="translate(526,717)"/>
<path d="M0 0 C4.75675676 6.27027027 4.75675676 6.27027027 6 10 C5.01 10.33 4.02 10.66 3 11 C2.49384702 9.73160474 1.99530901 8.46016898 1.5 7.1875 C1.2215625 6.47980469 0.943125 5.77210938 0.65625 5.04296875 C0 3 0 3 0 0 Z " fill="#F4F4F5" transform="translate(176,701)"/>
<path d="M0 0 C0.66 0 1.32 0 2 0 C2.80967438 2.91482778 3.21845993 4.46113217 2.0625 7.3125 C1.5365625 8.1478125 1.5365625 8.1478125 1 9 C0.34 8.67 -0.32 8.34 -1 8 C-0.67 5.36 -0.34 2.72 0 0 Z " fill="#DFE0E3" transform="translate(651,707)"/>
<path d="M0 0 C2.4375 1.25 2.4375 1.25 3.4375 4.25 C0.67473823 3.72731534 -1.8885876 3.14130413 -4.5625 2.25 C-4.5625 1.59 -4.5625 0.93 -4.5625 0.25 C-2.5625 -0.75 -2.5625 -0.75 0 0 Z " fill="#E4E5E7" transform="translate(874.5625,672.75)"/>
<path d="M0 0 C-1.41519715 2.0343459 -2.54982123 2.90410393 -4.98046875 3.421875 C-6.98176954 3.66273952 -8.9909944 3.83532741 -11 4 C-10.360625 3.71125 -9.72125 3.4225 -9.0625 3.125 C-6.84793921 2.17176549 -6.84793921 2.17176549 -6 0 C-3 -1 -3 -1 0 0 Z " fill="#242729" transform="translate(521,710)"/>
<path d="M0 0 C1.5 1.0625 1.5 1.0625 3 3 C3.1875 6.6875 3.1875 6.6875 3 10 C2.34 10 1.68 10 1 10 C-0.60725635 6.78548731 -0.05748185 3.56387464 0 0 Z " fill="#272C2D" transform="translate(120,674)"/>
<path d="M0 0 C2.64 1.98 5.28 3.96 8 6 C7.67 6.66 7.34 7.32 7 8 C4.36 6.35 1.72 4.7 -1 3 C-0.67 2.01 -0.34 1.02 0 0 Z " fill="#278B34" transform="translate(545,247)"/>
<path d="M0 0 C0.33 0 0.66 0 1 0 C1.33730842 1.43657245 1.66969591 2.87430093 2 4.3125 C2.185625 5.11300781 2.37125 5.91351562 2.5625 6.73828125 C3 9 3 9 3 12 C0.58279247 10.10827237 0.01036031 9.04144125 -0.75 6 C-1 3 -1 3 0 0 Z " fill="#131416" transform="translate(242,720)"/>
<path d="M0 0 C0.66 0 1.32 0 2 0 C2.33 1.65 2.66 3.3 3 5 C3.66 5 4.32 5 5 5 C5 6.65 5 8.3 5 10 C1.55783328 7.3401439 1.00495326 4.09711714 0 0 Z " fill="#F3F3F5" transform="translate(170,688)"/>
<path d="M0 0 C0.66 0 1.32 0 2 0 C1.625 1.9375 1.625 1.9375 1 4 C0.01 4.495 0.01 4.495 -1 5 C-1.33 5.99 -1.66 6.98 -2 8 C-2.66 8 -3.32 8 -4 8 C-2.25 2.25 -2.25 2.25 0 0 Z " fill="#0C0E10" transform="translate(484,675)"/>
<path d="M0 0 C0.99 0.33 1.98 0.66 3 1 C1.35 2.65 -0.3 4.3 -2 6 C-2.66 5.34 -3.32 4.68 -4 4 C-2.68 2.68 -1.36 1.36 0 0 Z " fill="#232528" transform="translate(488,670)"/>
<path d="M0 0 C0.99 0.33 1.98 0.66 3 1 C0.82575883 3.50037734 -0.73045798 4.43628586 -4 5 C-4 4.34 -4 3.68 -4 3 C-4.66 2.67 -5.32 2.34 -6 2 C-5.38125 1.855625 -4.7625 1.71125 -4.125 1.5625 C-1.96741678 1.06847775 -1.96741678 1.06847775 0 0 Z " fill="#E2E3E6" transform="translate(397,658)"/>
<path d="M0 0 C0.66 0.33 1.32 0.66 2 1 C2 2.98 2 4.96 2 7 C1.01 6.67 0.02 6.34 -1 6 C-1.33 5.01 -1.66 4.02 -2 3 C-1.34 2.01 -0.68 1.02 0 0 Z " fill="#C7C99B" transform="translate(515,576)"/>
<path d="M0 0 C0.99 0 1.98 0 3 0 C2.67 1.32 2.34 2.64 2 4 C1.34 3.67 0.68 3.34 0 3 C-0.66 4.98 -1.32 6.96 -2 9 C-3 6 -3 6 -1.5625 2.8125 C-1.046875 1.884375 -0.53125 0.95625 0 0 Z " fill="#36A746" transform="translate(444,290)"/>
<path d="M0 0 C0.99 0 1.98 0 3 0 C3 2.97 3 5.94 3 9 C0 6 0 6 -0.1875 2.8125 C-0.125625 1.884375 -0.06375 0.95625 0 0 Z " fill="#2C2F31" transform="translate(118,699)"/>
<path d="M0 0 C0.66 0.66 1.32 1.32 2 2 C1.625 5.625 1.625 5.625 1 9 C0.01 8.34 -0.98 7.68 -2 7 C-1.34 4.69 -0.68 2.38 0 0 Z " fill="#DEE0E3" transform="translate(592,680)"/>
<path d="M0 0 C0.33 0 0.66 0 1 0 C1 2.31 1 4.62 1 7 C0.34 7 -0.32 7 -1 7 C-1.33 7.99 -1.66 8.98 -2 10 C-2.1953125 3.9453125 -2.1953125 3.9453125 -2 2 C-1.34 1.34 -0.68 0.68 0 0 Z " fill="#DDDEE1" transform="translate(765,674)"/>
<path d="M0 0 C0.8353125 0.7734375 0.8353125 0.7734375 1.6875 1.5625 C-0.9525 1.8925 -3.5925 2.2225 -6.3125 2.5625 C-6.6425 1.5725 -6.9725 0.5825 -7.3125 -0.4375 C-2.88173077 -1.79134615 -2.88173077 -1.79134615 0 0 Z " fill="#E5E6EB" transform="translate(326.3125,658.4375)"/>
<path d="M0 0 C2.125 0.9375 2.125 0.9375 4 2 C2.68 2.33 1.36 2.66 0 3 C-0.33 4.32 -0.66 5.64 -1 7 C-1.66 6.01 -2.32 5.02 -3 4 C-2.67 3.01 -2.34 2.02 -2 1 C-1.34 0.67 -0.68 0.34 0 0 Z " fill="#DEE0E4" transform="translate(834,632)"/>
<path d="M0 0 C4.43090471 1.20842856 6.98112756 2.51668565 10 6 C6.42188369 6 5.73324619 5.13534858 3 3 C2.01 2.67 1.02 2.34 0 2 C0 1.34 0 0.68 0 0 Z " fill="#0F1111" transform="translate(870,626)"/>
<path d="M0 0 C2.475 0.495 2.475 0.495 5 1 C5 1.66 5 2.32 5 3 C6.32 3.66 7.64 4.32 9 5 C5.65626525 4.44271087 2.96687001 3.64826111 0 2 C0 1.34 0 0.68 0 0 Z " fill="#319F3E" transform="translate(474,509)"/>
<path d="M0 0 C2.97 0.99 5.94 1.98 9 3 C9 3.66 9 4.32 9 5 C8.01 5.33 7.02 5.66 6 6 C4 4 2 2 0 0 Z " fill="#F8F9F9" transform="translate(487,740)"/>
<path d="M0 0 C2.05078125 0.03255208 4.1015625 0.06510417 6.15234375 0.09765625 C6.15234375 0.42765625 6.15234375 0.75765625 6.15234375 1.09765625 C4.48171875 1.49984375 4.48171875 1.49984375 2.77734375 1.91015625 C-1.06606576 2.75574644 -1.06606576 2.75574644 -2.84765625 6.09765625 C-2.89037725 4.4315372 -2.88829457 2.7638274 -2.84765625 1.09765625 C-1.84765625 0.09765625 -1.84765625 0.09765625 0 0 Z " fill="#111315" transform="translate(99.84765625,732.90234375)"/>
<path d="M0 0 C2.29633824 3.44450737 2.54016485 5.93812283 3 10 C2.67 9.01 2.34 8.02 2 7 C1.01 7 0.02 7 -1 7 C-0.67 4.69 -0.34 2.38 0 0 Z " fill="#E1E3E8" transform="translate(593,710)"/>
<path d="M0 0 C2.83374881 3.20336822 3.5205537 5.78087253 4 10 C3.34 8.68 2.68 7.36 2 6 C1.34 6 0.68 6 0 6 C0 4.02 0 2.04 0 0 Z " fill="#F3F3F4" transform="translate(131,648)"/>
<path d="M0 0 C0.99 0.33 1.98 0.66 3 1 C2.34 2.65 1.68 4.3 1 6 C0.01 6 -0.98 6 -2 6 C-1.34 4.02 -0.68 2.04 0 0 Z " fill="#E5E6EA" transform="translate(212,635)"/>
</svg>
