<?xml version="1.0" encoding="UTF-8"?>
<svg version="1.1" xmlns="http://www.w3.org/2000/svg" width="1024" height="1024">
<path d="M0 0 C337.92 0 675.84 0 1024 0 C1024 337.92 1024 675.84 1024 1024 C686.08 1024 348.16 1024 0 1024 C0 686.08 0 348.16 0 0 Z " fill="#F0F1F7" transform="translate(0,0)"/>
<path d="M0 0 C2.68305885 1.12457933 5.13189028 2.47796251 7.64770508 3.94140625 C8.73220947 4.56934082 9.81671387 5.19727539 10.93408203 5.84423828 C12.09272755 6.5221222 13.25117126 7.20035114 14.40942383 7.87890625 C15.5892269 8.56646416 16.76915898 9.25380073 17.94921875 9.94091797 C20.27517712 11.29680811 22.59863107 12.65674231 24.92114258 14.01855469 C27.59974759 15.58766371 30.2841088 17.14597624 32.97192383 18.69921875 C34.28491081 19.46661532 35.59746116 20.2347598 36.90942383 21.00390625 C38.00899414 21.64585937 39.10856445 22.2878125 40.24145508 22.94921875 C47.61770134 27.93398708 47.61770134 27.93398708 48.55756867 31.74842823 C48.73976292 34.05906541 48.75849328 36.32230667 48.72511292 38.63999939 C48.7322073 39.52208543 48.73930169 40.40417147 48.74661106 41.31298739 C48.76421407 44.26891587 48.74607439 47.22353344 48.72802734 50.17944336 C48.73316531 52.29850361 48.74044565 54.4175596 48.74971008 56.53660583 C48.76824888 62.29288786 48.75526913 68.04870762 48.73561978 73.8049705 C48.71925045 79.82665606 48.72804389 85.84831195 48.73313904 91.87001038 C48.73766225 101.98397211 48.72177678 112.09774905 48.69384766 122.21166992 C48.66180352 133.90594064 48.66180749 145.59987786 48.67906243 157.29417223 C48.69492547 168.54049801 48.68819477 179.78670149 48.67112541 191.03302193 C48.66425147 195.82039201 48.66529097 200.60766416 48.67267036 205.39503288 C48.68033049 211.03317511 48.66821553 216.67093778 48.64082146 222.30901527 C48.63393342 224.37862395 48.63384411 226.44826804 48.64103699 228.51787567 C48.64972315 231.34261749 48.63378945 234.16618578 48.61158752 236.99082947 C48.61982829 237.81038665 48.62806906 238.62994384 48.63655955 239.47433609 C48.56030168 244.72912828 47.54231977 247.68844838 44.09692383 251.87890625 C42.13110352 253.4519043 42.13110352 253.4519043 40.01879883 254.640625 C39.20362793 255.11008545 38.38845703 255.5795459 37.54858398 256.06323242 C36.65703613 256.55927979 35.76548828 257.05532715 34.84692383 257.56640625 C32.86973609 258.7007338 30.8932154 259.83622455 28.91723633 260.97265625 C27.83474609 261.59011719 26.75225586 262.20757813 25.63696289 262.84375 C19.65838803 266.26754772 13.74270744 269.79920721 7.82052612 273.31930542 C5.7313382 274.56081173 3.64087349 275.80014713 1.55029297 277.03930664 C-6.22629284 281.65459565 -13.97145686 286.30975246 -21.57836914 291.2019043 C-27.63984593 295.07942725 -32.80392079 295.71056204 -39.90307617 294.87890625 C-43.40007578 293.61868247 -46.39464185 291.79940392 -49.52807617 289.81640625 C-50.41994629 289.27983398 -51.31181641 288.74326172 -52.23071289 288.19042969 C-54.14461491 287.03607553 -56.05220214 285.87119704 -57.95385742 284.69677734 C-61.92225768 282.25069222 -65.92728627 279.86789891 -69.93115234 277.48046875 C-73.05997966 275.60983207 -76.17885732 273.72331695 -79.29760742 271.8359375 C-83.95284346 269.02927999 -88.64049179 266.28792945 -93.35229492 263.578125 C-95.20523196 262.50553906 -97.05752673 261.43185278 -98.90960693 260.35778809 C-100.10098537 259.67079972 -101.29515982 258.98863457 -102.49224854 258.31164551 C-115.14513309 251.15273549 -115.14513309 251.15273549 -117.90307617 242.87890625 C-117.99902711 240.37569583 -118.03953836 237.90062403 -118.0324707 235.39746094 C-118.03422302 234.63773483 -118.03597534 233.87800873 -118.03778076 233.09526062 C-118.04218625 230.580411 -118.03926468 228.0656316 -118.03588867 225.55078125 C-118.03656237 223.8006387 -118.03753294 222.05049624 -118.03878784 220.300354 C-118.04026328 216.62844962 -118.03811622 212.95656953 -118.03344727 209.28466797 C-118.0277669 204.5895429 -118.03101919 199.8944752 -118.03701973 195.19935226 C-118.04064387 191.58243381 -118.03947796 187.9655288 -118.03689194 184.34860992 C-118.03622692 182.61833947 -118.03703619 180.88806777 -118.03937149 179.15779877 C-118.04192656 176.73114317 -118.03801664 174.30457856 -118.0324707 171.87792969 C-118.03449493 171.16910141 -118.03651917 170.46027313 -118.03860474 169.72996521 C-117.99220869 158.7060152 -117.99220869 158.7060152 -115.35229492 154.27734375 C-112.10952001 151.1018034 -108.58121483 148.85709571 -104.71557617 146.50390625 C-103.48436035 145.74049927 -103.48436035 145.74049927 -102.22827148 144.96166992 C-92.11310592 138.71798365 -81.90073892 132.63117168 -71.69067383 126.54443359 C-68.66442345 124.73631658 -65.64744501 122.91341324 -62.63256836 121.08642578 C-60.32855626 119.69460158 -58.01569491 118.31815172 -55.69946289 116.94677734 C-54.41166483 116.18123933 -53.12720705 115.41007146 -51.8449707 114.63525391 C-49.70642528 113.3468977 -47.55635593 112.07994813 -45.40307617 110.81640625 C-44.75588623 110.42146973 -44.10869629 110.0265332 -43.44189453 109.61962891 C-39.12204695 107.12217325 -36.0086535 106.26271588 -30.90307617 106.87890625 C-27.91088867 107.98046875 -27.91088867 107.98046875 -25.02807617 109.50390625 C-24.00069336 110.0453125 -22.97331055 110.58671875 -21.91479492 111.14453125 C-18.3851566 113.17716343 -15.03758915 115.38456722 -11.74291992 117.77734375 C-9.83148933 119.13575219 -9.83148933 119.13575219 -6.90307617 118.87890625 C-6.90160961 118.28383868 -6.90014305 117.68877111 -6.89863205 117.0756712 C-6.86159861 102.60390432 -6.80263019 88.13235024 -6.71917343 73.66077709 C-6.67934473 66.66243792 -6.64697185 59.66421181 -6.63208008 52.66577148 C-6.61769635 45.91588404 -6.58262952 39.16639749 -6.53476715 32.41665077 C-6.51989332 29.83740592 -6.51203175 27.25811107 -6.51119232 24.67882347 C-6.50883902 21.0748059 -6.48189006 17.47176943 -6.44897461 13.86791992 C-6.45652016 12.25707016 -6.45652016 12.25707016 -6.46421814 10.61367798 C-6.44334892 9.14342918 -6.44334892 9.14342918 -6.42205811 7.64347839 C-6.41652735 6.36449063 -6.41652735 6.36449063 -6.41088486 5.05966473 C-5.90307617 2.87890625 -5.90307617 2.87890625 -3.98958206 1.07355213 C-1.90307617 -0.12109375 -1.90307617 -0.12109375 0 0 Z " fill="#303331" transform="translate(647.903076171875,292.12109375)"/>
<path d="M0 0 C3.39763838 1.78572463 6.67256367 3.72562228 9.93798828 5.73803711 C11.15712638 6.46502891 12.37761471 7.18976067 13.59936523 7.91235352 C16.12856935 9.41335202 18.64903853 10.92761208 21.16308594 12.45385742 C24.81453334 14.66895682 28.48761682 16.84565439 32.16845703 19.01147461 C36.72162721 21.69202837 41.26536021 24.38772687 45.80126953 27.09741211 C49.58977987 29.35609371 53.39273942 31.58055901 57.23095703 33.75366211 C58.01639893 34.20177246 58.80184082 34.64988281 59.61108398 35.11157227 C61.01161051 35.90756949 62.4172161 36.69474421 63.8293457 37.4699707 C68.02422915 39.86594027 71.5063411 42.52470186 73.93798828 46.73803711 C74.64015055 49.72189958 74.63275344 52.60617159 74.60083008 55.66162109 C74.61119797 56.53882813 74.62156586 57.41603516 74.63224792 58.31982422 C74.6592666 61.20840766 74.64966704 64.09546724 74.63720703 66.98413086 C74.64311812 68.99903282 74.65036575 71.01393126 74.65888977 73.02882385 C74.67076157 77.24791792 74.66407673 81.46648418 74.64477539 85.68554688 C74.62189796 91.08401151 74.64866031 96.48090119 74.68983746 101.87921047 C74.71545219 106.03923683 74.7128254 110.19888824 74.70194435 114.35896492 C74.70046045 116.34882092 74.70811535 118.33870605 74.72519493 120.3284893 C74.74523015 123.11497448 74.72672408 125.89869922 74.69848633 128.68505859 C74.71906097 129.9095446 74.71906097 129.9095446 74.74005127 131.1587677 C74.62981667 136.62027692 73.22083658 139.40718541 69.45306301 143.35725689 C67.52526629 145.11417589 65.6102698 146.44546809 63.30517578 147.66772461 C62.43094971 148.14419434 61.55672363 148.62066406 60.65600586 149.11157227 C59.71781006 149.60705566 58.77961426 150.10253906 57.81298828 150.61303711 C49.24672861 155.28680281 40.84966716 160.1525486 32.54049683 165.26351929 C23.67281521 170.71051786 14.78473146 176.13392015 5.75048828 181.30053711 C4.98003174 181.75960449 4.2095752 182.21867188 3.41577148 182.69165039 C-1.74983709 185.58713248 -6.15015211 186.87798036 -12.06201172 185.73803711 C-15.06585392 184.59644035 -17.66745827 183.01994303 -20.37451172 181.30053711 C-21.56790161 180.57713135 -21.56790161 180.57713135 -22.78540039 179.83911133 C-24.5664423 178.75654687 -26.3419634 177.66486386 -28.11279297 176.56567383 C-31.31255599 174.58277433 -34.5287898 172.62800733 -37.74951172 170.67944336 C-41.32837286 168.51332658 -44.90610948 166.34555247 -48.47607422 164.16479492 C-54.12306135 160.71706676 -59.78171876 157.29826897 -65.49951172 153.96850586 C-66.49490967 153.3882666 -67.49030762 152.80802734 -68.51586914 152.21020508 C-70.35616134 151.14177 -72.19983075 150.07912006 -74.04760742 149.02368164 C-87.58838291 141.15890969 -87.58838291 141.15890969 -90.06201172 134.73803711 C-90.25779403 131.9887538 -90.34552091 129.34121838 -90.33666992 126.59228516 C-90.34178085 125.7738916 -90.34689178 124.95549805 -90.35215759 124.11230469 C-90.36605195 121.40804723 -90.3650966 118.70404476 -90.36279297 115.99975586 C-90.36668069 114.11652024 -90.37101552 112.23328549 -90.3757782 110.35005188 C-90.38324059 106.40163329 -90.3829495 102.45330412 -90.37768555 98.50488281 C-90.37189849 93.45430559 -90.38880334 88.40409599 -90.41203022 83.35357952 C-90.42679182 79.46299614 -90.42763582 75.57250073 -90.42452049 71.6818943 C-90.42503273 69.82043544 -90.43025221 67.95897154 -90.44033241 66.0975399 C-90.45272314 63.48877777 -90.44588894 60.88072417 -90.43432617 58.27197266 C-90.44196991 57.50861099 -90.44961365 56.74524933 -90.45748901 55.95875549 C-90.40137127 50.20606233 -89.42640182 45.12242205 -85.21435547 40.87475586 C-79.20281185 36.9412767 -73.01199669 33.42802651 -66.7097168 29.98828125 C-59.93565493 26.27555447 -53.30426967 22.34751946 -46.68701172 18.36303711 C-45.62716064 17.72873779 -44.56730957 17.09443848 -43.4753418 16.44091797 C-38.40596827 13.39774418 -33.37396349 10.31512971 -28.40576172 7.10913086 C-27.0800415 6.26970947 -27.0800415 6.26970947 -25.72753906 5.41333008 C-24.09487248 4.37687078 -22.47409561 3.3213049 -20.86914062 2.24243164 C-13.9918411 -2.08271569 -7.65915022 -3.1566056 0 0 Z " fill="#4FA841" transform="translate(414.06201171875,401.261962890625)"/>
<path d="M0 0 C3.26122093 1.62494683 6.408335 3.37952335 9.56152344 5.20507812 C10.70137695 5.84268066 11.84123047 6.4802832 13.015625 7.13720703 C15.30864138 8.4219032 17.59684321 9.71523466 19.87988281 11.01757812 C23.43343192 13.04194496 27.01194897 15.01701809 30.59643555 16.98583984 C37.73472855 20.91493003 44.80933638 24.95519462 51.87011719 29.02148438 C54.90721855 30.7426324 57.97591692 32.38548746 61.06152344 34.01757812 C67.01084005 37.25947377 71.99566687 40.02846552 74.06152344 46.83007812 C74.2682765 49.58037238 74.37564405 52.2314268 74.38378906 54.98168945 C74.39868378 56.19245903 74.39868378 56.19245903 74.41387939 57.4276886 C74.44300939 60.08919731 74.45670693 62.75046766 74.46777344 65.41210938 C74.47928542 67.26909894 74.49080077 69.12608848 74.50231934 70.983078 C74.52330688 74.87422793 74.53501344 78.76529561 74.54199219 82.65649414 C74.55295741 87.62993203 74.60101367 92.60227361 74.6579361 97.57536793 C74.6952795 101.41109849 74.70560474 105.24656726 74.70866394 109.08246422 C74.71469747 110.91523929 74.73068887 112.74801082 74.7570343 114.58060646 C74.98785295 131.86996032 74.98785295 131.86996032 69.71640015 137.50970459 C66.7284757 139.89367455 63.63922893 141.64907268 60.18652344 143.26757812 C58.66210368 144.02863464 57.13868737 144.79170395 55.61621094 145.55664062 C54.46910645 146.12366699 54.46910645 146.12366699 53.29882812 146.70214844 C49.9094474 148.41089341 46.6101425 150.26601729 43.31152344 152.14257812 C42.34678101 152.68773071 42.34678101 152.68773071 41.36254883 153.24389648 C37.56159609 155.39599823 33.77310459 157.56941948 29.98730469 159.74804688 C25.54388995 162.30488349 21.09116996 164.84471127 16.63037109 167.37109375 C14.95502656 168.32261047 13.28266379 169.2794023 11.61376953 170.2421875 C9.35653463 171.5406011 7.0866067 172.81326749 4.81152344 174.08007812 C4.15740479 174.46292969 3.50328613 174.84578125 2.8293457 175.24023438 C-2.07827687 177.92225608 -6.38743969 178.93075297 -11.93847656 177.83007812 C-15.93873441 176.27625304 -19.5937202 174.27207623 -23.31347656 172.14257812 C-24.29703125 171.61212891 -25.28058594 171.08167969 -26.29394531 170.53515625 C-34.53590674 165.94062919 -34.53590674 165.94062919 -36.93847656 160.83007812 C-36.62597656 157.51757812 -36.62597656 157.51757812 -35.93847656 154.83007812 C-35.27847656 154.83007812 -34.61847656 154.83007812 -33.93847656 154.83007812 C-33.27847656 153.51007813 -32.61847656 152.19007813 -31.93847656 150.83007812 C-34.70123833 151.35276278 -37.26456416 151.93877399 -39.93847656 152.83007812 C-54.28925341 155.45907719 -64.35606196 148.57708267 -75.93847656 140.83007812 C-76.69789551 140.34958008 -77.45731445 139.86908203 -78.23974609 139.37402344 C-79.29911377 138.66004395 -79.29911377 138.66004395 -80.37988281 137.93164062 C-80.99677979 137.52510254 -81.61367676 137.11856445 -82.24926758 136.69970703 C-86.79854497 131.66453341 -87.38655696 125.08609711 -87.37426758 118.61328125 C-87.38434341 117.83492416 -87.39441925 117.05656708 -87.40480042 116.25462341 C-87.43307027 113.70670841 -87.43914534 111.15938973 -87.44238281 108.61132812 C-87.45203557 106.82588465 -87.4621289 105.04044351 -87.47264099 103.25500488 C-87.4905477 99.52297464 -87.49616737 95.79115217 -87.49438477 92.05908203 C-87.49407954 87.29080266 -87.535098 82.52385993 -87.58670139 77.75589752 C-87.62014419 74.07198022 -87.62614003 70.38838397 -87.62455559 66.70433044 C-87.62808113 64.94692867 -87.64126882 63.18951729 -87.66455269 61.43226624 C-87.86331577 44.88898427 -87.86331577 44.88898427 -82.58792114 39.18409729 C-79.66335137 36.7833355 -76.62794898 34.95606433 -73.25097656 33.26757812 C-71.81082954 32.50448597 -70.37202614 31.73885273 -68.93457031 30.97070312 C-68.24218262 30.60525391 -67.54979492 30.23980469 -66.83642578 29.86328125 C-64.40636182 28.5404062 -62.11377008 27.05359259 -59.81347656 25.51757812 C-53.60611207 21.48185917 -47.08646607 18.03358363 -40.56396484 14.54077148 C-35.84916567 12.0058005 -31.19987615 9.41958144 -26.64160156 6.61132812 C-25.80564453 6.10182617 -24.9696875 5.59232422 -24.10839844 5.06738281 C-22.54618106 4.10723065 -20.99439064 3.12980278 -19.45605469 2.13183594 C-12.92412685 -1.85530011 -7.2511757 -2.88697524 0 0 Z " fill="#EFF1F5" transform="translate(513.9384765625,578.169921875)"/>
<path d="M0 0 C8.34627998 4.00810056 16.20804218 9.00713117 24.11328125 13.80859375 C28.58815493 16.5253364 33.08804309 19.19641375 37.60083008 21.84960938 C42.2460271 24.58075735 46.88108654 27.32894102 51.515625 30.078125 C53.08135254 31.0050415 53.08135254 31.0050415 54.67871094 31.95068359 C57.85895586 33.83838406 61.03184649 35.73790777 64.203125 37.640625 C65.68292847 38.51630127 65.68292847 38.51630127 67.19262695 39.40966797 C68.1074585 39.96154785 69.02229004 40.51342773 69.96484375 41.08203125 C70.77268311 41.56486572 71.58052246 42.0477002 72.4128418 42.54516602 C75.41388997 44.73297299 77.2917771 46.690308 77.89594173 50.43602085 C77.89837163 51.31335849 77.90080153 52.19069613 77.90330505 53.09461975 C77.91320969 54.10548141 77.92311432 55.11634308 77.93331909 56.15783691 C77.92881744 57.2608313 77.9243158 58.36382568 77.91967773 59.50024414 C77.92654099 60.66643784 77.93340424 61.83263153 77.94047546 63.03416443 C77.95879689 66.8939934 77.95489881 70.75341808 77.94921875 74.61328125 C77.95262561 76.61432904 77.95603962 78.61537703 77.96057183 80.61642259 C77.97461489 86.9058662 77.97305668 93.19517396 77.96166992 99.48461914 C77.9501788 105.97519202 77.96428109 112.46535218 77.9910664 118.95587069 C78.01320462 124.5288055 78.01986537 130.10161057 78.01398998 135.67458624 C78.01061582 139.00306907 78.0147661 142.33122782 78.03024101 145.65968513 C78.0450566 149.36857297 78.03454301 153.07654205 78.01733398 156.78540039 C78.03183594 158.44292831 78.03183594 158.44292831 78.04663086 160.13394165 C78.03679672 161.14198349 78.02696259 162.15002533 78.01683044 163.18861389 C78.01662116 164.0655745 78.01641188 164.94253511 78.01619625 165.84607029 C77.515625 168.078125 77.515625 168.078125 75.60762119 169.8935461 C73.515625 171.078125 73.515625 171.078125 71.54248047 170.92089844 C69.25809237 169.97104205 67.20828934 168.86779048 65.0859375 167.59375 C64.21807617 167.0766748 63.35021484 166.55959961 62.45605469 166.02685547 C61.52696289 165.46627441 60.59787109 164.90569336 59.640625 164.328125 C57.66951062 163.14803689 55.6981488 161.96836201 53.7265625 160.7890625 C52.20047363 159.87398926 52.20047363 159.87398926 50.64355469 158.94042969 C47.52190882 157.08186626 44.38539719 155.25151032 41.2421875 153.4296875 C39.73954346 152.55521973 39.73954346 152.55521973 38.20654297 151.66308594 C36.27346679 150.53912234 34.33766263 149.4198351 32.39892578 148.30566406 C31.52478027 147.79487305 30.65063477 147.28408203 29.75 146.7578125 C28.97881836 146.31163574 28.20763672 145.86545898 27.41308594 145.40576172 C25.515625 144.078125 25.515625 144.078125 23.515625 141.078125 C23.30444336 138.33477783 23.30444336 138.33477783 23.35546875 134.97363281 C23.37407959 133.08587128 23.37407959 133.08587128 23.39306641 131.15997314 C23.40347961 130.48755836 23.41389282 129.81514359 23.42462158 129.1223526 C23.46327618 126.28652652 23.46536202 123.45105372 23.46942139 120.61500168 C23.47715026 115.33775959 23.49860237 110.06172166 23.58740234 104.78515625 C23.64782103 101.11106469 23.65915017 97.43959365 23.63870239 93.76509857 C23.63997463 92.36962392 23.65913739 90.97404041 23.69699097 89.57907867 C24.05764491 81.5152285 24.05764491 81.5152285 20.38044739 74.72265625 C17.8296285 72.91124726 15.31203629 71.47334779 12.515625 70.078125 C10.93035008 69.11897439 9.34992492 68.15169892 7.77734375 67.171875 C6.25579926 66.30168105 4.73107409 65.43702355 3.203125 64.578125 C2.43162109 64.124375 1.66011719 63.670625 0.86523438 63.203125 C-3.34297052 60.79983996 -3.34297052 60.79983996 -8.03125 59.99609375 C-11.7212309 61.62368086 -15.04345985 63.69794887 -18.421875 65.890625 C-19.11216797 66.32955078 -19.80246094 66.76847656 -20.51367188 67.22070312 C-22.51152087 68.49516035 -24.49953037 69.78352852 -26.484375 71.078125 C-27.06848145 71.45630371 -27.65258789 71.83448242 -28.25439453 72.22412109 C-30.53851801 73.71937279 -32.54761334 75.14136334 -34.484375 77.078125 C-34.7681479 79.82864456 -34.7681479 79.82864456 -34.69213867 83.08496094 C-34.68941452 84.34677185 -34.68669037 85.60858276 -34.68388367 86.90863037 C-34.67556298 87.92343098 -34.67556298 87.92343098 -34.6670742 88.9587326 C-34.65223626 91.07785101 -34.65381497 93.19633786 -34.66072083 95.31549072 C-34.67956309 101.34106146 -34.68608074 107.36614695 -34.63891602 113.39160156 C-34.61125704 117.07723071 -34.61770477 120.76148353 -34.64592934 124.44709015 C-34.65017982 125.8488586 -34.64175787 127.25072702 -34.6201992 128.65233612 C-34.45986543 139.52858683 -34.45986543 139.52858683 -36.86483765 143.16603088 C-38.65273565 144.75967588 -40.39359015 145.91666006 -42.484375 147.078125 C-43.56750977 147.78122803 -44.65064453 148.48433105 -45.76660156 149.20874023 C-47.42900879 150.1630896 -47.42900879 150.1630896 -49.125 151.13671875 C-50.03653839 151.6650808 -50.03653839 151.6650808 -50.9664917 152.20411682 C-52.88524795 153.31483412 -54.80939308 154.41573937 -56.734375 155.515625 C-58.63761132 156.60994948 -60.53957662 157.70641407 -62.44030762 158.80508423 C-63.68150445 159.52216937 -64.92408798 160.23686001 -66.16809082 160.94906616 C-70.97509148 163.72024874 -75.56956928 166.75119037 -80.10839844 169.94555664 C-83.06554282 171.3551531 -84.42686538 171.14117282 -87.484375 170.078125 C-89.9845735 167.5779265 -89.73691784 166.8058815 -89.74507141 163.3535614 C-89.75215622 162.35675354 -89.75924103 161.35994568 -89.76654053 160.33293152 C-89.76406311 159.23523941 -89.76158569 158.1375473 -89.7590332 157.0065918 C-89.76414413 155.85365631 -89.76925507 154.70072083 -89.77452087 153.5128479 C-89.78847218 149.68429436 -89.78745567 145.85591976 -89.78515625 142.02734375 C-89.78805946 140.04435482 -89.79096688 138.06136582 -89.794563 136.07837802 C-89.80566856 129.83877337 -89.80609042 123.5992289 -89.80004883 117.35961914 C-89.79401392 110.92486571 -89.80630517 104.4903312 -89.8276189 98.05561513 C-89.84524424 92.53111206 -89.8512346 87.00667861 -89.84798115 81.48214847 C-89.84616883 78.18268243 -89.85011212 74.88340715 -89.86269569 71.58395958 C-89.87501263 67.90174832 -89.86829589 64.22004475 -89.85668945 60.5378418 C-89.86815506 58.90041267 -89.86815506 58.90041267 -89.87985229 57.22990417 C-89.81517607 47.96072827 -89.81517607 47.96072827 -86.484375 44.078125 C-84.03369141 42.21972656 -84.03369141 42.21972656 -81.0859375 40.46875 C-79.98080811 39.80488281 -78.87567871 39.14101563 -77.73706055 38.45703125 C-76.52800295 37.74710467 -75.31876974 37.03747709 -74.109375 36.328125 C-72.85857245 35.58296778 -71.60833736 34.8368573 -70.35864258 34.08984375 C-66.4104538 31.7356769 -62.44814663 29.40592567 -58.484375 27.078125 C-57.17846124 26.30939246 -55.87263359 25.54051362 -54.56689453 24.77148438 C-48.94798913 21.46387414 -43.32396912 18.1651915 -37.69230652 14.87934875 C-30.80382892 10.86011678 -23.95241125 6.78581409 -17.13671875 2.64453125 C-11.25498306 -0.82907112 -6.67846251 -2.47817162 0 0 Z " fill="#303331" transform="translate(204.484375,398.921875)"/>
<path d="M0 0 C2.48209944 1.2686745 4.88101803 2.62909984 7.28076172 4.04736328 C8.16570312 4.55243408 9.05064453 5.05750488 9.96240234 5.57788086 C15.49561403 8.75266624 20.98085983 12.01428659 26.42480469 15.33984375 C30.72227786 17.95337192 35.07347405 20.46513626 39.44873047 22.94580078 C40.05669464 23.29091202 40.66465881 23.63602325 41.29104614 23.99159241 C44.34741612 25.72544416 47.40669756 27.45385924 50.47021484 29.17504883 C73.96545146 42.48099101 73.96545146 42.48099101 77.71826172 49.10986328 C78.39183828 52.65977391 78.41829283 56.06836877 78.34326172 59.67236328 C78.36259766 60.605 78.38193359 61.53763672 78.40185547 62.49853516 C78.37208331 66.67556864 78.29200332 69.28798449 75.86669922 72.76220703 C74.82771484 73.53693359 73.78873047 74.31166016 72.71826172 75.10986328 C71.94047363 75.71113037 71.16268555 76.31239746 70.36132812 76.93188477 C63.7812688 81.9058206 56.87079057 86.14376387 49.71826172 90.23486328 C48.71537109 90.81623047 47.71248047 91.39759766 46.67919922 91.99658203 C43.70083978 93.71664233 40.71139052 95.41565799 37.71826172 97.10986328 C36.68572266 97.70379883 35.65318359 98.29773438 34.58935547 98.90966797 C33.10628906 99.74739746 33.10628906 99.74739746 31.59326172 100.60205078 C30.25908203 101.36171143 30.25908203 101.36171143 28.89794922 102.13671875 C28.17865234 102.45785645 27.45935547 102.77899414 26.71826172 103.10986328 C26.05826172 102.77986328 25.39826172 102.44986328 24.71826172 102.10986328 C24.70891602 101.43407227 24.69957031 100.75828125 24.68994141 100.06201172 C24.63618871 96.99389218 24.5525518 93.92728941 24.46826172 90.85986328 C24.45408203 89.79638672 24.43990234 88.73291016 24.42529297 87.63720703 C24.39306641 86.61240234 24.36083984 85.58759766 24.32763672 84.53173828 C24.29621582 83.11779785 24.29621582 83.11779785 24.26416016 81.67529297 C23.36288855 77.4398001 20.65768961 75.77734175 17.24804688 73.35473633 C14.29044302 71.48443259 11.32231236 69.63333293 8.34326172 67.79736328 C7.31458984 67.13929688 6.28591797 66.48123047 5.22607422 65.80322266 C4.22576172 65.18640625 3.22544922 64.56958984 2.19482422 63.93408203 C1.28812988 63.36778076 0.38143555 62.80147949 -0.55273438 62.21801758 C-4.01226114 60.81322316 -5.7156367 61.08047611 -9.28173828 62.10986328 C-12.2059572 63.46846158 -12.2059572 63.46846158 -15.08251953 65.23486328 C-16.14148438 65.85876953 -17.20044922 66.48267578 -18.29150391 67.12548828 C-19.92635742 68.10775391 -19.92635742 68.10775391 -21.59423828 69.10986328 C-23.2580957 70.09212891 -23.2580957 70.09212891 -24.95556641 71.09423828 C-29.88509028 73.73878883 -29.88509028 73.73878883 -34.28173828 77.10986328 C-34.37013499 79.48554848 -34.39704133 81.83195002 -34.37939453 84.20751953 C-34.37727211 85.27080727 -34.37727211 85.27080727 -34.37510681 86.35557556 C-34.36949271 88.62788041 -34.35693791 90.90008803 -34.34423828 93.17236328 C-34.33922509 94.70947124 -34.33466187 96.24658073 -34.33056641 97.78369141 C-34.31951871 101.5591197 -34.30224469 105.33447499 -34.28173828 109.10986328 C-33.53827148 109.53170898 -32.79480469 109.95355469 -32.02880859 110.38818359 C-17.48845247 118.64638894 -3.00405794 126.97084579 11.29443359 135.64355469 C13.89480029 137.2166613 16.50105189 138.77963889 19.10888672 140.34033203 C20.00542969 140.8769043 20.90197266 141.41347656 21.82568359 141.96630859 C23.52474082 142.98285466 25.22394725 143.99915141 26.92333984 145.01513672 C28.45395191 145.93235504 29.98268535 146.85271759 31.50927734 147.77661133 C33.01243407 148.68385479 34.52184778 149.58079382 36.03662109 150.46850586 C36.76171875 150.90187256 37.48681641 151.33523926 38.23388672 151.78173828 C38.88131836 152.16297852 39.52875 152.54421875 40.19580078 152.93701172 C41.71826172 154.10986328 41.71826172 154.10986328 42.71826172 156.92236328 C42.71826172 157.64423828 42.71826172 158.36611328 42.71826172 159.10986328 C39.46091067 161.80964644 36.20186695 164.12675196 32.54248047 166.24658203 C31.0641272 167.1066687 31.0641272 167.1066687 29.5559082 167.98413086 C28.51635986 168.58249756 27.47681152 169.18086426 26.40576172 169.79736328 C24.80293335 170.72295044 24.80293335 170.72295044 23.16772461 171.66723633 C21.01962113 172.90614778 18.8704657 174.14323726 16.72021484 175.37841797 C14.07994479 176.90125427 11.45158347 178.44196083 8.82763672 179.99267578 C7.43729976 180.80306599 6.04669791 181.61300202 4.65576172 182.42236328 C4.04498779 182.78869873 3.43421387 183.15503418 2.80493164 183.5324707 C-1.24135296 185.85618607 -4.6077638 187.00235675 -9.28173828 187.10986328 C-15.89087915 185.24765658 -21.44369795 181.8468368 -27.28173828 178.29736328 C-29.23699791 177.12470503 -31.19274449 175.95285841 -33.14892578 174.78173828 C-34.15665039 174.17652344 -35.164375 173.57130859 -36.20263672 172.94775391 C-41.2455184 169.93769894 -46.32780807 166.99602255 -51.40673828 164.04736328 C-54.39075866 162.30706807 -57.37345921 160.56453912 -60.35546875 158.82080078 C-62.30421052 157.68140629 -64.25375403 156.54338192 -66.20410156 155.40673828 C-68.96396125 153.79497646 -71.71739211 152.17275993 -74.46923828 150.54736328 C-75.28859863 150.07097412 -76.10795898 149.59458496 -76.95214844 149.10375977 C-82.44433759 145.8399065 -86.68852284 142.49968645 -90.28173828 137.10986328 C-90.48677112 134.29768688 -90.57543616 131.58372652 -90.57226562 128.77050781 C-90.57898285 127.91978699 -90.58570007 127.06906616 -90.59262085 126.19256592 C-90.61164289 123.37587671 -90.6155272 120.55942525 -90.61767578 117.74267578 C-90.62410095 115.78595888 -90.6308291 113.82924294 -90.6378479 111.87252808 C-90.64983131 107.76851168 -90.65352765 103.66457953 -90.65234375 99.56054688 C-90.65214054 94.30227824 -90.67944015 89.04454995 -90.71388817 83.78640938 C-90.73612896 79.74406454 -90.74018215 75.70185029 -90.7391243 71.65945053 C-90.74148461 69.72096774 -90.75033226 67.78248159 -90.76578903 65.84405899 C-90.78539132 63.1316575 -90.77963375 60.4204283 -90.76757812 57.70800781 C-90.77881714 56.90783234 -90.79005615 56.10765686 -90.80163574 55.28323364 C-90.7447723 50.2470302 -89.8804702 47.65018113 -86.28173828 44.10986328 C-84.36010742 42.61865234 -84.36010742 42.61865234 -82.31689453 41.37548828 C-81.53121094 40.89233154 -80.74552734 40.4091748 -79.93603516 39.91137695 C-78.6530957 39.14337769 -78.6530957 39.14337769 -77.34423828 38.35986328 C-76.44125 37.80983643 -75.53826172 37.25980957 -74.60791016 36.69311523 C-65.35977737 31.08957061 -56.02200702 25.63137967 -46.67260742 20.19873047 C-38.79895834 15.61966864 -31.02315852 10.9076935 -23.28173828 6.10986328 C-8.12482795 -3.1696044 -8.12482795 -3.1696044 0 0 Z " fill="#303331" transform="translate(826.28173828125,399.89013671875)"/>
<path d="M0 0 C3.26122093 1.62494683 6.408335 3.37952335 9.56152344 5.20507812 C10.70137695 5.84268066 11.84123047 6.4802832 13.015625 7.13720703 C15.30864138 8.4219032 17.59684321 9.71523466 19.87988281 11.01757812 C23.43343192 13.04194496 27.01194897 15.01701809 30.59643555 16.98583984 C37.73472855 20.91493003 44.80933638 24.95519462 51.87011719 29.02148438 C54.90721855 30.7426324 57.97591692 32.38548746 61.06152344 34.01757812 C67.01084005 37.25947377 71.99566687 40.02846552 74.06152344 46.83007812 C74.2682765 49.58037238 74.37564405 52.2314268 74.38378906 54.98168945 C74.39868378 56.19245903 74.39868378 56.19245903 74.41387939 57.4276886 C74.44300939 60.08919731 74.45670693 62.75046766 74.46777344 65.41210938 C74.47928542 67.26909894 74.49080077 69.12608848 74.50231934 70.983078 C74.52330688 74.87422793 74.53501344 78.76529561 74.54199219 82.65649414 C74.55295741 87.62993203 74.60101367 92.60227361 74.6579361 97.57536793 C74.6952795 101.41109849 74.70560474 105.24656726 74.70866394 109.08246422 C74.71469747 110.91523929 74.73068887 112.74801082 74.7570343 114.58060646 C74.98785295 131.86996032 74.98785295 131.86996032 69.71640015 137.50970459 C66.7284757 139.89367455 63.63922893 141.64907268 60.18652344 143.26757812 C58.66210368 144.02863464 57.13868737 144.79170395 55.61621094 145.55664062 C54.46910645 146.12366699 54.46910645 146.12366699 53.29882812 146.70214844 C49.9094474 148.41089341 46.6101425 150.26601729 43.31152344 152.14257812 C42.34678101 152.68773071 42.34678101 152.68773071 41.36254883 153.24389648 C37.56159609 155.39599823 33.77310459 157.56941948 29.98730469 159.74804688 C25.54388995 162.30488349 21.09116996 164.84471127 16.63037109 167.37109375 C14.95502656 168.32261047 13.28266379 169.2794023 11.61376953 170.2421875 C9.35653463 171.5406011 7.0866067 172.81326749 4.81152344 174.08007812 C4.15740479 174.46292969 3.50328613 174.84578125 2.8293457 175.24023438 C-2.07827687 177.92225608 -6.38743969 178.93075297 -11.93847656 177.83007812 C-15.93873441 176.27625304 -19.5937202 174.27207623 -23.31347656 172.14257812 C-24.29703125 171.61212891 -25.28058594 171.08167969 -26.29394531 170.53515625 C-34.42404814 166.00298538 -34.42404814 166.00298538 -36.93847656 160.83007812 C-36.75097656 158.58007812 -36.75097656 158.58007812 -35.93847656 156.83007812 C-32.75197539 155.23682754 -30.48645069 155.4893321 -26.93847656 155.83007812 C-23.72751187 157.24252805 -20.79233433 159.04746473 -17.81347656 160.89257812 C-16.25653225 161.85512251 -14.69161649 162.80491906 -13.11816406 163.74023438 C-12.4347998 164.1644165 -11.75143555 164.58859863 -11.04736328 165.02563477 C-8.20902431 166.10833063 -6.82526264 165.74627109 -3.93847656 164.83007812 C-1.83852995 163.81467148 0.22547507 162.72350804 2.26074219 161.58398438 C3.14278572 161.09393921 3.14278572 161.09393921 4.04264832 160.59399414 C5.94841951 159.53324283 7.84872077 158.46309011 9.74902344 157.39257812 C11.0659045 156.6568636 12.38312664 155.92175927 13.70068359 155.18725586 C16.30536942 153.73418328 18.90809671 152.27769675 21.50927734 150.81835938 C24.48146168 149.15228587 27.46182744 147.50179404 30.44824219 145.86132812 C38.15916168 141.62344505 45.78418884 137.27982844 53.29541016 132.69555664 C56.16779205 130.94427263 59.0413591 129.30960832 62.06152344 127.83007812 C62.20050218 117.5990158 62.30713335 107.36817774 62.37239647 97.13636398 C62.40371884 92.38532946 62.44620754 87.63494036 62.51416016 82.88427734 C62.5793214 78.30010889 62.61522266 73.71656143 62.6307869 69.13196564 C62.64187918 67.3823697 62.66354046 65.63280802 62.69590378 63.88347626 C62.73942733 61.43361314 62.74545974 58.98631992 62.74267578 56.53613281 C62.76424744 55.81180557 62.78581909 55.08747833 62.80804443 54.34120178 C62.84448344 52.04939451 62.84448344 52.04939451 62.06152344 48.83007812 C59.30811418 46.35132071 59.30811418 46.35132071 56.06152344 44.83007812 C55.05476562 44.311875 54.04800781 43.79367187 53.01074219 43.25976562 C51.934375 42.74671875 50.85800781 42.23367188 49.74902344 41.70507812 C44.45065626 39.12286432 39.36235348 36.30345913 34.31152344 33.26757812 C25.65946145 28.07388092 16.78464276 23.31113342 7.8828125 18.56420898 C6.81256836 17.99323486 5.74232422 17.42226074 4.63964844 16.83398438 C3.68477539 16.32681885 2.72990234 15.81965332 1.74609375 15.29711914 C-0.08019941 14.29910208 -1.87567247 13.24300702 -3.6394043 12.13818359 C-5.8402712 10.62283359 -5.8402712 10.62283359 -8.30175781 10.89648438 C-11.80874162 12.13821642 -14.92995341 13.89286228 -18.12597656 15.76757812 C-19.56048708 16.59246732 -20.99539785 17.41666077 -22.43066406 18.24023438 C-23.54393066 18.8824292 -23.54393066 18.8824292 -24.6796875 19.53759766 C-28.34668014 21.63585306 -32.05091413 23.66591997 -35.75097656 25.70507812 C-44.5324586 30.56712544 -53.22953057 35.56986152 -61.89453125 40.63623047 C-63.70072229 41.69120827 -65.51072327 42.73965734 -67.32128906 43.78710938 C-68.22621094 44.31691406 -69.13113281 44.84671875 -70.06347656 45.39257812 C-70.80855469 45.82699219 -71.55363281 46.26140625 -72.32128906 46.70898438 C-74.09808683 47.74906358 -74.09808683 47.74906358 -74.93847656 49.83007812 C-75.05712586 52.21913335 -75.11674289 54.58000452 -75.13134766 56.97021484 C-75.13952515 57.70535309 -75.14770264 58.44049133 -75.15612793 59.19790649 C-75.18097868 61.63518455 -75.19749574 64.07240444 -75.21191406 66.50976562 C-75.21723774 67.34141361 -75.22256142 68.1730616 -75.22804642 69.02991104 C-75.25477479 73.43057585 -75.2741519 77.83121231 -75.28857422 82.23193359 C-75.30523466 86.78084396 -75.35002428 91.32903159 -75.40094566 95.87766838 C-75.43457119 99.37265879 -75.44614634 102.8674765 -75.4518013 106.36261368 C-75.4585253 108.03959817 -75.47377724 109.71657084 -75.49769211 111.39339828 C-75.52925244 113.73991925 -75.52939551 116.08447558 -75.52197266 118.43115234 C-75.53837799 119.12428528 -75.55478333 119.81741821 -75.57168579 120.53155518 C-75.5238804 124.22154087 -75.20503945 125.56587807 -72.5405426 128.20675659 C-68.60059668 130.66472612 -64.60472006 132.90657888 -60.50097656 135.08007812 C-59.66759766 135.53898438 -58.83421875 135.99789062 -57.97558594 136.47070312 C-53.51621658 138.83963293 -50.13373599 140.5875486 -44.93847656 139.83007812 C-43.57575205 138.69491797 -43.57575205 138.69491797 -43.8316803 135.68617249 C-43.83490117 134.25894128 -43.84371883 132.83171691 -43.85668945 131.40454102 C-43.85975601 130.62732193 -43.86282257 129.85010284 -43.86598206 129.04933167 C-43.87315375 127.35614569 -43.88255227 125.66296806 -43.89387703 123.96980476 C-43.91119336 121.29337643 -43.92154268 118.61700717 -43.92979431 115.9405365 C-43.95431541 108.32887165 -43.98987032 100.7172863 -44.03442383 93.10571289 C-44.06115318 88.45563218 -44.0782315 83.80559773 -44.08929253 79.15545464 C-44.09551754 77.37916797 -44.10554164 75.60289054 -44.11937141 73.8266468 C-44.138511 71.34604092 -44.14547295 68.86567934 -44.1496582 66.38500977 C-44.1584198 65.64571228 -44.1671814 64.90641479 -44.1762085 64.14471436 C-44.16637218 59.05797375 -44.16637218 59.05797375 -41.93847656 56.83007812 C-38.96972656 56.56445312 -38.96972656 56.56445312 -35.43847656 56.58007812 C-34.27316406 56.57492187 -33.10785156 56.56976562 -31.90722656 56.56445312 C-28.93847656 56.83007812 -28.93847656 56.83007812 -26.93847656 58.83007812 C-26.71917964 61.37139928 -26.62393852 63.80565181 -26.61621094 66.34985352 C-26.60628113 67.12572815 -26.59635132 67.90160278 -26.58612061 68.70098877 C-26.55683436 71.27660646 -26.54326217 73.85197728 -26.53222656 76.42773438 C-26.52072131 78.21935533 -26.50920587 80.01097622 -26.49768066 81.80259705 C-26.4766445 85.56624499 -26.46497178 89.32980737 -26.45800781 93.09350586 C-26.44707448 97.89992232 -26.39910792 102.70519512 -26.3420639 107.51125431 C-26.30466679 111.21664126 -26.29439213 114.92175776 -26.29133606 118.62731743 C-26.28530754 120.39786423 -26.2693333 122.16840767 -26.2429657 123.93876839 C-26.01218959 140.63443198 -26.01218959 140.63443198 -31.25842285 147.2197113 C-36.42426452 152.17127921 -41.13675706 153.46476427 -48.26098633 153.70947266 C-58.58407414 153.3580587 -67.62470913 146.39081794 -75.93847656 140.83007812 C-76.69789551 140.34958008 -77.45731445 139.86908203 -78.23974609 139.37402344 C-79.29911377 138.66004395 -79.29911377 138.66004395 -80.37988281 137.93164062 C-80.99677979 137.52510254 -81.61367676 137.11856445 -82.24926758 136.69970703 C-86.79854497 131.66453341 -87.38655696 125.08609711 -87.37426758 118.61328125 C-87.38434341 117.83492416 -87.39441925 117.05656708 -87.40480042 116.25462341 C-87.43307027 113.70670841 -87.43914534 111.15938973 -87.44238281 108.61132812 C-87.45203557 106.82588465 -87.4621289 105.04044351 -87.47264099 103.25500488 C-87.4905477 99.52297464 -87.49616737 95.79115217 -87.49438477 92.05908203 C-87.49407954 87.29080266 -87.535098 82.52385993 -87.58670139 77.75589752 C-87.62014419 74.07198022 -87.62614003 70.38838397 -87.62455559 66.70433044 C-87.62808113 64.94692867 -87.64126882 63.18951729 -87.66455269 61.43226624 C-87.86331577 44.88898427 -87.86331577 44.88898427 -82.58792114 39.18409729 C-79.66335137 36.7833355 -76.62794898 34.95606433 -73.25097656 33.26757812 C-71.81082954 32.50448597 -70.37202614 31.73885273 -68.93457031 30.97070312 C-68.24218262 30.60525391 -67.54979492 30.23980469 -66.83642578 29.86328125 C-64.40636182 28.5404062 -62.11377008 27.05359259 -59.81347656 25.51757812 C-53.60611207 21.48185917 -47.08646607 18.03358363 -40.56396484 14.54077148 C-35.84916567 12.0058005 -31.19987615 9.41958144 -26.64160156 6.61132812 C-25.80564453 6.10182617 -24.9696875 5.59232422 -24.10839844 5.06738281 C-22.54618106 4.10723065 -20.99439064 3.12980278 -19.45605469 2.13183594 C-12.92412685 -1.85530011 -7.2511757 -2.88697524 0 0 Z " fill="#45A437" transform="translate(513.9384765625,578.169921875)"/>
<path d="M0 0 C1.7614658 0.95721959 3.50434572 1.94917637 5.23046875 2.96875 C6.19791016 3.53980469 7.16535156 4.11085938 8.16210938 4.69921875 C9.16048828 5.29347656 10.15886719 5.88773437 11.1875 6.5 C12.19748047 7.09425781 13.20746094 7.68851562 14.24804688 8.30078125 C21.74203356 12.74203356 21.74203356 12.74203356 24 15 C24.6636091 20.14188856 24.79816383 25.28448229 24.91992188 30.46459961 C24.97295608 32.18513919 25.054633 33.90505334 25.16601562 35.62280273 C26.05208274 49.45959476 26.05208274 49.45959476 22.67895508 53.63540649 C19.40208731 56.46163779 15.74521572 58.35779962 11.82189941 60.13288879 C8.88458915 61.53086644 6.23074294 63.29799573 3.5 65.0625 C-0.58522872 67.59281723 -3.18650213 68.80129572 -8 68 C-11.5153679 66.31345589 -14.77266808 64.27402837 -18.0625 62.1875 C-18.94744141 61.64029297 -19.83238281 61.09308594 -20.74414062 60.52929688 C-22.39706881 59.50629181 -24.04666054 58.47786033 -25.69165039 57.44213867 C-28.00263422 55.91381826 -28.00263422 55.91381826 -30.74047852 54.84228516 C-33 53 -33 53 -33.71044922 49.26635742 C-33.7705154 47.71357166 -33.79995476 46.15940863 -33.8046875 44.60546875 C-33.81895782 43.78049393 -33.83322815 42.9555191 -33.84793091 42.10554504 C-33.86885756 40.35977762 -33.87640093 38.61380611 -33.87158203 36.86791992 C-33.87497807 34.20470132 -33.95276906 31.55046868 -34.03515625 28.88867188 C-34.2092185 16.63251353 -34.2092185 16.63251353 -31.27734375 12.67431641 C-28.92085606 11.08555087 -26.63337042 10.05996517 -24 9 C-22.36406371 8.00524466 -20.74405027 6.9838523 -19.140625 5.9375 C-17.5122603 4.95527041 -15.88204448 3.97610316 -14.25 3 C-13.42628906 2.48566406 -12.60257813 1.97132813 -11.75390625 1.44140625 C-10.95339844 0.96574219 -10.15289063 0.49007813 -9.328125 0 C-8.6155957 -0.433125 -7.90306641 -0.86625 -7.16894531 -1.3125 C-4.11371093 -2.28093089 -2.812386 -1.44178092 0 0 Z " fill="#EFF1F6" transform="translate(618,460)"/>
<path d="M0 0 C1.15371094 -0.02449219 2.30742188 -0.04898438 3.49609375 -0.07421875 C12.91128978 -0.10642581 20.86735828 2.02297533 27.99609375 8.45703125 C30.16824319 11.77954021 29.9051458 15.12196701 29.7890625 18.984375 C29.25 21.375 29.25 21.375 26.25 23.375 C24.09375 23.67578125 24.09375 23.67578125 21.75 23.6875 C20.58984375 23.71263672 20.58984375 23.71263672 19.40625 23.73828125 C16.74300114 23.28958171 15.90337841 22.46588777 14.25 20.375 C13.981875 19.715 13.71375 19.055 13.4375 18.375 C11.66615736 15.39168609 9.40403976 14.67372225 6.25 13.375 C-1.28325072 11.52318084 -13.83738147 10.45813275 -20.75 14.5625 C-22.29636733 17.36529079 -22.27198533 19.24308802 -21.75 22.375 C-17.97483225 25.2152294 -14.11575374 26.23104422 -9.5625 27.3125 C-8.87269043 27.48088379 -8.18288086 27.64926758 -7.47216797 27.82275391 C-3.67982395 28.73621342 0.1210954 29.55945799 3.94921875 30.30859375 C22.8441332 34.06204297 22.8441332 34.06204297 29.375 41.9375 C31.04236895 48.48787801 31.84404559 56.2745973 28.5625 62.4375 C22.8578059 69.68400331 15.57707256 72.64216599 6.51782227 73.88842773 C2.37088613 74.25327701 -1.77687107 74.39925966 -5.9375 74.5 C-6.66623322 74.52268951 -7.39496643 74.54537903 -8.14578247 74.5687561 C-19.23403692 74.87559762 -29.02683136 74.2927991 -38.75 68.375 C-41.24210439 65.88289561 -41.01015661 64.37139212 -41.0234375 60.96484375 C-41.01570313 60.27519531 -41.00796875 59.58554687 -41 58.875 C-41.00773437 58.18535156 -41.01546875 57.49570312 -41.0234375 56.78515625 C-41.00333293 51.62833293 -41.00333293 51.62833293 -38.75 49.375 C-36.0625 48.6875 -36.0625 48.6875 -32.75 49.375 C-30.91815385 51.51361465 -29.42147311 53.71362257 -27.94921875 56.11328125 C-23.1872711 61.01055957 -16.29312989 61.75533764 -9.70874023 61.89306641 C-8.52260132 61.88412354 -8.52260132 61.88412354 -7.3125 61.875 C-6.07125366 61.87185791 -6.07125366 61.87185791 -4.80493164 61.86865234 C2.75100221 61.67412992 8.8091609 59.8158391 14.25 54.375 C14.41681109 51.29152174 14.41681109 51.29152174 14.25 48.375 C7.92162947 45.80538086 1.58572628 43.88316938 -5.0625 42.375 C-29.31201285 36.81298715 -29.31201285 36.81298715 -37.75 28.375 C-39.42654985 14.44331588 -39.42654985 14.44331588 -36.32421875 8.765625 C-26.87655898 -0.7022653 -12.51291004 0.01417091 0 0 Z " fill="#47A539" transform="translate(531.75,631.625)"/>
<path d="M0 0 C2.66796875 1.3046875 2.66796875 1.3046875 5.1875 2.875 C6.02667969 3.38804687 6.86585938 3.90109375 7.73046875 4.4296875 C8.47941406 4.94789063 9.22835937 5.46609375 10 6 C10.86431641 6.59554688 10.86431641 6.59554688 11.74609375 7.203125 C13.79292022 10.13627197 13.70024613 13.41112873 13.875 16.875 C13.93429687 17.58269531 13.99359375 18.29039062 14.0546875 19.01953125 C14.32953228 23.63177013 13.98101303 26.43276265 11 30 C6.25122938 33.65183238 1.34476578 36.80129104 -4.6875 37.3125 C-11.26003512 34.70828797 -17.1470886 31.04847288 -21 25 C-21.53125 21.40625 -21.53125 21.40625 -21.5 17.5 C-21.5103125 16.2109375 -21.520625 14.921875 -21.53125 13.59375 C-20.91552646 9.42856132 -19.99180094 7.91066736 -17 5 C-14.4140625 3.1640625 -14.4140625 3.1640625 -11.625 1.625 C-10.70976563 1.10164063 -9.79453125 0.57828125 -8.8515625 0.0390625 C-5.35334818 -1.23562929 -3.56059983 -1.01063018 0 0 Z " fill="#49A53C" transform="translate(824,474)"/>
<path d="M0 0 C1.35000424 0.75046102 2.70027202 1.50044812 4.05078125 2.25 C4.73865723 2.63671875 5.4265332 3.0234375 6.13525391 3.421875 C8.68082949 4.83668931 11.25783821 6.18524016 13.83935547 7.53295898 C20.45594723 10.99508844 26.89467777 14.69804678 33.265625 18.59350586 C37.47431475 21.16554716 41.11036486 23.27039555 45.875 24.5625 C46.968125 24.8925 48.06125 25.2225 49.1875 25.5625 C49.6825 26.5525 49.6825 26.5525 50.1875 27.5625 C49.135625 27.3975 48.08375 27.2325 47 27.0625 C43.98281204 26.66680322 41.21656028 26.47071029 38.1875 26.5625 C37.6925 28.0475 37.6925 28.0475 37.1875 29.5625 C38.8375 30.2225 40.4875 30.8825 42.1875 31.5625 C41.1975 32.0575 41.1975 32.0575 40.1875 32.5625 C29.65875271 28.55248931 19.77755382 21.82761782 10.04980469 16.21191406 C5.16637458 13.39781872 0.26999764 10.60640823 -4.625 7.8125 C-6.40240124 6.79697561 -8.17975045 5.78136016 -9.95703125 4.765625 C-10.70315674 4.33926758 -11.44928223 3.91291016 -12.21801758 3.47363281 C-12.74419678 3.17295898 -13.27037598 2.87228516 -13.8125 2.5625 C-13.1525 2.2325 -12.4925 1.9025 -11.8125 1.5625 C-11.16036708 -0.46213255 -11.16036708 -0.46213255 -10.8125 -2.4375 C-6.58918352 -4.35528391 -3.66399101 -2.10878202 0 0 Z " fill="#4FA741" transform="translate(530.8125,589.4375)"/>
<path d="M0 0 C0 0.99 0 1.98 0 3 C-1.95890881 4.39300182 -3.9639118 5.72245446 -6 7 C-8.43638232 9.10032958 -8.94893544 9.84680631 -10 13 C-10.10138534 15.66600761 -10.14683939 18.30594717 -10.14526367 20.97216797 C-10.14862228 21.78387451 -10.1519809 22.59558105 -10.15544128 23.43188477 C-10.16495011 26.11866786 -10.1668944 28.80538862 -10.16796875 31.4921875 C-10.17118149 33.35922267 -10.17454558 35.2262576 -10.17805481 37.09329224 C-10.18404599 41.0089781 -10.18589473 44.9246419 -10.18530273 48.84033203 C-10.18520114 53.85629963 -10.19885071 58.87212558 -10.21607494 63.88805962 C-10.22719727 67.74509327 -10.22922187 71.60209272 -10.22869301 75.45914078 C-10.22987287 77.30829481 -10.23429502 79.15744973 -10.24202538 81.00658798 C-10.25182943 83.59417365 -10.24894553 86.18145229 -10.24291992 88.76904297 C-10.24853943 89.53181549 -10.25415894 90.29458801 -10.25994873 91.08047485 C-10.2358897 95.14908013 -9.9404305 98.38776789 -8 102 C-5.72066834 103.88289944 -5.72066834 103.88289944 -2.8984375 105.41796875 C-1.85743896 106.02825928 -0.81644043 106.6385498 0.25610352 107.26733398 C1.92370728 108.21781616 1.92370728 108.21781616 3.625 109.1875 C5.89782637 110.51444221 8.1699611 111.84256981 10.44140625 113.171875 C12.11420654 114.14350586 12.11420654 114.14350586 13.82080078 115.13476562 C18.11888387 117.65644853 22.34899743 120.2775601 26.5625 122.9375 C27.22781738 123.35604248 27.89313477 123.77458496 28.57861328 124.20581055 C30.05377653 125.13503936 31.52714418 126.06711815 33 127 C32.01 127.495 32.01 127.495 31 128 C28.28540039 126.6640625 28.28540039 126.6640625 24.84765625 124.625 C24.23288925 124.262854 23.61812225 123.90070801 22.98472595 123.52758789 C21.00612021 122.35919241 19.03446135 121.17956736 17.0625 120 C15.76798929 119.23498091 14.47307156 118.47065011 13.17773438 117.70703125 C10.02375179 115.84395382 6.88864899 113.95132311 3.75714111 112.05078125 C2.10147323 111.06068162 0.42407931 110.10717532 -1.25439453 109.15625 C-2.70821533 108.30546875 -2.70821533 108.30546875 -4.19140625 107.4375 C-5.44932983 106.72400391 -5.44932983 106.72400391 -6.73266602 105.99609375 C-11.31392252 101.96289108 -12.792099 98.23779708 -13.34562683 92.27975464 C-13.53168253 87.58078325 -13.47677648 82.88482745 -13.42578125 78.18359375 C-13.42085046 76.44060134 -13.41755607 74.69760362 -13.41581726 72.9546051 C-13.40820109 69.31241773 -13.38771435 65.67062668 -13.35668945 62.02856445 C-13.31708717 57.37280215 -13.29907142 52.71729673 -13.28938007 48.06138515 C-13.27938101 43.60208703 -13.25953301 39.1428504 -13.23828125 34.68359375 C-13.2348855 33.83960966 -13.23148975 32.99562557 -13.2279911 32.12606621 C-13.21633893 29.72386359 -13.19780708 27.32181653 -13.17700195 24.91967773 C-13.17431305 24.21870468 -13.17162415 23.51773163 -13.16885376 22.79551697 C-13.04975411 11.7635869 -13.04975411 11.7635869 -10.4375 7.375 C-7.28537813 4.30370177 -3.80884114 2.17251861 0 0 Z " fill="#1B1C1C" transform="translate(543,439)"/>
<path d="M0 0 C0.66 0.66 1.32 1.32 2 2 C1.34 2.66 0.68 3.32 0 4 C-0.31359254 6.07253792 -0.31359254 6.07253792 -0.2784729 8.49246216 C-0.28963638 9.43759674 -0.30079987 10.38273132 -0.31230164 11.35650635 C-0.31446182 12.39659851 -0.31662201 13.43669067 -0.31884766 14.50830078 C-0.32889328 15.60099274 -0.3389389 16.69368469 -0.34928894 17.81948853 C-0.38027238 21.44475764 -0.39719819 25.06995242 -0.4140625 28.6953125 C-0.43276195 31.20352831 -0.45233442 33.71173774 -0.4727478 36.21994019 C-0.51893989 42.15555708 -0.55630164 48.0911883 -0.58942068 54.02688873 C-0.63135691 61.44637865 -0.68694007 68.86575557 -0.7421875 76.28515625 C-0.83910665 89.52337615 -0.92383935 102.76164525 -1 116 C-1.33 116 -1.66 116 -2 116 C-2.04669839 101.31845815 -2.08197823 86.63692612 -2.10362434 71.95532513 C-2.11394167 65.13856716 -2.12801068 58.32185532 -2.15087891 51.50512695 C-2.1729245 44.93048516 -2.18455858 38.3558788 -2.18975449 31.7811985 C-2.19345881 29.26890113 -2.20069211 26.75660648 -2.21146011 24.24432945 C-2.22591164 20.73403559 -2.22798059 17.22394172 -2.22705078 13.71362305 C-2.23424133 12.66777542 -2.24143188 11.6219278 -2.24884033 10.54438782 C-2.246091 9.58946442 -2.24334167 8.63454102 -2.24050903 7.65068054 C-2.24235262 6.82014506 -2.24419621 5.98960958 -2.24609566 5.13390636 C-2 3 -2 3 0 0 Z " fill="#FCFDFE" transform="translate(642,292)"/>
<path d="M0 0 C0.99 0.495 0.99 0.495 2 1 C2.66666667 3 3.33333333 5 4 7 C4.66 7.33 5.32 7.66 6 8 C6.17971577 10.22435091 6.26820321 12.45634054 6.3125 14.6875 C6.64831787 21.03574933 7.38092794 23.73624117 12 28 C12 28.66 12 29.32 12 30 C8.26955235 28.75651745 7.20459674 27.19286425 5 24 C5 23.01 5 22.02 5 21 C4.34 21 3.68 21 3 21 C3 21.66 3 22.32 3 23 C2.34 23 1.68 23 1 23 C0.67 15.41 0.34 7.82 0 0 Z " fill="#F6F7F9" transform="translate(487,636)"/>
<path d="M0 0 C0.33 0.66 0.66 1.32 1 2 C0.53454269 2.70686447 0.06908539 3.41372894 -0.41047668 4.14201355 C-2.39720777 7.71418544 -2.44040045 10.74855738 -2.43237305 14.7277832 C-2.4425647 15.48929184 -2.45275635 16.25080048 -2.46325684 17.03538513 C-2.49333724 19.54059249 -2.50264499 22.04541717 -2.51171875 24.55078125 C-2.52856915 26.29242722 -2.54671988 28.03406106 -2.56611633 29.77568054 C-2.61358341 34.35080168 -2.64341402 38.92587361 -2.66955566 43.50115967 C-2.69937781 48.173398 -2.74590247 52.84546685 -2.79101562 57.51757812 C-2.87701126 66.6782967 -2.94437318 75.8390502 -3 85 C-3.33 85 -3.66 85 -4 85 C-4.09270353 74.65572619 -4.16376684 64.3115513 -4.20724869 53.9669466 C-4.22811847 49.16344334 -4.25642499 44.3602244 -4.30175781 39.55688477 C-4.3452373 34.92087703 -4.36914169 30.28514267 -4.37950897 25.64894676 C-4.38689657 23.88069543 -4.40132293 22.11245897 -4.42292023 20.34432411 C-4.45198273 17.86634684 -4.4559549 15.38949739 -4.45410156 12.91137695 C-4.46848267 12.18129425 -4.48286377 11.45121155 -4.49768066 10.69900513 C-4.45850968 5.85482468 -3.38461213 3.44284196 0 0 Z " fill="#5DA84E" transform="translate(433,619)"/>
<path d="M0 0 C0 0.99 0 1.98 0 3 C-1.31787285 4.02028865 -2.65210653 5.01971384 -4 6 C-4.33 6.99 -4.66 7.98 -5 9 C-11.82728414 12.41364207 -23.51353536 11.71938341 -31 11 C-31.66 10.34 -32.32 9.68 -33 9 C-32.44650879 8.99589111 -31.89301758 8.99178223 -31.32275391 8.98754883 C-15.03804093 9.10091137 -15.03804093 9.10091137 -1.25390625 1.3359375 C-0.63322266 0.67464844 -0.63322266 0.67464844 0 0 Z " fill="#259B18" transform="translate(547,685)"/>
<path d="M0 0 C0.33 0.66 0.66 1.32 1 2 C-1.9539168 3.84052424 -4.91382908 5.67117365 -7.875 7.5 C-8.71675781 8.02464844 -9.55851562 8.54929687 -10.42578125 9.08984375 C-11.23144531 9.58613281 -12.03710938 10.08242188 -12.8671875 10.59375 C-13.61081543 11.05458984 -14.35444336 11.51542969 -15.12060547 11.99023438 C-17 13 -17 13 -19 13 C-19.23460937 13.63421875 -19.46921875 14.2684375 -19.7109375 14.921875 C-21 17 -21 17 -23.1640625 17.828125 C-23.97617187 17.96734375 -24.78828125 18.1065625 -25.625 18.25 C-26.44226563 18.39953125 -27.25953125 18.5490625 -28.1015625 18.703125 C-29.04128906 18.85007812 -29.04128906 18.85007812 -30 19 C-27.35467749 15.99709165 -24.23425586 14.22198114 -20.80078125 12.20703125 C-20.20573288 11.85613937 -19.61068451 11.5052475 -18.99760437 11.14372253 C-17.10505299 10.0290269 -15.20886335 8.9206956 -13.3125 7.8125 C-12.02514508 7.0557561 -10.73803285 6.29859918 -9.45117188 5.54101562 C-6.30357848 3.68921761 -3.15269199 1.84310737 0 0 Z " fill="#239A19" transform="translate(375,415)"/>
<path d="M0 0 C1.98 0.99 1.98 0.99 4 2 C4 13.88 4 25.76 4 38 C3.67 38 3.34 38 3 38 C2.98018066 36.99098633 2.96036133 35.98197266 2.93994141 34.94238281 C2.86376664 31.19245804 2.77506784 27.44291529 2.68261719 23.69335938 C2.64437642 22.07169141 2.60951497 20.44994004 2.578125 18.828125 C2.53236743 16.49448883 2.47439184 14.16142438 2.4140625 11.828125 C2.40251129 11.10506165 2.39096008 10.38199829 2.37905884 9.63702393 C2.27146822 5.95276792 2.02278111 3.13708508 0 0 Z " fill="#FBFCFD" transform="translate(637,472)"/>
<path d="M0 0 C0.66 0.33 1.32 0.66 2 1 C-0.60092882 2.6509933 -3.2062744 4.29488318 -5.8125 5.9375 C-6.55048828 6.40607422 -7.28847656 6.87464844 -8.04882812 7.35742188 C-8.76103516 7.80537109 -9.47324219 8.25332031 -10.20703125 8.71484375 C-10.8616333 9.12855225 -11.51623535 9.54226074 -12.19067383 9.96850586 C-14 11 -14 11 -17 12 C-16.8125 10.1875 -16.8125 10.1875 -16 8 C-12.33930834 5.30831495 -8.17451648 3.74570689 -4 2 C-3.236875 1.5875 -2.47375 1.175 -1.6875 0.75 C-1.130625 0.5025 -0.57375 0.255 0 0 Z " fill="#181A19" transform="translate(885,482)"/>
<path d="M0 0 C4.39383706 1.59623144 8.28995807 3.78024333 12.3125 6.125 C12.95767578 6.49753906 13.60285156 6.87007812 14.26757812 7.25390625 C15.84675945 8.16632213 17.42361864 9.08275509 19 10 C19 10.66 19 11.32 19 12 C14.27827359 10.62223181 10.27437928 8.59101512 6.125 6 C5.53203125 5.64421875 4.9390625 5.2884375 4.328125 4.921875 C2.84705957 4.00730003 1.41787784 3.00976463 0 2 C0 1.34 0 0.68 0 0 Z " fill="#EAEBEC" transform="translate(545,550)"/>
<path d="M0 0 C4.73474097 1.6996506 8.96167111 4.13659027 13.3125 6.625 C14.05306641 7.04523438 14.79363281 7.46546875 15.55664062 7.8984375 C17.37269011 8.92948495 19.18656533 9.96436046 21 11 C18 12 18 12 15.9140625 11.0390625 C15.15867187 10.57242187 14.40328125 10.10578125 13.625 9.625 C10.39336337 7.63715479 7.76256946 6.57169783 4 6 C3.67 5.01 3.34 4.02 3 3 C1.50014391 1.33289654 1.50014391 1.33289654 0 0 Z " fill="#299C1F" transform="translate(423,408)"/>
<path d="M0 0 C5.02330044 0.50385688 8.66957625 2.22044519 12.875 4.875 C13.46796875 5.22691406 14.0609375 5.57882812 14.671875 5.94140625 C16.3671875 6.9921875 16.3671875 6.9921875 19 9 C19 9.99 19 10.98 19 12 C15.82987065 10.19350552 12.66450468 8.37882665 9.5 6.5625 C8.14068359 5.7880957 8.14068359 5.7880957 6.75390625 4.99804688 C5.89667969 4.50498047 5.03945313 4.01191406 4.15625 3.50390625 C3.36025391 3.04830322 2.56425781 2.5927002 1.74414062 2.12329102 C1.16857422 1.75260498 0.59300781 1.38191895 0 1 C0 0.67 0 0.34 0 0 Z " fill="#E9EAEB" transform="translate(252,427)"/>
<path d="M0 0 C0.66 0.33 1.32 0.66 2 1 C1.04738281 1.54269531 0.09476562 2.08539062 -0.88671875 2.64453125 C-2.15366244 3.36715839 -3.42058859 4.08981627 -4.6875 4.8125 C-5.31333984 5.16892578 -5.93917969 5.52535156 -6.58398438 5.89257812 C-7.19951172 6.24384766 -7.81503906 6.59511719 -8.44921875 6.95703125 C-9.05427246 7.30072754 -9.65932617 7.64442383 -10.28271484 7.99853516 C-11.82479898 8.89782847 -13.33127846 9.85752696 -14.83203125 10.82421875 C-15.54746094 11.21222656 -16.26289063 11.60023438 -17 12 C-17.66 11.67 -18.32 11.34 -19 11 C-13.25 7 -13.25 7 -11 7 C-11 6.01 -11 5.02 -11 4 C-10.06027344 3.69255859 -10.06027344 3.69255859 -9.1015625 3.37890625 C-8.28429687 3.10949219 -7.46703125 2.84007812 -6.625 2.5625 C-5.81289063 2.29566406 -5.00078125 2.02882813 -4.1640625 1.75390625 C-1.98968201 1.04820271 -1.98968201 1.04820271 0 0 Z " fill="#2A9F20" transform="translate(481,600)"/>
<path d="M0 0 C-0.87640137 0.42804932 -0.87640137 0.42804932 -1.77050781 0.86474609 C-3.79339506 1.89479709 -5.72907754 2.99168472 -7.671875 4.1640625 C-8.33574219 4.56367188 -8.99960938 4.96328125 -9.68359375 5.375 C-10.36550781 5.7875 -11.04742187 6.2 -11.75 6.625 C-12.79607422 7.25535156 -12.79607422 7.25535156 -13.86328125 7.8984375 C-15.57632572 8.93095746 -17.28827213 9.96529882 -19 11 C-19.33 10.34 -19.66 9.68 -20 9 C-15.8167633 5.22488395 -12.25402149 3.02077749 -7 1 C-4.53721199 -0.231394 -2.7204945 -0.07159196 0 0 Z " fill="#161817" transform="translate(200,457)"/>
<path d="M0 0 C5.875 1.875 5.875 1.875 7 3 C8.68183948 3.23287008 10.3712416 3.41264166 12.0625 3.5625 C13.44115234 3.68818359 13.44115234 3.68818359 14.84765625 3.81640625 C15.91306641 3.90728516 15.91306641 3.90728516 17 4 C17 4.33 17 4.66 17 5 C15.824375 5.2165625 15.824375 5.2165625 14.625 5.4375 C12.03578982 5.87798925 12.03578982 5.87798925 10 7 C7.3984375 6.00390625 7.3984375 6.00390625 4.375 4.5625 C3.37210937 4.08941406 2.36921875 3.61632812 1.3359375 3.12890625 C0.56507813 2.75636719 -0.20578125 2.38382813 -1 2 C-0.67 1.34 -0.34 0.68 0 0 Z " fill="#EBEEED" transform="translate(452,727)"/>
<path d="M0 0 C0 0.99 0 1.98 0 3 C-1.31787285 4.02028865 -2.65210653 5.01971384 -4 6 C-4.33 6.99 -4.66 7.98 -5 9 C-7.31 9.33 -9.62 9.66 -12 10 C-12.33 9.34 -12.66 8.68 -13 8 C-12.31292969 7.67386719 -11.62585938 7.34773437 -10.91796875 7.01171875 C-10.01691406 6.57472656 -9.11585938 6.13773438 -8.1875 5.6875 C-7.29417969 5.25824219 -6.40085937 4.82898438 -5.48046875 4.38671875 C-3.21068067 3.11778211 -1.70751829 1.93443102 0 0 Z " fill="#329E25" transform="translate(547,685)"/>
<path d="M0 0 C0 0.66 0 1.32 0 2 C-1.99330842 3.34331654 -3.99384866 4.67594012 -6 6 C-8.29633824 9.44450737 -8.54016485 11.93812283 -9 16 C-10.47120515 13.66338006 -11.03090605 12.38076253 -10.8046875 9.59375 C-9.82484736 6.43543034 -8.5876704 5.28343709 -6.0625 3.1875 C-5.35222656 2.58292969 -4.64195312 1.97835938 -3.91015625 1.35546875 C-2 0 -2 0 0 0 Z " fill="#E8E9EB" transform="translate(540,440)"/>
<path d="M0 0 C1.485 0.99 1.485 0.99 3 2 C3 2.66 3 3.32 3 4 C4.0828125 4.4021875 4.0828125 4.4021875 5.1875 4.8125 C7.99766383 5.99901362 10.48416557 7.27485639 13 9 C13 9.66 13 10.32 13 11 C6.95566426 9.64002446 3.36505864 6.14348206 -1 2 C-0.67 1.34 -0.34 0.68 0 0 Z " fill="#E8E8E9" transform="translate(737,539)"/>
<path d="M0 0 C0 0.99 0 1.98 0 3 C-1.95890881 4.39300182 -3.9639118 5.72245446 -6 7 C-8.42770103 9.0808866 -9.69354206 11.08559382 -11 14 C-11.75 12.3125 -11.75 12.3125 -12 10 C-9.13557837 5.14293724 -4.76927666 2.72033984 0 0 Z " fill="#141514" transform="translate(543,439)"/>
<path d="M0 0 C3.7602985 0.58107632 6.53035032 1.65199496 9.8125 3.5625 C10.60269531 4.01753906 11.39289062 4.47257813 12.20703125 4.94140625 C12.79871094 5.29074219 13.39039063 5.64007812 14 6 C14 6.99 14 7.98 14 9 C7.07 5.04 7.07 5.04 0 1 C0 0.67 0 0.34 0 0 Z " fill="#ECEFEC" transform="translate(553,600)"/>
<path d="M0 0 C1.2065625 0.0309375 1.2065625 0.0309375 2.4375 0.0625 C1.4475 0.7225 0.4575 1.3825 -0.5625 2.0625 C-1.06781866 3.98691415 -1.06781866 3.98691415 -1.07421875 6.1953125 C-1.12739258 7.40380859 -1.12739258 7.40380859 -1.18164062 8.63671875 C-1.20419922 9.47847656 -1.22675781 10.32023438 -1.25 11.1875 C-1.28416016 12.03699219 -1.31832031 12.88648438 -1.35351562 13.76171875 C-1.43609173 15.86151105 -1.50096978 17.96198564 -1.5625 20.0625 C-1.8925 20.0625 -2.2225 20.0625 -2.5625 20.0625 C-2.75844676 16.91713232 -2.9428401 13.77119386 -3.125 10.625 C-3.18107422 9.72716797 -3.23714844 8.82933594 -3.29492188 7.90429688 C-3.34326172 7.05029297 -3.39160156 6.19628906 -3.44140625 5.31640625 C-3.4885376 4.52564697 -3.53566895 3.7348877 -3.58422852 2.92016602 C-3.54951283 -0.0478298 -2.95307441 0.07202621 0 0 Z " fill="#59A74A" transform="translate(475.5625,635.9375)"/>
<path d="M0 0 C0.66 0.268125 1.32 0.53625 2 0.8125 C5.64939067 2.25705047 9.32245433 3.62871178 13 5 C13 5.33 13 5.66 13 6 C7.34388537 6.56561146 3.77357872 4.71391278 -1 2 C-0.67 1.34 -0.34 0.68 0 0 Z " fill="#DEE9DC" transform="translate(456,713)"/>
<path d="M0 0 C1.6026782 -0.10824843 3.20745748 -0.18570645 4.8125 -0.25 C5.70582031 -0.29640625 6.59914063 -0.3428125 7.51953125 -0.390625 C10 0 10 0 11.82421875 2.015625 C12.40623047 2.99789062 12.40623047 2.99789062 13 4 C11.39431334 3.71682074 9.79047953 3.42312209 8.1875 3.125 C7.29417969 2.96257813 6.40085937 2.80015625 5.48046875 2.6328125 C3 2 3 2 0 0 Z " fill="#2C9D20" transform="translate(532,674)"/>
<path d="M0 0 C3.3 0.99 6.6 1.98 10 3 C9.67 3.66 9.34 4.32 9 5 C4.545 4.01 4.545 4.01 0 3 C0 2.01 0 1.02 0 0 Z " fill="#EAF0EB" transform="translate(496,701)"/>
<path d="M0 0 C0.66 0.33 1.32 0.66 2 1 C1.4375 2.875 1.4375 2.875 0 5 C-3.625 6.25 -3.625 6.25 -7 7 C-4.66666667 4.66666667 -2.33333333 2.33333333 0 0 Z " fill="#F9F7FB" transform="translate(584,714)"/>
<path d="M0 0 C0.66 0.33 1.32 0.66 2 1 C-1.01887244 4.48331435 -3.56909529 5.79157144 -8 7 C-6.88424427 3.65273281 -6.48655378 3.37920252 -3.5625 1.75 C-2.386875 1.1725 -1.21125 0.595 0 0 Z " fill="#EBECED" transform="translate(181,467)"/>
<path d="M0 0 C0 0.66 0 1.32 0 2 C-2.97 3.32 -5.94 4.64 -9 6 C-8 3 -8 3 -5.0625 1.3125 C-2 0 -2 0 0 0 Z " fill="#E7EEE7" transform="translate(451,605)"/>
<path d="M0 0 C-0.66 0.66 -1.32 1.32 -2 2 C-2.33 2.66 -2.66 3.32 -3 4 C-4.65 4 -6.3 4 -8 4 C-8 3.34 -8 2.68 -8 2 C-3.61016949 -1.20338983 -3.61016949 -1.20338983 0 0 Z " fill="#1A1B1B" transform="translate(641,515)"/>
<path d="M0 0 C0.33 0 0.66 0 1 0 C1 3.3 1 6.6 1 10 C-0.65 10.33 -2.3 10.66 -4 11 C-3.67 10.01 -3.34 9.02 -3 8 C-2.34 8 -1.68 8 -1 8 C-0.67 5.36 -0.34 2.72 0 0 Z " fill="#3A3C3A" transform="translate(901,463)"/>
<path d="M0 0 C-2 3 -2 3 -4.1640625 3.73046875 C-5.38222656 3.95669922 -5.38222656 3.95669922 -6.625 4.1875 C-7.85089844 4.42533203 -7.85089844 4.42533203 -9.1015625 4.66796875 C-10.04128906 4.83232422 -10.04128906 4.83232422 -11 5 C-7.49434208 1.32740599 -5.1720171 -0.27956849 0 0 Z " fill="#369F2A" transform="translate(356,429)"/>
<path d="M0 0 C3.35595828 0.59927826 5.37801226 1.84622436 8 4 C7.67 4.66 7.34 5.32 7 6 C3.535 4.02 3.535 4.02 0 2 C0 1.34 0 0.68 0 0 Z " fill="#E8E9EA" transform="translate(833,403)"/>
<path d="M0 0 C5.875 3.625 5.875 3.625 7 7 C3.63408134 5.55746343 1.48952921 3.66735273 -1 1 C-0.67 0.67 -0.34 0.34 0 0 Z " fill="#E9EAEB" transform="translate(689,314)"/>
<path d="M0 0 C0.66 0.33 1.32 0.66 2 1 C-0.52788007 3.79872437 -2.20411134 5.45773019 -6 6 C-5 3 -5 3 -2.5625 1.25 C-1.716875 0.8375 -0.87125 0.425 0 0 Z " fill="#E9EAEA" transform="translate(138,559)"/>
<path d="M0 0 C0 0.99 0 1.98 0 3 C-2.64738916 4.4606285 -3.89448334 5 -7 5 C-6.67 4.01 -6.34 3.02 -6 2 C-5.34 2 -4.68 2 -4 2 C-2.65117592 1.36525925 -1.3153341 0.70151152 0 0 Z " fill="#383A38" transform="translate(146,428)"/>
<path d="M0 0 C3.73487777 0.4979837 5.81237635 0.87491756 9 3 C9 3.66 9 4.32 9 5 C5.54074837 3.7508258 2.85306797 2.32472205 0 0 Z " fill="#E8EFE7" transform="translate(423,407)"/>
</svg>
