<?xml version="1.0" encoding="UTF-8"?>
<svg version="1.1" xmlns="http://www.w3.org/2000/svg" width="1024" height="1536">
<path d="M0 0 C337.92 0 675.84 0 1024 0 C1024 506.88 1024 1013.76 1024 1536 C686.08 1536 348.16 1536 0 1536 C0 1029.12 0 522.24 0 0 Z " fill="#FEFEFE" transform="translate(0,0)"/>
<path d="M0 0 C10.00663758 -0.09336811 20.0131687 -0.16409965 30.02015591 -0.20724869 C34.66862496 -0.22797554 39.31679237 -0.25601458 43.96508789 -0.30175781 C48.46499079 -0.34575515 52.96460666 -0.36924858 57.46470833 -0.37950897 C59.16722179 -0.38680505 60.86972255 -0.40104688 62.57211113 -0.42292023 C89.24918037 -0.75152713 112.23647045 7.69574523 131.56640625 26.49609375 C149.81933238 45.72022409 159.47192783 69.96631181 167 95 C167.24588867 95.8058252 167.49177734 96.61165039 167.74511719 97.44189453 C175.20395295 122.29226675 177.93440684 148.23275187 180 174 C180.09643799 175.11705322 180.19287598 176.23410645 180.29223633 177.38500977 C181.06436882 186.94968922 181.20161329 196.47294003 181.1875 206.0625 C181.18656342 206.89114563 181.18562683 207.71979126 181.18466187 208.57354736 C181.04601686 265.6420162 172.848068 326.28189057 133.59375 370.5234375 C132 372 132 372 130 372 C130 372.66 130 373.32 130 374 C104.92060754 398.20929109 74.78191999 403.63864038 41.07667756 403.54880548 C37.52003006 403.54378658 33.9634838 403.56203576 30.40687561 403.57722473 C24.26902023 403.600362 18.13128241 403.60929312 11.99338531 403.60811615 C3.1194345 403.60643578 -5.75436115 403.62689388 -14.6282703 403.65247145 C-29.03130675 403.69339736 -43.43431497 403.71682573 -57.83740234 403.72900391 C-71.81496893 403.74086033 -85.79248253 403.76111064 -99.77001953 403.79248047 C-100.63398077 403.79441657 -101.49794202 403.79635267 -102.3880839 403.79834744 C-106.72303627 403.80811312 -111.05798824 403.81804203 -115.39294004 403.82805204 C-151.26193794 403.91066807 -187.13092752 403.96368898 -223 404 C-223 411.92 -223 419.84 -223 428 C-218.08311279 427.99214478 -218.08311279 427.99214478 -213.06689453 427.98413086 C-197.75293613 427.96113674 -182.43897211 427.94689606 -167.125 427.9375 C-166.09354788 427.93684855 -166.09354788 427.93684855 -165.04125834 427.93618393 C-129.17090122 427.9141382 -93.30461057 427.95055903 -57.4375 428.5 C-56.26554958 428.51793673 -56.26554958 428.51793673 -55.0699234 428.53623581 C-46.04634089 428.67564233 -37.02303128 428.82830493 -28 429 C-27.89984021 454.22023412 -27.8463313 479.44592012 -28.20852661 504.66433716 C-28.23586684 506.73967973 -28.25674953 508.81511886 -28.27072144 510.89059448 C-28.43082129 532.73190062 -32.16224313 550.53266163 -47.796875 566.83203125 C-48.88742187 567.90517578 -48.88742187 567.90517578 -50 569 C-50.62390625 569.62261719 -51.2478125 570.24523438 -51.890625 570.88671875 C-95.95746982 612.08366402 -181.0880124 613.7084579 -237.82568359 612.16113281 C-294.42353118 610.21925531 -356.06019787 600.32122098 -398 559 C-398.66773438 558.34515625 -399.33546875 557.6903125 -400.0234375 557.015625 C-412.1863779 544.13721751 -420.17645927 524.28476434 -420.12698364 506.64750671 C-420.12854363 505.79712651 -420.13010362 504.9467463 -420.13171089 504.07059699 C-420.13570508 501.21591106 -420.13253719 498.36127814 -420.12939453 495.5065918 C-420.13074938 493.46140003 -420.13252979 491.41620851 -420.13470459 489.37101746 C-420.1392721 483.80843503 -420.13749131 478.2458711 -420.1343255 472.68328834 C-420.13179463 466.85533075 -420.13414183 461.02737476 -420.13571167 455.19941711 C-420.13753282 445.39978756 -420.13513013 435.60016552 -420.13037109 425.80053711 C-420.12494526 414.4979411 -420.12667909 403.19536317 -420.1321975 391.89276761 C-420.13675014 382.1770324 -420.13736817 372.4613026 -420.13475883 362.74556667 C-420.13320572 356.94865264 -420.13297536 351.15174708 -420.13629532 345.3548336 C-420.13920472 339.89246218 -420.13714244 334.43011379 -420.13140106 328.96774483 C-420.1300891 326.97285882 -420.13044068 324.97797084 -420.13266373 322.98308563 C-420.16464717 291.3400851 -420.16464717 291.3400851 -416.9375 284.203125 C-415.89580445 281.75514046 -415.13482234 279.25614916 -414.35913086 276.71362305 C-407.76926598 255.47022296 -393.188984 238.99892458 -374 228 C-373.35933594 227.62359375 -372.71867187 227.2471875 -372.05859375 226.859375 C-353.76621022 216.90326128 -333.58285093 215.54503657 -313.27392578 215.69116211 C-311.1333131 215.69529188 -308.99269743 215.69805513 -306.8520813 215.6995697 C-302.27311145 215.70562442 -297.69430708 215.72104289 -293.11539078 215.74394035 C-285.85890539 215.78000796 -278.60247751 215.79376407 -271.34591675 215.80458069 C-257.24622985 215.82862676 -243.1466618 215.87529619 -229.04704285 215.92417145 C-211.10809802 215.98513462 -193.16913918 216.03481439 -175.23011768 216.06616598 C-168.03292726 216.07946533 -160.83587369 216.10324049 -153.63874459 216.1355685 C-149.14302398 216.15381736 -144.64731155 216.163613 -140.15156174 216.17133522 C-138.08534781 216.17662564 -136.019139 216.18536556 -133.95295715 216.19803619 C-118.22138981 216.29189449 -102.05386163 216.27608533 -86.9375 211.375 C-86.1115332 211.11412598 -85.28556641 210.85325195 -84.43457031 210.58447266 C-55.14434589 200.99133476 -30.2699692 180.56195615 -15.875 153.078125 C-3.27802777 127.61880869 -0.74219301 101.93625997 -0.5859375 74.0234375 C-0.56717625 71.87439268 -0.54759939 69.72535485 -0.5272522 67.57632446 C-0.47644768 61.98376631 -0.43654921 56.3911844 -0.39910889 50.79852295 C-0.35874075 45.06614561 -0.30780005 39.3338626 -0.2578125 33.6015625 C-0.16166717 22.40110844 -0.07707077 11.20060045 0 0 Z " fill="#FEDA32" transform="translate(732,555)"/>
<path d="M0 0 C1.17459778 -0.00100708 2.34919556 -0.00201416 3.55938721 -0.00305176 C58.72542513 0.02868559 127.20499231 2.94398633 170.3125 42.25 C171.09753906 42.89453125 171.88257813 43.5390625 172.69140625 44.203125 C187.72809967 56.72098145 197.55880099 75.99358851 200.3125 95.25 C201.2499511 106.76523923 201.15954341 118.34325079 201.18030167 129.88906479 C201.18756612 132.65013187 201.20344313 135.41101634 201.22225952 138.17202759 C201.31431976 151.68221918 201.33038351 165.19173596 201.31595612 178.70220184 C201.31238055 182.37261485 201.31071062 186.04302552 201.30926514 189.71343994 C201.29978568 206.81857542 201.23949902 223.92303707 201.14450836 241.0279007 C201.12509978 244.91750332 201.1119137 248.80708331 201.10028076 252.69671631 C201.08031576 258.88884991 201.03966194 265.08053897 200.9840107 271.2724514 C200.96637163 273.55372215 200.95508269 275.83505314 200.95094109 278.11638832 C200.91153105 295.54451022 199.49950544 312.72098918 193.125 329.125 C192.83093262 329.89835693 192.53686523 330.67171387 192.23388672 331.46850586 C187.87453506 342.41891671 181.45458791 351.54846478 173.34375 360.08984375 C171.62821583 361.91424836 170.13799162 363.76189211 168.625 365.75 C156.79994824 379.48127595 137.49976873 387.20970922 120.3125 391.25 C119.42046875 391.46269531 118.5284375 391.67539062 117.609375 391.89453125 C104.50782951 394.75791934 91.19528432 394.40125227 77.86279297 394.40771484 C75.69173582 394.41238969 73.52067965 394.41753435 71.34962463 394.42311096 C66.68988005 394.4343466 62.03014169 394.44280253 57.37038803 394.44923019 C49.98852956 394.45996419 42.60671605 394.48022337 35.22488403 394.50234985 C14.23881087 394.5640927 -6.7472591 394.61823718 -27.73339844 394.65136719 C-39.33598303 394.66976342 -50.93849162 394.69875944 -62.54102027 394.7393719 C-68.66990476 394.76035301 -74.79869385 394.77588656 -80.92761612 394.77817917 C-86.69795547 394.78034042 -92.46809605 394.79635922 -98.23837471 394.82256889 C-100.34368223 394.82970658 -102.44901399 394.83189008 -104.55433083 394.82846642 C-120.28653675 394.80698814 -135.60820939 395.65872182 -150.4375 401.4375 C-151.22406982 401.73575684 -152.01063965 402.03401367 -152.82104492 402.34130859 C-162.48695108 406.15246547 -170.82969666 411.45406198 -178.6875 418.25 C-179.3475 418.25 -180.0075 418.25 -180.6875 418.25 C-180.89375 418.806875 -181.1 419.36375 -181.3125 419.9375 C-182.82754704 422.48553365 -184.64877751 423.83953306 -186.9296875 425.6796875 C-193.25055561 431.32632968 -197.65968626 438.58359639 -201.9375 445.8125 C-202.34967773 446.50827148 -202.76185547 447.20404297 -203.18652344 447.92089844 C-214.44126092 467.39077276 -218.75919424 488.00937386 -218.89282227 510.32104492 C-218.90272186 511.36628326 -218.91262146 512.41152161 -218.92282104 513.48843384 C-218.95410838 516.90242338 -218.97906223 520.31642678 -219.00390625 523.73046875 C-219.02450416 526.11371701 -219.04550133 528.49696185 -219.06687927 530.88020325 C-219.1218071 537.12225558 -219.17134434 543.36433927 -219.21972656 549.60644531 C-219.27015679 555.98830929 -219.32573 562.37012831 -219.38085938 568.75195312 C-219.48808217 581.25126358 -219.58960531 593.75061325 -219.6875 606.25 C-229.54648171 606.34343801 -239.40535493 606.41413407 -249.26469231 606.45724869 C-253.84475424 606.47796076 -258.42450919 606.50597133 -263.00439453 606.55175781 C-267.4394639 606.59580971 -271.87424151 606.61925955 -276.30951309 606.62950897 C-277.98608101 606.63679558 -279.66263632 606.65101754 -281.339077 606.67292023 C-298.25063571 606.88470945 -313.67930424 604.36418714 -328.6875 596.25 C-329.55632812 595.78722656 -330.42515625 595.32445312 -331.3203125 594.84765625 C-355.47773088 581.17864679 -369.85010528 558.48045943 -379.6875 533.25 C-379.9860791 532.48478027 -380.2846582 531.71956055 -380.59228516 530.93115234 C-395.08326126 492.81238305 -398.9516326 450.48366782 -398.8125 410 C-398.81028442 409.13717407 -398.80806885 408.27434814 -398.80578613 407.38537598 C-398.6388151 351.86622364 -394.04021694 288.37507871 -356.6875 244.25 C-355.98753906 243.4146875 -355.28757812 242.579375 -354.56640625 241.71875 C-337.42958687 221.924349 -311.84248754 208.86713322 -285.6875 206.25 C-281.85562342 206.08614742 -278.02544141 206.06526603 -274.19042969 206.04467773 C-273.0375968 206.03478097 -271.88476391 206.0248842 -270.69699669 206.01468754 C-267.50857277 205.98844634 -264.32015487 205.96652782 -261.13168573 205.94668961 C-258.39059453 205.92893915 -255.64953287 205.90785179 -252.9084655 205.88677824 C-245.44225471 205.82943523 -237.97601075 205.77923177 -230.5097276 205.73234785 C-225.01320617 205.69780403 -219.5167027 205.66110248 -214.02020264 205.62332153 C-141.57627703 205.12858074 -69.13268426 205.14772519 3.3125 205.25 C3.3125 197 3.3125 188.75 3.3125 180.25 C-60.7075 180.25 -124.7275 180.25 -190.6875 180.25 C-190.6875 160.67571664 -190.6564489 141.10766834 -190.45178509 121.53553867 C-190.40666946 117.21373217 -190.36739951 112.89203359 -190.34106445 108.57006836 C-190.31489396 104.29825815 -190.27448594 100.02679481 -190.22431374 95.75520134 C-190.20784478 94.15470604 -190.196208 92.55415222 -190.18988609 90.95358467 C-190.10614593 71.7798574 -185.59030527 56.81028025 -172.6875 42.25 C-172.17960938 41.64800781 -171.67171875 41.04601562 -171.1484375 40.42578125 C-139.92311747 6.07792922 -76.59374652 2.8211256 -33.54240417 0.56529236 C-22.36765967 0.04397998 -11.18499242 0.00670882 0 0 Z " fill="#0962BD" transform="translate(504.6875,353.75)"/>
<path d="M0 0 C9.31585289 5.48392071 15.70372146 12.27992079 19.44140625 22.56640625 C21.83442169 31.82925813 20.37951511 41.75137067 16.13671875 50.2578125 C10.12555899 57.97679774 3.45206991 63.15269545 -5.86328125 66.2578125 C-17.71736818 67.02953001 -27.49885703 66.82678983 -37.11328125 59.0703125 C-45.33274429 51.26597386 -49.85386281 42.1301914 -50.23828125 30.7578125 C-49.89427811 19.70280259 -45.6524017 11.5157488 -37.80078125 3.8671875 C-27.80585715 -4.43504784 -11.58531261 -5.62546589 0 0 Z " fill="#FEFEFD" transform="translate(633.86328125,1031.7421875)"/>
<path d="M0 0 C1.25717795 1.05069758 2.48695952 2.1350272 3.6875 3.25 C4.31527344 3.82492187 4.94304687 4.39984375 5.58984375 4.9921875 C12.00170161 11.52604689 14.78125425 19.66844189 15.1875 28.75 C14.74583082 38.32870043 11.66733219 46.42715753 4.98046875 53.33984375 C-4.82652006 61.50954993 -16.08085679 62.26630361 -28.3125 61.25 C-32.04574043 60.43437319 -35.03941433 59.20290056 -38.3125 57.25 C-39.38371094 56.61384766 -39.38371094 56.61384766 -40.4765625 55.96484375 C-48.52618973 50.55320297 -53.33984808 42.06461571 -56 32.875 C-57.24629045 22.40616026 -55.2814704 14.093674 -49.1875 5.39453125 C-36.65870155 -8.93528197 -15.41582182 -10.91332841 0 0 Z " fill="#FDFDFE" transform="translate(417.3125,424.75)"/>
<path d="M0 0 C2.3125 0.0625 2.3125 0.0625 5 1 C5.72743852 2.65326937 6.44283519 4.31478168 7.05078125 6.015625 C9.02627614 10.14546618 12.90684405 13.95342202 17 16 C16.67 16.66 16.34 17.32 16 18 C10.15718331 13.1672447 4.62437509 8.03874514 0 2 C0 1.34 0 0.68 0 0 Z " fill="#0D42B0" transform="translate(144,921)"/>
<path d="M0 0 C0.33 0 0.66 0 1 0 C1.29201904 4.96432365 1.14707573 8.03701574 -2 12 C-2.99 12.33 -3.98 12.66 -5 13 C-4.731875 12.34 -4.46375 11.68 -4.1875 11 C-2.74294953 7.35060933 -1.37128822 3.67754567 0 0 Z " fill="#0F47B4" transform="translate(431,461)"/>
<path d="M0 0 C0 0.99 0 1.98 0 3 C-3.3 3 -6.6 3 -10 3 C-5.78492722 -0.16130459 -4.93928888 -0.3367697 0 0 Z " fill="#1D6BC0" transform="translate(485,354)"/>
</svg>
