<?xml version="1.0" encoding="UTF-8"?>
<svg version="1.1" xmlns="http://www.w3.org/2000/svg" width="1024" height="1024">
<path d="M0 0 C337.92 0 675.84 0 1024 0 C1024 337.92 1024 675.84 1024 1024 C686.08 1024 348.16 1024 0 1024 C0 686.08 0 348.16 0 0 Z " fill="#0F183F" transform="translate(0,0)"/>
<path d="M0 0 C1.19278564 0.33813721 1.19278564 0.33813721 2.40966797 0.68310547 C28.85604892 8.31396133 53.03866969 21.78961828 75.30371094 37.78173828 C76.53599425 38.66675465 77.77144679 39.54736344 79.00878906 40.42529297 C81.11578037 41.92149898 83.21516539 43.42779453 85.3125 44.9375 C85.97789795 45.41058594 86.6432959 45.88367188 87.32885742 46.37109375 C88.92322646 47.5310947 90.46720736 48.75977359 92 50 C92 50.66 92 51.32 92 52 C92.58918213 52.27602051 93.17836426 52.55204102 93.78540039 52.83642578 C95.89259887 53.9435703 97.58648034 55.12489426 99.43359375 56.6171875 C100.39809448 57.39606323 100.39809448 57.39606323 101.38208008 58.19067383 C102.39951294 59.02441528 102.39951294 59.02441528 103.4375 59.875 C104.49070435 60.73097778 104.49070435 60.73097778 105.56518555 61.60424805 C110.8968571 65.98196414 115.99659339 70.56535065 120.92553711 75.39208984 C123.90637523 78.4200886 123.90637523 78.4200886 128 79 C130.33258409 77.14739158 130.33258409 77.14739158 132.8125 74.6875 C138.65542446 69.18589782 144.86835843 64.27961537 151.21923828 59.38232422 C152.94776411 58.04054834 154.66169073 56.68243138 156.37109375 55.31640625 C186.47593117 31.28500662 220.44879525 9.13882528 258 -1 C259.485 -1.44859375 259.485 -1.44859375 261 -1.90625 C269.03666182 -4.03360166 276.84130653 -4.31179697 285.125 -4.375 C286.20934326 -4.38885742 287.29368652 -4.40271484 288.41088867 -4.41699219 C305.07813831 -4.32100742 317.33712827 1.53521166 330 12 C330.81984375 12.6084375 331.6396875 13.216875 332.484375 13.84375 C352.1492428 30.69935097 358.44968581 63.12655408 360.84545898 87.54638672 C361.98666934 105.6651293 361.21493333 124.00249522 359 142 C358.8870459 142.97855957 358.7740918 143.95711914 358.65771484 144.96533203 C355.95713036 167.92572299 350.91339374 190.43361929 346 213 C347.76186646 213.17631958 347.76186646 213.17631958 349.55932617 213.35620117 C353.60376849 213.8657324 357.20583999 214.91541502 361.05078125 216.30078125 C361.6984697 216.53286285 362.34615814 216.76494446 363.01347351 217.00405884 C365.11719311 217.76292107 367.21518401 218.53612754 369.3125 219.3125 C370.03864502 219.57910431 370.76479004 219.84570862 371.51293945 220.12039185 C400.16575802 230.66689585 429.19050596 242.97936112 454 261 C455.04285156 261.72832031 456.08570313 262.45664062 457.16015625 263.20703125 C476.06241793 276.95626001 492.91812311 294.33799394 500 317 C500.3609375 318.00289063 500.721875 319.00578125 501.09375 320.0390625 C505.41192264 335.55218272 503.31931378 354.77357124 496 369 C495.67854004 369.64179199 495.35708008 370.28358398 495.02587891 370.94482422 C489.84217834 381.0280147 482.94661712 388.99757798 475 397 C474.02546875 398.03060547 474.02546875 398.03060547 473.03125 399.08203125 C442.44958284 431.0341033 391.06862252 452.54744768 349 463 C348.01 463 347.02 463 346 463 C346.22139648 463.94915283 346.44279297 464.89830566 346.67089844 465.8762207 C357.24267318 511.39867065 366.78375932 560.4025354 358 607 C357.86078125 607.78165527 357.7215625 608.56331055 357.578125 609.36865234 C353.61511949 631.26150568 344.72139932 653.20599665 326.1875 666.75 C306.47907044 679.7354606 285.85606336 681.29434071 263 677 C224.64313754 668.49953263 190.44464888 646.97254765 160.5703125 622.13671875 C158.82695209 620.68745106 157.07123199 619.25294747 155.3046875 617.83203125 C149.25539617 612.96329962 143.49826786 607.87287205 137.82421875 602.578125 C134.94994166 599.95430359 132.00682603 597.46941695 129 595 C125.13726995 596.59805617 122.41861251 599.22210181 119.4375 602.0625 C85.02052536 634.15987632 42.15110644 663.80035398 -3.90869141 675.46386719 C-5.77289664 675.94177925 -7.62753534 676.45665975 -9.48046875 676.9765625 C-16.76118025 678.83805863 -23.77186063 679.27442266 -31.25 679.3125 C-32.16104492 679.31805908 -33.07208984 679.32361816 -34.01074219 679.3293457 C-52.68830922 679.13118871 -68.23463038 671.34053434 -81.8125 658.8125 C-89.92890344 650.26421454 -94.98132522 638.94840373 -99 628 C-99.24008789 627.34620361 -99.48017578 626.69240723 -99.72753906 626.01879883 C-101.77503198 620.20018451 -103.05978296 614.38168573 -104.125 608.3125 C-104.29676758 607.33845215 -104.46853516 606.3644043 -104.64550781 605.36083984 C-105.92071089 597.89904476 -106.81332556 590.57587097 -107 583 C-107.03867187 581.8248584 -107.03867187 581.8248584 -107.078125 580.62597656 C-108.25363079 541.23183884 -102.13610402 500.99681008 -92 463 C-93.03229736 462.83564453 -93.03229736 462.83564453 -94.08544922 462.66796875 C-100.34037627 461.61134245 -106.1695716 460.16891747 -112.125 458 C-112.96409912 457.6994873 -113.80319824 457.39897461 -114.66772461 457.08935547 C-146.69079662 445.47271406 -177.76364322 431.7885662 -205 411 C-205.93714844 410.30777344 -206.87429687 409.61554688 -207.83984375 408.90234375 C-212.45240859 405.44114332 -212.45240859 405.44114332 -214 404 C-214 403.34 -214 402.68 -214 402 C-214.59683594 401.72671875 -215.19367188 401.4534375 -215.80859375 401.171875 C-230.99624435 393.05013671 -241.40391052 371.61353582 -246.4375 355.9375 C-251.97468524 337.04154498 -249.26768001 319.61400791 -240.015625 302.45703125 C-211.56119381 252.32636097 -147.92134584 230.40128816 -96.29541016 213.61987305 C-94 213 -94 213 -91 213 C-91.24669434 212.26531494 -91.49338867 211.53062988 -91.74755859 210.77368164 C-94.7631763 201.43761054 -96.76447671 192.05739113 -98.625 182.4375 C-98.92649515 180.91199301 -99.22857623 179.3866017 -99.53125 177.86132812 C-106.88956936 140.58266893 -112.03132169 100.43718821 -103 63 C-102.69579247 61.61476362 -102.392359 60.22935693 -102.08984375 58.84375 C-97.46512121 39.4639603 -88.03526851 19.09703399 -71 7.80078125 C-67.40909878 5.64530539 -63.77732562 3.62070316 -60.0625 1.6875 C-59.43093994 1.34976563 -58.79937988 1.01203125 -58.14868164 0.6640625 C-40.84738225 -8.00303538 -17.93145763 -5.27847447 0 0 Z " fill="#5BD6FD" transform="translate(386,167)"/>
<path d="M0 0 C1.66687866 -0.00058914 1.66687866 -0.00058914 3.36743164 -0.00119019 C20.37165174 0.00598292 37.26838168 0.38806576 54.21020508 1.93383789 C56.2356405 2.10640266 58.26500909 2.23684316 60.2956543 2.32983398 C67.56814035 2.72790817 67.56814035 2.72790817 70.51953125 4.91796875 C71.25236328 6.13419922 71.25236328 6.13419922 72 7.375 C72.63421875 8.37660156 73.2684375 9.37820313 73.921875 10.41015625 C74.27185547 10.99812988 74.62183594 11.58610352 74.98242188 12.19189453 C76.36028661 14.47363406 77.8080921 16.70191173 79.265625 18.93359375 C82.97738051 24.64100246 86.59299684 30.40568755 90.1875 36.1875 C91.09145508 37.63866211 91.09145508 37.63866211 92.01367188 39.11914062 C105.66977004 61.15411495 117.85991437 84.00171286 129.1875 107.3125 C129.93519653 108.84003906 129.93519653 108.84003906 130.69799805 110.3984375 C131.14828369 111.34203125 131.59856934 112.285625 132.0625 113.2578125 C132.45179688 114.07008301 132.84109375 114.88235352 133.2421875 115.71923828 C134.97221681 120.23643775 135.62729408 122.96910944 133.94677734 127.62475586 C133.32233803 128.8923032 132.68006174 130.15116618 132.0234375 131.40234375 C131.67991745 132.08644821 131.3363974 132.77055267 130.98246765 133.47538757 C129.85881994 135.70067779 128.71175099 137.91283847 127.5625 140.125 C126.77718625 141.66222639 125.99260455 143.19982697 125.20874023 144.73779297 C116.00605864 162.70349576 106.09166587 180.19787725 95.1875 197.1875 C94.06228949 198.95819958 92.93727336 200.72902271 91.8125 202.5 C91.26722656 203.35335937 90.72195313 204.20671875 90.16015625 205.0859375 C88.03827369 208.42212513 85.93368938 211.76888223 83.82983398 215.11645508 C81.76497845 218.39514317 79.68740304 221.66568497 77.609375 224.93603516 C76.32919417 226.96313467 75.06827656 229.00070799 73.8125 231.04296875 C73.131875 232.12191406 72.45125 233.20085937 71.75 234.3125 C71.17378906 235.24320313 70.59757813 236.17390625 70.00390625 237.1328125 C65.62093184 242.09075775 55.55123795 240.86076075 49.3125 241.25 C48.59963837 241.29452301 47.88677673 241.33904602 47.15231323 241.38491821 C31.85828363 242.29883101 16.56741054 242.38009127 1.25 242.375 C0.10960266 242.37581573 -1.03079468 242.37663147 -2.20574951 242.37747192 C-16.07132242 242.37635094 -29.90637637 242.1229554 -43.75987244 241.52824402 C-49.26100924 241.29496112 -54.72744857 241.14590698 -60.23309326 241.2711792 C-64.54725388 241.22587692 -68.17615634 240.70621054 -71.48339844 237.63671875 C-75.04805734 233.37042376 -77.72503385 228.62215873 -80.37988281 223.75585938 C-82.26580733 220.37482224 -84.35074266 217.14335939 -86.453125 213.89404297 C-96.94790027 197.65165561 -106.51604775 180.85073972 -116.14160156 164.0859375 C-117.5073581 161.71681686 -118.88398278 159.35525142 -120.2734375 157 C-124.28670651 150.14730351 -127.82225881 143.17828504 -131.11303711 135.95678711 C-131.42249268 135.2788208 -131.73194824 134.60085449 -132.05078125 133.90234375 C-132.3442041 133.2563623 -132.63762695 132.61038086 -132.93994141 131.94482422 C-133.86325697 129.98334136 -133.86325697 129.98334136 -135.60546875 127.56640625 C-137.23666406 124.35152618 -136.59688861 122.66634921 -135.8125 119.1875 C-134.81958008 116.63989258 -134.81958008 116.63989258 -133.58203125 114.08203125 C-133.11619629 113.11257568 -132.65036133 112.14312012 -132.17041016 111.14428711 C-131.40543213 109.58786499 -131.40543213 109.58786499 -130.625 108 C-130.09181152 106.90502197 -129.55862305 105.81004395 -129.00927734 104.68188477 C-118.73290688 83.70480805 -107.79184853 63.240039 -95.8125 43.1875 C-94.72341517 41.34797772 -93.63486214 39.50814047 -92.546875 37.66796875 C-87.2148685 28.6790917 -81.85594712 19.72232736 -75.8125 11.1875 C-75.43270996 10.51001709 -75.05291992 9.83253418 -74.66162109 9.13452148 C-72.61364349 5.81721285 -71.10860619 3.60756485 -67.31005859 2.37646484 C-64.25334216 1.97676054 -61.26924247 1.81986794 -58.1875 1.75 C-57.18976563 1.69908203 -56.19203125 1.64816406 -55.1640625 1.59570312 C-52.98119606 1.48846031 -50.79732649 1.40059147 -48.61303711 1.32788086 C-45.86711202 1.22645432 -43.13139709 1.09903149 -40.38891602 0.93969727 C-26.92274306 0.16541754 -13.48672837 -0.01018217 0 0 Z " fill="#0E183F" transform="translate(513.8125,382.8125)"/>
<path d="M0 0 C8.0823052 0.59014393 15.87630724 2.09521458 23.8125 3.6875 C37.70320518 6.40980958 51.6568465 8.45702317 65.6875 10.3125 C66.6524942 10.44119476 67.6174884 10.56988953 68.61172485 10.70248413 C71.41105695 11.07391018 74.21117583 11.4386081 77.01171875 11.80078125 C77.89170532 11.91702347 78.77169189 12.03326569 79.67834473 12.1530304 C83.46281576 12.63539535 87.19216132 13.05574371 91.00854492 13.12890625 C99.04236451 13.31070543 99.04236451 13.31070543 101.88891602 15.35961914 C103.5081405 17.27348554 104.71039496 19.18993641 105.9375 21.375 C106.92143821 22.93161386 107.90854541 24.48622808 108.8984375 26.0390625 C109.39956055 26.8527832 109.90068359 27.66650391 110.41699219 28.50488281 C113.09886947 32.73202437 116.07842239 36.73312835 119.0625 40.75 C119.6517627 41.54970215 120.24102539 42.3494043 120.84814453 43.17333984 C125.17306304 49.00184799 129.71479272 54.58892542 134.46875 60.0703125 C137.72030825 63.8336901 140.8502932 67.68954738 143.984375 71.55078125 C145.80338731 73.76109272 147.66865274 75.91643476 149.5625 78.0625 C152 81 152 81 152 83 C152.66 83 153.32 83 154 83 C155.61089244 84.68649389 157.14123731 86.45064334 158.625 88.25 C159.44226563 89.22453125 160.25953125 90.1990625 161.1015625 91.203125 C163 94 163 94 163 98 C158.42431694 104.41844961 149.40122765 112.53292412 142 115 C142 115.66 142 116.32 142 117 C139.66263534 118.91846034 137.31566307 120.72096246 134.875 122.5 C134.14941895 123.03536377 133.42383789 123.57072754 132.67626953 124.12231445 C130.45624705 125.75573775 128.22900334 127.3788611 126 129 C125.3709375 129.46067871 124.741875 129.92135742 124.09375 130.39599609 C97.73196328 149.68316955 68.24649617 168.74228964 35 172 C34.15308594 172.08378906 33.30617188 172.16757812 32.43359375 172.25390625 C22.50212112 172.74808868 12.53695478 169.6060544 4.9921875 163.09765625 C-3.66407376 153.98312234 -8.73394348 141.26336472 -11 129 C-11.17273438 128.1028125 -11.34546875 127.205625 -11.5234375 126.28125 C-18.62508484 83.87721083 -9.79269997 41.19980316 0 0 Z " fill="#0F183F" transform="translate(326,640)"/>
<path d="M0 0 C1.07306396 0.52078125 2.14612793 1.0415625 3.25170898 1.578125 C19.97875953 9.85705795 35.414647 19.94696621 50 31.5625 C51.03568115 32.38403564 51.03568115 32.38403564 52.09228516 33.22216797 C60.81546119 40.17887604 69.19875608 47.41268541 77.26782227 55.12060547 C77.84717529 55.67377441 78.42652832 56.22694336 79.0234375 56.796875 C79.52794434 57.28381836 80.03245117 57.77076172 80.55224609 58.27246094 C82.17974479 59.78300558 82.17974479 59.78300558 85 61.5625 C84.13863949 66.09225727 81.48993232 68.58864089 78.375 71.8125 C77.26885238 72.98373423 76.16337948 74.15560606 75.05859375 75.328125 C74.5260498 75.88951172 73.99350586 76.45089844 73.44482422 77.02929688 C70.53066286 80.12171548 67.76133907 83.33403933 65 86.5625 C64.18144531 87.51382813 63.36289062 88.46515625 62.51953125 89.4453125 C56.2534671 96.76321239 50.22192549 104.24045519 44.32324219 111.85693359 C43.05725475 113.48870264 41.78349536 115.1140871 40.5078125 116.73828125 C39.70085937 117.77339844 38.89390625 118.80851563 38.0625 119.875 C37.65894287 120.38909424 37.25538574 120.90318848 36.83959961 121.43286133 C34.4207998 124.56108699 32.19702086 127.75887637 30.05859375 131.0859375 C29.54997803 131.85897217 29.0413623 132.63200684 28.51733398 133.4284668 C27.53146587 134.93685294 26.56967405 136.46135199 25.63696289 138.00317383 C23.72170663 140.90623168 22.23492626 143.14616541 18.85162354 144.28678894 C18.05270691 144.41926529 17.25379028 144.55174164 16.43066406 144.68823242 C15.54221802 144.84038712 14.65377197 144.99254181 13.73840332 145.14930725 C12.83473022 145.28566086 11.93105713 145.42201447 11 145.5625 C10.18043823 145.68858139 9.36087646 145.81466278 8.51647949 145.94456482 C5.96651629 146.31913148 3.41394374 146.66613166 0.859375 147.0078125 C-1.10143931 147.27834029 -3.06212786 147.54978076 -5.02270508 147.82202148 C-6.03942291 147.96292206 -7.05614075 148.10382263 -8.10366821 148.24899292 C-26.78936496 150.85323522 -45.24059558 153.98230003 -63.65917969 158.07275391 C-64.40948959 158.23938034 -65.1597995 158.40600677 -65.93284607 158.5776825 C-67.93420526 159.02551555 -69.93361901 159.4820184 -71.93286133 159.93920898 C-75 160.5625 -75 160.5625 -78 160.5625 C-80.05047398 151.90718492 -82.04606856 143.24011617 -84 134.5625 C-84.35964844 132.96970215 -84.35964844 132.96970215 -84.7265625 131.34472656 C-90.30463027 106.267465 -92.7416593 81.2406115 -92 55.5625 C-91.98066406 54.27859375 -91.96132813 52.9946875 -91.94140625 51.671875 C-91.6564258 44.38328418 -90.25575988 37.41537842 -88.6875 30.3125 C-88.48680908 29.40089111 -88.28611816 28.48928223 -88.0793457 27.55004883 C-84.97128978 14.27849347 -79.63066834 1.51637642 -68 -6.4375 C-46.80287981 -19.11379762 -20.55884183 -10.02886468 0 0 Z " fill="#0F183F" transform="translate(404,209.4375)"/>
<path d="M0 0 C10.40280762 49.68164318 10.40280762 49.68164318 12 71 C12.06622559 71.86028809 12.13245117 72.72057617 12.20068359 73.60693359 C14.22644055 101.15403798 16.18310341 139.61971269 -3 162 C-10.75912745 169.77458388 -19.9717603 173.1444678 -30.875 173.4375 C-59.11937945 172.50738871 -86.16536368 157.5352139 -109 142 C-109.64259766 141.56300781 -110.28519531 141.12601563 -110.94726562 140.67578125 C-129.49702525 127.94363367 -146.54700789 113.30791207 -163 98 C-161.31800659 93.91942427 -158.44798902 90.88788145 -155.5625 87.625 C-150.94846414 82.32742897 -146.51597033 76.93229951 -142.21044922 71.38208008 C-139.29993285 67.63666426 -136.33031436 63.94924618 -133.31396484 60.28857422 C-128.63415439 54.60283633 -124.07803404 48.85408874 -119.71704102 42.91894531 C-118.5289543 41.30396888 -117.32882071 39.6977873 -116.11694336 38.10058594 C-113.26674584 34.30756808 -110.73421865 30.64485771 -108.64453125 26.37890625 C-106.15031603 21.6371102 -103.67239286 17.80613207 -99 15 C-90.49124352 12.41026321 -81.43332645 12.1976775 -72.60784912 11.62104797 C-63.27772378 10.96733718 -54.09039066 9.48019047 -44.86669922 7.96853638 C-42.08068709 7.51318758 -39.29270823 7.07241573 -36.50390625 6.63452148 C-27.12334686 5.14024237 -17.84247251 3.4218619 -8.59448242 1.2442627 C-5.65427864 0.55573396 -3.03230375 0 0 0 Z " fill="#0F183F" transform="translate(701,639)"/>
<path d="M0 0 C15.82843617 13.71218006 18.08665223 34.89856565 20.3125 54.5 C20.39653076 55.21438232 20.48056152 55.92876465 20.56713867 56.66479492 C21.88661309 69.44158666 21.09190944 82.24588627 19.9375 95 C19.8728656 95.72845123 19.8082312 96.45690247 19.74163818 97.20742798 C18.38377689 112.25838379 16.06316241 127.04723066 13.125 141.875 C12.78734619 143.59033936 12.78734619 143.59033936 12.44287109 145.34033203 C11.79129902 148.60566565 11.12094932 151.86620103 10.4375 155.125 C10.23527832 156.10235107 10.03305664 157.07970215 9.82470703 158.08666992 C9.63118652 158.9707251 9.43766602 159.85478027 9.23828125 160.765625 C9.07110596 161.53938477 8.90393066 162.31314453 8.73168945 163.11035156 C8.125 164.875 8.125 164.875 6.125 165.875 C4.0247129 165.54114096 1.93881877 165.11582165 -0.13671875 164.65234375 C-1.47734842 164.36050024 -2.81809327 164.06918546 -4.15893555 163.77832031 C-5.23224625 163.5422406 -5.23224625 163.5422406 -6.32723999 163.3013916 C-20.17078813 160.27355842 -34.05251267 157.74732651 -48.0625 155.625 C-48.88686554 155.49915527 -49.71123108 155.37331055 -50.56057739 155.24365234 C-58.45344114 154.04395339 -66.3426998 152.90237567 -74.27734375 152.01171875 C-75.34895752 151.88893555 -76.42057129 151.76615234 -77.5246582 151.63964844 C-79.4285351 151.43031103 -81.33469706 151.24028589 -83.24291992 151.07519531 C-87.39624944 150.6293646 -89.38821297 150.26323097 -92.73046875 147.59765625 C-94.73364247 145.05446484 -96.70106222 142.52381385 -98.5625 139.875 C-102.75644558 134.00818848 -107.1155454 128.28502625 -111.54101562 122.59277344 C-112.91155238 120.82793146 -114.27600174 119.05847934 -115.640625 117.2890625 C-120.47117727 111.05388753 -125.41771412 105.04348838 -130.76171875 99.234375 C-133.60170504 96.06366942 -136.20468899 92.72690921 -138.8359375 89.3828125 C-140.97407221 86.75315257 -143.21313473 84.25101988 -145.5 81.75 C-149.24672219 77.64613791 -152.65218002 73.39958648 -155.875 68.875 C-144.30126587 41.03547737 -85.63742452 11.93521141 -59.05859375 0.8046875 C-40.56505771 -6.55750827 -17.60917548 -12.68940584 0 0 Z " fill="#0F183F" transform="translate(692.875,204.125)"/>
<path d="M0 0 C9.60328993 2.30059962 18.6950083 5.7305687 27.875 9.3125 C29.05119904 9.77011215 29.05119904 9.77011215 30.25115967 10.23696899 C64.31357583 23.54824694 108.2455994 41.29189408 128 74 C128.40992188 74.67804688 128.81984375 75.35609375 129.2421875 76.0546875 C134.23124632 85.12239294 135.50604586 95.95820773 132.875 105.9375 C128.23785164 119.91395183 118.32074959 129.19129995 107 138 C106.35417969 138.51175781 105.70835937 139.02351562 105.04296875 139.55078125 C103.06110579 141.08359465 101.04024822 142.54566922 99 144 C97.57494141 145.03833984 97.57494141 145.03833984 96.12109375 146.09765625 C72.3002639 162.98366463 44.65978792 173.91383179 17.3125 183.625 C16.38663086 183.95612793 15.46076172 184.28725586 14.50683594 184.62841797 C9.30163552 186.42149126 4.48845979 187.5271874 -1 188 C-1.25652344 187.07445312 -1.51304687 186.14890625 -1.77734375 185.1953125 C-7.29977776 165.65745934 -14.24529754 146.62642373 -21.6875 127.75 C-21.95731689 127.06502441 -22.22713379 126.38004883 -22.50512695 125.67431641 C-23.29572017 123.67218665 -24.09041846 121.67174107 -24.88671875 119.671875 C-25.14105682 119.02923706 -25.3953949 118.38659912 -25.65744019 117.7244873 C-26.94553186 114.50234321 -28.29207668 111.32828097 -29.76416016 108.18554688 C-34.95439274 97.03968364 -34.95439274 97.03968364 -33.75537109 92.07080078 C-31.94581529 87.11002111 -29.94740287 82.26728599 -27.8125 77.4375 C-26.79872002 75.0888692 -25.78569264 72.7399134 -24.7734375 70.390625 C-24.28842773 69.27365234 -23.80341797 68.15667969 -23.30371094 67.00585938 C-13.89773219 45.31926569 -6.50376997 22.71031872 0 0 Z " fill="#0E183F" transform="translate(722,410)"/>
<path d="M0 0 C0.29132813 0.94617188 0.58265625 1.89234375 0.8828125 2.8671875 C2.23794007 7.25026609 3.61553902 11.62610814 5 16 C5.32097656 17.01827881 5.32097656 17.01827881 5.6484375 18.05712891 C11.3578472 36.0444127 18.04568671 53.76412224 25.4140625 71.13671875 C25.83396957 72.13080498 25.83396957 72.13080498 26.26235962 73.14497375 C27.61630301 76.34568057 28.98484455 79.5386981 30.37939453 82.72192383 C30.86778809 83.86556396 31.35618164 85.0092041 31.859375 86.1875 C32.29733398 87.19167969 32.73529297 88.19585937 33.18652344 89.23046875 C34.69814477 94.37687704 32.57829434 98.32196595 30.55859375 103.09375 C29.81270996 104.87060181 29.81270996 104.87060181 29.05175781 106.68334961 C28.78834595 107.30579559 28.52493408 107.92824158 28.25354004 108.56954956 C26.86908105 111.84467006 25.5023816 115.12716219 24.13671875 118.41015625 C23.72844345 119.39128136 23.72844345 119.39128136 23.31192017 120.39222717 C19.66492036 129.18337477 16.30082768 138.0743445 13 147 C12.65984863 147.91362305 12.31969727 148.82724609 11.96923828 149.76855469 C7.99501881 160.45808738 4.1978633 171.15625074 0.91015625 182.078125 C0 185 0 185 -1 187 C-8.61968645 185.70772312 -15.77327225 183.60943215 -23.0625 181.0625 C-24.18793213 180.6698999 -25.31336426 180.2772998 -26.47290039 179.87280273 C-56.35331686 169.23111863 -86.89621296 155.0066524 -111 134 C-111.78503906 133.33484375 -112.57007813 132.6696875 -113.37890625 131.984375 C-123.85232247 122.94307335 -133.05723674 112.00320955 -134.28515625 97.671875 C-134.61560417 84.3964892 -131.22441029 73.71271813 -122.17578125 63.83203125 C-110.61453478 51.7151446 -97.36370145 42.48817671 -83 34 C-81.4835791 33.09193604 -81.4835791 33.09193604 -79.93652344 32.16552734 C-71.89366947 27.44254301 -63.71978615 23.42055994 -55.15087891 19.74462891 C-53.12900679 18.87671996 -51.11308311 17.99603919 -49.09765625 17.11328125 C-36.67894338 11.70813155 -24.04388242 6.89103442 -11.1875 2.625 C-10.42630859 2.36589844 -9.66511719 2.10679687 -8.88085938 1.83984375 C-5.80995724 0.81530623 -3.2597121 0 0 0 Z " fill="#0F183F" transform="translate(305,411)"/>
<path d="M0 0 C12.9346611 9.5744831 21.128584 23.78359843 25.12109375 39.16015625 C25.29237793 39.75683105 25.46366211 40.35350586 25.64013672 40.96826172 C29.65547499 59.26760539 25.46279198 77.94172519 15.8671875 93.609375 C6.26105989 107.6424876 -9.64163182 117.91331963 -26.21484375 121.69287109 C-45.58921713 125.09119868 -64.51695268 121.22192311 -80.70703125 110.2421875 C-94.55816567 99.59890783 -104.30797025 85.28316467 -107.46484375 67.94140625 C-109.68061155 47.70684749 -107.20865621 28.22791166 -94.3671875 11.7890625 C-69.12904995 -18.15552033 -31.71555368 -20.2686917 0 0 Z " fill="#52DBFE" transform="translate(553.87890625,448.83984375)"/>
<path d="M0 0 C28.71 0 57.42 0 87 0 C78.45330285 12.82004573 69.00115081 24.76945273 59.02734375 36.50390625 C58.52452881 37.09558594 58.02171387 37.68726563 57.50366211 38.296875 C56.51844013 39.453739 55.53104863 40.60875967 54.54125977 41.76171875 C52.00541525 44.69804099 52.00541525 44.69804099 50 48 C49.34 48 48.68 48 48 48 C47.731875 48.61875 47.46375 49.2375 47.1875 49.875 C46 52 46 52 43 54 C33.96555021 43.79384683 25.22031313 33.39766643 16.8515625 22.640625 C14.83004016 20.04659844 12.77993578 17.47819433 10.7109375 14.921875 C10.16493896 14.24624512 9.61894043 13.57061523 9.05639648 12.87451172 C8.00155629 11.57167033 6.9439099 10.27109441 5.88305664 8.97314453 C5.40473389 8.38130371 4.92641113 7.78946289 4.43359375 7.1796875 C4.01134521 6.66132324 3.58909668 6.14295898 3.15405273 5.60888672 C2 4 2 4 0 0 Z " fill="#0E183D" transform="translate(470,658)"/>
<path d="M0 0 C3.60179955 3.55612455 7.08450572 7.20150415 10.5 10.9375 C10.96019531 11.43701172 11.42039062 11.93652344 11.89453125 12.45117188 C21 22.39023988 21 22.39023988 21 25 C21.66 25 22.32 25 23 25 C24.35776041 26.63479225 25.6340114 28.33738947 26.875 30.0625 C31.13781333 35.91702683 35.61771264 41.56950472 40.18896484 47.18579102 C44 51.89663671 44 51.89663671 44 53 C14.96 53 -14.08 53 -44 53 C-41.74323253 49.23872089 -39.64606837 46.20226848 -36.875 42.875 C-36.07578125 41.91078125 -35.2765625 40.9465625 -34.453125 39.953125 C-33.23882812 38.49132812 -33.23882812 38.49132812 -32 37 C-30.54050863 35.20927654 -29.08215989 33.41762116 -27.625 31.625 C-18.73017492 20.77238847 -9.59983314 10.23647129 0 0 Z " fill="#0E173D" transform="translate(513,297)"/>
<path d="M0 0 C9.10293654 13.65440481 13.87497562 32.06150043 19.1875 47.5625 C19.43128387 48.27175629 19.67506775 48.98101257 19.92623901 49.71176147 C24 61.60186681 24 61.60186681 24 64 C10.03400464 67.1541216 -3.90566304 70.15048562 -18.0625 72.3125 C-19.10003418 72.47137695 -20.13756836 72.63025391 -21.20654297 72.79394531 C-27.78857062 73.76361427 -34.36865561 74.46782993 -41 75 C-39.70610843 70.67197665 -38.04471978 67.13151038 -35.6484375 63.30859375 C-34.96950439 62.21289062 -34.29057129 61.1171875 -33.59106445 59.98828125 C-33.23001617 59.41029785 -32.8689679 58.83231445 -32.49697876 58.23681641 C-25.79652008 47.49129637 -19.41045825 36.59797797 -13.3125 25.5 C-12.98538025 24.90669891 -12.6582605 24.31339783 -12.32122803 23.70211792 C-8.02233392 15.89358722 -3.92726854 8.00170744 0 0 Z " fill="#0E183D" transform="translate(667,543)"/>
<path d="M0 0 C21.92968882 2.55460784 43.40736331 6.43106742 65 11 C62.91890195 20.79469345 59.61793879 30.01010556 56.12182617 39.37158203 C55.19277379 41.86086949 54.27435826 44.35388387 53.35742188 46.84765625 C49.84177585 56.35875014 46.11071273 65.72935324 42 75 C39.13281893 72.50116837 37.74586048 69.79647695 36.1015625 66.390625 C35.5461377 65.25439697 34.99071289 64.11816895 34.41845703 62.94750977 C33.98028656 62.04320724 33.98028656 62.04320724 33.53326416 61.12063599 C24.13978285 41.77407918 14.00324706 22.51970429 1.78515625 4.78515625 C0 2 0 2 0 0 Z " fill="#0E183E" transform="translate(626,390)"/>
<path d="M0 0 C-1.75059122 5.00025194 -4.4500162 9.39246674 -7.125 13.9375 C-8.13034824 15.66267889 -9.13555591 17.38793971 -10.140625 19.11328125 C-11.45396809 21.35999301 -12.76825665 23.60609871 -14.08789062 25.84912109 C-19.4766525 35.01605257 -24.38831169 44.40485852 -29.25732422 53.85595703 C-32.74525529 60.62350475 -36.32306551 67.33318496 -40 74 C-40.66 74 -41.32 74 -42 74 C-48.0740598 58.77277265 -54.01473251 43.54205532 -59.30078125 28.01953125 C-60.58252754 24.31750427 -61.9719011 20.65507034 -63.37109375 16.99609375 C-64 15 -64 15 -64 12 C-44.42202084 5.52225828 -20.68140141 0 0 0 Z " fill="#0E183E" transform="translate(400,390)"/>
<path d="M0 0 C2.31794427 2.93523454 4.12289178 5.92649978 5.86328125 9.234375 C6.41322754 10.27134521 6.96317383 11.30831543 7.52978516 12.37670898 C8.11808105 13.48989502 8.70637695 14.60308105 9.3125 15.75 C18.70793521 33.34894886 28.64782805 50.59766594 39.44580078 67.37866211 C39.9148584 68.10835205 40.38391602 68.83804199 40.8671875 69.58984375 C41.28081543 70.22784912 41.69444336 70.86585449 42.12060547 71.52319336 C43 73 43 73 43 74 C33.53145113 73.49268251 24.32368623 72.21522627 14.99951172 70.58081055 C12.7679572 70.19063968 10.53461282 69.81243536 8.30078125 69.43554688 C-1.90249934 67.68671298 -11.94999075 65.47761746 -22 63 C-20.52219223 53.51190936 -17.20864605 44.9302306 -13.8125 36 C-13.22249601 34.43209807 -12.63306114 32.86398185 -12.04418945 31.2956543 C-8.10816095 20.83373349 -4.12294684 10.38982603 0 0 Z " fill="#0E183D" transform="translate(358,544)"/>
<path d="M0 0 C0.99 0 1.98 0 3 0 C1.56691865 3.95906817 -0.33141949 7.28718181 -2.625 10.8125 C-3.57246094 12.27623047 -3.57246094 12.27623047 -4.5390625 13.76953125 C-5.02117187 14.50558594 -5.50328125 15.24164063 -6 16 C-6.33 15.34 -6.66 14.68 -7 14 C-6.02065076 12.32111559 -5.01656081 10.65661761 -4 9 C-3.32136945 7.0040278 -2.65358081 5.00431449 -2 3 C-1.34 2.01 -0.68 1.02 0 0 Z " fill="#5FE4F9" transform="translate(430,401)"/>
<path d="M0 0 C-4.34242429 4.34242429 -8.13551546 4.7444669 -14 5 C-12.6045933 2.20918661 -10.98580959 1.96096994 -8.125 0.8125 C-7.24070312 0.44769531 -6.35640625 0.08289063 -5.4453125 -0.29296875 C-3 -1 -3 -1 0 0 Z " fill="#09122E" transform="translate(781,615)"/>
<path d="M0 0 C4.50727647 0.60266785 7.8587963 2.36599794 11.8125 4.5625 C12.7087207 5.0565332 12.7087207 5.0565332 13.62304688 5.56054688 C15.08533998 6.36773267 16.5431399 7.18304917 18 8 C15 9 15 9 13.203125 8.36328125 C12.55859375 8.01652344 11.9140625 7.66976563 11.25 7.3125 C10.20585938 6.75755859 10.20585938 6.75755859 9.140625 6.19140625 C6.07753048 4.48658175 3.02816842 2.76643158 0 1 C0 0.67 0 0.34 0 0 Z " fill="#091229" transform="translate(785,436)"/>
<path d="M0 0 C0.33 0.66 0.66 1.32 1 2 C-0.6232687 2.6708712 -2.24867578 3.33657029 -3.875 4 C-5.23238281 4.556875 -5.23238281 4.556875 -6.6171875 5.125 C-9 6 -9 6 -11 6 C-11 5.01 -11 4.02 -11 3 C-7.37 2.01 -3.74 1.02 0 0 Z " fill="#63DDF4" transform="translate(407,832)"/>
<path d="M0 0 C1.61949011 2.57213134 2.04408751 3.67669159 1.625 6.75 C1.41875 7.4925 1.2125 8.235 1 9 C-1.89932357 6.60490662 -2.50168276 4.68754757 -3 1 C-2.01 0.67 -1.02 0.34 0 0 Z " fill="#091130" transform="translate(667,456)"/>
<path d="M0 0 C-0.33 0.66 -0.66 1.32 -1 2 C-3.06640625 2.6328125 -3.06640625 2.6328125 -5.5625 3.125 C-6.38878906 3.29257812 -7.21507812 3.46015625 -8.06640625 3.6328125 C-8.70449219 3.75398437 -9.34257813 3.87515625 -10 4 C-9.67 3.01 -9.34 2.02 -9 1 C-3.79245283 -1.26415094 -3.79245283 -1.26415094 0 0 Z " fill="#0A1331" transform="translate(757,624)"/>
<path d="M0 0 C0 0.99 0 1.98 0 3 C-3.46669756 6.30545582 -6.39137539 8.50897439 -11 10 C-9.54144353 6.31353859 -7.69770955 4.83856029 -4.375 2.75 C-3.55773437 2.22921875 -2.74046875 1.7084375 -1.8984375 1.171875 C-1.27195312 0.78515625 -0.64546875 0.3984375 0 0 Z " fill="#69E2F8" transform="translate(567,204)"/>
<path d="M0 0 C3.3 0.33 6.6 0.66 10 1 C10 1.99 10 2.98 10 4 C8.02 4.33 6.04 4.66 4 5 C3.67 4.01 3.34 3.02 3 2 C2.01 2 1.02 2 0 2 C0 1.34 0 0.68 0 0 Z " fill="#12264A" transform="translate(626,390)"/>
<path d="M0 0 C1.2380014 3.57644848 0.74926071 6.33694766 0 10 C-0.99 10 -1.98 10 -3 10 C-2.88637738 8.5199159 -2.75877092 7.04089926 -2.625 5.5625 C-2.55539062 4.73878906 -2.48578125 3.91507813 -2.4140625 3.06640625 C-2.27742188 2.38449219 -2.14078125 1.70257813 -2 1 C-1.34 0.67 -0.68 0.34 0 0 Z " fill="#63CEF2" transform="translate(283,239)"/>
<path d="M0 0 C0.66 0.33 1.32 0.66 2 1 C1 4 1 4 -1.06640625 5.16796875 C-1.89011719 5.50441406 -2.71382812 5.84085938 -3.5625 6.1875 C-4.38878906 6.53167969 -5.21507812 6.87585938 -6.06640625 7.23046875 C-6.70449219 7.48441406 -7.34257813 7.73835937 -8 8 C-6.88333826 4.65001479 -6.25305075 4.20659778 -3.4375 2.3125 C-2.79683594 1.87550781 -2.15617188 1.43851563 -1.49609375 0.98828125 C-1.00238281 0.66214844 -0.50867188 0.33601562 0 0 Z " fill="#090F2C" transform="translate(580,236)"/>
<path d="M0 0 C0 0.66 0 1.32 0 2 C-1.98 2.99 -1.98 2.99 -4 4 C-4 3.34 -4 2.68 -4 2 C-6.64 2 -9.28 2 -12 2 C-12 1.67 -12 1.34 -12 1 C-7.9472484 0.01751476 -4.16138263 -0.08159574 0 0 Z " fill="#0A0E2C" transform="translate(378,844)"/>
<path d="M0 0 C0.66 0.99 1.32 1.98 2 3 C1.34 3 0.68 3 0 3 C-0.33 5.64 -0.66 8.28 -1 11 C-1.99 10.67 -2.98 10.34 -4 10 C-2.68 6.7 -1.36 3.4 0 0 Z " fill="#09102D" transform="translate(355,553)"/>
<path d="M0 0 C3.34944548 5.02416822 3.09834146 9.09951257 3 15 C2.67 15 2.34 15 2 15 C1.67 11.7 1.34 8.4 1 5 C0.34 5 -0.32 5 -1 5 C-0.67 3.35 -0.34 1.7 0 0 Z " fill="#050920" transform="translate(708,234)"/>
<path d="M0 0 C-0.33 0.66 -0.66 1.32 -1 2 C-3.64860427 2.59355614 -6.29197322 2.74209269 -9 3 C-9 2.34 -9 1.68 -9 1 C-3.375 -1.125 -3.375 -1.125 0 0 Z " fill="#0C1632" transform="translate(741,629)"/>
<path d="M0 0 C-2.90600261 1.25664978 -4.79604584 2 -8 2 C-8.33 2.99 -8.66 3.98 -9 5 C-9.66 4.67 -10.32 4.34 -11 4 C-10.67 3.01 -10.34 2.02 -10 1 C-6.34742296 -0.62336757 -3.80637601 -1.46399077 0 0 Z " fill="#0A112E" transform="translate(652,201)"/>
<path d="M0 0 C-1.65 0.33 -3.3 0.66 -5 1 C-5.33 1.99 -5.66 2.98 -6 4 C-8.97 3.505 -8.97 3.505 -12 3 C-7.97869817 0.31913211 -4.73968522 -1.57989507 0 0 Z " fill="#112045" transform="translate(735,593)"/>
<path d="M0 0 C0.33 0 0.66 0 1 0 C0.25 6.625 0.25 6.625 -2 10 C-2.6875 8.375 -2.6875 8.375 -3 6 C-1.5625 2.75 -1.5625 2.75 0 0 Z " fill="#0A1230" transform="translate(697,483)"/>
<path d="M0 0 C0.66 0.33 1.32 0.66 2 1 C1.67 1.99 1.34 2.98 1 4 C-0.32303717 4.3721042 -1.65737935 4.70630173 -3 5 C-3.33 5.66 -3.66 6.32 -4 7 C-4.66 7 -5.32 7 -6 7 C-4.60667426 3.63279613 -3.0210714 2.0140476 0 0 Z " fill="#0A102C" transform="translate(201,459)"/>
<path d="M0 0 C-2.64 1.65 -5.28 3.3 -8 5 C-8 3.68 -8 2.36 -8 1 C-4.59449725 -1.06762667 -4.18836538 -1.04709135 0 0 Z " fill="#59E2F7" transform="translate(491,441)"/>
<path d="M0 0 C3 3 3 3 3.07421875 5.48046875 C2.94660156 6.37378906 2.81898438 7.26710938 2.6875 8.1875 C2.56761719 9.08855469 2.44773437 9.98960937 2.32421875 10.91796875 C2.21722656 11.60503906 2.11023438 12.29210937 2 13 C1.67 13 1.34 13 1 13 C0.67 8.71 0.34 4.42 0 0 Z " fill="#52D2F5" transform="translate(446,492)"/>
<path d="M0 0 C0 2.62113708 -0.31292445 4.50935112 -1 7 C-2.65 7.33 -4.3 7.66 -6 8 C-4.02 5.36 -2.04 2.72 0 0 Z " fill="#060C27" transform="translate(485,329)"/>
<path d="M0 0 C0.94875 0.515625 1.8975 1.03125 2.875 1.5625 C4.421875 2.2740625 4.421875 2.2740625 6 3 C6.66 2.67 7.32 2.34 8 2 C6.25 5.875 6.25 5.875 4 7 C0 2.25 0 2.25 0 0 Z " fill="#04051C" transform="translate(509,705)"/>
<path d="M0 0 C0 0.99 0 1.98 0 3 C-0.99 3 -1.98 3 -3 3 C-3.33 3.99 -3.66 4.98 -4 6 C-4.33 5.34 -4.66 4.68 -5 4 C-5.66 3.67 -6.32 3.34 -7 3 C-4.69 2.01 -2.38 1.02 0 0 Z " fill="#5ED2EF" transform="translate(235,401)"/>
<path d="M0 0 C0.99 0 1.98 0 3 0 C3.33 2.31 3.66 4.62 4 7 C3.01 7 2.02 7 1 7 C0.67 4.69 0.34 2.38 0 0 Z " fill="#132448" transform="translate(324,360)"/>
<path d="M0 0 C0 4.38968456 -2.12805101 5.76905739 -5 9 C-5 4.61031544 -2.87194899 3.23094261 0 0 Z " fill="#09122B" transform="translate(565,703)"/>
<path d="M0 0 C0.99 0.99 1.98 1.98 3 3 C0.00468461 3.99843846 -1.17255732 4.00732761 -4.1875 3.5625 C-5.445625 3.376875 -6.70375 3.19125 -8 3 C-8 2.67 -8 2.34 -8 2 C-6.865625 1.855625 -5.73125 1.71125 -4.5625 1.5625 C-1.19222799 1.38828522 -1.19222799 1.38828522 0 0 Z " fill="#182B4E" transform="translate(396,614)"/>
</svg>
