<?xml version="1.0" encoding="UTF-8"?>
<svg version="1.1" xmlns="http://www.w3.org/2000/svg" width="1024" height="1536">
<path d="M0 0 C337.92 0 675.84 0 1024 0 C1024 506.88 1024 1013.76 1024 1536 C686.08 1536 348.16 1536 0 1536 C0 1029.12 0 522.24 0 0 Z " fill="#FEFEFE" transform="translate(0,0)"/>
<path d="M0 0 C2.79053621 -0.00491329 5.5810507 -0.01281773 8.37157822 -0.02125549 C33.81722246 -0.0873783 59.14238563 0.64762456 84.54534149 2.11590195 C86.8190573 2.24672521 89.09293104 2.37438517 91.36687851 2.50111389 C100.51344364 3.012318 109.65194949 3.57937146 118.78872299 4.24497986 C120.61355209 4.37743103 120.61355209 4.37743103 122.47524643 4.51255798 C300.37558753 18.01202669 300.37558753 18.01202669 342.25356674 65.99497986 C347.46374297 73.63126868 348.36736933 79.22115096 348.28650093 88.33661461 C348.2917155 89.54665984 348.29693007 90.75670506 348.30230266 92.00341833 C348.31272056 95.36018976 348.30523993 98.71605417 348.29019049 102.07275048 C348.2782313 105.72526763 348.28951411 109.37772552 348.29783213 113.03024256 C348.30920037 119.43111415 348.30570116 125.83184385 348.2924614 132.23270988 C348.27282764 141.75105956 348.27609053 151.26930534 348.28396199 160.78766708 C348.29651567 176.80175347 348.29016493 192.81578097 348.27277374 208.82986069 C348.2555498 224.69337383 348.24573331 240.55686053 348.24610901 256.42038345 C348.24613195 257.90007959 348.24613195 257.90007959 348.24615534 259.40966857 C348.24623716 263.41395909 348.24636838 267.4182496 348.24656697 271.42254011 C348.24837964 308.99657479 348.22848227 346.57056917 348.19770764 384.14458986 C348.17046363 417.53092365 348.15798488 450.9172288 348.15932846 484.30357361 C348.15940928 486.4469797 348.15949 488.59038578 348.15957062 490.73379187 C348.15963167 492.32327553 348.15963167 492.32327553 348.15969396 493.94486996 C348.15989555 499.27897833 348.16007671 504.61308669 348.16023445 509.94719505 C348.16026788 510.99951968 348.1603013 512.05184431 348.16033574 513.13605756 C348.1610661 541.02702742 348.15198858 568.91799369 348.13958132 596.80896056 C348.13914078 597.80112104 348.13870024 598.79328153 348.13824634 599.81550749 C348.13646987 603.80526947 348.13469307 607.79503144 348.13286443 611.7847934 C348.12654459 625.66706676 348.12352591 639.5493373 348.12264145 653.431612 C348.12144727 671.32279685 348.11345898 689.21395806 348.09377854 707.1051328 C348.08354909 716.56788484 348.07872961 726.0306022 348.0817709 735.4933595 C348.08323992 741.81345268 348.07743111 748.13351213 348.06568329 754.4535945 C348.05918527 758.05501542 348.05580683 761.65636368 348.06120448 765.25778811 C348.06693711 769.13912477 348.05721099 773.02033619 348.0459919 776.90166283 C348.05010253 778.01700421 348.05421317 779.13234559 348.05844837 780.2814852 C347.95425817 799.95958697 340.34649832 814.18934132 327.16372299 828.30747986 C307.87173822 846.53402958 283.25453582 858.59199921 258.78872299 868.24497986 C257.84190659 868.61929138 256.89509018 868.99360291 255.91958237 869.3792572 C195.06744187 893.06563488 129.88659283 902.79449888 65.12856674 907.59654236 C64.45417053 907.64745529 63.77977432 907.69836823 63.08494186 907.75082397 C60.65353562 907.92769558 58.22153909 908.08853752 55.78872299 908.24497986 C54.47283691 908.32978104 53.15695084 908.41458221 51.80118942 908.50195312 C41.40526294 909.14224193 31.05047836 909.40780597 20.63637924 909.41294861 C19.04201354 909.41618377 17.4476481 909.41954925 15.85328293 909.42303467 C12.52975405 909.42896318 9.2062509 909.43088156 5.88271713 909.43028259 C2.55876762 909.4302021 -0.7650418 909.4370317 -4.08896255 909.45079041 C-37.62264937 909.58732951 -70.87527388 907.99927184 -104.21127701 904.24497986 C-104.95142044 904.1622583 -105.69156387 904.07953674 -106.45413589 903.99430847 C-151.92923492 898.88513675 -196.87276622 890.17045238 -240.21127701 875.24497986 C-241.22125748 874.90531189 -242.23123795 874.56564392 -243.27182388 874.21568298 C-282.0591505 861.14048249 -326.40927302 842.4131599 -345.76596451 803.83482361 C-349.07724635 795.61031548 -349.50137664 787.79956811 -349.47133923 778.99906254 C-349.4751449 777.78448672 -349.47895057 776.5699109 -349.48287156 775.31852975 C-349.49138854 771.95396706 -349.49100552 768.58962115 -349.4868162 765.22506463 C-349.48444552 761.56209694 -349.4936248 757.89915484 -349.50130039 754.23619694 C-349.51313657 747.81855646 -349.51751359 741.40094441 -349.51697922 734.98329353 C-349.51618548 725.43997615 -349.5267409 715.89669461 -349.53939479 706.35338682 C-349.56412447 687.32487753 -349.57291614 668.29637698 -349.57793128 649.26785383 C-349.57819245 648.28267024 -349.57845363 647.29748665 -349.57872272 646.28244901 C-349.57898299 645.2952918 -349.57924326 644.30813459 -349.57951142 643.29106353 C-349.58259396 632.35081932 -349.58909869 621.41057754 -349.59572411 610.47033501 C-349.61536913 577.43044052 -349.63177578 544.39054863 -349.63460064 511.35064793 C-349.6346947 510.29404917 -349.63478876 509.23745041 -349.63488567 508.14883351 C-349.63526415 503.86689108 -349.63562815 499.58494866 -349.63598865 495.30300623 C-349.63626037 492.08013221 -349.63653705 488.85725818 -349.63681412 485.63438416 C-349.63690214 484.5694252 -349.63699016 483.50446624 -349.63708085 482.4072358 C-349.63998734 448.93344679 -349.66209403 415.4597155 -349.69833755 381.98594666 C-349.73905039 344.38342399 -349.76275909 306.78094065 -349.76306015 269.17839473 C-349.76315698 265.17007664 -349.7633237 261.16175856 -349.76354027 257.15344048 C-349.76358438 256.16648062 -349.7636285 255.17952075 -349.76367395 254.16265302 C-349.76479438 238.27145942 -349.78221119 222.3803236 -349.80535959 206.48914861 C-349.82818508 190.5237345 -349.83243828 174.55839856 -349.81781029 158.59297413 C-349.80965035 149.10569522 -349.81537982 139.61866232 -349.84099114 130.13141317 C-349.85671803 123.79501632 -349.85429102 117.45879452 -349.83708441 111.12240195 C-349.82779297 107.51156508 -349.82637807 103.90120274 -349.84705048 100.29040248 C-349.86914022 96.39895238 -349.85248263 92.50820995 -349.83210278 88.61673832 C-349.84466615 87.49847409 -349.85722952 86.38020987 -349.8701736 85.22805884 C-349.76565764 75.93141637 -346.99317171 69.10386626 -340.77377701 62.18247986 C-319.0676533 42.09019434 -287.07728039 33.46140455 -259.21127701 26.24497986 C-258.12636978 25.96154724 -257.04146255 25.67811462 -255.92367935 25.38609314 C-172.77380473 3.98516373 -85.45003263 0.12963382 0 0 Z " fill="#0765CB" transform="translate(513.2112770080566,319.75502014160156)"/>
<path d="M0 0 C2 2 2 2 3.25 5.0625 C12.76521231 27.81422051 38.71257645 41.17380285 60.4375 50.1875 C78.27107079 57.35934893 96.40144479 63.17014875 115 68 C115.96478271 68.25056152 116.92956543 68.50112305 117.92358398 68.75927734 C165.01515354 80.76369457 213.48520046 86.37194455 261.87597656 89.84570312 C263.95685633 89.99686588 266.03700145 90.15601113 268.1171875 90.31640625 C320.57310625 94.27431272 374.54895506 93.70935776 427 90 C428.50379211 89.89464935 428.50379211 89.89464935 430.03796387 89.78717041 C445.70566907 88.68109885 461.35786835 87.42253596 477 86 C477.69615417 85.93703735 478.39230835 85.87407471 479.10955811 85.8092041 C509.64258408 83.01530645 540.14772797 76.85642921 570 70 C570.98677734 69.78053711 571.97355469 69.56107422 572.99023438 69.33496094 C597.16445298 63.93159629 621.85425436 56.22124881 644 45 C644.82419434 44.58250488 645.64838867 44.16500977 646.49755859 43.73486328 C656.85311192 38.4143505 666.45768107 32.99454458 675 25 C675.73347656 24.34515625 676.46695313 23.6903125 677.22265625 23.015625 C683.90161779 16.77360486 688.11870385 9.19384742 692 1 C692.33 1 692.66 1 693 1 C693.02286702 48.86613305 693.04049856 96.73226553 693.05106533 144.59840297 C693.0523161 150.24382464 693.05361042 155.88924631 693.05493164 161.53466797 C693.05519395 162.6586145 693.05545626 163.78256104 693.05572652 164.94056655 C693.06008302 183.16188864 693.06797046 201.38320759 693.0771528 219.60452782 C693.08648989 238.2881623 693.09205573 256.97179514 693.09408849 275.65543187 C693.09546361 287.19297606 693.09981356 298.73051137 693.10791647 310.26805283 C693.11318461 318.16964913 693.11480414 326.07124081 693.11350138 333.97283874 C693.11285811 338.53804331 693.11387431 343.10323231 693.11920547 347.66843414 C693.12404381 351.84186755 693.12433576 356.01527482 693.12089889 360.18870939 C693.12047363 361.70421327 693.12176571 363.21971873 693.12488318 364.73521946 C693.12885511 366.78406688 693.12615298 368.83292408 693.12304783 370.88177299 C693.12361741 372.59393196 693.12361741 372.59393196 693.1241985 374.34068 C693 377 693 377 692 379 C692.66 379 693.32 379 694 379 C689.66151166 399.9900198 674.11253076 415.19798133 657 427 C650.84138079 430.97561577 644.45956704 434.54074818 638 438 C636.97737061 438.54865723 636.97737061 438.54865723 635.93408203 439.10839844 C631.35030904 441.53892781 626.70319959 443.81035611 622 446 C620.8852832 446.52110352 620.8852832 446.52110352 619.74804688 447.05273438 C555.34362763 476.7737464 482.40911051 487.15567118 412.33984375 492.3515625 C411.66544754 492.40247543 410.99105133 492.45338837 410.29621887 492.50584412 C407.86481263 492.68271572 405.4328161 492.84355766 403 493 C401.68411392 493.08480118 400.36822784 493.16960236 399.01246643 493.25697327 C388.61653995 493.89726207 378.26175537 494.16282611 367.84765625 494.16796875 C366.25329055 494.17120391 364.65892511 494.17456939 363.06455994 494.17805481 C359.74103106 494.18398332 356.41752791 494.1859017 353.09399414 494.18530273 C349.77004462 494.18522225 346.44623521 494.19205185 343.12231445 494.20581055 C309.58862764 494.34234965 276.33600313 492.75429198 243 489 C242.25985657 488.91727844 241.51971313 488.83455688 240.75714111 488.74932861 C195.28204209 483.6401569 150.33851078 474.92547253 107 460 C105.4850293 459.49049805 105.4850293 459.49049805 103.93945312 458.97070312 C65.03426092 445.85577016 20.60747985 427.07975442 1.34765625 388.296875 C-0.81702522 383.00124845 -1.12432573 378.02329656 -1.10743046 372.34272957 C-1.10689593 371.69591288 -1.1063614 371.04909618 -1.10581067 370.38267899 C-1.102786 368.21846871 -1.09252422 366.05435453 -1.08229065 363.89016724 C-1.07859525 362.32169053 -1.07534638 360.75321271 -1.07250541 359.18473423 C-1.06341112 354.87707218 -1.04798152 350.56945251 -1.03152263 346.26181316 C-1.01487845 341.61566815 -1.00410225 336.96950911 -0.99261475 332.323349 C-0.97191001 324.27434204 -0.94748433 316.22535327 -0.92053413 308.1763649 C-0.881574 296.53886642 -0.8482213 284.90135718 -0.81623887 273.26383768 C-0.76419764 254.38291026 -0.70761903 235.50199927 -0.64819336 216.62109375 C-0.59047522 198.2796289 -0.53489007 179.93815964 -0.48217773 161.59667969 C-0.47892802 160.4661847 -0.4756783 159.33568972 -0.4723301 158.17093731 C-0.45604045 152.49959822 -0.43979278 146.828259 -0.42356598 141.15691972 C-0.28888587 94.10459288 -0.14684472 47.05229034 0 0 Z " fill="#0766CB" transform="translate(166,735)"/>
<path d="M0 0 C2.79053621 -0.00491329 5.5810507 -0.01281773 8.37157822 -0.02125549 C33.81722246 -0.0873783 59.14238563 0.64762456 84.54534149 2.11590195 C86.8190573 2.24672521 89.09293104 2.37438517 91.36687851 2.50111389 C100.51344364 3.012318 109.65194949 3.57937146 118.78872299 4.24497986 C120.61355209 4.37743103 120.61355209 4.37743103 122.47524643 4.51255798 C298.88212932 17.8986998 298.88212932 17.8986998 340.78872299 64.43247986 C341.83035589 65.66941893 342.8314132 66.94168583 343.78872299 68.24497986 C344.34430893 68.97974548 344.89989487 69.71451111 345.47231674 70.47154236 C347.22876991 74.17208168 347.12581214 77.44190177 346.85122299 81.43247986 C346.77496689 82.5653241 346.77496689 82.5653241 346.69717026 83.72105408 C345.89703807 92.27229497 342.41535921 97.99554548 336.22622299 103.86997986 C273.39132731 154.34969943 163.69336557 158.21292061 -138.17001724 158.8624115 C-299.74742469 141.11019184 -299.74742469 141.11019184 -342.21127701 98.24497986 C-343.06399185 97.4908783 -343.06399185 97.4908783 -343.93393326 96.72154236 C-348.18831575 92.24199756 -347.83672969 86.43424638 -347.7334938 80.58921814 C-347.32105545 72.06673345 -344.85033336 65.87810319 -338.48471451 60.04966736 C-315.76158536 42.01171948 -286.84732005 33.40185201 -259.21127701 26.24497986 C-258.12636978 25.96154724 -257.04146255 25.67811462 -255.92367935 25.38609314 C-172.77380473 3.98516373 -85.45003263 0.12963382 0 0 Z " fill="#0157B5" transform="translate(513.2112770080566,319.75502014160156)"/>
<path d="M0 0 C2 2 2 2 3.25 5.0625 C12.76521231 27.81422051 38.71257645 41.17380285 60.4375 50.1875 C78.27107079 57.35934893 96.40144479 63.17014875 115 68 C115.96478271 68.25056152 116.92956543 68.50112305 117.92358398 68.75927734 C165.01515354 80.76369457 213.48520046 86.37194455 261.87597656 89.84570312 C263.95685633 89.99686588 266.03700145 90.15601113 268.1171875 90.31640625 C320.57310625 94.27431272 374.54895506 93.70935776 427 90 C428.50379211 89.89464935 428.50379211 89.89464935 430.03796387 89.78717041 C445.70566907 88.68109885 461.35786835 87.42253596 477 86 C477.69615417 85.93703735 478.39230835 85.87407471 479.10955811 85.8092041 C509.64258408 83.01530645 540.14772797 76.85642921 570 70 C570.98677734 69.78053711 571.97355469 69.56107422 572.99023438 69.33496094 C597.16445298 63.93159629 621.85425436 56.22124881 644 45 C644.82419434 44.58250488 645.64838867 44.16500977 646.49755859 43.73486328 C656.85311192 38.4143505 666.45768107 32.99454458 675 25 C675.73347656 24.34515625 676.46695313 23.6903125 677.22265625 23.015625 C683.90161779 16.77360486 688.11870385 9.19384742 692 1 C692.33 1 692.66 1 693 1 C693.12743604 8.22230046 693.2146172 15.44430786 693.2746582 22.66748047 C693.29970445 25.12136673 693.33375133 27.57517913 693.37719727 30.02880859 C693.43828239 33.568871 693.46631012 37.1079417 693.48828125 40.6484375 C693.51408768 41.73426117 693.5398941 42.82008484 693.56648254 43.93881226 C693.5699529 53.49858826 690.39984304 61.16974965 683.90625 68.2265625 C628.03715909 120.20313478 522.37909495 130.33909829 450.21582031 135.67626953 C447.30359665 135.89377468 444.39551347 136.13996601 441.48730469 136.40576172 C412.35532225 139.05049815 383.23945562 139.29610815 354.01025009 139.31052017 C350.99035655 139.31246594 347.97048091 139.31757245 344.95059204 139.3230896 C319.24884917 139.3578317 293.66445024 138.7500559 268.01257706 137.12709427 C266.13364578 137.00843973 264.25449768 136.89323268 262.37533569 136.77828979 C255.45332815 136.35128884 248.53826151 135.86294494 241.625 135.3125 C240.6072348 135.23207458 239.5894696 135.15164917 238.54086304 135.06878662 C57.2697212 120.45314398 57.2697212 120.45314398 7.61328125 65.3515625 C-0.26033169 55.71098077 -0.26033169 55.71098077 -0.22705078 48.58886719 C-0.22689972 47.50804871 -0.22674866 46.42723022 -0.22659302 45.31365967 C-0.21627045 44.15312073 -0.20594788 42.99258179 -0.1953125 41.796875 C-0.1924826 40.60394836 -0.18965271 39.41102173 -0.18673706 38.1819458 C-0.17554053 34.37119524 -0.15043653 30.56067955 -0.125 26.75 C-0.11496954 24.16667006 -0.1058438 21.58333644 -0.09765625 19 C-0.07560289 12.66658651 -0.04213035 6.33331003 0 0 Z " fill="#0157B5" transform="translate(166,735)"/>
<path d="M0 0 C2 2 2 2 3.625 5.5 C17.48911956 33.68697837 53.69549739 47.29441835 81.51171875 56.84765625 C112.65268478 67.27798132 144.56773246 74.88482077 177 80 C177.71661804 80.11452515 178.43323608 80.22905029 179.17156982 80.3470459 C243.19921222 90.56877665 307.24057969 93.69318034 372 93 C372.78469666 92.9926886 373.56939331 92.9853772 374.37786865 92.97784424 C428.63604525 92.45758818 483.5928571 86.69159831 536.855896 76.41345215 C538.86494831 76.02604231 540.87506595 75.64416871 542.88525391 75.26269531 C562.93715411 71.4093826 582.47523184 65.91347979 602 60 C603.15612793 59.65179199 604.31225586 59.30358398 605.50341797 58.94482422 C638.37372142 48.91430893 673.33832477 34.16104482 691 3 C691.66 2.01 692.32 1.02 693 0 C693.10203418 6.65269765 693.17172984 13.30519097 693.21972656 19.95849609 C693.23975089 22.21833843 693.26697862 24.47812955 693.30175781 26.73779297 C693.35068078 29.99980362 693.37306132 33.26112487 693.390625 36.5234375 C693.41127014 37.52176605 693.43191528 38.5200946 693.45318604 39.54867554 C693.45686449 51.23990344 688.87925445 59.59296279 681.12890625 68.0390625 C651.82783932 96.76559871 605.11560573 107.90273456 566.34179688 117.19775391 C563.38394019 117.90782967 560.43385013 118.64281011 557.484375 119.38671875 C515.587634 129.69988502 471.58990292 133.94052926 428.6875 137.125 C427.68960449 137.20057129 426.69170898 137.27614258 425.66357422 137.35400391 C400.45150012 139.11928743 375.19834282 139.24426736 349.9375 139.25 C349.04157009 139.25044186 348.14564018 139.25088371 347.22256088 139.25133896 C271.52970381 139.27083073 195.70496561 134.17853248 122 116 C121.3335144 115.83628906 120.66702881 115.67257812 119.98034668 115.50390625 C94.23727626 109.15901598 68.841489 101.74741285 45 90 C44.37996094 89.69884277 43.75992188 89.39768555 43.12109375 89.08740234 C25.72398062 80.54938961 8.82197789 68.64395577 0 51 C-0.0902835 49.36582405 -0.11755658 47.72797163 -0.11352539 46.09130859 C-0.11344986 45.07040131 -0.11337433 44.04949402 -0.11329651 42.99765015 C-0.10813522 41.89240997 -0.10297394 40.7871698 -0.09765625 39.6484375 C-0.0962413 38.5192691 -0.09482635 37.39010071 -0.09336853 36.22671509 C-0.08775744 32.60945012 -0.07520303 28.99224636 -0.0625 25.375 C-0.05748643 22.92708423 -0.05292328 20.47916748 -0.04882812 18.03125 C-0.0377844 12.02081234 -0.02103544 6.01041054 0 0 Z " fill="#0157B5" transform="translate(166,925)"/>
<path d="M0 0 C16.90050528 14.46638995 26.96037349 34.27590403 29.44140625 56.375 C31.15977933 82.99614487 27.91411497 109.99017387 9.75 130.9375 C8.73934757 132.03033735 7.72260097 133.11779079 6.6875 134.1875 C8.09920088 138.37730742 10.12590059 141.16218034 13 144.5 C22.6875 156.0625 22.6875 156.0625 22.6875 160.1875 C18.58079714 160.43708923 14.47709349 160.61719478 10.36450195 160.73681641 C8.97016449 160.78672342 7.57634022 160.85468831 6.18383789 160.94189453 C-5.39479229 161.64816189 -5.39479229 161.64816189 -10.29345703 157.91699219 C-12.5237487 155.43889034 -14.48434086 152.97227959 -16.3125 150.1875 C-17.79169922 150.620625 -17.79169922 150.620625 -19.30078125 151.0625 C-28.92779467 153.65097663 -38.15487443 154.59737618 -48.125 154.625 C-49.78559448 154.63950195 -49.78559448 154.63950195 -51.47973633 154.65429688 C-62.44330039 154.54364421 -72.83368299 152.61606822 -82.5625 147.4375 C-83.57570313 146.9125293 -83.57570313 146.9125293 -84.609375 146.37695312 C-89.98824148 143.51684431 -94.78763654 140.28445886 -99.3125 136.1875 C-99.98410156 135.60742188 -100.65570313 135.02734375 -101.34765625 134.4296875 C-116.30488583 120.65405023 -123.1912261 99.83664163 -124.52832031 79.98291016 C-125.05073842 67.13480731 -124.88270808 54.61124829 -121.3125 42.1875 C-120.9721875 40.94097656 -120.631875 39.69445312 -120.28125 38.41015625 C-116.34988619 24.90625531 -109.17227602 14.1000021 -99.3125 4.1875 C-98.42884766 3.25164063 -98.42884766 3.25164063 -97.52734375 2.296875 C-72.29601315 -22.32446739 -26.78469882 -20.42900758 0 0 Z " fill="#FDFDFE" transform="translate(565.3125,579.8125)"/>
<path d="M0 0 C1.13598633 0.00829834 2.27197266 0.01659668 3.44238281 0.02514648 C21.17485382 0.37954366 38.0617125 5.37577519 51.06640625 17.99609375 C59.87121258 27.84046576 63.6298473 38.47627842 65.25 51.4375 C54.03 51.4375 42.81 51.4375 31.25 51.4375 C29.27 47.4775 27.29 43.5175 25.25 39.4375 C20.073817 33.7907549 13.43097801 30.91712552 5.87890625 30.05078125 C-2.80945117 29.77480933 -10.98306229 30.61040258 -17.94921875 36.203125 C-21.03382959 39.38158809 -23.06965193 42.2096446 -23.8125 46.625 C-23.72914887 51.70941915 -22.90173154 53.99783557 -19.75 57.9375 C-12.62359016 63.87617487 -4.07341015 66.48055631 4.75 68.875 C6.87174758 69.4755594 8.99283751 70.07844687 11.11328125 70.68359375 C12.15178223 70.97862793 13.1902832 71.27366211 14.26025391 71.57763672 C51.51882204 82.29335426 51.51882204 82.29335426 60.38671875 98.01953125 C66.9282279 110.51532603 68.86099348 124.35603862 64.6875 138.125 C62.45905112 143.6765744 59.32248742 148.08734298 55.25 152.4375 C54.68796875 153.05238281 54.1259375 153.66726563 53.546875 154.30078125 C41.73476804 165.88178177 24.18553842 169.77368283 8.20117188 169.85498047 C6.93853516 169.84096191 5.67589844 169.82694336 4.375 169.8125 C3.71669189 169.80784729 3.05838379 169.80319458 2.38012695 169.79840088 C-17.57183892 169.63308321 -36.03649201 166.02437942 -50.7109375 151.49609375 C-60.56780205 140.8698115 -62.75 128.72339727 -62.75 114.4375 C-51.86 114.4375 -40.97 114.4375 -29.75 114.4375 C-28.43 118.7275 -27.11 123.0175 -25.75 127.4375 C-21.97775552 133.65060856 -15.75578828 136.99341138 -8.84838867 138.98608398 C0.23407076 140.93994873 12.8985053 140.7007392 21.25 136.4375 C25.58104778 133.60972396 29.1293682 130.66711507 30.25 125.4375 C30.84543132 119.28470966 30.19364405 115.28663332 26.25 110.4375 C18.45391398 102.99578152 6.46435315 101.26721972 -3.6796875 98.625 C-42.67920904 88.38565503 -42.67920904 88.38565503 -53.625 72.625 C-59.69395695 61.74707717 -60.58916215 48.57068373 -57.87109375 36.55078125 C-55.42908469 29.09580311 -52.16330099 23.11236805 -46.75 17.4375 C-46.17765625 16.82519531 -45.6053125 16.21289062 -45.015625 15.58203125 C-32.92982032 3.88359211 -16.34905532 -0.15536741 0 0 Z " fill="#FDFDFE" transform="translate(355.75,564.5625)"/>
<path d="M0 0 C12.54 0 25.08 0 38 0 C38 44.88 38 89.76 38 136 C61.76 136 85.52 136 110 136 C110 145.9 110 155.8 110 166 C73.7 166 37.4 166 0 166 C0 111.22 0 56.44 0 0 Z " fill="#FCFDFE" transform="translate(620,566)"/>
<path d="M0 0 C10.67953583 7.70982533 16.85811964 19.35504052 19.453125 32.16015625 C21.46954677 49.14850967 21.78714299 69.65772607 10.79296875 83.859375 C10.17550781 84.601875 9.55804687 85.344375 8.921875 86.109375 C7.48334625 84.36022055 6.04609302 82.61001705 4.609375 80.859375 C3.80886719 79.88484375 3.00835938 78.9103125 2.18359375 77.90625 C-0.078125 75.109375 -0.078125 75.109375 -1.27734375 72.95898438 C-3.02638169 70.78573848 -3.02638169 70.78573848 -6.2644043 70.65527344 C-8.18893433 70.68669434 -8.18893433 70.68669434 -10.15234375 70.71875 C-11.17809258 70.72723969 -11.17809258 70.72723969 -12.2245636 70.73590088 C-14.40563399 70.75826684 -16.58505253 70.80845735 -18.765625 70.859375 C-20.24541895 70.87944 -21.7252387 70.89769078 -23.20507812 70.9140625 C-26.8299626 70.95813026 -30.45388256 71.02715678 -34.078125 71.109375 C-33.24410156 72.11355469 -32.41007812 73.11773438 -31.55078125 74.15234375 C-24.62552695 82.54884086 -18.09221892 91.03384309 -12.078125 100.109375 C-14.6910378 102.7222878 -16.63184568 102.42095287 -20.19775391 102.48974609 C-34.58201881 102.45811969 -34.58201881 102.45811969 -41.078125 98.109375 C-42.11646484 97.45582031 -42.11646484 97.45582031 -43.17578125 96.7890625 C-53.83816218 89.49479816 -58.554453 78.50823155 -61.390625 66.171875 C-64.07786638 48.54977291 -63.52234061 27.05997999 -53.51171875 11.70703125 C-40.60837031 -5.64176609 -19.24506356 -11.29405139 0 0 Z " fill="#0764CA" transform="translate(539.078125,600.890625)"/>
<path d="M0 0 C5.28 0 10.56 0 16 0 C12.72916542 3.27083458 12.41273402 3.3814323 8.11328125 3.51171875 C7.17548828 3.54716797 6.23769531 3.58261719 5.27148438 3.61914062 C4.29501953 3.64169922 3.31855469 3.66425781 2.3125 3.6875 C0.83040039 3.73874023 0.83040039 3.73874023 -0.68164062 3.79101562 C-3.12098053 3.87350538 -5.55996063 3.94265068 -8 4 C-8.33 3.34 -8.66 2.68 -9 2 C-4.545 1.505 -4.545 1.505 0 1 C0 0.67 0 0.34 0 0 Z " fill="#1661B9" transform="translate(472,320)"/>
<path d="M0 0 C0.33 0.99 0.66 1.98 1 3 C-0.9375 6.1875 -0.9375 6.1875 -3 9 C-4.65 7.35 -6.3 5.7 -8 4 C-7.67 3.34 -7.34 2.68 -7 2 C-6.401875 2.226875 -5.80375 2.45375 -5.1875 2.6875 C-4.465625 2.790625 -3.74375 2.89375 -3 3 C-1.22809091 1.64555699 -1.22809091 1.64555699 0 0 Z " fill="#0A4EC0" transform="translate(552,678)"/>
<path d="M0 0 C0.33 0 0.66 0 1 0 C1.38133299 1.9914056 1.71325582 3.99279077 2 6 C1.67 6.33 1.34 6.66 1 7 C0.63239269 9.32817964 0.29758419 11.6618385 0 14 C-0.33 14 -0.66 14 -1 14 C-1.02694851 12.04174127 -1.04637218 10.08337774 -1.0625 8.125 C-1.07410156 7.03445313 -1.08570313 5.94390625 -1.09765625 4.8203125 C-1 2 -1 2 0 0 Z " fill="#0A4FC3" transform="translate(479,630)"/>
<path d="M0 0 C0.66 0.99 1.32 1.98 2 3 C1.67 3.33 1.34 3.66 1 4 C0.63239269 6.32817964 0.29758419 8.6618385 0 11 C-2 9 -2 9 -2.01171875 7.08984375 C-1.11111111 1.11111111 -1.11111111 1.11111111 0 0 Z " fill="#1759C5" transform="translate(333,606)"/>
</svg>
