<?xml version="1.0" encoding="UTF-8"?>
<svg version="1.1" xmlns="http://www.w3.org/2000/svg" width="1024" height="1024">
<path d="M0 0 C337.92 0 675.84 0 1024 0 C1024 337.92 1024 675.84 1024 1024 C686.08 1024 348.16 1024 0 1024 C0 686.08 0 348.16 0 0 Z " fill="#FEFEFE" transform="translate(0,0)"/>
<path d="M0 0 C0.98097656 0.47953125 1.96195313 0.9590625 2.97265625 1.453125 C15.15513219 7.66778495 25.120447 16.17007893 35.34106445 25.10083008 C45.9388734 34.3376773 56.49240917 42.50909386 69 49 C70.38445312 49.72316406 70.38445312 49.72316406 71.796875 50.4609375 C90.6613761 59.66993952 111.09214078 61.60009148 131 55 C145.40686645 49.5077409 155.94537891 40.21698129 165 28 C165.56832944 44.12634773 154.46108337 60.56830065 144 72 C142.93652344 73.16789062 142.93652344 73.16789062 141.8515625 74.359375 C125.02780465 91.9726955 101.73917245 103.22051328 78 108 C77.05382812 108.20496094 76.10765625 108.40992188 75.1328125 108.62109375 C41.08434562 114.77698864 3.64779942 108.7429357 -25.625 90.1875 C-34.70535436 83.78997761 -43.2413053 76.71868234 -51.5625 69.375 C-71.68509396 51.74869191 -93.64341506 40.29021344 -121 42 C-138.44292666 44.60113819 -152.23512171 50.8517825 -165 63 C-166.82485971 59.35028057 -164.6796956 55.54394034 -163.48046875 51.83984375 C-158.87346539 39.28324697 -151.36758413 29.3531946 -142 20 C-141.41863281 19.34773438 -140.83726562 18.69546875 -140.23828125 18.0234375 C-127.37273351 3.82920599 -106.25048582 -4.72040414 -88 -9 C-87.31276855 -9.16371094 -86.62553711 -9.32742188 -85.91748047 -9.49609375 C-57.90024651 -15.86993217 -25.80040967 -13.05670645 0 0 Z " fill="#25C3CE" transform="translate(439,406)"/>
<path d="M0 0 C0.67256836 0.38172363 1.34513672 0.76344727 2.03808594 1.15673828 C11.82029728 6.76002937 19.94007226 13.15889383 28 21 C29.92234754 22.73996162 31.87023362 24.44214538 33.8359375 26.1328125 C35.52345817 27.58883214 37.19149223 29.06744647 38.8515625 30.5546875 C55.34447635 45.15757488 74.85327395 55.83308429 97.515625 55.3046875 C115.92830864 53.69460978 133.93367748 47.63252983 147 34 C149.07127844 31.17075372 150.91238191 28.32346323 152.66015625 25.28515625 C154 23 154 23 156 21 C156.61145763 40.14626695 144.74988769 58.32124486 132.13305664 71.77416992 C108.74336871 96.11410167 79.78309418 104.83272909 46.7109375 106.12890625 C7.75819998 106.82615095 -24.07396607 95.72401239 -53 70 C-68.42793814 56.33238823 -84.77135645 45.26662909 -105 40 C-105.63728027 39.82194824 -106.27456055 39.64389648 -106.93115234 39.46044922 C-121.276825 35.78955791 -140.46388927 35.52100738 -154 42 C-154.98871094 42.47050781 -155.97742188 42.94101562 -156.99609375 43.42578125 C-165.76694851 47.78795515 -165.76694851 47.78795515 -172 55 C-172.66 54.67 -173.32 54.34 -174 54 C-162.84759839 26.98339185 -145.40022387 6.9644937 -118.16699219 -4.60864258 C-80.75068007 -19.79615808 -35.47390948 -20.56837507 0 0 Z " fill="#25C3CE" transform="translate(572,281)"/>
<path d="M0 0 C5.61 0 11.22 0 17 0 C17 35.31 17 70.62 17 107 C11.39 107 5.78 107 0 107 C-0.495 102.545 -0.495 102.545 -1 98 C-1.54527344 98.54269531 -2.09054687 99.08539062 -2.65234375 99.64453125 C-9.95825737 106.57578263 -15.4339342 109.09011017 -25.5 109.3125 C-36.72723847 108.9738594 -45.7992759 106.41851813 -53.890625 98.04296875 C-55.41525265 96.09098335 -56.73338932 94.12741406 -58 92 C-58.38800781 91.36191406 -58.77601563 90.72382812 -59.17578125 90.06640625 C-64.66503469 80.14582821 -65.2528358 68.523099 -62.8125 57.609375 C-59.83358652 48.04247979 -54.0375034 39.64614287 -45.40625 34.43359375 C-35.57939472 29.36120227 -23.78346537 27.91451119 -13 31.125 C-9 33 -9 33 -1 39 C-0.67 26.13 -0.34 13.26 0 0 Z " fill="#171B1E" transform="translate(658,583)"/>
<path d="M0 0 C2.85043297 2.16306043 5.46395356 4.47777398 8 7 C8.33 4.03 8.66 1.06 9 -2 C14.61 -2 20.22 -2 26 -2 C26 23.08 26 48.16 26 74 C20.39 74 14.78 74 9 74 C8.67 70.7 8.34 67.4 8 64 C7.01 65.0725 6.02 66.145 5 67.25 C-1.17596292 73.43849023 -7.94254279 76.13022785 -16.625 76.1875 C-28.87508586 76.0237686 -36.61859349 73.01696028 -45.75 64.8125 C-54.60546088 55.54515721 -55.49440673 43.43460635 -55.2734375 31.26953125 C-54.78651588 20.32825785 -49.36103704 12.21614415 -41.6875 4.75 C-29.97045023 -2.87970683 -13.09206672 -7.51821653 0 0 Z " fill="#171A1D" transform="translate(244,616)"/>
<path d="M0 0 C5.61 0 11.22 0 17 0 C19.13725102 5.57708697 21.08623688 11.17712629 22.875 16.875 C23.13039551 17.68783447 23.38579102 18.50066895 23.64892578 19.33813477 C25.46848664 25.18269945 27.21079863 31.04683233 28.875 36.9375 C29.0901123 37.68821777 29.30522461 38.43893555 29.52685547 39.21240234 C30.47772969 42.63916742 31 45.41323367 31 49 C31.66 49 32.32 49 33 49 C33.07476562 47.99710938 33.14953125 46.99421875 33.2265625 45.9609375 C34.09907886 39.00223683 36.37666617 32.32603742 38.375 25.625 C38.77920782 24.25276958 39.18285761 22.88037466 39.5859375 21.5078125 C41.69747555 14.33065391 43.84388083 7.16387983 46 0 C50.95 0 55.9 0 61 0 C65.46929258 11.05483959 69.54406605 22.23129968 73.4375 33.5 C73.77766144 34.4797731 73.77766144 34.4797731 74.12469482 35.4793396 C74.77300971 37.34953743 75.41591278 39.22160863 76.05859375 41.09375 C76.43298584 42.18365234 76.80737793 43.27355469 77.19311523 44.39648438 C78 47 78 47 78 49 C78.66 49 79.32 49 80 49 C80.15758789 47.56503174 80.15758789 47.56503174 80.31835938 46.10107422 C80.999015 41.36660104 82.44385687 36.9256099 83.90625 32.3828125 C84.33339294 31.0361702 84.33339294 31.0361702 84.76916504 29.662323 C85.36837092 27.77729551 85.97026496 25.89312063 86.57470703 24.00976562 C87.50309118 21.1153627 88.42209566 18.21810331 89.33984375 15.3203125 C89.92393188 13.48680473 90.50854847 11.65346521 91.09375 9.8203125 C91.36981079 8.95060822 91.64587158 8.08090393 91.93029785 7.18484497 C93.8841503 1.1158497 93.8841503 1.1158497 95 0 C97.69654854 -0.07319621 100.36691458 -0.09242537 103.0625 -0.0625 C103.82111328 -0.05798828 104.57972656 -0.05347656 105.36132812 -0.04882812 C107.24091871 -0.0370068 109.12046899 -0.01907078 111 0 C109.59966091 6.82905688 107.7058837 13.35044536 105.515625 19.96484375 C105.00850983 21.51311607 105.00850983 21.51311607 104.4911499 23.09266663 C103.41476048 26.37560485 102.33244384 29.65655372 101.25 32.9375 C100.53867984 35.10469215 99.82773922 37.27200891 99.1171875 39.43945312 C95.11417309 51.63837226 91.06961401 63.82315179 87 76 C81.72 76 76.44 76 71 76 C69.06068684 70.32591172 67.12181911 64.65167149 65.18334961 58.97729492 C64.52494101 57.05017057 63.86641438 55.12308654 63.20776367 53.19604492 C62.25668192 50.41335682 61.30603604 47.63052013 60.35546875 44.84765625 C60.0647197 43.99728287 59.77397064 43.14690948 59.47441101 42.27076721 C57.62515914 36.8552079 55.80191618 31.43149239 54 26 C51.74976078 31.75207617 49.93577082 37.49815992 48.3359375 43.4609375 C48.09839752 44.33271637 47.86085754 45.20449524 47.61611938 46.10269165 C46.86548329 48.85916585 46.11986804 51.61696205 45.375 54.375 C44.62238592 57.15428941 43.86866357 59.93326413 43.11245728 62.71157837 C42.64389362 64.43377058 42.17749166 66.1565527 41.71347046 67.87997437 C40.11193452 73.77613096 40.11193452 73.77613096 39 76 C34.05 76 29.1 76 24 76 C15.44298313 50.83011958 7.62471202 25.46603487 0 0 Z " fill="#191C1F" transform="translate(352,614)"/>
<path d="M0 0 C8.75677047 9.16406212 9.99971045 19.58440167 9.8828125 31.75 C9.8799826 32.87067871 9.87715271 33.99135742 9.87423706 35.14599609 C9.86310251 38.70160911 9.83801014 42.25696398 9.8125 45.8125 C9.80246152 48.23306926 9.79333719 50.6536425 9.78515625 53.07421875 C9.76318516 58.98707761 9.72870166 64.89974513 9.6875 70.8125 C4.4075 70.8125 -0.8725 70.8125 -6.3125 70.8125 C-6.32708252 69.29897949 -6.34166504 67.78545898 -6.35668945 66.22607422 C-6.41473807 60.60132428 -6.49197146 54.9769719 -6.57495117 49.35253906 C-6.60816947 46.9199876 -6.63621099 44.48735963 -6.65893555 42.0546875 C-6.69253758 38.55435642 -6.74485834 35.05472445 -6.80078125 31.5546875 C-6.80717117 30.47009247 -6.8135611 29.38549744 -6.82014465 28.26803589 C-6.92752982 22.73115712 -7.13248793 18.56229274 -10.3125 13.8125 C-15.80528905 8.83465993 -22.4164438 9.40674189 -29.40234375 9.53515625 C-34.41893223 9.89097821 -36.56935884 10.50460781 -40.3125 13.8125 C-44.10964385 19.41670127 -43.7857723 25.02897148 -43.82421875 31.5546875 C-43.84216995 32.67819611 -43.86012115 33.80170471 -43.87861633 34.95925903 C-43.93264614 38.53530159 -43.96659246 42.11121119 -44 45.6875 C-44.03317944 48.11720597 -44.06766967 50.54689441 -44.10351562 52.9765625 C-44.18836887 58.92177899 -44.25521567 64.86695654 -44.3125 70.8125 C-49.9225 70.8125 -55.5325 70.8125 -61.3125 70.8125 C-61.3125 45.7325 -61.3125 20.6525 -61.3125 -5.1875 C-55.7025 -5.1875 -50.0925 -5.1875 -44.3125 -5.1875 C-43.9825 -2.8775 -43.6525 -0.5675 -43.3125 1.8125 C-42.508125 1.049375 -41.70375 0.28625 -40.875 -0.5 C-29.06911755 -10.11960792 -12.00683678 -7.92904316 0 0 Z " fill="#181C1F" transform="translate(571.3125,619.1875)"/>
<path d="M0 0 C4.38386561 3.09128712 7.35346946 6.83707635 10.25 11.3125 C7.64555501 13.04879666 5.06917953 14.58674374 2.3125 16.0625 C1.03052734 16.76632812 1.03052734 16.76632812 -0.27734375 17.484375 C-2.75 18.3125 -2.75 18.3125 -4.84375 17.61328125 C-6.68910815 16.3540512 -8.50259526 15.0595423 -10.3125 13.75 C-16.4794834 9.87557548 -23.37875557 9.70665609 -30.4375 10.875 C-36.69689345 12.5688502 -41.85124978 16.25524525 -45.25 21.8125 C-48.01839066 28.23912119 -47.9833831 36.29347603 -45.94921875 42.921875 C-44.33214188 46.34333495 -42.91597088 48.20185275 -39.75 50.3125 C-39.75 50.9725 -39.75 51.6325 -39.75 52.3125 C-38.450625 52.745625 -38.450625 52.745625 -37.125 53.1875 C-35.06155325 53.87531558 -33.01312373 54.61394938 -31 55.4375 C-23.00544462 57.58988029 -17.13343176 56.57683832 -9.87890625 52.69921875 C-7.88120512 51.39796389 -6.35139829 50.06837401 -4.75 48.3125 C0.2223422 49.80420266 4.66845739 51.91707417 9.25 54.3125 C6.92530037 61.25046367 1.68550289 65.38121592 -4.578125 68.90234375 C-16.02862807 74.29909725 -27.7375521 74.77835886 -39.93359375 71.34375 C-49.2123763 67.94624849 -56.92451082 60.8695191 -61.39453125 52.078125 C-63.0417446 47.97825943 -63.61767303 43.87505859 -64.0625 39.5 C-64.18431641 38.30479736 -64.18431641 38.30479736 -64.30859375 37.08544922 C-65.33818323 25.40008528 -62.1658346 15.77831803 -55.22265625 6.20703125 C-41.82124206 -8.63609987 -16.47536603 -9.97765566 0 0 Z " fill="#181B1E" transform="translate(753.75,618.6875)"/>
<path d="M0 0 C2.85587325 2.33662357 4.92230039 4.60797637 7.01953125 7.65234375 C7.01953125 8.64234375 7.01953125 9.63234375 7.01953125 10.65234375 C1.73953125 11.97234375 -3.54046875 13.29234375 -8.98046875 14.65234375 C-10.30046875 13.00234375 -11.62046875 11.35234375 -12.98046875 9.65234375 C-16.43569117 7.92473254 -20.19576586 8.29936628 -23.98046875 8.65234375 C-27.0187145 9.57255107 -27.0187145 9.57255107 -28.98046875 11.65234375 C-30.03552643 15.26968437 -30.17714335 17.06231994 -28.98046875 20.65234375 C-26.32216289 21.76103322 -26.32216289 21.76103322 -22.98046875 22.65234375 C0.23195776 30.19087767 0.23195776 30.19087767 7.01953125 39.65234375 C8.16283638 43.08225913 8.22334776 45.85098535 8.26953125 49.46484375 C8.2953125 50.66753906 8.32109375 51.87023437 8.34765625 53.109375 C7.73080762 59.76987148 4.5144101 63.94651304 -0.47265625 68.10546875 C-9.26010743 73.52576574 -20.2045001 73.57773418 -29.98046875 71.52734375 C-38.85544915 69.13233012 -44.24383378 64.40320098 -48.98046875 56.65234375 C-49.35649422 55.33041571 -49.70133389 53.99806758 -49.98046875 52.65234375 C-47.7124108 51.9542493 -45.44180268 51.26863358 -43.16796875 50.58984375 C-42.52537109 50.39068359 -41.88277344 50.19152344 -41.22070312 49.98632812 C-36.3203125 48.5390625 -36.3203125 48.5390625 -32.98046875 49.65234375 C-32.40296875 50.45671875 -31.82546875 51.26109375 -31.23046875 52.08984375 C-27.61164057 56.21128695 -23.64698382 56.50867866 -18.35546875 56.96484375 C-14.5847444 56.61570261 -12.78421277 56.20869859 -9.98046875 53.65234375 C-8.73208494 50.24705379 -8.73208494 50.24705379 -8.98046875 46.65234375 C-12.20437499 42.20647305 -16.81822659 40.92239823 -21.79296875 39.15234375 C-39.93510136 32.60143354 -39.93510136 32.60143354 -43.98828125 24.68359375 C-46.22674499 18.9563532 -46.70259016 13.5936626 -44.98046875 7.65234375 C-41.87691136 1.79790594 -37.44272336 -2.69918002 -31.140625 -5.02734375 C-20.17749464 -8.19688243 -9.25890291 -6.63203378 0 0 Z " fill="#171B1E" transform="translate(884.98046875,619.34765625)"/>
<path d="M0 0 C3.12400789 3.36902812 5.54265637 6.62796912 7 11 C5.27318563 11.50806447 3.54342021 12.00610467 1.8125 12.5 C0.84957031 12.7784375 -0.11335937 13.056875 -1.10546875 13.34375 C-3.89920745 13.97714825 -6.15231849 14.26546184 -9 14 C-11.6875 12.0625 -11.6875 12.0625 -14 10 C-17.21495197 8.39252401 -20.51337055 8.53422889 -24 9 C-27.16821233 10.34978302 -27.16821233 10.34978302 -29 13 C-29.57354142 16.57216696 -29.57354142 16.57216696 -28 20 C-23.14943108 23.42666563 -17.09766248 25.07099897 -11.5 26.875 C-3.99055052 29.41799854 2.10944296 32.08376142 6.9375 38.625 C9.67129969 44.73584637 10.12438704 51.81040496 8.38671875 58.28515625 C5.59347829 64.67146373 0.47350421 68.2632479 -5.625 71.3125 C-16.79941956 74.5472004 -27.89581504 73.7610391 -38.1875 68.3125 C-43.41599147 64.01351813 -48.07100528 59.93729824 -49 53 C-43.76390013 51.07091057 -38.46864457 50.01591421 -33 49 C-32.7525 50.423125 -32.7525 50.423125 -32.5 51.875 C-31.26651222 55.353768 -31.26651222 55.353768 -27.5 56.375 C-26.0077779 56.63321694 -24.50567606 56.83769661 -23 57 C-21.72576172 57.14115234 -21.72576172 57.14115234 -20.42578125 57.28515625 C-15.89434006 57.54932098 -13.67043665 57.44695777 -9.8125 54.875 C-7.75066846 52.13383538 -7.75066846 52.13383538 -7.875 48.9375 C-9.30937828 45.19217895 -10.66925841 44.24209453 -14 42 C-17.84180248 40.36268205 -21.81825096 39.11089629 -25.78710938 37.8203125 C-33.307757 35.2315318 -40.65260197 31.40721439 -44.30859375 23.98046875 C-46.25853666 18.39503906 -46.9127236 13.15495328 -44.375 7.6875 C-40.67934418 1.44008182 -35.84815387 -2.64740292 -29 -5 C-19.24229563 -7.01581318 -8.24006683 -6.05212618 0 0 Z " fill="#181B1E" transform="translate(819,619)"/>
<path d="M0 0 C0 6.93 0 13.86 0 21 C4.95 21 9.9 21 15 21 C15 25.95 15 30.9 15 36 C10.05 36 5.1 36 0 36 C0.09348657 41.7843867 0.19956981 47.56835245 0.31738281 53.35229492 C0.35568847 55.32032931 0.39053855 57.2884341 0.421875 59.2565918 C0.46749111 62.08407772 0.52549098 64.91107834 0.5859375 67.73828125 C0.59748871 68.61962234 0.60903992 69.50096344 0.62094116 70.40901184 C0.64081085 71.22963608 0.66068054 72.05026031 0.68115234 72.89575195 C0.69447601 73.61745071 0.70779968 74.33914948 0.7215271 75.0827179 C0.90726155 77.32601629 0.90726155 77.32601629 3 80 C6.31544299 81.10514766 9.20410111 81.32107631 12.6875 81.5625 C14.45673828 81.68818359 14.45673828 81.68818359 16.26171875 81.81640625 C17.16535156 81.87699219 18.06898438 81.93757812 19 82 C19.02685095 84.47923801 19.04676547 86.9581884 19.0625 89.4375 C19.07087891 90.14455078 19.07925781 90.85160156 19.08789062 91.58007812 C19.09653588 93.38693559 19.05220011 95.19387603 19 97 C17.01001763 98.98998237 13.21489117 98.23965987 10.5 98.25 C1.66763296 98.23633214 -5.82958759 97.24871232 -12.4506073 90.85301208 C-17.44334025 84.88190193 -17.41806597 76.89660123 -17.29296875 69.49609375 C-17.28872391 68.5322023 -17.28447906 67.56831085 -17.28010559 66.57521057 C-17.26345681 63.52900985 -17.22583111 60.48349712 -17.1875 57.4375 C-17.1724353 55.35873359 -17.15875004 53.27995669 -17.14648438 51.20117188 C-17.11359864 46.13385384 -17.06191324 41.06704313 -17 36 C-21.29 36 -25.58 36 -30 36 C-30 31.05 -30 26.1 -30 21 C-25.71 21 -21.42 21 -17 21 C-17 14.73 -17 8.46 -17 2 C-4.5 0 -4.5 0 0 0 Z " fill="#171B1E" transform="translate(162,593)"/>
<path d="M0 0 C2.04782879 1.21309477 3.73619067 2.48199307 5.48828125 4.08984375 C5.98972656 4.54746094 6.49117187 5.00507812 7.0078125 5.4765625 C11.65689448 10.36680723 12.52936457 16.03596146 12.80078125 22.52734375 C12.58939285 29.75185311 10.4030789 36.25876313 5.4140625 41.58203125 C-0.04989978 45.86010314 -7.36111445 47.85964578 -14.2578125 47.46484375 C-21.89864655 46.19357847 -27.38382866 43.28104307 -32.171875 37.15234375 C-36.06352269 31.1617024 -36.41709628 24.02789471 -35.51171875 17.08984375 C-33.25302188 9.77796924 -29.27142442 4.70805872 -22.51171875 1.08984375 C-15.55299559 -1.69172055 -7.16034905 -2.59465214 0 0 Z " fill="#FDFDFD" transform="translate(240.51171875,628.91015625)"/>
<path d="M0 0 C5.61855641 4.04400129 8.73024006 9.63387559 9.9375 16.39453125 C10.70564615 24.07599274 8.85615808 31.12880021 4.46484375 37.546875 C-0.37527205 42.95910851 -6.14082501 44.84571138 -13.234375 45.63671875 C-19.92716567 45.87018819 -25.07254659 44.47082893 -30.25 40.26953125 C-35.77821276 35.08415339 -38.63265735 29.34599965 -39.15625 21.75390625 C-38.87667803 14.71801173 -36.5124092 8.95194192 -31.67578125 3.86328125 C-23.08459041 -3.95823874 -10.43014941 -5.42597846 0 0 Z " fill="#FCFCFC" transform="translate(649.0625,630.60546875)"/>
<path d="M0 0 C5.28 0 10.56 0 16 0 C16 36.63 16 73.26 16 111 C10.72 111 5.44 111 0 111 C0 74.37 0 37.74 0 0 Z " fill="#1B1F22" transform="translate(324,579)"/>
<path d="M0 0 C5.61 0 11.22 0 17 0 C17 25.08 17 50.16 17 76 C11.39 76 5.78 76 0 76 C0 50.92 0 25.84 0 0 Z " fill="#14171B" transform="translate(475,614)"/>
<path d="M0 0 C5.61 0 11.22 0 17 0 C17 25.08 17 50.16 17 76 C11.39 76 5.78 76 0 76 C0 50.92 0 25.84 0 0 Z " fill="#191D20" transform="translate(288,614)"/>
<path d="M0 0 C5.61 0 11.22 0 17 0 C17 25.08 17 50.16 17 76 C11.39 76 5.78 76 0 76 C0 50.92 0 25.84 0 0 Z M3 3 C3 26.43 3 49.86 3 74 C6.63 74 10.26 74 14 74 C14 50.57 14 27.14 14 3 C10.37 3 6.74 3 3 3 Z " fill="#303233" transform="translate(288,614)"/>
<path d="M0 0 C5.28 0 10.56 0 16 0 C16 36.63 16 73.26 16 111 C10.72 111 5.44 111 0 111 C0 74.37 0 37.74 0 0 Z M1 2 C1 37.64 1 73.28 1 110 C5.29 110 9.58 110 14 110 C14 74.36 14 38.72 14 2 C9.71 2 5.42 2 1 2 Z " fill="#121314" transform="translate(324,579)"/>
<path d="M0 0 C3.13529459 2.23949613 4.5166576 3.85206181 6 7.375 C6 11.20702293 4.84995443 13.67008202 3 17 C0.29013532 19.27042717 -1.45183064 19.91835776 -4.9375 20.4375 C-8.8124426 19.88393677 -10.95425348 18.40826469 -14 16 C-15.7473737 12.50525261 -15.55225821 8.81321144 -15 5 C-11.4120834 -0.86026378 -6.34114594 -1.30154884 0 0 Z " fill="#181A1D" transform="translate(301,582)"/>
<path d="M0 0 C3.5426931 0.02820616 4.63090304 0.2380644 7.75 2.1875 C10.30577021 4.90300585 10.70147671 5.80785777 11.0625 9.5625 C10.69713599 13.94686813 9.48973233 15.92812477 6.75 19.3125 C3.60088521 20.88705739 1.22991184 20.66049118 -2.25 20.3125 C-5.44886977 18.41687347 -7.61160051 16.96622633 -8.984375 13.41015625 C-9.76902032 9.32215412 -9.42183388 7.62752878 -7.375 3.875 C-4.60209545 0.53120334 -4.26295111 0.13409946 0 0 Z " fill="#171A1D" transform="translate(482.25,581.6875)"/>
<path d="M0 0 C5.61 0 11.22 0 17 0 C17 24.75 17 49.5 17 75 C12.05 75 7.1 75 2 75 C2 74.67 2 74.34 2 74 C5.96 74 9.92 74 14 74 C14 50.57 14 27.14 14 3 C10.04 3 6.08 3 2 3 C1.34 2.67 0.68 2.34 0 2 C0 1.34 0 0.68 0 0 Z " fill="#36393C" transform="translate(475,614)"/>
<path d="M0 0 C5.61 0 11.22 0 17 0 C17 0.66 17 1.32 17 2 C16.34 2 15.68 2 15 2 C15 26.09 15 50.18 15 75 C10.38 75 5.76 75 1 75 C1 71.37 1 67.74 1 64 C1.33 64 1.66 64 2 64 C2 67.3 2 70.6 2 74 C5.96 74 9.92 74 14 74 C14 50.57 14 27.14 14 3 C10.04 3 6.08 3 2 3 C2 5.31 2 7.62 2 10 C1.34 10 0.68 10 0 10 C0 6.7 0 3.4 0 0 Z " fill="#232529" transform="translate(253,614)"/>
<path d="M0 0 C0.33 0 0.66 0 1 0 C1.19289723 4.45659116 0.62676302 7.90963041 -0.8125 12.125 C-1.14894531 13.13820313 -1.48539063 14.15140625 -1.83203125 15.1953125 C-2.94031228 17.85666961 -4.16122626 19.79768646 -6 22 C-5.505 17.545 -5.505 17.545 -5 13 C-8.15133488 14.83827868 -11.11964908 16.75972706 -14 19 C-14.66 18.67 -15.32 18.34 -16 18 C-14.89591797 17.05640625 -14.89591797 17.05640625 -13.76953125 16.09375 C-8.1349532 11.15139884 -3.67161769 6.60891184 0 0 Z " fill="#1ABDC9" transform="translate(603,434)"/>
<path d="M0 0 C0.66 0.33 1.32 0.66 2 1 C2.33 1.99 2.66 2.98 3 4 C5.01508358 4.73323796 5.01508358 4.73323796 7 5 C6.28972656 5.55429687 5.57945312 6.10859375 4.84765625 6.6796875 C3.92855469 7.40414063 3.00945312 8.12859375 2.0625 8.875 C1.14597656 9.59429687 0.22945313 10.31359375 -0.71484375 11.0546875 C-3.06009485 12.79420836 -3.06009485 12.79420836 -4 15 C-4.66 14.67 -5.32 14.34 -6 14 C-4.02 9.38 -2.04 4.76 0 0 Z " fill="#1CBEC9" transform="translate(404,321)"/>
<path d="M0 0 C5.61 0 11.22 0 17 0 C17 0.66 17 1.32 17 2 C12.38 2.33 7.76 2.66 3 3 C2.67 3.99 2.34 4.98 2 6 C1.34 4.02 0.68 2.04 0 0 Z " fill="#2E2F30" transform="translate(352,614)"/>
<path d="M0 0 C5.61 0 11.22 0 17 0 C16.67 0.99 16.34 1.98 16 3 C10.72 2.67 5.44 2.34 0 2 C0 1.34 0 0.68 0 0 Z " fill="#2F3032" transform="translate(475,614)"/>
<path d="M0 0 C1 2 1 2 1 6 C1.99 6 2.98 6 4 6 C1.69 8.31 -0.62 10.62 -3 13 C-4.39943663 10.20112673 -3.54753576 8.87861172 -2.625 5.9375 C-2.34914063 5.03902344 -2.07328125 4.14054687 -1.7890625 3.21484375 C-1 1 -1 1 0 0 Z " fill="#12B9C5" transform="translate(277,456)"/>
<path d="M0 0 C0.99 0.33 1.98 0.66 3 1 C3.66 4.3 4.32 7.6 5 11 C4.01 11.495 4.01 11.495 3 12 C2.49440092 10.56445975 1.9957251 9.1264798 1.5 7.6875 C1.2215625 6.88699219 0.943125 6.08648438 0.65625 5.26171875 C0 3 0 3 0 0 Z " fill="#111214" transform="translate(408,643)"/>
<path d="M0 0 C1 3 1 3 0 6 C-3.0625 7.1875 -3.0625 7.1875 -6 8 C-4.02 5.36 -2.04 2.72 0 0 Z " fill="#19BECA" transform="translate(723,310)"/>
<path d="M0 0 C0.80824219 0.10183594 1.61648437 0.20367188 2.44921875 0.30859375 C3.06410156 0.39238281 3.67898437 0.47617187 4.3125 0.5625 C4.3125 0.8925 4.3125 1.2225 4.3125 1.5625 C2.68925914 1.78412329 1.063779 1.98939803 -0.5625 2.1875 C-1.91988281 2.36152344 -1.91988281 2.36152344 -3.3046875 2.5390625 C-4.09101563 2.54679688 -4.87734375 2.55453125 -5.6875 2.5625 C-6.3475 1.9025 -7.0075 1.2425 -7.6875 0.5625 C-4.59271121 -0.46909626 -3.16118607 -0.41232862 0 0 Z M-7.6875 2.5625 C-5.6875 3.5625 -5.6875 3.5625 -5.6875 3.5625 Z " fill="#202225" transform="translate(219.6875,614.4375)"/>
<path d="M0 0 C1.2380014 3.57644848 0.74926071 6.33694766 0 10 C-0.99 10.33 -1.98 10.66 -3 11 C-2.69078116 9.54096742 -2.37751201 8.08279278 -2.0625 6.625 C-1.88847656 5.81289063 -1.71445312 5.00078125 -1.53515625 4.1640625 C-1 2 -1 2 0 0 Z " fill="#101113" transform="translate(443,626)"/>
<path d="M0 0 C2 3 2 3 1.625 6.1875 C1.41875 7.115625 1.2125 8.04375 1 9 C0.01 9 -0.98 9 -2 9 C-1.34 6.03 -0.68 3.06 0 0 Z " fill="#212224" transform="translate(390,641)"/>
</svg>
