<?xml version="1.0" encoding="UTF-8"?>
<svg version="1.1" xmlns="http://www.w3.org/2000/svg" width="512" height="512">
<path d="M0 0 C0.99037313 -0.00297112 1.98074626 -0.00594224 3.0011307 -0.0090034 C6.31168569 -0.01765795 9.62220438 -0.01919592 12.93276978 -0.02069092 C15.31013058 -0.02532152 17.68749065 -0.0303465 20.06484985 -0.03573608 C26.51991507 -0.04884186 32.97497336 -0.05533924 39.43004942 -0.05974674 C43.46804274 -0.06251624 47.5060337 -0.06675498 51.54402542 -0.07125092 C62.74417915 -0.08344119 73.94433098 -0.09373957 85.1444912 -0.09712601 C86.21860331 -0.09745536 86.21860331 -0.09745536 87.31441466 -0.09779136 C88.03212246 -0.09800964 88.74983026 -0.09822791 89.48928678 -0.09845281 C90.94342955 -0.09889626 92.39757232 -0.09934282 93.85171509 -0.09979248 C94.5730073 -0.10001391 95.29429952 -0.10023534 96.03744908 -0.10046348 C107.70409519 -0.10440476 119.37067859 -0.12183935 131.03730051 -0.145152 C143.04172842 -0.16894406 155.04612497 -0.18133149 167.05057681 -0.18249393 C173.77981312 -0.18340652 180.50895542 -0.18937726 187.23817062 -0.20731354 C193.57639404 -0.2238788 199.91446336 -0.22590885 206.25270081 -0.21717453 C208.56765279 -0.21640857 210.88261335 -0.220688 213.1975441 -0.23063278 C229.75906235 -0.29755565 245.18043174 0.92135837 261.07192993 5.89044189 C262.32151489 6.27667725 262.32151489 6.27667725 263.59634399 6.67071533 C297.76496297 17.5383975 326.97013882 40.81250023 346.00942993 71.14044189 C346.39808228 71.75371338 346.78673462 72.36698486 347.18716431 72.99884033 C354.60662458 84.86609224 359.35047799 97.40726288 363.25942993 110.76544189 C363.505802 111.5995459 363.75217407 112.4336499 364.00601196 113.29302979 C368.17567679 128.1145025 368.30261854 142.46264408 368.28408813 157.74493408 C368.28844129 160.12318074 368.29362644 162.50142599 368.29957581 164.87966919 C368.31291298 171.30960375 368.3135503 177.73947933 368.31101251 184.16942501 C368.30972397 188.19438714 368.31236124 192.21934049 368.31599998 196.24430084 C368.31659517 196.91481933 368.31719036 197.58533781 368.31780359 198.27617504 C368.31901549 199.63884566 368.32022962 201.00151629 368.32144596 202.36418691 C368.33229577 215.1130716 368.33017135 227.86192976 368.32406112 240.61081591 C368.31889593 252.23828594 368.33014146 263.86567209 368.34915934 275.49312553 C368.3685975 287.47062851 368.37678319 299.44809194 368.37303609 311.42561078 C368.37113286 318.13462978 368.37379481 324.84356691 368.38775063 331.55257416 C368.40039378 337.86626354 368.39832377 344.17978601 368.38533974 350.49347305 C368.38298838 352.79875115 368.38565635 355.10404124 368.39396286 357.40930557 C368.44918409 373.93800679 367.21864192 389.34301361 362.25942993 405.20294189 C362.0019397 406.03599854 361.74444946 406.86905518 361.47915649 407.72735596 C350.61147432 441.89597493 327.3373716 471.10115078 297.00942993 490.14044189 C296.39615845 490.52909424 295.78288696 490.91774658 295.15103149 491.31817627 C283.28377959 498.73763654 270.74260894 503.48148995 257.38442993 507.39044189 C256.55032593 507.63681396 255.71622192 507.88318604 254.85684204 508.13702393 C240.03536932 512.30668875 225.68722775 512.4336305 210.40493774 512.4151001 C208.02669109 512.41945325 205.64844583 512.42463841 203.27020264 512.43058777 C196.84026808 512.44392495 190.4103925 512.44456226 183.98044682 512.44202447 C179.95548469 512.44073593 175.93053133 512.44337321 171.90557098 512.44701195 C171.2350525 512.44760714 170.56453402 512.44820233 169.87369679 512.44881555 C168.51102616 512.45002745 167.14835554 512.45124158 165.78568491 512.45245793 C153.03680023 512.46330773 140.28794207 512.46118331 127.53905591 512.45507308 C115.91158589 512.44990789 104.28419974 512.46115343 92.6567463 512.4801713 C80.67924331 512.49960947 68.70177989 512.50779516 56.72426105 512.50404805 C50.01524205 512.50214482 43.30630491 512.50480678 36.59729767 512.51876259 C30.28360828 512.53140575 23.97008581 512.52933573 17.65639877 512.5163517 C15.35112067 512.51400035 13.04583059 512.51666832 10.74056625 512.52497482 C-5.87091174 512.5804726 -21.30387555 511.31269551 -37.24057007 506.32794189 C-38.07918579 506.07004883 -38.91780151 505.81215576 -39.78182983 505.54644775 C-46.81818825 503.31863945 -53.43099132 500.5312658 -59.99057007 497.14044189 C-61.04244507 496.61837158 -62.09432007 496.09630127 -63.17807007 495.55841064 C-75.745058 489.1087666 -86.81347106 480.91232716 -96.99057007 471.14044189 C-97.48379761 470.68363037 -97.97702515 470.22681885 -98.48519897 469.75616455 C-107.7720613 461.14917711 -115.12419991 451.76325572 -121.99057007 441.14044189 C-122.37583862 440.55182373 -122.76110718 439.96320557 -123.15805054 439.35675049 C-136.4088549 418.79970813 -144.15408348 392.57730747 -144.13101196 368.14987183 C-144.13398309 367.1594987 -144.13695421 366.16912556 -144.14001536 365.14874113 C-144.14866992 361.83818613 -144.15020789 358.52766745 -144.15170288 355.21710205 C-144.15633348 352.83974124 -144.16135847 350.46238118 -144.16674805 348.08502197 C-144.17985382 341.62995676 -144.1863512 335.17489846 -144.19075871 328.71982241 C-144.19352821 324.68182908 -144.19776694 320.64383813 -144.20226288 316.60584641 C-144.21445316 305.40569268 -144.22475153 294.20554084 -144.22813797 283.00538063 C-144.22835754 282.28930589 -144.2285771 281.57323115 -144.22880332 280.83545717 C-144.2290216 280.11774937 -144.22923988 279.40004157 -144.22946477 278.66058505 C-144.22990822 277.20644228 -144.23035478 275.75229951 -144.23080444 274.29815674 C-144.23102587 273.57686452 -144.2312473 272.85557231 -144.23147544 272.11242275 C-144.23541672 260.44577664 -144.25285131 248.77919324 -144.27616397 237.11257131 C-144.29995602 225.10814341 -144.31234345 213.10374686 -144.31350589 201.09929502 C-144.31441848 194.3700587 -144.32038922 187.64091641 -144.3383255 180.9117012 C-144.35489076 174.57347778 -144.35692081 168.23540847 -144.34818649 161.89717102 C-144.34742053 159.58221904 -144.35169996 157.26725848 -144.36164474 154.95232773 C-144.42881088 138.33060716 -143.19246425 122.89349064 -138.17807007 106.95294189 C-137.91800171 106.11400391 -137.65793335 105.27506592 -137.38998413 104.41070557 C-126.49627675 70.07713023 -103.37617103 41.33695633 -72.99057007 22.14044189 C-72.40920288 21.76242432 -71.82783569 21.38440674 -71.22885132 20.99493408 C-50.66607413 7.72978586 -24.44137137 -0.02308468 0 0 Z " fill="#2D7CDB" transform="translate(143.99057006835938,-0.14044189453125)"/>
<path d="M0 0 C11.6132167 -0.2319141 23.22588091 -0.40948884 34.84094334 -0.51812172 C40.2347205 -0.57026727 45.62691132 -0.64096382 51.01977539 -0.75439453 C56.22650103 -0.86322207 61.43170337 -0.92287602 66.63947868 -0.94877243 C68.62398197 -0.96722061 70.6084037 -1.00324943 72.59225655 -1.05730057 C88.13476646 -1.4638407 88.13476646 -1.4638407 92.70152283 2.12016296 C94.52873757 4.69018013 95.76316873 7.10813254 97 10 C98.03508318 11.65335782 99.09335949 13.2926339 100.18359375 14.91015625 C101.27043341 16.62621012 102.35498343 18.34371577 103.4375 20.0625 C104.65589619 21.98720318 105.87466148 23.91167276 107.09375 25.8359375 C107.72667969 26.83592773 108.35960937 27.83591797 109.01171875 28.86621094 C112.47026546 34.31732901 115.95458274 39.7519333 119.4375 45.1875 C120.72799119 47.20174181 122.01836014 49.21606194 123.30859375 51.23046875 C123.91815918 52.17970215 124.52772461 53.12893555 125.15576172 54.10693359 C126.43454873 56.11297359 127.70098198 58.12692164 128.95751953 60.14697266 C129.58126465 61.14647949 130.20500977 62.14598633 130.84765625 63.17578125 C131.40590088 64.07852783 131.96414551 64.98127441 132.53930664 65.91137695 C133.83364433 68.11543158 133.83364433 68.11543158 136 69 C136.27529541 68.26297852 136.55059082 67.52595703 136.83422852 66.76660156 C137.91829952 64.19389106 139.11896634 62.05852906 140.65234375 59.734375 C141.17586426 58.93555908 141.69938477 58.13674316 142.23876953 57.3137207 C142.79935059 56.46769287 143.35993164 55.62166504 143.9375 54.75 C145.12129158 52.94674444 146.30488215 51.1433569 147.48828125 49.33984375 C148.0807666 48.43991699 148.67325195 47.53999023 149.28369141 46.61279297 C151.74993757 42.85834539 154.18862479 39.08637099 156.625 35.3125 C157.51820213 33.93227417 158.41143126 32.55206581 159.3046875 31.171875 C161.16862982 28.28937751 163.02708694 25.4034185 164.8828125 22.515625 C165.60283447 21.39740356 165.60283447 21.39740356 166.33740234 20.2565918 C167.23779971 18.85806585 168.13672141 17.45858796 169.03369141 16.05786133 C169.86032852 14.77508796 170.70747693 13.50524716 171.57679749 12.25100708 C173.07333048 10.01749343 173.07333048 10.01749343 174.08674622 7.44667053 C175.7226065 4.17942258 177.12195141 2.28620059 180 0 C186.43131185 -1.88769734 193.53378191 -1.15895399 200.15234375 -0.9765625 C202.1377048 -0.95789761 204.12311209 -0.94366943 206.10853577 -0.9336853 C211.31955445 -0.8956086 216.52775958 -0.79747769 221.7376709 -0.68664551 C227.05975278 -0.58411427 232.38229204 -0.53862704 237.70507812 -0.48828125 C248.13795106 -0.38122102 258.56874106 -0.21068425 269 0 C267.64943192 3.4701616 266.18458181 6.50071436 264.1640625 9.6328125 C263.60074219 10.51130859 263.03742188 11.38980469 262.45703125 12.29492188 C261.85246094 13.22884766 261.24789063 14.16277344 260.625 15.125 C259.34603446 17.11698227 258.06739392 19.10917323 256.7890625 21.1015625 C256.1487207 22.09704102 255.50837891 23.09251953 254.84863281 24.11816406 C252.21006894 28.23142448 249.60355481 32.36452661 247 36.5 C242.09202952 44.28341351 237.15454461 52.04777822 232.2109375 59.80859375 C228.46109303 65.69766667 224.72436771 71.59478596 221 77.5 C216.09643493 85.27490398 211.16482746 93.0316783 206.22631836 100.78442383 C201.82431773 107.69766972 197.4293499 114.61541332 193.07543945 121.55908203 C190.98448966 124.88957691 188.88361614 128.20266436 186.6640625 131.44921875 C186.01179687 132.41472656 185.35953125 133.38023437 184.6875 134.375 C184.13449219 135.16648438 183.58148438 135.95796875 183.01171875 136.7734375 C181.6943109 139.67275207 182.16326923 140.95882713 183 144 C184.12557352 146.23854345 184.12557352 146.23854345 185.59765625 148.421875 C186.14341309 149.26919189 186.68916992 150.11650879 187.25146484 150.98950195 C187.84910645 151.90046631 188.44674805 152.81143066 189.0625 153.75 C190.34769837 155.73825403 191.63285296 157.72653635 192.91796875 159.71484375 C193.92609619 161.26534424 193.92609619 161.26534424 194.95458984 162.84716797 C198.28796153 167.98528708 201.57842253 173.15073231 204.875 178.3125 C206.21973936 180.41296066 207.56479404 182.51321947 208.91015625 184.61328125 C211.66986139 188.92196936 214.42758021 193.23191842 217.18359375 197.54296875 C224.32749097 208.71628278 231.48765937 219.87825023 238.70556641 231.00390625 C240.51067609 233.78749297 242.31276018 236.57303297 244.11474609 239.35864258 C245.03285231 240.77787232 245.95114437 242.19698186 246.86962891 243.6159668 C249.20083653 247.2175703 251.52992643 250.8205167 253.85546875 254.42578125 C254.7993475 255.88810583 255.74335629 257.35034648 256.6875 258.8125 C257.1410083 259.51503906 257.5945166 260.21757812 258.06176758 260.94140625 C261.52532024 266.29491275 265.05848831 271.59728937 268.63671875 276.875 C270 279 270 279 270 280 C252.75154004 281.76180698 252.75154004 281.76180698 247.3828125 278.32421875 C245.6980478 275.97677993 244.33465338 273.60058406 243.05566406 271.01171875 C241.34376012 267.74944113 239.2930565 264.7126469 237.28588867 261.6262207 C235.4516986 258.80059009 233.65029666 255.95624544 231.85546875 253.10546875 C227.86779707 246.78235103 223.844014 240.48273161 219.8125 234.1875 C219.13396973 233.12732666 218.45543945 232.06715332 217.75634766 230.97485352 C213.97897706 225.07666871 210.18731006 219.18815176 206.375 213.3125 C201.72391829 206.14353292 197.13248017 198.93747676 192.54907227 191.72509766 C182.19787683 175.43906701 171.7971125 159.18488534 161.29443359 142.99609375 C158.56499613 138.78713851 155.84162179 134.5742553 153.1171875 130.36206055 C150.86576443 126.88168257 148.61271214 123.40238769 146.35546875 119.92578125 C141.27873952 112.10149179 136.24668527 104.25067145 131.25 96.375 C126.34818604 88.64986545 121.38577925 80.96737668 116.375 73.3125 C112.37618643 67.20165499 108.38007243 61.09113502 104.50561523 54.90039062 C103.54182331 53.3807593 102.55535902 51.87527782 101.54711914 50.38476562 C98.50299848 45.80766597 96.33906317 41.42265628 94.421875 36.26171875 C89.89552643 25.32037001 89.89552643 25.32037001 81 18 C65.48136435 14.07650469 47.74685788 16.48846287 32 18 C32.30278366 18.46686722 32.60556732 18.93373444 32.91752625 19.41474915 C43.74686631 36.11773861 43.74686631 36.11773861 48.8125 44.1875 C53.18885557 51.13750044 57.58679442 58.07334113 62 65 C68.84890091 75.7527838 75.65846394 86.53005426 82.45898438 97.31347656 C88.28744612 106.55419528 94.13084011 115.7850656 100 125 C106.84871863 135.7529006 113.65846334 146.53005331 120.45898438 157.31347656 C135.3088562 180.8571652 150.18279444 204.39344687 165.36791992 227.72265625 C170.36145541 235.3945006 175.20240256 243.15069639 179.99560547 250.94921875 C184.55223228 258.3379015 189.26096491 265.62090328 194.03857422 272.8684082 C194.8180542 274.05503052 194.8180542 274.05503052 195.61328125 275.265625 C196.07516846 275.96461914 196.53705566 276.66361328 197.01293945 277.38378906 C198 279 198 279 198 280 C194.81447919 280.29307693 191.63242245 280.46871449 188.4375 280.625 C187.09461914 280.75068359 187.09461914 280.75068359 185.72460938 280.87890625 C182.867895 280.9835478 180.72688729 280.87738216 178 280 C174.93909196 277.0882092 173.05764745 273.66211709 171 270 C169.81364365 268.11967522 168.62082511 266.24341352 167.421875 264.37109375 C166.19557856 262.39467796 164.97168731 260.41676815 163.75 258.4375 C159.26359572 251.21329 154.75851128 244.00591795 150.125 236.875 C149.68986084 236.20452637 149.25472168 235.53405273 148.80639648 234.84326172 C147.09617796 232.21190671 145.38224535 229.58306012 143.66162109 226.95849609 C142.37501328 224.99546796 141.09355182 223.02915649 139.8125 221.0625 C139.42529785 220.47645996 139.0380957 219.89041992 138.63916016 219.28662109 C136 215.22609339 136 215.22609339 136 213 C133.38911381 215.39803417 131.59456167 217.99985554 129.69921875 220.98828125 C129.05879639 221.99375 128.41837402 222.99921875 127.75854492 224.03515625 C127.0751001 225.11667969 126.39165527 226.19820312 125.6875 227.3125 C124.97082598 228.44033745 124.25378011 229.5679387 123.53637695 230.6953125 C122.06769284 233.00467723 120.60118901 235.31540221 119.13671875 237.62744141 C116.56629617 241.68455035 113.98962924 245.73765857 111.41137695 249.78979492 C110.3176523 251.50930171 109.22492193 253.22944165 108.13354492 254.95043945 C107.09694969 256.58299173 106.04057237 258.20315572 104.96455383 259.80999756 C103.4483757 262.27193668 102.21588332 264.60671524 100.98999023 267.20664978 C95.25453845 278.57386583 95.25453845 278.57386583 89.82482338 280.95315933 C83.55488002 282.39659989 77.17936735 281.95216537 70.80078125 281.66015625 C68.75394224 281.62840141 66.70697295 281.60422498 64.65995789 281.58726501 C59.30192864 281.52270704 53.95188314 281.35610308 48.59698486 281.16729736 C43.12109415 280.99257928 37.6438971 280.91558209 32.16601562 280.83007812 C21.44052412 280.64839341 10.72092865 280.35874401 0 280 C1.09436139 278.11009644 2.19049596 276.22121961 3.28735352 274.33276367 C4.20267601 272.75479256 4.20267601 272.75479256 5.13648987 271.14494324 C7.92587002 266.43746024 10.92025487 261.87597085 13.9375 257.3125 C19.38804673 249.01339536 24.78405876 240.68257408 30.125 232.3125 C34.88619064 224.85480701 39.66719777 217.41149894 44.5 210 C50.11142504 201.39347684 55.65493073 192.74450254 61.18603516 184.08618164 C64.61619026 178.71841654 68.05499267 173.35690847 71.52587891 168.01538086 C72.83688109 165.99620974 74.14171351 163.97317503 75.4453125 161.94921875 C77.25175673 159.14536426 79.08573082 156.36133708 80.9296875 153.58203125 C81.87034289 152.13837985 82.81046555 150.69438116 83.75 149.25 C84.19327637 148.59378662 84.63655273 147.93757324 85.09326172 147.26147461 C86.79353182 144.61864099 87.99103515 142.64746116 88.03515625 139.4609375 C86.64119745 136.14699771 84.74529047 133.30040579 82.6875 130.375 C81.76741142 129.03139711 80.84954088 127.68627332 79.93359375 126.33984375 C79.45132324 125.6319873 78.96905273 124.92413086 78.47216797 124.19482422 C75.98781845 120.49095985 73.61976005 116.71532696 71.25 112.9375 C70.23185452 111.31765573 69.21362343 109.69786527 68.1953125 108.078125 C67.67485352 107.24990234 67.15439453 106.42167969 66.61816406 105.56835938 C63.80203467 101.09858249 60.96326716 96.64324034 58.125 92.1875 C57.24545654 90.80643066 57.24545654 90.80643066 56.34814453 89.39746094 C55.1566486 87.52664616 53.96507946 85.65587801 52.7734375 83.78515625 C51.03529282 81.05542684 49.29861894 78.32476815 47.5625 75.59375 C40.72100438 64.83295181 33.8584622 54.08587562 26.98120117 43.34790039 C20.84565529 33.76535159 14.72935988 24.17057777 8.63232422 14.56347656 C7.44095512 12.69249607 6.24387554 10.82514826 5.04345703 8.95996094 C4.08028564 7.45997559 4.08028564 7.45997559 3.09765625 5.9296875 C2.50605713 5.01171387 1.91445801 4.09374023 1.30493164 3.14794922 C0 1 0 1 0 0 Z " fill="#FCFDFE" transform="translate(121,116)"/>
<path d="M0 0 C0.88602402 0.00222061 1.77204803 0.00444122 2.68492126 0.00672913 C3.68588333 0.00680466 4.6868454 0.00688019 5.71813965 0.00695801 C6.80666733 0.01211929 7.89519501 0.01728058 9.01670837 0.02259827 C10.67928932 0.02472069 10.67928932 0.02472069 12.37545776 0.02688599 C15.93168281 0.03250418 19.48784596 0.04505977 23.04405212 0.05775452 C25.44834809 0.06276717 27.85264504 0.06733048 30.25694275 0.07142639 C36.16516716 0.08247952 42.07335522 0.09923535 47.98155212 0.12025452 C43.6255548 7.69071128 39.14026119 15.14741868 34.41905212 22.49525452 C33.19113608 24.41579453 31.96327303 26.33636843 30.73545837 28.25697327 C29.80370789 29.71176086 29.80370789 29.71176086 28.85313416 31.19593811 C25.84596576 35.89458969 22.8511417 40.60107978 19.85655212 45.30775452 C19.27445984 46.22218323 18.69236755 47.13661194 18.09263611 48.07875061 C13.89041969 54.68298994 9.70716213 61.29900883 5.53111267 67.91981506 C-0.06119226 76.78135299 -5.69172216 85.61854128 -11.32167053 94.45619202 C-14.2220309 99.00996646 -17.12018745 103.56514338 -20.01844788 108.12025452 C-22.64931496 105.6109468 -24.77835106 103.19544078 -26.68251038 100.10072327 C-27.16051086 99.33252258 -27.63851135 98.5643219 -28.1309967 97.77284241 C-28.63010559 96.9593634 -29.12921448 96.1458844 -29.64344788 95.30775452 C-32.69975678 90.37012928 -35.75155534 85.44780309 -39.06141663 80.67494202 C-39.52918518 79.9979425 -39.99695374 79.32094299 -40.47889709 78.62342834 C-41.36216726 77.35562146 -42.25535534 76.09465148 -43.15956116 74.84169006 C-46.07476369 70.63741581 -46.07476369 70.63741581 -45.81459045 68.2481842 C-44.82474531 65.60252633 -43.48399895 63.44234991 -41.94813538 61.06947327 C-41.30642395 60.07238342 -40.66471252 59.07529358 -40.0035553 58.04798889 C-39.30721985 56.97871155 -38.6108844 55.9094342 -37.89344788 54.80775452 C-37.16945579 53.68759649 -36.44591051 52.56714957 -35.72279358 51.44642639 C-33.4958144 47.99927681 -31.25785444 44.55933871 -29.01844788 41.12025452 C-28.34249573 40.08078674 -27.66654358 39.04131897 -26.97010803 37.97035217 C-23.82693312 33.13872717 -20.67761975 28.31117898 -17.52235413 23.48744202 C-13.74011881 17.70211155 -9.98879842 11.8969649 -6.2535553 6.08119202 C-2.42820701 0.14466703 -2.42820701 0.14466703 0 0 Z " fill="#317FDE" transform="translate(312.01844787597656,132.87974548339844)"/>
<path d="M0 0 C4.14499097 3.65387829 6.75346485 8.09464645 9.625 12.75 C10.14481445 13.58313721 10.66462891 14.41627441 11.20019531 15.2746582 C12.27340115 16.99567407 13.34435172 18.71809827 14.41308594 20.44189453 C16.40341567 23.65030606 18.40741713 26.85004949 20.41162109 30.04980469 C22.27806098 33.0309334 24.13921733 36.01533753 26 39 C20.04694855 49.60806913 13.45182088 59.80111486 6.89355469 70.04052734 C3.77361052 74.91674746 0.66871134 79.80252526 -2.4375 84.6875 C-5.73549502 89.87054289 -5.73549502 89.87054289 -7.29048157 92.24377441 C-9.04077225 94.96948806 -9.04077225 94.96948806 -10.42507935 97.86782837 C-14.41697254 105.420536 -14.41697254 105.420536 -18.63154602 106.96327209 C-21.82778188 107.27402532 -24.8515722 107.23954577 -28.05859375 107.07421875 C-29.77502831 107.05087212 -29.77502831 107.05087212 -31.52613831 107.02705383 C-35.16653621 106.96566833 -38.79937082 106.82773334 -42.4375 106.6875 C-44.91069939 106.63230261 -47.38401605 106.5821161 -49.85742188 106.53710938 C-55.90751061 106.41609673 -61.95321523 106.23226847 -68 106 C-63.77282777 98.63707175 -59.42024882 91.40231898 -54.75 84.3125 C-53.60532131 82.56259644 -52.46079229 80.81259496 -51.31640625 79.0625 C-50.75453613 78.20527344 -50.19266602 77.34804688 -49.61376953 76.46484375 C-47.29377132 72.9213185 -44.98833296 69.36849079 -42.6875 65.8125 C-42.25324707 65.1417041 -41.81899414 64.4709082 -41.37158203 63.77978516 C-37.26690662 57.43006771 -33.19685846 51.05829095 -29.125 44.6875 C-19.54732446 29.70630682 -9.92575649 14.75369242 0 0 Z " fill="#2C7AD9" transform="translate(220,273)"/>
</svg>
